<svg xmlns="http://www.w3.org/2000/svg" viewBox="0 0 102.52 103.46"><defs><style>.cls-1{fill:#99762c;}</style></defs><title>Elemen 11</title><g id="Layer_2" data-name="Layer 2"><g id="Layer_1-2" data-name="Layer 1"><path class="cls-1" d="M17.91,12.21a21.58,21.58,0,0,0-5.17-6,22.66,22.66,0,0,0-4-2.62,16.05,16.05,0,0,0-2.39-1L6,2.41l-.59-.16C5,2.16,4.63,2.08,4.25,2c-.76-.1-1.49-.15-2.28-.23v0c-.07.78-.15,1.48-.19,2.24a7.69,7.69,0,0,0,0,1.17c0,.2,0,.4.07.6l.05.3,0,.19a13.65,13.65,0,0,0,.8,2.56A18,18,0,0,0,5.28,13a21.51,21.51,0,0,0,6,5.21,16.82,16.82,0,0,0,4.92,1.93,13,13,0,0,0,1.9.26,18.15,18.15,0,0,1-5.87-3.55,25.17,25.17,0,0,1-4.7-5.48A18.61,18.61,0,0,1,5.71,7.71a11.8,11.8,0,0,1-.53-2l0-.1h0l.2.05a16.26,16.26,0,0,1,2,.76,25.16,25.16,0,0,1,3.7,2,25.19,25.19,0,0,1,5.46,4.73A12.09,12.09,0,0,1,19,17.4a7.05,7.05,0,0,1,.34,1.83,6.46,6.46,0,0,0,.18-1.92A11.59,11.59,0,0,0,17.91,12.21Z"/><path class="cls-1" d="M20.79,20.29a1.25,1.25,0,0,0,0,2.5A1.25,1.25,0,0,0,20.79,20.29Z"/><path class="cls-1" d="M12,14.63a1.75,1.75,0,0,0,0-3.5A1.75,1.75,0,0,0,12,14.63Z"/><path class="cls-1" d="M30.59,28.87a2.5,2.5,0,0,0-.05-.28l-.09-.38c-.07-.24-.15-.48-.24-.71a4.8,4.8,0,0,0-.74-1.26,2.93,2.93,0,0,0-1-.83,2.55,2.55,0,0,0-1.76-.14,5,5,0,0,0-.57.21s.22,0,.57.13a2.35,2.35,0,0,1,1.15.69A3.32,3.32,0,0,1,28.45,28a5,5,0,0,1,.06.57l0,.31c0,.07,0,.05,0,.06h0a.05.05,0,0,1-.05,0s0,0,0,.05l-.22-.06-.3-.09-.56-.18a3.31,3.31,0,0,1-1.55-1,3.42,3.42,0,0,1-.58-1.29,5.71,5.71,0,0,1-.1-.57,2.79,2.79,0,0,0-.23.56,3,3,0,0,0-.08,1.74,3.39,3.39,0,0,0,.59,1.19,4.71,4.71,0,0,0,1.1,1,5.88,5.88,0,0,0,.65.39l.34.16A3.87,3.87,0,0,0,28,31c.86.32,1.8.63,2.76.95l.07,0c0-1,0-1.88-.15-2.8Z"/><path class="cls-1" d="M30,21l-.22-.1a2.85,2.85,0,0,0-.31-.12c-.2-.07-.41-.14-.61-.19a4,4,0,0,0-1.24-.1,2.57,2.57,0,0,0-1.1.32,2.11,2.11,0,0,0-1,1.17,1.8,1.8,0,0,0-.13.49s.12-.13.36-.33a2.08,2.08,0,0,1,1.06-.47,2.86,2.86,0,0,1,1.5.4l.43.24.22.14,0,0h0a0,0,0,0,1,0,0s0,0,0,0l-.15.13-.21.17-.4.29a2.85,2.85,0,0,1-1.45.6,2.89,2.89,0,0,1-1.19-.24l-.45-.2a2.52,2.52,0,0,0,.27.43,2.84,2.84,0,0,0,1.19.92,2.76,2.76,0,0,0,1.11.17A3.85,3.85,0,0,0,29,24.54a6.21,6.21,0,0,0,.59-.26l.28-.16.35-.21c.64-.45,1.33-.95,2-1.46l0,0a23.43,23.43,0,0,0-2-1.27Z"/><path class="cls-1" d="M23.53,26.49a2.64,2.64,0,0,0-.42-.29s.08.17.2.46a2.88,2.88,0,0,1,.21,1.19,2.74,2.74,0,0,1-.58,1.42,4.73,4.73,0,0,1-.28.39l-.16.21-.12.14s0,0,0,0a0,0,0,0,1,0,0h0s0,0,0,0l-.13-.23-.23-.43a3.05,3.05,0,0,1-.37-1.51,2.08,2.08,0,0,1,.45-1,3.9,3.9,0,0,1,.32-.35,2,2,0,0,0-.47.11,2,2,0,0,0-1.12.93,2.54,2.54,0,0,0-.32,1.08,4.39,4.39,0,0,0,.1,1.24c0,.21.1.41.17.62l.11.3a1.78,1.78,0,0,0,.1.23l.13.27c.35.7.77,1.35,1.2,2.05l0-.05c.49-.67,1-1.34,1.4-2a2.92,2.92,0,0,0,.21-.34l.15-.27a6,6,0,0,0,.26-.58,4,4,0,0,0,.27-1.22,2.77,2.77,0,0,0-1-2.32Z"/><path class="cls-1" d="M38.34,8.77l-.27-.26-.22-.21a15.88,15.88,0,0,0-2.5-1.86,12.42,12.42,0,0,0-5-1.78,9,9,0,0,0-3.47.26,8.44,8.44,0,0,0-1.16.42s.44,0,1.2.08a10.19,10.19,0,0,1,3,.8,14.42,14.42,0,0,1,3.76,2.44,23.81,23.81,0,0,1,1.9,1.87l.05.06h0v0a0,0,0,0,1,0,0h0v0s0,0,0,0a3.69,3.69,0,0,1-.52.05,12.91,12.91,0,0,1-2.59-.1,8.23,8.23,0,0,1-4-1.76,10.88,10.88,0,0,1-2.13-2.44c-.43-.68-.64-1.09-.65-1.09s0,.46.17,1.28A9.22,9.22,0,0,0,27.32,10a8.67,8.67,0,0,0,4.53,3.36,11.26,11.26,0,0,0,3.31.57c.32,0,.49,0,1.05,0s1-.09,1.54-.17,1-.19,1.46-.31L40.54,13l.9-.29c-.55-.79-1-1.52-1.63-2.28-.3-.38-.62-.75-1-1.12Z"/><path class="cls-1" d="M30.51,9.41A1.25,1.25,0,0,0,30,7,1.25,1.25,0,0,0,30.51,9.41Z"/><path class="cls-1" d="M43.74,5a1.25,1.25,0,0,0,0,2.49A1.25,1.25,0,0,0,43.74,5Z"/><path class="cls-1" d="M47.78,15.26a1.75,1.75,0,0,0,0-3.5A1.75,1.75,0,0,0,47.78,15.26Z"/><path class="cls-1" d="M54.9,10.71a17.78,17.78,0,0,0-.43-3A14.32,14.32,0,0,0,52.2,3.38a7.57,7.57,0,0,0-1.33-1.15A7,7,0,0,0,47.15,1a7.88,7.88,0,0,0-3.26.5A5.44,5.44,0,0,0,41.69,3a5,5,0,0,0-1.12,3.35,5.67,5.67,0,0,0,.17,1.18,5.85,5.85,0,0,1,0-1.21,4.71,4.71,0,0,1,1.43-3A5.9,5.9,0,0,1,47.22,2.1a6,6,0,0,1,3,1.44A6.14,6.14,0,0,1,50.6,4a9.82,9.82,0,0,1,2,6.38A5.56,5.56,0,0,1,51,14.78C49.55,16.1,47.22,19.24,38.81,19c-.11-.17-.22-.34-.34-.5l-.32-.4-.27-.28.68,0a7.26,7.26,0,0,0,2.89-.95,6.07,6.07,0,0,0,2.06-1.82,3.4,3.4,0,0,0,.64-2.2,2.22,2.22,0,0,0-.21-.81,3.21,3.21,0,0,1-.09.74,2.91,2.91,0,0,1-1,1.17c-1.09,1-3.08,1.71-6.07,1.77l-3.34-.25A3.65,3.65,0,0,0,33,15.4c-1.29-.15-3.38-.46-3.37-.47A30,30,0,0,1,32.8,16.7c.73.51,1.64,1.2,2.58,2a17.51,17.51,0,0,1-4.45-1.58c-.88-.46-2-.75-2.88-1.27a23,23,0,0,0,9.18,4.64,4.17,4.17,0,0,1,.36.47,12.89,12.89,0,0,1,.71,1.16A6.12,6.12,0,0,1,39,24.35a2.62,2.62,0,0,1-.31,1.56,3.87,3.87,0,0,1-.34.53,1.6,1.6,0,0,0,.53-.18A2.33,2.33,0,0,0,40,24.61a7.07,7.07,0,0,0-.25-3.46,1.72,1.72,0,0,1-.07-.21q.69.09,1.38.12C52.6,21.65,54.89,12.48,54.9,10.71Z"/><path class="cls-1" d="M65.9,5.34a28.55,28.55,0,0,0,10.62.81c.45-.05.88-.1,1.32-.17a8.41,8.41,0,0,1-1,.59,11.94,11.94,0,0,1-3.65,1,26.27,26.27,0,0,1-10.32-1c-1-.28-1.91-.64-3-1s-2.19-.76-3.38-1.09a18.49,18.49,0,0,0-3.37-.64,15.32,15.32,0,0,1,1.53,3.09c.44.06.88.13,1.32.22,1.12.22,2.22.5,3.29.8s2.2.61,3.26.8a26.08,26.08,0,0,0,11,0,12.59,12.59,0,0,0,3.71-1.54,7.89,7.89,0,0,0,1.54-1.29c2.91-.52,5.58-1.37,8-2a38.18,38.18,0,0,1,4.36-.94A19.75,19.75,0,0,1,95,2.67a21.42,21.42,0,0,1,5.56,1c1.28.41,2,.72,2,.71s-.64-.4-1.88-1a20.06,20.06,0,0,0-5.57-1.66A19.86,19.86,0,0,0,91,1.62a31.46,31.46,0,0,0-4.59.68c-2,.42-4.1,1-6.28,1.42l0-.08-.12,0,0,.07c-1.21.24-2.43.45-3.68.59a31.7,31.7,0,0,1-10.07-.5C63.18,3.19,60.43,2.28,58,1.75a24.69,24.69,0,0,0-5.75-.68,18.77,18.77,0,0,0-2.11.14,24.78,24.78,0,0,1,7.62,1.43C60.07,3.37,62.74,4.49,65.9,5.34Z"/><path class="cls-1" d="M67.5,10.41a4.8,4.8,0,0,1-1.94.47,11.18,11.18,0,0,1-2.75-.26c-2.08-.39-4.52-1.29-7.58-2.06h-.08a8.87,8.87,0,0,1,.21,1v0a.28.28,0,0,1,0,.09,9,9,0,0,1,.06,1v0c2.77.38,5.26.89,7.35,1a11.38,11.38,0,0,0,3-.2,5,5,0,0,0,2-.89,3.65,3.65,0,0,0,.89-1,2.68,2.68,0,0,0,.22-.38,3.21,3.21,0,0,1-.29.34A3.8,3.8,0,0,1,67.5,10.41Z"/><path class="cls-1" d="M46.79,10a6.19,6.19,0,0,0-1,1.64,2.44,2.44,0,0,1,3.94-.4,2.88,2.88,0,0,1,.83-.38,6.53,6.53,0,0,1,1.37-.24,6.86,6.86,0,0,0-.23-2.68C50.35,8.24,47.61,9,46.79,10Z"/><path class="cls-1" d="M49.84,4.34a2.88,2.88,0,0,0-1.2,1.4,3,3,0,0,0-.23.93,2.08,2.08,0,0,1-.63,1.52l3.86-1.1A12.52,12.52,0,0,0,50,4.23,1.18,1.18,0,0,0,49.84,4.34Z"/><path class="cls-1" d="M60.21,19s0,0-.05,0l-.27,0-.5-.07a2.77,2.77,0,0,1-1.46-.59,1.91,1.91,0,0,1-.58-1,3.56,3.56,0,0,1-.1-.49,2.26,2.26,0,0,0-.2.48,2.28,2.28,0,0,0,.08,1.55,2.62,2.62,0,0,0,.69.93,4.08,4.08,0,0,0,1.09.68,6.5,6.5,0,0,0,.62.22,1.68,1.68,0,0,0,.32.09l.25,0,.29.05a24.12,24.12,0,0,0,2.43.2V21c-.26-.85-.51-1.68-.77-2.44-.08-.23-.11-.27-.15-.38l-.14-.31a4.59,4.59,0,0,0-.32-.57,4.15,4.15,0,0,0-.83-1,3,3,0,0,0-1-.55,2.79,2.79,0,0,0-1.53,0,2.69,2.69,0,0,0-.49.19,3.2,3.2,0,0,1,.5.11,3,3,0,0,1,1.11.53A3,3,0,0,1,60,18c0,.15.09.31.14.49l.07.26,0,.19s0,0,0,0a0,0,0,0,1,0,.05Z"/><path class="cls-1" d="M54.34,16.47c.18-.2.3-.31.3-.31a3.26,3.26,0,0,0-.44.1,1.94,1.94,0,0,0-1,.82,2.26,2.26,0,0,0-.3,1,3.65,3.65,0,0,0,.06,1.09,5.44,5.44,0,0,0,.15.54l.09.27.09.2.11.23a20.5,20.5,0,0,0,1.06,1.79l0,0c.46-.6.92-1.18,1.32-1.74.12-.17.13-.21.2-.29s.09-.17.13-.25a3.33,3.33,0,0,0,.25-.5,3.74,3.74,0,0,0,.27-1.07,2.36,2.36,0,0,0-.12-1,2.51,2.51,0,0,0-.77-1.06,3.15,3.15,0,0,0-.37-.24s.07.14.16.4a2.4,2.4,0,0,1,.18,1,2.44,2.44,0,0,1-.55,1.25l-.27.35-.15.17c0,.06-.13.16-.12.13a0,0,0,0,1,0,0s0,0,0,0h0l0,0-.11-.2c-.07-.14-.14-.26-.2-.39a2.47,2.47,0,0,1-.31-1.31A1.8,1.8,0,0,1,54.34,16.47Z"/><path class="cls-1" d="M64.1,13.61a19.64,19.64,0,0,0-1.76-1.1l-.23-.12-.2-.09-.26-.11a5.52,5.52,0,0,0-.54-.16A3.64,3.64,0,0,0,60,11.92a2.22,2.22,0,0,0-1,.24,1.79,1.79,0,0,0-.83,1c-.09.27-.1.41-.11.41s.11-.11.32-.27a1.82,1.82,0,0,1,.91-.37,2.68,2.68,0,0,1,1.31.36l.37.21.2.12,0,0h0a0,0,0,0,1,0,0s0,0,0,0l-.13.1L61,13.9a3.53,3.53,0,0,1-.34.24,2.48,2.48,0,0,1-1.26.48,2.67,2.67,0,0,1-1-.22l-.4-.18a2.84,2.84,0,0,0,.24.37,2.44,2.44,0,0,0,1,.78,2.63,2.63,0,0,0,1,.17,3.69,3.69,0,0,0,1.07-.21,5.44,5.44,0,0,0,.5-.22A.9.9,0,0,0,62,15a2.82,2.82,0,0,0,.31-.17c.55-.36,1.14-.77,1.75-1.18Z"/><path class="cls-1" d="M56.22,15.47a1.25,1.25,0,0,0,0-2.5A1.25,1.25,0,0,0,56.22,15.47Z"/><path class="cls-1" d="M11.91,1.62a12.86,12.86,0,0,1,4.94,1.57,13.29,13.29,0,0,1,2.23,1.6,15.73,15.73,0,0,1,1.61,1.65c.26.31.51.63.75,1a17.28,17.28,0,0,1,1.64,2.83,17,17,0,0,1,1,2.91,18.83,18.83,0,0,1,.61,5.28A11,11,0,0,1,24,22a7.22,7.22,0,0,1-.59,1.23,6.26,6.26,0,0,0,.91-1.06,10,10,0,0,0,1.51-3.59A16.23,16.23,0,0,0,26,12.77a15.47,15.47,0,0,0-.87-3.4A15,15,0,0,0,23.35,6l-.19-.24A14.17,14.17,0,0,0,21.59,4a13.11,13.11,0,0,0-3.87-2.6,12.2,12.2,0,0,0-5.8-1,14.11,14.11,0,0,0-3.77.82,13.66,13.66,0,0,0-1.29.53s.49-.09,1.37-.18A17.22,17.22,0,0,1,11.91,1.62Z"/><path class="cls-1" d="M23.8,5.27c1.05-.38,2.09-.84,3.12-1.33.51-.25,1-.5,1.5-.76.27-.13.47-.24.68-.33s.44-.19.66-.28A9.84,9.84,0,0,1,32.43,2a8.62,8.62,0,0,1,4.6.84,5.84,5.84,0,0,1,2.39,2.22A6.11,6.11,0,0,1,40,6.21a5,5,0,0,0-.19-1.3,6,6,0,0,0-2.08-3.06A9,9,0,0,0,32.4,0,10.15,10.15,0,0,0,29,.44l-.85.3-.8.37-1.49.72c-1,.48-2,.94-2.9,1.34l-1,.39a14.91,14.91,0,0,1,1.57,1.78Z"/><path class="cls-1" d="M18.5,5l-.59.15a6.2,6.2,0,0,1-1.18.2,7.11,7.11,0,0,1-2.19-.15,5.9,5.9,0,0,1-2.87-1.54,5.47,5.47,0,0,1-.79-1,4.57,4.57,0,0,0,.49,1.21,6.09,6.09,0,0,0,2.79,2.43,7.58,7.58,0,0,0,2.56.65,8.54,8.54,0,0,0,1.51,0c.5-.06.94-.13,1.45-.21l.42-.08A15.56,15.56,0,0,0,18.5,5Z"/><path class="cls-1" d="M8.93,39.12l-.27-.25-.21-.22A16.64,16.64,0,0,1,6.53,36.2a12.55,12.55,0,0,1-1.88-4.92,9,9,0,0,1,.18-3.48,6.18,6.18,0,0,1,.4-1.17,8.88,8.88,0,0,0,.09,1.21,10.67,10.67,0,0,0,.87,3,14.49,14.49,0,0,0,2.53,3.71,22.54,22.54,0,0,0,1.91,1.85l0,.05h.06v0h0s0-.32,0-.52a12.06,12.06,0,0,0-.16-2.59,8.2,8.2,0,0,0-1.84-4,10.68,10.68,0,0,0-2.49-2.07c-.68-.42-1.1-.63-1.09-.63a10.78,10.78,0,0,1,1.27.14,9.06,9.06,0,0,1,3.38,1.3,8.76,8.76,0,0,1,3.46,4.46A11.93,11.93,0,0,1,14,35.84c0,.31,0,.49,0,1s-.07,1-.14,1.55-.17,1-.28,1.46l-.38,1.34-.26.92c-.8-.54-1.55-1-2.32-1.58-.38-.29-.77-.61-1.14-.94A6.51,6.51,0,0,1,8.93,39.12Z"/><path class="cls-1" d="M9.39,31.29a1.25,1.25,0,0,1-2.45-.47A1.25,1.25,0,0,1,9.39,31.29Z"/><path class="cls-1" d="M5.26,44.63a1.25,1.25,0,0,1,2.49-.06A1.25,1.25,0,0,1,5.26,44.63Z"/><path class="cls-1" d="M15.61,48.43a1.74,1.74,0,0,1-3.48.08A1.74,1.74,0,0,1,15.61,48.43Z"/><path class="cls-1" d="M11.24,55.66a18.82,18.82,0,0,1-3-.37,13.91,13.91,0,0,1-4.42-2.17,8.51,8.51,0,0,1-1.18-1.3,7.34,7.34,0,0,1-1.34-3.7,8.07,8.07,0,0,1,.43-3.26,5.46,5.46,0,0,1,1.52-2.25A4.94,4.94,0,0,1,6.6,41.42a5.47,5.47,0,0,1,1.18.14,6.07,6.07,0,0,0-1.2,0,4.73,4.73,0,0,0-3,1.5,6.32,6.32,0,0,0,.4,8,4.58,4.58,0,0,0,.46.42,9.74,9.74,0,0,0,6.42,1.84,5.56,5.56,0,0,0,4.36-1.7c1.29-1.45,4.37-3.86,4-12.27l-.5-.32c-.14-.1-.27-.21-.4-.32L18,38.47c0,.22,0,.45,0,.68a7.35,7.35,0,0,1-.89,2.91,6.12,6.12,0,0,1-1.78,2.1,3.41,3.41,0,0,1-2.18.7,2.63,2.63,0,0,1-.81-.2,2.31,2.31,0,0,0,.74-.11c.42-.12.74-.53,1.15-1,1-1.12,1.63-3.12,1.62-6.11l-.32-3.34c0-.16-.06-.31-.08-.46-.18-1.29-.54-3.37-.54-3.37a28.59,28.59,0,0,0,1.83,3.13,31.67,31.67,0,0,0,2.07,2.53,17.37,17.37,0,0,0-1.68-4.41c-.47-.87-.79-2-1.33-2.86a23.15,23.15,0,0,1,4.83,9.09l.48.35a8.77,8.77,0,0,0,1.18.68,6.08,6.08,0,0,0,2.23.69,2.76,2.76,0,0,0,1.56-.35,3.59,3.59,0,0,0,.52-.36,1.62,1.62,0,0,1-.17.54,2.33,2.33,0,0,1-1.63,1.14,7,7,0,0,1-3.45-.18l-.22-.07c.07.47.12.93.15,1.39C22.11,53.11,13,55.61,11.24,55.66Z"/><path class="cls-1" d="M6.12,66.79a28.57,28.57,0,0,1,1,10.62c0,.44-.08.88-.14,1.31a7.81,7.81,0,0,0,.56-1A12.21,12.21,0,0,0,8.53,74,26.6,26.6,0,0,0,7.26,63.7c-.3-1-.68-1.89-1.1-3S5.34,58.56,5,57.37A17.32,17.32,0,0,1,4.28,54a14.92,14.92,0,0,0,3.11,1.46c.08.44.16.89.25,1.32.25,1.12.55,2.22.87,3.28s.67,2.18.89,3.24a26.27,26.27,0,0,1,.2,11,12.6,12.6,0,0,1-1.46,3.75,8.79,8.79,0,0,1-1.25,1.57c-.46,2.92-1.24,5.62-1.83,8.07a35.65,35.65,0,0,0-.84,4.38A20.39,20.39,0,0,0,4.1,96a21.63,21.63,0,0,0,1.14,5.53c.44,1.28.76,2,.76,2a17.62,17.62,0,0,1-1-1.86A19.19,19.19,0,0,1,3,92a32.56,32.56,0,0,1,.57-4.61c.38-2,.88-4.12,1.28-6.31l-.07,0s0-.08,0-.12l.07,0c.21-1.21.4-2.45.5-3.71a31.41,31.41,0,0,0-.72-10.06c-.71-3.06-1.68-5.8-2.26-8.18a24.4,24.4,0,0,1-.81-5.75,17.54,17.54,0,0,1,.1-2.11,24.64,24.64,0,0,0,1.59,7.59C4,61,5.21,63.64,6.12,66.79Z"/><path class="cls-1" d="M11.21,68.28a4.76,4.76,0,0,0,.44-2,11.45,11.45,0,0,0-.32-2.75c-.44-2.07-1.4-4.5-2.23-7.54l0-.08a9.38,9.38,0,0,0,1.06.18h.11a9,9,0,0,0,1.05.05h0c.44,2.77,1,5.24,1.13,7.34a11.56,11.56,0,0,1-.14,3,5.33,5.33,0,0,1-.84,2,3.82,3.82,0,0,1-.94.91c-.24.16-.38.23-.37.23s.12-.1.32-.31A3.51,3.51,0,0,0,11.21,68.28Z"/><path class="cls-1" d="M10.3,47.56a6.2,6.2,0,0,1,1.62-1,2.26,2.26,0,0,0-1.17,2.13,2.32,2.32,0,0,0,.86,1.82,3.3,3.3,0,0,0-.36.83,6.12,6.12,0,0,0-.2,1.38,6.86,6.86,0,0,1-2.7-.17C8.67,51.16,9.34,48.4,10.3,47.56Z"/><path class="cls-1" d="M4.76,50.75A2.87,2.87,0,0,1,6.13,49.5a3.35,3.35,0,0,1,.93-.24,2.11,2.11,0,0,0,1.5-.67l-1,3.89a11.64,11.64,0,0,1-2.89-1.55A1,1,0,0,1,4.76,50.75Z"/><path class="cls-1" d="M19.65,60.79s0,0,0,0l0-.27c0-.17-.05-.34-.08-.49a2.75,2.75,0,0,0-.63-1.46,2,2,0,0,0-1-.56,3.31,3.31,0,0,0-.5-.08,1.72,1.72,0,0,1,.48-.21,2.22,2.22,0,0,1,1.55,0,2.62,2.62,0,0,1,.95.68,4.09,4.09,0,0,1,.69,1.07,5.53,5.53,0,0,1,.24.61c0,.11.07.21.1.32a1.79,1.79,0,0,1,.05.25l.06.29c.14.79.18,1.59.25,2.43h-.06c-.85-.24-1.69-.48-2.45-.72l-.39-.14-.31-.14a4.56,4.56,0,0,1-.58-.3,4.38,4.38,0,0,1-1-.81,2.68,2.68,0,0,1-.58-2.54,2.68,2.68,0,0,1,.18-.5,4.53,4.53,0,0,0,.12.5,2.8,2.8,0,0,0,.56,1.1,2.88,2.88,0,0,0,1.39.8l.49.13.27.07.19,0a0,0,0,0,0,0,0,0,0,0,0,0,0,0Z"/><path class="cls-1" d="M17,55a4.13,4.13,0,0,0-.3.31,1.61,1.61,0,0,1,.09-.44,1.9,1.9,0,0,1,.8-1.06,2.24,2.24,0,0,1,.93-.33,3.34,3.34,0,0,1,1.09,0c.18,0,.36.08.55.14l.26.09.2.08.24.11a20.8,20.8,0,0,1,1.82,1l-.05,0c-.58.47-1.16.94-1.7,1.35a1.85,1.85,0,0,1-.3.2l-.24.15-.49.26a3.5,3.5,0,0,1-1.06.29,2.26,2.26,0,0,1-1-.1,2.17,2.17,0,0,1-1.06-.75,2,2,0,0,1-.26-.36,3.67,3.67,0,0,0,.4.16,2.49,2.49,0,0,0,1,.15,2.44,2.44,0,0,0,1.24-.58c.11-.08.22-.18.34-.28l.18-.15c.05-.05.15-.13.12-.12a0,0,0,0,0,0,0,0,0,0,0,0,0,0h0l0,0-.2-.11-.39-.19a2.37,2.37,0,0,0-1.32-.28A1.82,1.82,0,0,0,17,55Z"/><path class="cls-1" d="M14.33,64.81c-.4-.6-.8-1.15-1.13-1.75l-.13-.22-.09-.2a2,2,0,0,1-.11-.26,5.52,5.52,0,0,1-.18-.53,3.67,3.67,0,0,1-.13-1.08,2.33,2.33,0,0,1,.22-1,1.78,1.78,0,0,1,.94-.86,2,2,0,0,1,.41-.12,2.49,2.49,0,0,0-.26.33,1.58,1.58,0,0,0-.35.92,2.53,2.53,0,0,0,.38,1.29l.22.38.12.19s0,0,0,0h0a0,0,0,0,0,0,0,0,0,0,0,0,0,0s.07-.07.1-.13l.13-.18a3,3,0,0,0,.23-.35,2.42,2.42,0,0,0,.45-1.27A2.6,2.6,0,0,0,15,59c-.11-.25-.19-.39-.19-.39a2.1,2.1,0,0,1,.37.23,2.44,2.44,0,0,1,.81,1,2.27,2.27,0,0,1,.18,1A3.64,3.64,0,0,1,16,61.92a5.38,5.38,0,0,1-.2.51l-.12.25a3,3,0,0,1-.17.3c-.34.57-.74,1.17-1.14,1.78Z"/><path class="cls-1" d="M16,56.88a1.25,1.25,0,0,1-2.49,0A1.25,1.25,0,0,1,16,56.88Z"/><path class="cls-1" d="M1.19,12.83A12.79,12.79,0,0,0,4.53,20a14,14,0,0,0,1.68,1.56,12,12,0,0,0,1,.74,17.55,17.55,0,0,0,2.86,1.58,17.14,17.14,0,0,0,2.93.93,18.5,18.5,0,0,0,5.29.49,10.7,10.7,0,0,0,3.54-.75A8,8,0,0,0,23,23.88a6.59,6.59,0,0,1-1.05.94,9.73,9.73,0,0,1-3.54,1.59,16,16,0,0,1-5.81.3,14.72,14.72,0,0,1-6.77-2.52L5.62,24A14,14,0,0,1,3.8,22.47a13.18,13.18,0,0,1-2.68-3.8A12.38,12.38,0,0,1,0,12.88a13.75,13.75,0,0,1,.73-3.8c.29-.85.5-1.3.5-1.3s-.07.49-.15,1.38A17.4,17.4,0,0,0,1.19,12.83Z"/><path class="cls-1" d="M5.1,24.66a32.21,32.21,0,0,1-1.25,3.15q-.36.78-.72,1.53c-.13.26-.23.46-.33.68s-.18.44-.26.66A10.32,10.32,0,0,0,2,33.37,8.59,8.59,0,0,0,3,38,5.9,5.9,0,0,0,5.24,40.3a6,6,0,0,0,1.17.5,5.13,5.13,0,0,1-1.31-.16,5.93,5.93,0,0,1-3.09-2,9.06,9.06,0,0,1-2-5.24A10.34,10.34,0,0,1,.4,30a8.63,8.63,0,0,1,.28-.86c.11-.28.24-.58.35-.81l.68-1.51c.46-1,.9-2,1.28-2.94.14-.34.25-.67.37-1a12.82,12.82,0,0,0,1.82,1.53Z"/><path class="cls-1" d="M4.68,19.36l.15-.59A7.11,7.11,0,0,0,5,17.58a7,7,0,0,0-.2-2.18,6,6,0,0,0-1.6-2.85,5.46,5.46,0,0,0-1-.77,4.79,4.79,0,0,1,1.23.47A6.1,6.1,0,0,1,5.9,15a7.69,7.69,0,0,1,.7,2.55,7.5,7.5,0,0,1,0,1.5c-.06.51-.11,1-.18,1.47,0,.13,0,.28-.07.42A16.83,16.83,0,0,1,4.68,19.36Z"/></g></g></svg>