<?xml version="1.0" encoding="UTF-8"?><svg id="Layer_2" xmlns="http://www.w3.org/2000/svg" viewBox="0 0 150.92 151.92"><defs><style>.cls-1{fill:#4b3205;}</style></defs><g id="Corner_Frames"><path class="cls-1" d="M130.46,70.44c-2.85-4.08-5.13-9.08-2.72-13.98,2.96-6.01,11.8-10.72,16.74-3.82,2.24,3.13,3.37,7.94,1.13,11.45-2.62,4.12-8.24,5.53-10.93,.43-.93-1.35-1.17-2.8-.71-4.36,.24-.9,.69-1.44,1.3-1.7-.64,1.52,.08,3.5,1.8,4.68,1.91,1.31,4.33,1.11,5.39-.44,1.06-1.55,.37-3.87-1.54-5.18-3.22-2.56-11.54-1.3-11.31,4.06,.3,6.85,8.17,9.73,13.93,7.68,6.23-2.22,9.37-9.82,6.03-15.7-3.14-5.53-10.37-7.41-16.28-5.43-6.97,2.34-13.12,10-9.89,17.62,3.79,8.93,11.99,12.99,17.99,20.04,3.28,3.86,5.58,8.46,4.49,13.64-1.34,6.33-9.11,15.33-16.16,8.19-3.43-3.47-4.88-9.13-2.71-13.76,4.24-9.03,10.8-2.35,11.16,2.76-.81-.45-1.85-.63-2.93-.42-2.09,.42-3.5,2.13-3.16,3.82,.31,1.56,2.02,2.55,3.93,2.36,.16,0,.31-.02,.46-.05,6.04-1.23,8.21-9.72,2.16-12.89-4.36-2.28-11.56-2.33-14.53,2.39-3.4,5.38-2.96,14.16,3.01,17.7,5.04,2.99,12.27,2.73,17.02-.9,5.53-4.23,8.09-12.5,4.59-18.88-4.4-8.02-13.11-11.95-18.26-19.33Zm4.17,62.42c-3.14,1.55-7.86,7.33-3.06,10.14,2.53,1.48,5.43,1.62,7.83-.18,.03-.02,.02-.04,.04-.06,1.42-1.19,1.81-3.09,.85-4.26-.96-1.18-2.93-1.17-4.39,.01-1.11,.9-1.6,2.22-1.36,3.33-.77-.46-1.24-1.22-1.32-2.36-.04-1.81,.6-3.33,1.93-4.55,3.24-2.41,6.95-.71,8.41,2.22,1.33,2.65,1.75,5.93,.26,8.65-4.9,8.95-17.47,2.61-16.76-6.32,1.05-13.15,17.98-16.52,20.52-28.96,.16-.78-3.29-.87-3.52,.26-2.64,12.96-25.54,18.35-19.47,34,2.98,7.68,16.52,9.93,21.49,2.98,5.58-7.79-2.07-19.53-11.46-14.89Zm9.12-90.64c8.23-7.1,8.28-21.91,2.13-30.21C139.47,3.35,128.66-1.05,117.95,.45c-12.18,1.7-20.11,9.95-29.82,16.65-6.61,4.56-13.78,8.33-21.65,10.22-7.86,1.89-18.7,.88-22.75-7.42-1.72-3.52-2.48-8.22-.52-11.86,.89-1.66,2.02-3.81,3.64-4.86,4.02-2.59,7.98-1.16,10.26,2.17,1.99,2.91,3.57,7.48,.75,10.62-4.15,4.61-9.04,.38-9.1-3.29,.66,.28,1.46,.38,2.28,.21,1.84-.38,3.09-1.9,2.79-3.39-.3-1.49-2.05-2.4-3.89-2.03-.44,.09-.84,.25-1.2,.45-2.4,.9-4.84,2.85-4.11,5.76,1.06,4.18,4.21,6.45,8.56,6.21,3.3-.18,7.99-1.03,9.3-4.64,3.38-9.31-5.88-17.46-15.05-14.73-10.33,3.08-11.91,15.61-5.36,23.01-7.96-2.33-11.12-10.97-17.37-15.76-4.03-3.09-8.22-5.04-13.36-4.7C1.66,3.7-4.98,18.61,4.83,23.98c3.48,1.91,7.18,2.31,11.02,1.36,3.83-.95,7.53-5.45,5.97-9.55-1.44-3.78-4.95-6.49-9.14-6.06-3.25,.33-6.37,3.56-3.98,6.63,1.07,1.44,2.89,1.92,4.06,1.05,1.17-.87,1.26-2.74,.19-4.19-.22-.3-.48-.54-.75-.75,.87-1.38,2.53-2.01,4.27,0,1.33,1.53,2.52,3.6,2.05,5.73-1.08,4.83-7.32,8.75-11.74,4.63C1.44,17.86,3.23,8.42,9.95,5.48c8.92-3.89,14.93,6.25,19.85,11.7,3.46,3.83,7.2,6.86,12.33,7.9,.49,.1,1.03,.04,1.46-.08,7.74,6.77,19.99,5.63,28.96,2.52,4.3-1.49,8.24-3.37,11.99-5.49-3.13,6.44-4.76,15.79,.09,21.05,4.79,5.19,12.4,4.85,17.82,.84,6.35-4.69,4.42-15.85-3.38-17.25-5.8-1.04-10.7,3.29-9.28,9.11,.48,2.27,2.36,3.8,4.2,3.41,1.84-.39,2.94-2.54,2.46-4.81-.33-1.59-1.36-2.8-2.58-3.26,.66-2.18,2.44-3.68,5.15-1.5,1.45,1.17,2.66,2.71,2.94,4.62,.41,2.81,.14,6.6-2.02,8.79-2.64,2.66-7.22,2.35-9.87,.1-6.91-5.9-4.71-17.53-.19-24.36,4.98-3.24,9.76-6.87,14.75-10.55,7.63-5.63,17.49-8.54,26.59-4.39,6.29,2.88,12.13,8.4,13.92,15.3,1.65,6.38,1.12,13.99-2.76,19.54-4.91,7-17.21,10.3-23.53,2.97-4.15-4.81-5.39-13.2-1.99-18.87,2.48-4.14,9.66-7.08,12.87-1.87,.85,1.38,1.28,2.78,1.39,4.19-1.68-.07-3.43,1.15-4.24,3.13-.99,2.41-.2,5.01,1.75,5.8,1.95,.8,4.33-.51,5.32-2.92,1-2.1,1.86-4.59,1.31-6.95-1.75-7.53-12.74-10.2-18.81-5.73-7.62,5.61-7.75,20.61,.72,25.69,8.03,4.8,19.41,4.29,26.59-1.91Z"/></g></svg>