<?xml version="1.0" encoding="UTF-8"?><svg id="Layer_2" xmlns="http://www.w3.org/2000/svg" viewBox="0 0 183.83 183.25"><defs><style>.cls-1{fill:#4b3205;}</style></defs><g id="Corner_Frames"><g><g><path class="cls-1" d="M135.41,51.11c1.49-.23,2.88-.53,4.15-.87,2.71-.74,4.69-1.75,5.94-3,2.13-2.13,3.4-4.06,3.77-5.79,.07-.3,.12-.6,.15-.91,.04-.02,.07-.03,.08-.03,1.25-.37,2.84-.22,4.8,.45,3.67,1.22,5.71,1.89,6.14,2l.38-.38c.07-.39,0-.69-.21-.9-.07-.07-.24-.17-.52-.31-.27-.13-.5-.29-.69-.48l-.35-.35c-1.05-1.06-1.86-1.77-2.41-2.15-.85-.53-1.74-.79-2.66-.79-1.71,.05-3.17,.48-4.39,1.28-.06,.04-.12,.08-.18,.12-.04-.43-.1-.85-.2-1.28-.09-.35-.19-.67-.3-.97,.33-.45,.58-1.04,.74-1.75,.08-.35,.1-.65,.1-.91,.08,.02,.17,.04,.25,.05,.7,.06,1.29-.14,1.78-.62,.44-.45,.66-.96,.66-1.53s-.22-1.09-.66-1.53c-.46-.46-1.24-.76-2.31-.9-1.08-.14-1.82,0-2.22,.41-.28,.28-.36,.75-.22,1.4,.13,.59,.43,1.12,.87,1.6-.02,0-.04,0-.06,0-.71,.12-1.26,.35-1.67,.68-.64-.37-1.33-.64-2.09-.82,1.06-1.88,1.26-4.04,.57-6.49-.11-.39-.62-1.57-1.52-3.52-.48-1.08-.5-1.85-.03-2.31,.13-.13,.51-.17,1.12-.08,.61,.07,.99,.03,1.16-.13,.53-.53,.43-1.16-.31-1.89-.34-.35-.8-.56-1.34-.62-.55-.07-.99,.06-1.31,.38-.3,.3-.47,.8-.52,1.52-.04,.72-.17,1.18-.38,1.39-.16,.16-.57,.09-1.25-.21-.9-.44-1.84-.64-2.86-.59-2.56,.07-4.77,1.03-6.63,2.9-.51,.5-.59,.93-.25,1.27,.44,.44,.99,.33,1.66-.34,.05-.05,.11-.14,.19-.29,.08-.15,.16-.26,.23-.33,.85-.85,2.03-1.41,3.52-1.66,1.68-.25,3.43-.04,5.25,.62,.32,1.84,.66,3.67,1,5.49,.28,1.53,.37,2.56,.28,3.11-.07,.49-.21,1.01-.41,1.56-.23,0-.45-.01-.69,0-2.55,.09-4.73,1.04-6.53,2.85-.72,.71-1.39,1.8-2.05,3.25-.74,1.69-1.24,3.47-1.51,5.36-.05,.36-.16,1.31-.31,2.85-.08,.77-.19,1.22-.32,1.36-.26,.26-1.5,.16-3.72-.31-3.52-.75-6.51-2.36-8.99-4.85-1.06-1.05-1.7-2.1-1.93-3.14-.19-.92-.04-1.63,.46-2.13,.12-.12,.33-.28,.65-.51,.31-.22,.55-.41,.71-.57,.55-.56,.43-1.33-.37-2.33-.07-.08-.18-.21-.29-.4,.54-.16,1.18-.07,1.93,.26,.62,.31,1.01,.37,1.18,.2,.21-.21,.29-.55,.22-1.02-.07-.47-.27-1.03-.59-1.66-.35-.19-.83-.34-1.44-.46-.54-.07-.87-.19-1.01-.32-.09-.1-.12-.23-.07-.39,.05-.16,0-.31-.11-.42-.2-.21-.55-.28-1.03-.2-.48,.07-.86,.24-1.13,.52-.17,.17-.53,.99-1.08,2.44-.54,1.45-.92,2.28-1.11,2.46-.15,.15-.42,.23-.79,.21-.38-.01-.66-.11-.85-.3-.15-.16-.3-.53-.45-1.13-.14-.61-.31-1.01-.51-1.21-1.15-1.15-2.47-.98-3.95,.49-1.57,1.58-2.1,2.63-1.55,3.17,.39,.39,1.12,.56,2.2,.51,1.09-.05,1.75,.04,1.97,.27,.12,.12,.67,1.07,1.68,2.86,.99,1.79,2.01,3.2,3.05,4.24,.9,.9,2.29,1.85,4.15,2.82,2.17,1.14,4.38,1.97,6.61,2.52,1.01,.24,2.39,.5,4.12,.77,1.14,.17,1.78,.35,1.93,.5,.08,.07,.14,.54,.2,1.4,.13,1.44,.25,2.64,.35,3.58,.46,3.77,1.87,6.83,4.21,9.17,1.1,1.09,2.5,2.17,4.2,3.22,1.7,1.04,2.66,1.67,2.87,1.89,.98,.98,1.46,1.88,1.44,2.71-.03,.7-.08,1.36-.12,2.01-.05,.64,.03,1.07,.24,1.28,.41,.41,1.01,.2,1.82-.6,.46-.46,.71-1.02,.75-1.68,.03-.53-.07-1.36-.35-2.48,1.83-.47,3.03-1.01,3.61-1.58,.47-.48,.91-1.18,1.27-2.1,.36-.92,.54-1.78,.51-2.57-.04-1.12-.69-2.3-1.96-3.58-.31-.31-.93-.43-1.88-.37-1.78,.13-2.9,.42-3.35,.87-.46,.46-.45,.94,.04,1.41,.2,.21,.69,.35,1.42,.42,.75,.07,1.18,.17,1.32,.3,.22,.23,.38,.67,.46,1.33,.09,.79,.02,1.58-.23,2.36,0,.04,0,.07-.03,.09-.05,.02-.13-.02-.23-.12-.21-.21-.4-.62-.58-1.22-.15-.6-.32-.99-.49-1.17-.31-.31-.87-.34-1.7-.09-1.24,.34-2.07,.53-2.52,.55-1.41,.03-3.24-1.05-5.45-3.26-1.5-1.5-2.51-3.65-3.06-6.47-.22-1.23-.3-2.36-.25-3.37,.04-.89,.16-1.43,.38-1.64,.08-.08,.67-.2,1.79-.34Zm2.97-14.28c.67-.67,1.45-1,2.34-.97,.9,.02,1.66,.36,2.29,.99,.14,.14,.24,.29,.36,.43,.03,.39,.25,.8,.67,1.22,.03,.03,.06,.05,.08,.07,.55,1.63-.16,3.45-2.17,5.46-2.1,2.09-4.69,3.77-7.79,5.01-.17-.06-.32-.16-.46-.29-.13-.13-.24-.3-.32-.49-.4-3.9,1.25-7.72,4.99-11.45Zm27.11,2.68c-.25-.25-.56-.39-.91-.4-.36,0-.65,.1-.88,.33-.14,.13-.24,.33-.31,.58,.28,.64,.25,1.53-.1,2.66,.02,.07,.09,.16,.21,.28,.1,.09,.19,.16,.28,.2,.59,0,1.13-.23,1.59-.69,1.04-1.03,1.08-2.02,.14-2.96Zm-4.04,4.45c.46,2.11,.4,3.99-.17,5.63-.18,.55-.85,1.79-2,3.73l.31,.31c.33,0,.58-.09,.76-.28,.94-.95,1.66-2.35,2.14-4.21,.55-2.12,.48-3.83-.24-5.15-.16-.11-.42-.12-.79-.03Z"/><path class="cls-1" d="M90.56,68.75c-.09-.65,.04-1.16,.4-1.51,.34-.33,.89-.53,1.69-.58,.79-.05,1.29-.17,1.49-.38,.16-.16,.04-.66-.35-1.5-.49-1.15-.65-2.42-.5-3.8,.31-2.62,1.39-4.85,3.24-6.7,.54-.54,1-.61,1.38-.23,.49,.49,.38,1.08-.31,1.77-.13,.13-.36,.28-.7,.46-.97,.98-1.58,2.28-1.84,3.93-.28,1.87-.08,3.85,.61,5.92,2.13,.38,4.26,.77,6.39,1.16,1.99,.31,3.59,.26,4.77-.16,.56-.21,1.39-.56,2.46-1.08,.62-.31,.99-.39,1.11-.27,.1,.1,.16,.3,.15,.57,0,.29-.04,.46-.12,.54-.15,.15-.46,.31-.92,.46l-.07,.08c-2.88,2.87-6.43,3.5-10.66,1.88-.97-.46-1.95-.92-2.96-1.38-1.01-.46-1.76-.44-2.28,.07-.15,.16-.19,.58-.09,1.25,.09,.68,.04,1.11-.14,1.29-.23,.23-.56,.33-.98,.29-.42-.04-.77-.2-1.05-.48-.41-.41-.66-.94-.75-1.6Zm17.1,4.29c.25-1.1,.57-1.85,.96-2.23,.03-.02,.48-.37,1.35-1.04l.35-.34c.51-.51,.94-.86,1.26-1.03,.62-.31,1.3-.09,2.04,.65,.49,.49,.73,1.04,.71,1.68,0,.63-.27,1.19-.79,1.71-.26,.25-.54,.58-.85,.96-.31,.38-.5,.61-.57,.69-.48,.49-1.27,.85-2.36,1.1-1.09,.24-1.79,.2-2.09-.1-.26-.26-.26-.94,0-2.04Zm9.17,13.9c-.22-.42-.61-.91-1.18-1.47l-.85-.85c-1-1-1.65-1.96-1.96-2.89-.69-2.02-.4-4.03,.87-6.02,1.26-1.98,2.04-3.17,2.32-3.55,.15-.16,.41-.13,.76,.08,.05,.51-.06,1.06-.35,1.65l-.61,1.31c-.42,1.33-.26,3.1,.46,5.3,1.41,4.13,2.17,6.4,2.27,6.81l-.42,.42c-.56,0-.94-.09-1.12-.26,.08,.07,0-.1-.21-.53Zm2.86,1.49c2.92,.51,5.47,.29,7.66-.66,.1-.05,.46-.33,1.06-.83,.6-.5,1.17-.82,1.71-.94l.34,.35c.01,.35-.1,.64-.3,.84-.7,.7-2.16,1.43-4.38,2.23-2.39,.84-4.41,.82-6.08-.08-.07-.23-.07-.54,0-.92Zm-5.4,3.52c-.01-.42,.11-.76,.37-1.02,.15-.16,.37-.28,.66-.35,.61,.31,1.14,.41,1.59,.29,.45-.11,.89-.23,1.33-.37l.53,.54c0,.67-.25,1.25-.73,1.73-.51,.51-1.08,.79-1.71,.83-.63,.04-1.15-.15-1.56-.56-.31-.31-.46-.68-.48-1.1Z"/><path class="cls-1" d="M114.91,44.68c.28,.28,.45,.63,.48,1.05,.04,.43-.06,.75-.29,.98-.18,.18-.61,.23-1.29,.14-.68-.09-1.09-.06-1.25,.09-.52,.52-.54,1.27-.07,2.28,.46,1,.92,1.98,1.38,2.96,1.61,4.23,.99,7.79-1.88,10.66l-.08,.08c-.15,.46-.31,.77-.46,.92-.08,.08-.26,.12-.54,.12-.28,0-.47-.05-.58-.16-.12-.13-.04-.5,.27-1.11,.52-1.07,.87-1.9,1.08-2.46,.41-1.18,.47-2.77,.16-4.77-.39-2.13-.77-4.25-1.16-6.39-2.07-.69-4.05-.89-5.92-.61-1.64,.26-2.95,.86-3.92,1.84-.18,.33-.33,.57-.46,.69-.69,.69-1.29,.79-1.77,.31-.38-.38-.31-.84,.23-1.38,1.85-1.85,4.08-2.93,6.7-3.24,1.38-.14,2.65,.02,3.8,.5,.85,.39,1.35,.51,1.5,.35,.2-.2,.34-.7,.38-1.5,.05-.8,.24-1.35,.58-1.69,.35-.36,.86-.5,1.52-.41,.65,.09,1.19,.35,1.59,.75Zm4.73,16.35c.3,.3,.34,1,.1,2.09-.25,1.09-.61,1.88-1.1,2.37-.07,.08-.31,.26-.69,.57-.39,.31-.71,.6-.96,.85-.52,.51-1.08,.78-1.71,.79-.64,.02-1.19-.22-1.68-.71-.74-.74-.96-1.43-.65-2.04,.17-.33,.52-.75,1.03-1.27l.35-.35c.67-.86,1.02-1.32,1.04-1.34,.39-.38,1.13-.71,2.23-.96,1.11-.26,1.78-.25,2.04,0Zm12.39,9.37c.18,.18,.26,.56,.26,1.12l-.42,.42c-.41-.1-2.68-.86-6.81-2.27-2.2-.72-3.97-.88-5.3-.46l-1.31,.61c-.59,.29-1.14,.4-1.65,.35-.21-.35-.23-.61-.08-.76,.39-.28,1.57-1.06,3.55-2.32,1.99-1.27,4-1.56,6.02-.87,.93,.31,1.89,.96,2.88,1.96l.85,.85c.57,.56,1.05,.95,1.48,1.17,.43,.21,.6,.29,.53,.21Zm1.88,2.66c.9,1.67,.92,3.69,.07,6.08-.79,2.23-1.54,3.69-2.23,4.38-.21,.2-.49,.31-.84,.3l-.34-.34c.12-.54,.43-1.11,.94-1.71,.5-.61,.78-.96,.82-1.05,.96-2.18,1.17-4.74,.66-7.66,.39-.07,.69-.07,.92,0Zm3.7-4.92c.41,.41,.59,.93,.56,1.56-.05,.63-.32,1.2-.83,1.71-.48,.49-1.06,.74-1.74,.74l-.53-.54c.13-.44,.25-.88,.36-1.33,.12-.45,.03-.98-.29-1.59,.08-.29,.19-.5,.35-.66,.25-.26,.59-.38,1.02-.36,.42,.01,.79,.17,1.1,.48Z"/><path class="cls-1" d="M56.06,38.23c7.69-16.57,29.41-17.92,42.85-8.51,1.05,.74,2.9,3.35,3.41,5.32,.67,2.62,.46,4.56-1.77,2.5-14.3-13.19-44.83-8.58-43.69,15.17,.58,12.06,13.43,18.62,23.9,14.73,7.1-2.63,10.81-10.48,6.49-17.3-4.86-7.65-21.36-2.63-16.11,5.89,1.14-.04,2.41,.51,3.31,1.65,1.36,1.7,1.36,3.95,.02,5.02-1.33,1.06-3.52,.54-4.87-1.16-9.97-12.57,5.33-28.58,18.02-17.98,5.44,4.54,6.16,12.89,4.35,19.2-2.29,8-10.8,12.1-18.53,12.1-18.2,0-23.59-23.24-17.38-36.63Z"/><path class="cls-1" d="M145.6,127.77c16.57-7.69,17.92-29.4,8.52-42.85-.73-1.05-3.35-2.9-5.32-3.41-2.62-.68-4.55-.46-2.5,1.77,13.2,14.3,8.59,44.83-15.17,43.69-12.06-.58-18.62-13.43-14.73-23.9,2.64-7.1,10.49-10.81,17.3-6.49,7.65,4.86,2.63,21.36-5.89,16.11,.04-1.15-.51-2.41-1.65-3.31-1.7-1.36-3.95-1.37-5.01-.02-1.07,1.33-.55,3.52,1.16,4.87,12.57,9.97,28.58-5.33,17.97-18.03-4.54-5.44-12.89-6.16-19.2-4.35-8,2.29-12.11,10.8-12.11,18.53,0,18.2,23.24,23.59,36.63,17.38Z"/></g><path class="cls-1" d="M61.56,8.73c-.14-.15-.82-.44-2.03-.9-1.21-.46-1.89-.76-2.05-.92-.13-.13-.19-.35-.18-.66,0-.31,.09-.55,.25-.71,.13-.13,.44-.25,.94-.37,.51-.12,.84-.26,1-.42,.95-.95,.82-2.05-.41-3.28-1.31-1.31-2.19-1.75-2.63-1.29-.32,.32-.46,.93-.42,1.83,.04,.9-.03,1.45-.22,1.64-.1,.1-.89,.56-2.38,1.39-1.49,.83-2.66,1.68-3.53,2.54-.75,.75-1.53,1.9-2.34,3.45-.94,1.81-1.64,3.64-2.09,5.49-.21,.84-.42,1.99-.64,3.43-.14,.94-.29,1.48-.41,1.6-.07,.06-.46,.12-1.17,.17-1.2,.11-2.2,.21-2.98,.29-1.45,.18-2.77,.53-3.96,1.04-1.43-.59-2.98-1.16-4.29-1.45-4.4-.98-8.65-1.44-11.73-1.35-1.2,.03-2.48,.1-3.26,.18-3.13,.38-5.67,1.55-7.62,3.5-.91,.91-1.8,2.07-2.67,3.49-.87,1.41-1.39,2.21-1.57,2.38-.81,.82-1.57,1.21-2.25,1.19-.58-.03-1.13-.07-1.67-.11-.53-.04-.89,.03-1.06,.21-.34,.33-.17,.84,.5,1.51,.39,.38,.85,.59,1.4,.62,.45,.03,1.13-.06,2.06-.29,.39,1.52,.84,2.52,1.32,3,.4,.4,.98,.75,1.75,1.05,.76,.31,1.48,.45,2.13,.43,.93-.03,1.92-.58,2.98-1.63,.25-.25,.35-.78,.31-1.56-.11-1.49-.35-2.41-.72-2.78-.39-.39-.78-.37-1.18,.02-.18,.18-.29,.57-.35,1.18-.05,.62-.14,.98-.25,1.09-.2,.19-.56,.32-1.1,.38-.66,.08-1.31,.02-1.97-.19-.04,0-.06,0-.07-.02-.02-.05,.02-.11,.1-.19,.17-.18,.51-.34,1.02-.47,.5-.13,.83-.27,.97-.41,.25-.25,.28-.73,.07-1.42-.29-1.02-.44-1.72-.46-2.09-.02-1.18,.88-2.69,2.72-4.53,1.24-1.25,3.04-2.09,5.37-2.54,1.02-.19,1.96-.23,2.8-.21,4.31,.06,8.93,.31,12.64,1.36,.7,.2,1.44,.43,2.18,.67-.62,.42-1.21,.89-1.74,1.42-.9,.91-1.8,2.07-2.67,3.49-.87,1.41-1.39,2.21-1.57,2.38-.82,.82-1.57,1.21-2.25,1.2-.58-.03-1.13-.07-1.67-.1-.53-.05-.89,.03-1.06,.2-.34,.34-.17,.84,.5,1.51,.39,.38,.85,.59,1.4,.62,.44,.03,1.13-.06,2.06-.29,.39,1.52,.84,2.52,1.32,3,.4,.4,.98,.75,1.74,1.05,.77,.31,1.48,.45,2.14,.44,.93-.04,1.91-.57,2.98-1.63,.25-.26,.35-.78,.31-1.56-.11-1.49-.36-2.42-.72-2.79-.38-.38-.78-.37-1.18,.03-.17,.17-.29,.57-.35,1.19-.06,.62-.14,.98-.25,1.09-.19,.19-.55,.32-1.1,.38-.66,.08-1.31,.01-1.97-.19-.04,0-.06,0-.07-.02-.01-.05,.02-.11,.1-.19,.17-.17,.51-.33,1.02-.47,.5-.13,.83-.27,.97-.41,.25-.26,.28-.73,.07-1.41-.28-1.03-.44-1.72-.46-2.09-.03-1.18,.87-2.69,2.72-4.53,.57-.58,1.27-1.05,2.08-1.46,1.05,.42,2.03,.85,2.78,1.27,1.59,.89,2.08-.79,.58-1.48-.32-.15-.76-.35-1.26-.58,.39-.11,.77-.22,1.19-.3,1.02-.19,1.96-.26,2.8-.21,.74,.03,1.19,.13,1.37,.31,.06,.07,.16,.56,.28,1.49,.19,1.24,.44,2.4,.73,3.45,.62,2.25,1.45,3.9,2.49,4.94,1.77,1.77,3.38,2.82,4.82,3.14,1.02,.23,2.05,.21,3.09-.05,1.04-.26,1.84-.65,2.38-1.2,1.32-1.33,1.95-3.05,1.88-5.17-.08-2.11-.86-3.92-2.37-5.43-.59-.59-1.49-1.16-2.71-1.7-1.41-.61-2.89-1.03-4.46-1.25-.3-.05-1.09-.13-2.37-.26-.64-.07-1.02-.16-1.13-.27-.22-.22-.14-1.25,.26-3.09,.63-2.92,1.96-5.42,4.03-7.48,.87-.88,1.75-1.41,2.61-1.6,.77-.16,1.35-.03,1.77,.38,.1,.09,.24,.28,.42,.54,.18,.27,.34,.46,.47,.59,.46,.46,1.11,.36,1.94-.31,.07-.06,.17-.15,.33-.24,.13,.45,.06,.98-.22,1.61-.25,.51-.31,.84-.16,.98,.17,.18,.46,.24,.85,.18,.39-.06,.85-.22,1.38-.49,.15-.28,.28-.69,.38-1.2,.06-.45,.15-.73,.26-.84,.08-.08,.19-.1,.32-.06,.13,.04,.25,0,.35-.08,.18-.17,.23-.46,.17-.86-.06-.4-.2-.71-.43-.94Zm-14.74,15.03c3.24-.33,6.41,1.04,9.52,4.14,.55,.56,.83,1.21,.8,1.96-.02,.75-.3,1.38-.82,1.91-1.7,1.69-3.69,1.4-5.98-.89-1.74-1.74-3.13-3.9-4.17-6.47,.05-.14,.13-.27,.24-.38,.11-.11,.25-.2,.41-.26ZM182.37,124.74c-1.23-1.23-2.33-1.36-3.28-.41-.16,.16-.3,.5-.42,1-.12,.5-.24,.82-.37,.94-.16,.16-.39,.24-.71,.25-.31,.01-.53-.05-.66-.18-.16-.16-.46-.84-.92-2.05-.45-1.21-.75-1.88-.9-2.03-.22-.23-.54-.37-.94-.43-.39-.07-.68,0-.86,.17-.1,.09-.13,.21-.09,.34,.04,.13,.02,.24-.05,.32-.11,.11-.39,.2-.84,.26-.51,.1-.92,.23-1.2,.38-.27,.53-.43,.99-.49,1.38-.05,.39,0,.68,.18,.85,.14,.14,.47,.09,.99-.17,.62-.27,1.15-.34,1.6-.21-.09,.16-.18,.27-.24,.33-.67,.83-.78,1.48-.31,1.94,.12,.13,.32,.29,.59,.47,.26,.19,.44,.33,.54,.42,.41,.42,.55,1,.39,1.77-.2,.87-.73,1.74-1.61,2.62-2.06,2.07-4.56,3.41-7.49,4.03-1.83,.4-2.86,.49-3.09,.26-.11-.11-.2-.49-.26-1.13-.13-1.28-.22-2.07-.26-2.37-.22-1.57-.64-3.05-1.25-4.46-.54-1.21-1.11-2.11-1.71-2.71-1.5-1.5-3.3-2.29-5.42-2.37-2.12-.07-3.84,.56-5.17,1.88-.54,.54-.94,1.33-1.2,2.38-.26,1.04-.27,2.07-.04,3.09,.31,1.44,1.36,3.04,3.14,4.82,1.03,1.04,2.68,1.88,4.94,2.5,1.06,.29,2.21,.53,3.45,.72,.94,.12,1.42,.22,1.49,.29,.18,.17,.28,.62,.31,1.37,.04,.84-.02,1.78-.21,2.8-.21,1.08-.51,2.02-.88,2.87-.61-1.47-1.23-2.78-1.57-3.52-.69-1.5-2.36-1-1.48,.58,.67,1.2,1.38,2.95,1.99,4.72-.19,.25-.38,.5-.6,.72-1.83,1.84-3.35,2.74-4.53,2.72-.37-.02-1.07-.18-2.09-.46-.69-.21-1.16-.18-1.41,.07-.14,.14-.28,.47-.41,.97-.14,.5-.3,.85-.47,1.02-.08,.08-.15,.12-.19,.1-.01-.02-.02-.04-.02-.07-.21-.66-.27-1.31-.19-1.97,.06-.54,.19-.91,.38-1.1,.12-.11,.47-.19,1.09-.25,.61-.06,1.01-.17,1.18-.35,.4-.4,.41-.79,.02-1.18-.36-.36-1.29-.61-2.78-.72-.78-.04-1.3,.06-1.56,.31-1.05,1.06-1.6,2.04-1.63,2.98-.01,.65,.13,1.37,.43,2.13,.3,.77,.66,1.35,1.05,1.75,.48,.48,1.48,.93,3,1.32-.22,.93-.32,1.62-.29,2.06,.03,.54,.24,1.01,.62,1.4,.67,.67,1.17,.84,1.51,.5,.17-.17,.25-.53,.21-1.06-.04-.54-.08-1.09-.11-1.67-.02-.68,.38-1.43,1.19-2.25,.18-.18,.97-.7,2.38-1.57,1.42-.87,2.58-1.77,3.49-2.67,.15-.15,.28-.31,.42-.46,.03,.11,.07,.22,.09,.32,1.04,3.71,1.29,8.33,1.36,12.64,.01,.84-.02,1.78-.21,2.8-.45,2.34-1.29,4.13-2.54,5.37-1.83,1.84-3.35,2.74-4.53,2.72-.37-.02-1.07-.18-2.09-.46-.69-.21-1.16-.18-1.41,.07-.14,.14-.28,.47-.41,.97-.14,.5-.3,.85-.47,1.02-.08,.08-.15,.12-.19,.1-.01-.02-.02-.04-.02-.07-.21-.66-.27-1.31-.19-1.97,.06-.54,.19-.91,.38-1.1,.12-.11,.47-.19,1.09-.25,.61-.06,1.01-.17,1.18-.35,.4-.4,.41-.79,.02-1.18-.36-.36-1.29-.61-2.78-.72-.78-.04-1.3,.06-1.56,.31-1.05,1.06-1.6,2.04-1.63,2.98-.01,.65,.13,1.37,.43,2.13,.3,.77,.66,1.35,1.05,1.75,.48,.48,1.48,.93,3,1.32-.22,.93-.32,1.62-.29,2.06,.03,.54,.24,1.01,.62,1.4,.67,.67,1.17,.84,1.51,.5,.17-.17,.25-.53,.21-1.06-.04-.54-.08-1.09-.11-1.67-.02-.68,.38-1.43,1.19-2.25,.18-.18,.97-.7,2.38-1.57,1.42-.87,2.58-1.77,3.49-2.67,1.95-1.95,3.12-4.49,3.5-7.62,.08-.78,.15-2.06,.18-3.26,.08-3.08-.38-7.33-1.35-11.73-.15-.68-.38-1.44-.65-2.2,.95-1.56,1.57-3.38,1.82-5.47,.08-.78,.18-1.78,.29-2.98,.05-.72,.1-1.11,.17-1.17,.12-.13,.66-.27,1.6-.41,1.44-.22,2.58-.44,3.43-.64,1.85-.45,3.68-1.15,5.49-2.09,1.56-.81,2.7-1.6,3.46-2.34,.86-.86,1.71-2.04,2.54-3.53,.83-1.49,1.29-2.28,1.4-2.38,.19-.19,.74-.27,1.63-.23,.91,.04,1.51-.1,1.83-.42,.45-.45,.02-1.32-1.29-2.63Zm-22.3,12.27c-.06,.16-.15,.3-.26,.41-.12,.11-.24,.19-.39,.24-2.57-1.04-4.73-2.43-6.47-4.17-2.29-2.29-2.58-4.28-.88-5.98,.53-.52,1.16-.8,1.91-.82,.75-.02,1.4,.25,1.95,.8,3.1,3.1,4.48,6.27,4.15,9.52Z"/></g></g></svg>