<?xml version="1.0" encoding="UTF-8"?><svg id="Layer_2" xmlns="http://www.w3.org/2000/svg" viewBox="0 0 151.8 151.8"><defs><style>.cls-1{fill:#4b3205;}</style></defs><g id="Corner_Frames"><g><path class="cls-1" d="M25.78,15.88c-11.59-6.35-11.95,16.08,1.15,11.98,10.54-3.29,9.74-19.65-1.11-22.67-8.78-2.44-19.51,.14-22.44,9.65-8.63,27.98,27.96,35.48,42.78,20.31,18.22-18.66,48.01-27.69,65.26-3.38,.54,.76,.46,4.24-.65,2.68-13.67-19.27-38.09-17.12-55.39-3.41-10.66,8.45-20.05,20.68-35.63,15.83C.35,40.84-8.54,14.93,10.79,2.52c8.34-5.36,17.68-1.49,22.79,5.24,5.78,7.61,6.3,18.8-3.17,22.84-10.57,4.52-16.56-1.44-17.34-8.07-.78-6.62,3.63-13.9,10.75-11.07,.59,.23,1.09,.59,1.76,1.42,.75,.91,.98,1.66,1.13,2.41,.15,.75-.14,1.02-.94,.59Z"/><path class="cls-1" d="M136.63,16.91c.27-.27,.75-.05,1.47,.66,1.24,1.25,2.15,3.2,2.73,5.85,.62,2.88,.73,6.22,.35,10.01-.34,3.23-1.58,6.81-3.71,10.73-1.51,2.76-2.82,4.69-3.92,5.78-.99,1-1.7,1.28-2.12,.86-.29-.29-.25-1.29,.12-3.01,.48-2.22,.63-4.12,.46-5.7l-.6-.65c-.7,.18-1.66,.68-2.89,1.51-.85,.56-1.43,.68-1.74,.38-.5-.51-.54-.97-.1-1.41,.08-.08,.24-.22,.48-.41,.24-.18,.4-.33,.51-.43,6.24-6.25,9.66-11.81,10.23-16.7,.21-2-.21-4.23-1.29-6.69-.15-.36-.14-.62,.02-.78Zm-24.76,10.61c.23-.24,.78-.65,1.62-1.24,.84-.59,1.5-1.11,1.95-1.56,1.18-1.18,2.35-2.44,3.51-3.79,1.16-1.35,1.78-2.05,1.84-2.12,.91-.91,2.11-1.71,3.6-2.39,1.49-.68,3.08-1.19,4.76-1.52,.97-.17,1.95-.34,2.93-.51,.56-.18,1.12-.37,1.69-.58,.62-.12,1.19,.07,1.69,.58,.31,.31,.46,.69,.46,1.16-.04,3.21-.2,5.62-.46,7.22-.18,1.17-.64,2.53-1.38,4.09-.74,1.57-1.62,2.97-2.66,4.2-1.37,1.65-4.24,4.65-8.58,8.99-.37,.36-.7,.41-.99,.12-.52-.52-.55-1.38-.1-2.58,.28-.75,.43-1.19,.45-1.31,.09-.39,0-.7-.22-.93-.46-.45-1.21-.57-2.26-.34-1.05,.23-2.17,.81-3.34,1.75-.83,.72-1.65,1.45-2.48,2.18-.54,.43-.97,.49-1.29,.17-.37-.37-.5-.74-.38-1.09,.39-.42,1.19-1.61,2.4-3.56,.61-1.14,.98-2.32,1.14-3.51,.12-.99,.06-1.61-.17-1.84-.25-.25-.93-.18-2.04,.22-1.1,.39-1.8,.44-2.11,.13-.51-.5-.36-1.15,.43-1.95Zm17.12-7.12c-2.13,2.14-4.64,5.11-7.5,8.91-.29,.35-.57,.71-.86,1.06-.21,.27-.25,.45-.15,.56,.17,.17,.88-.22,2.12-1.16,1.48-1.12,3.2-2.64,5.13-4.58,2.15-2.15,3.76-4.06,4.85-5.71,.86-1.29,1.17-2.06,.94-2.3-.44-.43-1.94,.63-4.53,3.21Zm-28.36-3.36c.18-.18,.88-.65,2.07-1.41,1.66-1.05,3.32-1.96,4.98-2.76,3.37-1.58,7-2.5,10.89-2.75,3.15-.22,6.26-.07,9.34,.45,2.38,.39,3.69,.7,3.92,.94,.27,.27,.25,.55-.03,.83-.12,.12-.77,.23-1.95,.33-1.66,.15-3.26,.41-4.77,.78-4.76,1.16-8.56,3.16-11.39,5.99-.64,.64-1.28,1.38-1.93,2.21-.65,.83-1.03,1.31-1.15,1.43-.3,.3-.61,.3-.91,0-.19-.18-.09-.73,.28-1.64,.25-.59,.5-1.18,.76-1.77,.15-.39,.15-.66,0-.81-.27-.27-1.75-.26-4.43,.03-3.11,.32-5.09,.06-5.93-.78-.28-.27-.19-.62,.25-1.06Z"/><path class="cls-1" d="M75.51,42.96c5.63,.1,8.14,4.53,7.24,9.05-.9,4.52-9.35,10.76-15.08,9.05-7.31-2.18-13.07-9.95-10.26-19.6,2.84-9.73,14.18-15.08,19.61-16.29,5.43-1.21,18.94-2.65,23.04,1.69,4.1,4.34,3.79,7.04,2.29,9.47-1.5,2.43-4.83,4.83-8.45,1.2-3.62-3.62-6.18-4.67-8.89-5.58-2.71-.91-9.69-.47-13.53,.85-5.53,1.91-9.86,6.09-10.75,9.1-1.71,5.78,.77,12.64,6.03,14.93,3.47,1.51,6.44,1.09,9.2-.23,1.74-.83,2.94-2.64,3.17-4.75-3.02,.3-5.73-2.16-6.18-4.83-.25-1.46-.22-4.12,2.56-4.07Z"/><path class="cls-1" d="M135.92,126.01c6.34,11.59-16.08,11.96-11.98-1.15,3.29-10.54,19.65-9.74,22.67,1.11,2.44,8.78-.14,19.51-9.65,22.45-27.97,8.63-35.47-27.96-20.3-42.78,18.66-18.22,27.68-48.01,3.37-65.26-.76-.54-4.24-.46-2.67,.65,19.27,13.67,17.12,38.09,3.41,55.39-8.45,10.66-20.68,20.05-15.83,35.63,6.04,19.39,31.95,28.29,44.36,8.96,5.35-8.34,1.49-17.68-5.24-22.79-7.61-5.78-18.8-6.29-22.85,3.17-4.53,10.57,1.44,16.56,8.07,17.34,6.62,.78,13.9-3.64,11.08-10.75-.24-.59-.6-1.09-1.42-1.77-.91-.75-1.66-.98-2.41-1.13-.75-.15-1.03,.14-.59,.94Z"/><path class="cls-1" d="M108.83,76.29c-.1-5.63-4.52-8.14-9.05-7.24-4.52,.91-10.75,9.35-9.05,15.08,2.18,7.31,9.95,13.07,19.6,10.25,9.73-2.84,15.08-14.18,16.29-19.6,1.21-5.43,2.65-18.94-1.69-23.04-4.34-4.1-7.04-3.79-9.47-2.29-2.43,1.5-4.83,4.83-1.21,8.44,3.62,3.62,4.68,6.18,5.58,8.9,.91,2.71,.47,9.69-.85,13.52-1.91,5.53-6.09,9.86-9.1,10.75-5.78,1.71-12.64-.77-14.93-6.03-1.51-3.47-1.09-6.44,.23-9.2,.83-1.73,2.64-2.94,4.75-3.17-.3,3.01,2.16,5.73,4.82,6.18,1.46,.25,4.12,.22,4.07-2.56Z"/></g></g></svg>