<?xml version="1.0" encoding="UTF-8"?><svg id="Layer_2" xmlns="http://www.w3.org/2000/svg" viewBox="0 0 172.47 154.85"><defs><style>.cls-1{fill:#4b3205;}</style></defs><g id="Corner_Frames"><g><g><path class="cls-1" d="M124.9,9.7c-4.01,4.35-7.37,9.26-11.96,13.08-7.45,6.18-19.64,10.83-28.37,4.05-3.71-2.88-7.01-7.52-6.83-12.47,.09-2.25,.16-5.16,1.35-7.14,2.95-4.91,7.97-5.47,12.17-3.1,3.68,2.08,7.79,6.16,6.42,11.02-2.02,7.16-9.52,5.19-11.52,1.28,.86-.04,1.77-.36,2.57-.98,1.78-1.38,2.32-3.67,1.2-5.11-1.12-1.44-3.47-1.5-5.25-.12-.43,.33-.78,.71-1.06,1.12-2.1,2.24-3.7,5.63-1.37,8.37,3.34,3.93,7.93,4.71,12.48,2.15,3.45-1.94,8.04-5.33,7.54-9.91-1.28-11.79-15.56-15.66-23.97-7.88-9.8,9.07-4.19,24.08,7.57,28,12.26,4.08,25.42-3.91,33.7-12.27,2.25-2.28,4.76-5.23,7.08-7.25,4.75-4.14,9.62-6.94,15.76-7.67,8.53-1.01,18.44,2.19,25.19,7.06,3.09,2.22,6.77,2.21,1.22-2.07-6.63-5.11-19.71-9.39-26.05-8.64-8.76,1.03-13.59,3.84-17.87,8.49Z"/><path class="cls-1" d="M131.65,16.12c-3.26,4.51-5.11,9.97-5.46,15.68-.68,10.95,7.92,24.11,19.36,25.68,9.98,1.37,20.42-4.76,24.79-13.67,4.61-9.43-4.23-22.15-14.21-23.31-11.06-1.28-16.24,8.26-13.45,15.98,.88,2.42,3.08,4.15,5.18,5.44,2.27,1.58,5.15,1.37,6.43-.47,1.28-1.84,.47-4.61-1.79-6.19-1.87-1.3-4.13-1.37-5.59-.34-.72-1.32-1.15-2.81-1.19-4.54-.14-6.5,7.94-8.03,12.54-5.78,6.32,3.09,10.06,11.28,9.15,17.96-1.4,10.19-14.27,14.36-22.69,10.96-6.66-2.7-11.54-9.17-13.76-15.81-2.19-6.55,.07-13.95,3.53-19.8,1.58-2.68,6.99-5.95,11.32-6.33,7-.61,16.92,1.16,21.91,4.08,2.48,1.45,2.82-.12,.37-1.83-6.76-4.68-17.78-7.46-22.28-6.69-7.06,1.21-10.43,3.79-14.16,8.95Z"/><path class="cls-1" d="M67.27,5.51H1.55C-2.92,5.51,4.56,1.28,6.72,1.28H72.44c4.47,0-3.01,4.22-5.17,4.22h0Z"/><path class="cls-1" d="M172.47,56.07v97.62c0,1.63-4.75,1.52-4.75-.18V55.89c0-1.64,4.75-1.52,4.75,.18h0Z"/></g><path class="cls-1" d="M104.35,1.28c-4.46,0,.93,4.22,3.09,4.22,21.91,0-4.84,0,14.06,0h0c2.16,0,9.63-4.22,5.17-4.22h-22.32Z"/><path class="cls-1" d="M.47,12.42H51.8c2.18,0,4.36-.03,6.53,.08,4.7,.24,7.08,4,8.83,7.79,.33,.72,4.04-.65,3.86-1.04-2.93-6.34-6.85-8.13-13.65-8.13H3.05c-.65,0-4.33,1.3-2.58,1.3H.47Z"/><path class="cls-1" d="M163.06,153.85V79.69c0-6.93,.09-14.47-6.55-18.89-.42-.28-1.99,.52-1.83,.62,6.83,4.54,6.45,12.35,6.45,19.41v73.53c0,.21,1.93-.04,1.93-.52h0Z"/></g></g></svg>