<?xml version="1.0" encoding="UTF-8"?><svg id="Layer_2" xmlns="http://www.w3.org/2000/svg" viewBox="0 0 171.8 171.25"><defs><style>.cls-1{fill:#4b3205;}</style></defs><g id="Corner_Frames"><g><g><path class="cls-1" d="M131.54,50.18c6.8-5.74,24.62-11.74,26.95,1.58,.9,5.15-2.48,9.69-6.95,10.83-4.76,1.22-10.69-1.27-11.93-5.92-.12-.34-.21-.7-.26-1.09-.25-2.18,.88-4.1,2.51-4.28,1.63-.19,3.16,1.43,3.41,3.61,.16,1.36-.22,2.62-.93,3.42,2.8,2.27,8.39,1.05,10.17-2.38,1.23-2.38,.75-5.38-.69-7.45-3.41-4.9-14.29-1.42-18.65,1.84-8.57,6.41-12.09,18.59-13.12,28.71-.87,8.49,.29,17.48,3.89,25.24,3.55,7.67,10.68,12.74,17.39,17.48,4.25,3-1.89,1.83-2.84,1.18-11.56-7.8-19.39-16.6-21.52-30.76-2.12-14.06,1.21-32.43,12.58-42.02Z"/><path class="cls-1" d="M166.88,4.03c-6.89-4.98-16.38,1.02-21.55,5.96-6.92,6.6-9.9,15.75-11.82,24.92-14.49,2.87-29.39,4.18-44.14,3.35-14.24-.8-31.34-4.59-38.95-17.89-5.83-10.19,5.97-16.87,14.43-12.15,4.61,2.57,6.67,10.05,.7,12.26-1.18,.44-2.47,.44-3.7,.38-1.42-.06-3.29-1.36-4.09-2.96,1.4,.3,3.04-.28,4.15-1.62,1.49-1.82,1.45-4.31-.09-5.58-1.43-1.18-3.64-.87-5.15,.63-.11,.09-.23,.2-.34,.35-.23,.27-.41,.57-.56,.87-2.87,5.07,.79,12.17,6.7,12.43,7.79,.34,11.99-7.99,8.64-14.61C66.67,1.63,55.18-.5,48.66,7.26c-6.53,7.77,.22,18.47,6.2,23.95,8.34,7.64,21.47,9.99,32.34,10.98,14.03,1.29,28.52-.11,42.36-2.49,1.03-.17,2.06-.36,3.1-.55-.19,1.04-.37,2.07-.55,3.1-2.38,13.84-3.78,28.34-2.49,42.37,1,10.87,3.34,24,10.98,32.34,5.49,5.99,16.19,12.73,23.95,6.2,7.76-6.52,5.63-18.01-3.11-22.43-6.61-3.35-14.94,.85-14.61,8.64,.26,5.91,7.36,9.57,12.43,6.69,.3-.16,.59-.34,.87-.56,.15-.12,.26-.23,.35-.35,1.5-1.51,1.81-3.72,.63-5.15-1.27-1.54-3.77-1.58-5.58-.09-1.35,1.11-1.93,2.75-1.62,4.15-1.6-.79-2.9-2.67-2.96-4.09-.05-1.23-.06-2.52,.38-3.7,2.21-5.97,9.68-3.91,12.26,.7,4.72,8.46-1.95,20.26-12.14,14.43-13.3-7.61-17.1-24.72-17.9-38.95-.82-14.75,.49-29.65,3.36-44.14,9.18-1.92,18.32-4.91,24.92-11.83,4.93-5.17,10.94-14.66,5.95-21.55-.2-.29-.59-.61-.93-.93Zm-.69,3.37c3.75,7.58-6.32,16.75-10.87,19.95-5.22,3.67-11.36,5.34-17.51,6.68,1.34-6.15,3.01-12.28,6.68-17.5,3.2-4.55,12.87-14.83,19.95-10.87,.62,.3,1.39,1.08,1.75,1.75Z"/><path class="cls-1" d="M121.65,40.3c5.74-6.8,11.74-24.62-1.58-26.95-5.15-.9-9.69,2.48-10.83,6.95-1.22,4.76,1.27,10.69,5.92,11.93,.34,.12,.7,.21,1.08,.26,2.18,.25,4.1-.88,4.29-2.51,.19-1.63-1.43-3.16-3.61-3.41-1.36-.16-2.62,.23-3.42,.93-2.27-2.8-1.05-8.39,2.38-10.17,2.38-1.23,5.38-.76,7.45,.69,4.9,3.41,1.42,14.29-1.84,18.65-6.41,8.57-18.59,12.09-28.71,13.12-8.49,.87-17.48-.29-25.24-3.88-7.67-3.55-12.74-10.68-17.48-17.39-3-4.25-1.83,1.89-1.19,2.84,7.8,11.56,16.6,19.39,30.76,21.52,14.05,2.12,32.43-1.21,42.02-12.58Z"/><path class="cls-1" d="M151.79,126.8c7.99,4.31,13.07,11.27,13.07,20.45v21.85c0,2.99-4.52,2.89-4.52-.45v-17.78c0-4.21,.28-8.21-1.3-12.22-1.86-4.71-6.32-8.35-10.58-10.88-4.29-2.56,2.31-1.5,3.32-.95h0Z"/><path class="cls-1" d="M44.45,19.46c-4.31-7.99-11.27-13.07-20.45-13.07H2.15c-2.99,0-2.89,4.51,.46,4.51H20.39c4.22,0,8.21-.28,12.22,1.31,4.71,1.86,8.35,6.32,10.88,10.57,2.56,4.29,1.5-2.31,.95-3.32h0Z"/></g><path class="cls-1" d="M104.98,64.37c-9.49-9.69-12.46-25.77-10-38.87C97.64,11.34,107.99,2.05,122.21,0c1.08-.16,.58,3.15-.32,3.28-12.82,1.84-24.32,10.05-25.76,23.76-1.36,13,2.89,27.1,11.95,36.66,9.57,9.05,23.68,13.32,36.67,11.95,13.71-1.44,21.92-12.94,23.76-25.76,.13-.91,3.44-1.41,3.29-.32-2.04,14.22-11.33,24.57-25.5,27.24-13.09,2.46-28.88-.21-38.87-10.01-.6-.46-1.85-1.73-2.45-2.44Z"/></g></g></svg>