<svg width="193" height="210" viewBox="0 0 193 210" fill="none" xmlns="http://www.w3.org/2000/svg">
<path d="M96.256 184.861C52.242 184.861 16.435 149.053 16.435 105.04C16.435 61.026 52.243 25.219 96.256 25.219C140.27 25.219 176.077 61.027 176.077 105.04C176.077 149.054 140.27 184.861 96.256 184.861ZM96.256 30.56C55.188 30.56 21.776 63.971 21.776 105.04C21.776 146.108 55.187 179.519 96.256 179.519C137.324 179.519 170.736 146.108 170.736 105.04C170.735 63.972 137.324 30.56 96.256 30.56Z" fill="#343844"/>
<path d="M96.256 177.871C56.096 177.871 23.424 145.199 23.424 105.04C23.424 64.881 56.096 32.209 96.256 32.209C136.415 32.209 169.087 64.881 169.087 105.04C169.087 145.199 136.415 177.871 96.256 177.871ZM96.256 34.209C57.199 34.209 25.424 65.983 25.424 105.04C25.424 144.097 57.199 175.871 96.256 175.871C135.313 175.871 167.087 144.097 167.087 105.04C167.087 65.983 135.313 34.209 96.256 34.209Z" fill="#343844"/>
<path d="M79.279 23.14C80.096 23.165 80.943 23.15 81.808 23.077C82.248 23.038 82.663 22.99 83.135 22.912L83.487 22.852L83.768 22.794C84.017 22.747 84.224 22.69 84.454 22.636C86.236 22.166 87.998 21.347 89.484 20.012C90.981 18.705 92.086 16.76 92.368 14.795C92.674 12.812 92.367 10.882 91.372 9.07301C89.471 5.75301 85.356 4.23302 82.078 5.29302C80.463 5.80102 79.01 6.92103 78.387 8.44603C77.772 9.93903 78.001 11.692 78.995 12.763C78.182 11.489 78.382 9.86103 79.122 8.77303C79.868 7.66803 81.146 7.06601 82.396 6.92101C82.701 6.88601 83.047 6.87401 83.315 6.89601C83.722 6.91501 83.948 6.95701 84.256 7.02901C84.858 7.16801 85.432 7.40103 85.954 7.70903C86.984 8.31003 87.844 9.30501 88.215 10.219C89.123 12.363 88.487 14.878 86.853 16.166C86.024 16.864 84.898 17.379 83.652 17.677C83.494 17.709 83.339 17.749 83.179 17.775L82.665 17.86C82.333 17.904 82.028 17.94 81.657 17.964C80.951 18.015 80.207 18.02 79.426 17.998C73.976 17.757 67.368 16.987 60.962 18.723C59.366 19.159 57.83 19.755 56.351 20.533C54.888 21.328 53.396 22.458 52.614 24.108C52.229 24.938 52.057 25.818 52.118 26.701C52.176 27.571 52.519 28.464 53.115 29.063C53.77 29.718 54.586 29.982 55.39 29.992C56.186 30.001 56.994 29.657 57.411 29.026C56.363 30.102 54.499 29.629 53.795 28.623C53.015 27.515 53.295 25.993 54.04 24.956C54.804 23.901 56.068 23.243 57.438 22.805C58.841 22.377 60.319 22.091 61.793 21.958C64.751 21.683 67.741 21.931 70.659 22.257C72.141 22.434 73.588 22.607 74.991 22.774C76.401 22.938 77.828 23.099 79.279 23.14Z" fill="#343844"/>
<path d="M83.813 10.922C83.813 12.448 82.576 13.686 81.049 13.686C79.523 13.686 78.285 12.448 78.285 10.922C78.285 9.39603 79.522 8.15802 81.049 8.15802C82.575 8.15802 83.813 9.39603 83.813 10.922Z" fill="#343844"/>
<path d="M75.741 3.54302C75.094 4.44402 74.65 5.52701 74.498 6.66601C74.349 7.79601 74.527 9.00302 74.977 10C75.86 12.025 77.73 13.399 79.538 13.622C77.802 12.852 76.865 11.201 76.608 9.62502C76.543 9.22702 76.517 8.82702 76.545 8.43502C76.546 8.25602 76.588 8.00804 76.605 7.89404C76.648 7.65604 76.689 7.39701 76.743 7.25701C76.944 6.52601 77.324 5.75302 77.828 5.04302C78.269 4.43402 78.798 3.85202 79.426 3.34902C79.587 3.23102 79.744 3.10004 79.916 2.99304L80.155 2.83404L80.469 2.65603C80.806 2.47003 81.203 2.28603 81.615 2.13503C83.264 1.53703 85.24 1.45401 87.044 1.96801C85.513 1.02001 83.415 0.319021 81.214 0.519021C78.986 0.680021 76.872 1.92402 75.741 3.54302Z" fill="#343844"/>
<path d="M36.542 39.461C36.542 40.987 35.305 42.225 33.778 42.225C32.252 42.225 31.014 40.987 31.014 39.461C31.014 37.934 32.251 36.697 33.778 36.697C35.305 36.697 36.542 37.934 36.542 39.461Z" fill="#343844"/>
<path d="M34.022 34.79C34.646 34.521 35.332 34.295 36.057 34.129C36.445 34.037 36.678 33.986 37.203 33.911C37.516 33.861 37.971 33.808 38.365 33.776C40.008 33.629 41.819 33.666 43.703 33.666C45.598 33.67 47.545 33.614 49.436 33.26C51.316 32.92 53.118 32.255 54.542 31.243C52.825 31.823 51.082 31.834 49.414 31.601C47.738 31.373 46.12 30.895 44.421 30.402C42.716 29.912 40.906 29.39 38.83 29.159C36.777 28.931 34.341 29.051 31.993 30.065C30.986 30.497 29.992 31.097 29.117 31.912C28.674 32.308 28.276 32.775 27.914 33.266C27.82 33.385 27.742 33.521 27.658 33.648L27.535 33.842L27.474 33.939L27.38 34.092L27.361 34.131L27.213 34.439L27.137 34.599L27.027 34.857L26.822 35.377C26.766 35.542 26.733 35.687 26.689 35.843C26.599 36.149 26.554 36.459 26.505 36.767C26.422 37.385 26.411 38.003 26.474 38.613C26.606 39.828 26.982 41.028 27.712 42.058C28.429 43.093 29.467 43.917 30.703 44.257C30.838 44.285 30.883 44.308 31.092 44.341C31.274 44.371 31.456 44.395 31.635 44.413C31.988 44.44 32.268 44.399 32.572 44.366C33.157 44.251 33.706 44.075 34.178 43.79C35.138 43.26 35.873 42.45 36.299 41.527C36.747 40.61 36.7 39.506 36.247 38.732C36.452 39.593 36.189 40.465 35.64 41.069C35.091 41.674 34.345 42.105 33.574 42.245C31.954 42.611 30.928 41.592 30.579 40.368C30.411 39.747 30.398 39.066 30.519 38.434C30.592 38.12 30.666 37.813 30.796 37.542C30.845 37.399 30.928 37.278 30.989 37.15C31.062 37.027 31.092 37.019 31.16 36.898C31.57 36.317 31.964 35.999 32.451 35.637C32.934 35.305 33.47 35.028 34.022 34.79Z" fill="#343844"/>
<path d="M26.745 30.695C26.644 31.148 26.635 31.573 26.697 31.86C26.773 32.135 26.886 32.32 27.026 32.388C27.319 32.542 27.655 32.113 28.165 31.344C29.051 30.02 30.555 28.725 32.42 28.022C34.411 27.277 36.803 27.165 39.314 27.571C41.825 27.97 44.407 28.871 46.971 29.677C49.531 30.486 52.117 31.151 54.544 31.24C52.199 31.012 49.718 30.06 47.252 28.891C44.781 27.733 42.226 26.379 39.431 25.63C36.665 24.875 33.623 24.827 31.157 25.904C28.687 26.96 27.13 28.992 26.745 30.695Z" fill="#353945"/>
<path d="M63.674 15.359C64.801 14.569 64.951 13.213 63.178 13.07C61.704 12.96 59.963 13.181 58.095 13.86C56.247 14.53 54.256 15.739 52.738 17.499C51.978 18.371 51.34 19.384 50.905 20.474C50.803 20.749 50.698 21.021 50.623 21.304L50.563 21.514L50.524 21.648L50.505 21.744L50.428 22.129C50.317 22.748 50.29 23.302 50.305 23.867C50.384 26.111 51.419 28.158 52.932 29.268C51.587 28.018 51.093 25.85 51.552 23.955C51.666 23.477 51.831 23.0191 52.028 22.6141L52.21 22.251C52.25 22.2 52.33 22.059 52.387 21.969C52.516 21.767 52.65 21.569 52.799 21.382C53.378 20.625 54.099 19.995 54.858 19.461C55.61 18.934 56.458 18.486 57.211 18.15C58.064 17.768 58.844 17.482 59.633 17.193C61.193 16.626 62.632 16.098 63.674 15.359Z" fill="#353945"/>
<path d="M45.643 17.6951C45.04 17.0131 43.727 16.882 43.312 17.926C42.971 18.801 42.922 19.841 43.145 20.987C43.37 22.127 43.885 23.3761 44.68 24.5021C45.477 25.6421 46.573 26.603 47.738 27.233C48.909 27.875 50.15 28.171 51.24 28.202C50.199 27.958 49.211 27.2181 48.54 26.2731C47.849 25.3111 47.466 24.231 47.234 23.163C46.786 21.042 46.783 18.9701 45.643 17.6951Z" fill="#353945"/>
<path d="M6.72901 85.82C4.94101 87.139 2.991 88.86 1.698 91.211C1.057 92.36 0.560991 93.754 0.437991 95.08C0.267991 96.654 0.558997 98.045 1.219 99.35C1.555 99.992 2.00001 100.596 2.56601 101.097C2.84801 101.347 3.16201 101.568 3.49701 101.751C3.65001 101.845 3.88202 101.938 4.07102 102.02C4.28602 102.111 4.35901 102.105 4.51001 102.151C6.08401 102.565 7.46202 102.109 8.50202 101.37C9.55602 100.623 10.218 99.4951 10.464 98.3981C10.728 97.2911 10.651 96.1881 10.378 95.2001C10.474 97.3141 9.35199 99.377 7.71799 99.91C6.92099 100.203 6.06501 100.165 5.50601 99.835C5.12701 99.629 5.01999 99.465 4.80399 99.189C4.61899 98.925 4.47901 98.612 4.38401 98.271C3.98201 96.833 4.42199 95.391 5.42899 93.975C6.43299 92.553 7.91399 91.323 9.78699 89.956C11.377 88.77 13.214 87.47 14.881 85.623C16.502 83.815 17.959 81.409 18.078 78.61C18.125 77.254 17.861 75.907 17.259 74.706C16.66 73.513 15.662 72.474 14.47 71.969C13.191 71.427 11.925 71.48 10.806 71.875C9.696 72.265 8.76601 73.118 8.45401 74.147C9.55901 72.321 12.267 72.288 13.602 73.382C15.053 74.535 15.288 76.635 14.759 78.288C14.235 79.926 12.947 81.316 11.487 82.472L10.932 82.9L10.34 83.331C9.941 83.604 9.54701 83.873 9.16101 84.138C8.35401 84.681 7.52601 85.231 6.72901 85.82Z" fill="#343844"/>
<path d="M13.463 74.836C13.463 76.26 12.308 77.415 10.884 77.415C9.46 77.415 8.30499 76.26 8.30499 74.836C8.30499 73.412 9.46 72.257 10.884 72.257C12.308 72.257 13.463 73.411 13.463 74.836Z" fill="#343844"/>
<path d="M10.619 96.334C10.619 97.758 9.46401 98.913 8.04001 98.913C6.61601 98.913 5.461 97.758 5.461 96.334C5.461 94.91 6.61601 93.755 8.04001 93.755C9.46401 93.755 10.619 94.909 10.619 96.334Z" fill="#343844"/>
<path d="M40.456 37.602C39.649 38.113 39.522 39.013 40.734 39.138C42.828 39.326 45.556 38.398 48.042 36.822C50.553 35.265 52.761 33.103 54.541 31.241C52.612 32.854 49.749 34.244 47.062 35.16C44.374 36.112 41.885 36.665 40.456 37.602Z" fill="#353945"/>
<path d="M22.752 51.388C24.234 51.021 25.137 49.522 24.77 48.04C24.403 46.558 22.904 45.655 21.422 46.022C19.94 46.389 19.037 47.888 19.404 49.37C19.772 50.852 21.271 51.755 22.752 51.388Z" fill="#343844"/>
<path d="M12.539 49.232C12.354 50.353 12.342 51.474 12.47 52.563C12.521 53.083 12.649 53.758 12.747 54.141C12.887 54.734 13.025 55.185 13.199 55.69C13.879 57.654 14.84 59.357 15.757 60.967C16.675 62.563 17.576 64.116 18.213 65.741C18.859 67.362 19.246 69.089 19.105 70.836C19.755 69.15 19.944 67.27 19.841 65.429C19.75 63.578 19.376 61.751 18.949 59.983C18.091 56.443 17.076 53.128 17.611 50.065C17.834 48.757 18.227 47.626 19.058 46.721C19.086 46.691 19.113 46.657 19.139 46.619C19.177 46.578 19.242 46.53 19.291 46.483C19.391 46.38 19.515 46.301 19.634 46.209C19.878 46.036 20.151 45.881 20.441 45.759C21.019 45.518 21.672 45.363 22.285 45.408C22.893 45.432 23.515 45.646 23.967 46.044C24.032 46.114 24.17 46.242 24.175 46.263C24.203 46.301 24.237 46.338 24.278 46.377C24.358 46.459 24.437 46.635 24.513 46.774C24.631 47.086 24.744 47.444 24.746 47.826C24.797 48.591 24.579 49.416 24.126 50.098C23.685 50.791 22.89 51.268 21.977 51.278C22.808 51.532 23.871 51.331 24.669 50.693C25.465 50.064 26.098 49.153 26.386 48.073C26.551 47.536 26.592 46.949 26.558 46.338C26.506 46.025 26.491 45.743 26.359 45.389C26.295 45.215 26.225 45.04 26.148 44.867L25.974 44.525C25.293 43.357 24.193 42.585 22.977 42.144C21.763 41.731 20.476 41.667 19.253 41.881C18.644 42.002 18.037 42.163 17.464 42.427C17.171 42.542 16.896 42.705 16.617 42.858C16.342 43.016 15.993 43.281 15.743 43.473C14.868 44.162 14.057 45.195 13.541 46.186C13.012 47.2 12.702 48.242 12.539 49.232Z" fill="#343844"/>
<path d="M12.797 45.147C13.043 44.85 13.221 44.596 13.363 44.358C13.524 44.123 13.593 43.917 13.556 43.767C13.483 43.494 12.99 43.29 11.845 43.91C10.027 44.954 8.53102 47.176 8.23002 49.927C8.08902 51.195 8.21902 52.638 8.57402 53.957C8.92702 55.295 9.49002 56.582 10.182 57.789C11.57 60.207 13.42 62.27 15.093 64.335C16.771 66.394 18.293 68.539 19.108 70.837C18.467 68.58 17.209 66.189 15.764 63.839C14.326 61.483 12.765 59.099 11.773 56.675C10.77 54.263 10.384 51.807 10.704 49.806C11.016 47.795 11.936 46.235 12.797 45.147Z" fill="#353945"/>
<path d="M23.36 55.547C22.952 54.683 22.074 54.446 21.801 55.634C21.33 57.526 21.375 60.04 21.101 62.79C20.855 65.527 20.246 68.501 19.108 70.839C20.45 68.743 22.108 65.951 23.011 63.03C23.945 60.131 24.121 57.208 23.36 55.547Z" fill="#353945"/>
<path d="M113.086 18C111.686 18.039 110.426 17.997 109.195 17.763C108.009 17.528 106.871 17.094 105.979 16.454C105.084 15.819 104.438 15.005 104.1 13.934C103.738 12.9 103.776 11.596 104.091 10.615C104.859 8.33001 107.438 6.62002 110.069 6.91002C111.366 7.05602 112.673 7.68503 113.41 8.81203C114.143 9.92403 114.302 11.533 113.516 12.763C114.538 11.647 114.725 9.86703 114.098 8.39803C113.461 6.89403 112.047 5.81602 110.493 5.30702C110.091 5.17902 109.717 5.08303 109.259 5.02303C108.942 4.97003 108.438 4.93401 108.026 4.95201C107.184 4.97301 106.34 5.129 105.529 5.412C103.905 6.007 102.437 7.01602 101.344 8.67702C100.374 10.15 99.846 12.137 100.011 14.047C100.087 15.013 100.312 15.991 100.722 16.928C101.148 17.88 101.713 18.724 102.434 19.481C103.853 20.97 105.658 21.938 107.542 22.505C107.779 22.57 108.017 22.642 108.258 22.695L108.953 22.844C109.434 22.933 109.949 23.009 110.409 23.051C111.362 23.147 112.307 23.164 113.231 23.138C114.82 23.091 116.315 22.916 117.786 22.752C119.243 22.582 120.716 22.41 122.204 22.236C125.132 21.92 128.05 21.708 130.923 21.994C132.352 22.133 133.789 22.417 135.145 22.836C136.472 23.267 137.7 23.903 138.46 24.937C139.193 25.942 139.509 27.444 138.757 28.575C138.085 29.594 136.189 30.141 135.099 29.025C135.5 29.635 136.277 29.987 137.062 29.995C137.853 30 138.67 29.765 139.34 29.125C139.949 28.542 140.319 27.653 140.391 26.772C140.468 25.881 140.299 24.98 139.914 24.138C139.121 22.445 137.581 21.296 136.073 20.494C134.551 19.709 132.959 19.108 131.316 18.68C124.716 16.996 118.052 17.817 113.086 18Z" fill="#343844"/>
<path d="M108.699 10.922C108.699 12.448 109.936 13.686 111.463 13.686C112.989 13.686 114.227 12.448 114.227 10.922C114.227 9.39603 112.989 8.15802 111.463 8.15802C109.936 8.15802 108.699 9.39603 108.699 10.922Z" fill="#343844"/>
<path d="M114.683 5.04303C115.587 6.30303 116.197 7.83703 115.943 9.51203C115.714 11.17 114.658 12.888 112.974 13.623C114.84 13.363 116.577 12.053 117.484 10.15C117.711 9.67303 117.889 9.15503 117.984 8.60203C118.043 8.31103 118.061 8.08003 118.078 7.71503C118.082 7.47403 118.093 7.25003 118.054 6.90903C117.941 5.70903 117.499 4.57303 116.771 3.54303C116.143 2.67203 115.304 1.93404 114.337 1.40604C114.091 1.28104 113.848 1.15202 113.588 1.05402C113.451 1.00102 113.352 0.955029 113.183 0.900029L112.837 0.796041C112.28 0.637041 111.752 0.548033 111.221 0.504033C109.082 0.344033 107.058 0.999037 105.466 1.97004C107.21 1.47704 109.264 1.51904 110.956 2.15104C112.644 2.74804 113.9 3.92903 114.683 5.04303Z" fill="#343844"/>
<path d="M155.969 39.461C155.969 40.987 157.206 42.225 158.733 42.225C160.26 42.225 161.497 40.987 161.497 39.461C161.497 37.934 160.259 36.697 158.733 36.697C157.207 36.697 155.969 37.934 155.969 39.461Z" fill="#343844"/>
<path d="M160.518 30.066C159.475 29.617 158.389 29.336 157.301 29.198C156.784 29.123 156.098 29.084 155.703 29.087C155.094 29.08 154.623 29.106 154.09 29.153C152.02 29.341 150.136 29.864 148.353 30.367C146.583 30.874 144.859 31.375 143.128 31.603C141.399 31.84 139.63 31.8 137.968 31.243C139.448 32.279 141.227 32.915 143.039 33.258C144.857 33.614 146.721 33.691 148.54 33.702C152.182 33.72 155.645 33.533 158.489 34.789C159.705 35.32 160.708 35.974 161.387 36.998C161.41 37.033 161.436 37.067 161.466 37.101C161.496 37.147 161.528 37.222 161.562 37.281C161.638 37.403 161.684 37.543 161.745 37.68C161.854 37.959 161.939 38.26 161.988 38.572C162.083 39.191 162.077 39.862 161.885 40.446C161.715 41.031 161.358 41.583 160.864 41.925C160.781 41.971 160.623 42.075 160.602 42.074C160.558 42.092 160.514 42.116 160.467 42.147C160.368 42.204 160.179 42.239 160.025 42.28C159.694 42.32 159.319 42.343 158.948 42.253C158.193 42.119 157.444 41.709 156.892 41.105C156.326 40.51 156.053 39.624 156.263 38.735C155.817 39.48 155.756 40.56 156.184 41.489C156.603 42.413 157.335 43.246 158.314 43.785C158.795 44.075 159.356 44.255 159.957 44.37C160.273 44.395 160.551 44.448 160.926 44.405C161.11 44.385 161.297 44.359 161.484 44.326L161.857 44.24C163.155 43.86 164.168 42.978 164.889 41.903C165.582 40.824 165.954 39.591 166.039 38.352C166.068 37.732 166.058 37.104 165.939 36.484C165.898 36.172 165.806 35.866 165.724 35.559C165.636 35.254 165.463 34.851 165.337 34.563C164.878 33.548 164.071 32.512 163.234 31.774C162.377 31.014 161.439 30.463 160.518 30.066Z" fill="#343844"/>
<path d="M164.422 31.299C164.651 31.609 164.854 31.843 165.052 32.038C165.241 32.251 165.424 32.368 165.58 32.367C165.862 32.362 166.179 31.932 165.853 30.672C165.277 28.656 163.479 26.67 160.882 25.716C159.685 25.274 158.253 25.053 156.888 25.081C155.504 25.102 154.12 25.339 152.782 25.72C150.101 26.486 147.654 27.785 145.247 28.913C142.845 30.047 140.396 31.007 137.97 31.246C140.316 31.166 142.938 30.521 145.567 29.684C148.2 28.855 150.89 27.913 153.48 27.533C156.063 27.139 158.539 27.356 160.404 28.148C162.28 28.934 163.572 30.202 164.422 31.299Z" fill="#353945"/>
<path d="M129.314 13.201C127.937 13.446 127.273 14.627 128.801 15.486C131.328 16.954 134.893 17.473 137.822 19.571C138.554 20.095 139.23 20.72 139.79 21.455C139.923 21.641 140.064 21.828 140.18 22.029L140.272 22.178C140.282 22.19 140.314 22.256 140.307 22.225L140.351 22.313L140.527 22.664C140.708 23.041 140.871 23.507 140.979 23.967C141.42 25.813 140.975 27.974 139.582 29.272C141.049 28.208 142.15 26.165 142.225 23.847C142.33 21.452 141.231 19.072 139.606 17.298C138.789 16.406 137.906 15.685 136.905 15.066C135.997 14.503 134.997 14.049 134.083 13.744C132.229 13.127 130.585 12.982 129.314 13.201Z" fill="#353945"/>
<path d="M149.067 17.918C148.612 17.11 147.346 16.757 146.737 17.676C145.704 19.208 145.706 21.223 145.258 23.282C145.036 24.301 144.648 25.365 143.977 26.294C143.321 27.214 142.35 27.958 141.271 28.208C142.325 28.182 143.589 27.907 144.794 27.242C145.987 26.601 147.135 25.556 147.925 24.378C148.725 23.198 149.216 21.91 149.402 20.783C149.589 19.649 149.484 18.67 149.067 17.918Z" fill="#353945"/>
<path d="M182.725 89.954C184.379 91.171 185.847 92.304 186.908 93.685C187.438 94.385 187.845 95.042 188.105 95.885C188.326 96.473 188.385 97.356 188.215 98.077C188.026 98.826 187.731 99.425 187.064 99.816C186.582 100.15 185.628 100.243 184.821 99.925C183.991 99.634 183.265 98.988 182.798 98.117C182.324 97.256 182.108 96.225 182.133 95.199C181.856 96.223 181.791 97.337 182.06 98.432C182.312 99.52 182.961 100.612 183.968 101.346C184.952 102.071 186.294 102.527 187.733 102.242C188.345 102.142 189.157 101.772 189.702 101.336C190.282 100.89 190.753 100.333 191.119 99.732C191.845 98.521 192.2 97.145 192.163 95.681C192.148 95.479 192.154 95.352 192.117 95.086L192.072 94.674C192.006 94.284 191.924 93.917 191.836 93.595C191.651 92.925 191.396 92.278 191.089 91.665C189.867 89.204 187.814 87.303 185.782 85.818C184.041 84.534 182.291 83.491 180.864 82.314C179.429 81.138 178.21 79.761 177.735 78.165C177.259 76.547 177.479 74.532 178.898 73.385C180.179 72.309 182.904 72.26 184.058 74.144C183.76 73.15 182.868 72.289 181.761 71.884C180.648 71.473 179.364 71.413 178.064 71.953C176.841 72.466 175.826 73.54 175.227 74.774C174.618 76.015 174.378 77.408 174.462 78.801C174.663 81.665 176.213 84.061 177.841 85.822C178.048 86.048 178.253 86.258 178.469 86.472L179.089 87.061C179.543 87.471 179.945 87.811 180.367 88.153C181.2 88.827 181.994 89.413 182.725 89.954Z" fill="#343844"/>
<path d="M179.048 74.836C179.048 76.26 180.203 77.415 181.627 77.415C183.051 77.415 184.206 76.26 184.206 74.836C184.206 73.412 183.051 72.257 181.627 72.257C180.203 72.257 179.048 73.411 179.048 74.836Z" fill="#343844"/>
<path d="M181.893 96.334C181.893 97.758 183.048 98.913 184.472 98.913C185.896 98.913 187.051 97.758 187.051 96.334C187.051 94.91 185.896 93.755 184.472 93.755C183.047 93.755 181.893 94.909 181.893 96.334Z" fill="#343844"/>
<path d="M151.786 39.05C152.723 38.862 153.164 38.067 152.077 37.516C150.354 36.604 147.902 36.043 145.299 35.115C142.702 34.218 139.962 32.911 137.966 31.244C139.678 33.051 141.989 35.331 144.607 36.911C147.196 38.516 149.99 39.389 151.786 39.05Z" fill="#353945"/>
<path d="M169.759 51.388C168.277 51.021 167.374 49.522 167.741 48.04C168.108 46.558 169.607 45.655 171.089 46.022C172.571 46.389 173.474 47.888 173.107 49.37C172.74 50.852 171.241 51.755 169.759 51.388Z" fill="#343844"/>
<path d="M174.899 50.065C175.01 50.735 175.064 51.456 175.051 52.2C175.047 52.599 175.04 52.837 174.987 53.365C174.96 53.681 174.903 54.135 174.839 54.526C174.586 56.155 174.115 57.905 173.662 59.733C173.202 61.571 172.788 63.475 172.677 65.396C172.555 67.303 172.767 69.212 173.406 70.837C173.256 69.031 173.664 67.336 174.291 65.773C174.915 64.201 175.769 62.745 176.655 61.214C177.541 59.676 178.483 58.046 179.206 56.086C179.921 54.148 180.391 51.755 179.971 49.232C179.794 48.151 179.45 47.042 178.869 45.997C178.591 45.472 178.234 44.973 177.844 44.504C177.751 44.384 177.638 44.276 177.535 44.163L177.376 43.997L177.296 43.915L177.171 43.787L177.138 43.76L176.874 43.542L176.737 43.43L176.513 43.261L176.057 42.937C175.91 42.843 175.778 42.776 175.637 42.696C175.362 42.535 175.072 42.416 174.784 42.295C174.204 42.066 173.606 41.906 172.999 41.821C171.788 41.657 170.532 41.733 169.357 42.195C168.18 42.642 167.13 43.452 166.503 44.569C166.443 44.693 166.41 44.732 166.328 44.927C166.255 45.096 166.188 45.267 166.127 45.437C166.015 45.774 165.988 46.055 165.947 46.358C165.918 46.953 165.957 47.528 166.12 48.055C166.404 49.114 167.013 50.022 167.806 50.658C168.589 51.314 169.671 51.533 170.531 51.279C169.646 51.271 168.863 50.806 168.408 50.128C167.952 49.45 167.714 48.621 167.763 47.84C167.798 46.179 169.034 45.429 170.305 45.384C170.948 45.37 171.612 45.521 172.196 45.791C172.483 45.938 172.763 46.083 172.995 46.275C173.122 46.356 173.22 46.466 173.329 46.556C173.431 46.656 173.431 46.687 173.532 46.782C173.998 47.32 174.211 47.778 174.446 48.338C174.661 48.885 174.801 49.472 174.899 50.065Z" fill="#343844"/>
<path d="M180.624 43.987C180.208 43.78 179.798 43.669 179.504 43.66C179.219 43.668 179.012 43.733 178.913 43.852C178.693 44.1 179.029 44.529 179.653 45.209C180.725 46.388 181.62 48.158 181.854 50.138C182.098 52.25 181.632 54.599 180.633 56.938C179.642 59.279 178.146 61.568 176.748 63.863C175.347 66.153 174.08 68.504 173.409 70.837C174.194 68.615 175.715 66.436 177.443 64.324C179.161 62.204 181.09 60.05 182.489 57.517C183.887 55.014 184.665 52.073 184.213 49.42C183.782 46.77 182.184 44.77 180.624 43.987Z" fill="#353945"/>
<path d="M170.622 55.635C170.32 54.728 169.477 54.389 169.063 55.535C168.377 57.523 168.622 60.394 169.554 63.186C170.461 65.998 172.028 68.661 173.408 70.836C172.306 68.576 171.645 65.462 171.403 62.634C171.126 59.796 171.188 57.247 170.622 55.635Z" fill="#353945"/>
<path d="M79.425 192.079C80.825 192.04 82.085 192.082 83.316 192.315C84.502 192.55 85.64 192.984 86.532 193.624C87.427 194.259 88.073 195.073 88.411 196.144C88.773 197.178 88.735 198.482 88.42 199.463C87.652 201.748 85.073 203.458 82.442 203.168C81.144 203.022 79.838 202.393 79.101 201.266C78.368 200.154 78.209 198.545 78.995 197.315C77.973 198.431 77.786 200.211 78.412 201.68C79.049 203.184 80.463 204.262 82.017 204.771C82.418 204.899 82.793 204.995 83.25 205.055C83.567 205.108 84.071 205.144 84.483 205.126C85.325 205.105 86.169 204.948 86.98 204.666C88.604 204.071 90.072 203.062 91.166 201.401C92.136 199.928 92.664 197.941 92.498 196.031C92.423 195.065 92.197 194.087 91.787 193.15C91.361 192.198 90.796 191.354 90.075 190.597C88.656 189.108 86.851 188.14 84.967 187.573C84.73 187.508 84.492 187.436 84.251 187.383L83.556 187.234C83.075 187.145 82.56 187.069 82.1 187.027C81.146 186.931 80.202 186.914 79.278 186.94C77.689 186.986 76.194 187.162 74.723 187.326C73.266 187.496 71.793 187.668 70.305 187.842C67.377 188.158 64.459 188.37 61.586 188.084C60.157 187.945 58.72 187.661 57.364 187.242C56.037 186.811 54.809 186.175 54.048 185.141C53.315 184.136 52.999 182.634 53.751 181.503C54.423 180.484 56.319 179.937 57.409 181.053C57.008 180.443 56.231 180.091 55.446 180.083C54.655 180.078 53.838 180.313 53.168 180.953C52.559 181.536 52.189 182.425 52.117 183.306C52.04 184.197 52.209 185.098 52.594 185.94C53.387 187.633 54.927 188.782 56.435 189.584C57.957 190.369 59.549 190.97 61.192 191.398C67.795 193.084 74.459 192.263 79.425 192.079Z" fill="#343844"/>
<path d="M83.813 199.158C83.813 197.632 82.576 196.394 81.049 196.394C79.523 196.394 78.285 197.632 78.285 199.158C78.285 200.684 79.522 201.922 81.049 201.922C82.575 201.922 83.813 200.684 83.813 199.158Z" fill="#343844"/>
<path d="M77.828 205.036C76.924 203.776 76.314 202.242 76.569 200.567C76.798 198.909 77.854 197.191 79.538 196.456C77.672 196.716 75.935 198.026 75.028 199.929C74.801 200.406 74.623 200.924 74.528 201.477C74.469 201.769 74.451 201.999 74.434 202.364C74.43 202.605 74.419 202.829 74.458 203.17C74.571 204.37 75.013 205.505 75.741 206.536C76.369 207.407 77.208 208.145 78.175 208.674C78.421 208.799 78.664 208.928 78.923 209.026C79.06 209.079 79.159 209.125 79.328 209.181L79.674 209.285C80.231 209.444 80.759 209.533 81.29 209.577C83.429 209.737 85.453 209.082 87.045 208.111C85.301 208.604 83.247 208.562 81.555 207.93C79.867 207.332 78.611 206.151 77.828 205.036Z" fill="#343844"/>
<path d="M36.542 170.619C36.542 169.093 35.305 167.855 33.778 167.855C32.252 167.855 31.014 169.092 31.014 170.619C31.014 172.146 32.251 173.383 33.778 173.383C35.305 173.383 36.542 172.146 36.542 170.619Z" fill="#343844"/>
<path d="M31.993 180.014C33.036 180.463 34.122 180.744 35.21 180.882C35.727 180.957 36.413 180.996 36.809 180.993C37.418 181 37.889 180.974 38.422 180.927C40.492 180.739 42.376 180.216 44.159 179.713C45.929 179.206 47.653 178.705 49.384 178.477C51.113 178.24 52.882 178.28 54.544 178.837C53.064 177.801 51.285 177.165 49.473 176.822C47.655 176.466 45.792 176.389 43.972 176.378C40.33 176.36 36.867 176.547 34.023 175.291C32.807 174.76 31.804 174.106 31.125 173.082C31.102 173.047 31.076 173.013 31.046 172.979C31.016 172.933 30.984 172.858 30.95 172.799C30.875 172.677 30.828 172.537 30.767 172.4C30.658 172.121 30.573 171.82 30.524 171.508C30.429 170.889 30.435 170.218 30.627 169.634C30.797 169.049 31.154 168.497 31.649 168.154C31.732 168.108 31.89 168.005 31.911 168.005C31.955 167.987 31.999 167.963 32.046 167.933C32.145 167.875 32.334 167.841 32.487 167.8C32.818 167.76 33.193 167.737 33.564 167.827C34.319 167.961 35.068 168.371 35.62 168.975C36.186 169.57 36.459 170.456 36.249 171.345C36.695 170.6 36.756 169.52 36.328 168.591C35.909 167.667 35.177 166.834 34.198 166.295C33.717 166.005 33.156 165.825 32.555 165.71C32.239 165.685 31.961 165.632 31.586 165.675C31.402 165.695 31.215 165.721 31.028 165.754L30.655 165.84C29.357 166.22 28.344 167.102 27.624 168.177C26.931 169.256 26.559 170.489 26.474 171.728C26.445 172.348 26.455 172.976 26.574 173.596C26.615 173.908 26.707 174.214 26.789 174.521C26.877 174.826 27.05 175.229 27.176 175.517C27.635 176.532 28.442 177.568 29.279 178.306C30.135 179.066 31.072 179.617 31.993 180.014Z" fill="#343844"/>
<path d="M28.09 178.781C27.861 178.471 27.658 178.237 27.46 178.042C27.271 177.829 27.088 177.712 26.932 177.713C26.65 177.718 26.333 178.148 26.659 179.408C27.235 181.424 29.033 183.41 31.63 184.364C32.827 184.807 34.259 185.027 35.624 184.999C37.008 184.978 38.392 184.741 39.731 184.359C42.412 183.593 44.859 182.294 47.266 181.167C49.668 180.033 52.116 179.072 54.543 178.834C52.198 178.914 49.575 179.56 46.946 180.396C44.313 181.225 41.623 182.167 39.033 182.547C36.45 182.941 33.974 182.724 32.109 181.932C30.232 181.146 28.939 179.878 28.09 178.781Z" fill="#353945"/>
<path d="M63.198 196.879C64.575 196.634 65.239 195.453 63.711 194.594C61.184 193.126 57.619 192.607 54.69 190.509C53.958 189.985 53.282 189.36 52.722 188.625C52.589 188.439 52.447 188.251 52.331 188.051L52.239 187.902C52.229 187.89 52.197 187.824 52.204 187.855L52.16 187.767L51.984 187.416C51.804 187.039 51.64 186.573 51.532 186.113C51.091 184.267 51.536 182.106 52.929 180.808C51.462 181.872 50.361 183.915 50.286 186.233C50.181 188.628 51.28 191.008 52.905 192.782C53.722 193.674 54.605 194.395 55.606 195.014C56.514 195.577 57.514 196.031 58.428 196.336C60.282 196.953 61.926 197.098 63.198 196.879Z" fill="#353945"/>
<path d="M43.444 192.162C43.899 192.97 45.165 193.323 45.774 192.404C46.807 190.872 46.805 188.857 47.253 186.798C47.475 185.779 47.863 184.715 48.534 183.786C49.19 182.866 50.161 182.121 51.24 181.872C50.186 181.898 48.922 182.173 47.717 182.838C46.524 183.478 45.376 184.523 44.587 185.702C43.787 186.882 43.296 188.17 43.11 189.296C42.922 190.431 43.027 191.41 43.444 192.162Z" fill="#353945"/>
<path d="M9.78601 120.125C8.13201 118.908 6.66399 117.775 5.60299 116.394C5.07299 115.694 4.666 115.037 4.406 114.194C4.185 113.606 4.12599 112.723 4.29599 112.003C4.48499 111.254 4.77999 110.655 5.44699 110.264C5.92899 109.93 6.883 109.837 7.69 110.155C8.52 110.445 9.24601 111.092 9.71301 111.963C10.187 112.824 10.403 113.855 10.379 114.88C10.656 113.856 10.721 112.742 10.452 111.647C10.2 110.56 9.551 109.467 8.544 108.733C7.56 108.008 6.21799 107.552 4.77899 107.837C4.16699 107.937 3.35499 108.307 2.80999 108.743C2.22999 109.188 1.759 109.746 1.393 110.347C0.667002 111.558 0.311996 112.934 0.348996 114.398C0.363996 114.6 0.357986 114.727 0.394986 114.992L0.438992 115.404C0.504992 115.794 0.586985 116.161 0.674985 116.483C0.859985 117.153 1.11499 117.8 1.42199 118.413C2.64399 120.874 4.697 122.775 6.729 124.26C8.47 125.544 10.22 126.587 11.647 127.764C13.083 128.94 14.301 130.317 14.776 131.913C15.252 133.531 15.032 135.546 13.613 136.693C12.332 137.77 9.607 137.818 8.453 135.934C8.751 136.928 9.643 137.789 10.75 138.194C11.863 138.605 13.147 138.665 14.447 138.125C15.669 137.612 16.685 136.538 17.284 135.304C17.893 134.063 18.133 132.669 18.049 131.277C17.848 128.413 16.298 126.017 14.67 124.256C14.463 124.03 14.258 123.82 14.042 123.606L13.422 123.017C12.968 122.607 12.566 122.268 12.144 121.926C11.311 121.253 10.517 120.667 9.78601 120.125Z" fill="#343844"/>
<path d="M10.884 137.823C12.3083 137.823 13.463 136.668 13.463 135.244C13.463 133.82 12.3083 132.665 10.884 132.665C9.45966 132.665 8.30499 133.82 8.30499 135.244C8.30499 136.668 9.45966 137.823 10.884 137.823Z" fill="#343844"/>
<path d="M10.619 113.746C10.619 112.322 9.46401 111.167 8.04001 111.167C6.61601 111.167 5.461 112.322 5.461 113.746C5.461 115.17 6.61601 116.325 8.04001 116.325C9.46401 116.325 10.619 115.17 10.619 113.746Z" fill="#343844"/>
<path d="M40.725 171.03C39.788 171.218 39.347 172.013 40.434 172.564C42.157 173.477 44.609 174.037 47.212 174.965C49.81 175.862 52.549 177.169 54.545 178.836C52.833 177.029 50.522 174.748 47.904 173.169C45.315 171.564 42.521 170.691 40.725 171.03Z" fill="#353945"/>
<path d="M22.752 158.692C24.234 159.059 25.137 160.558 24.77 162.04C24.403 163.522 22.904 164.425 21.422 164.058C19.94 163.691 19.037 162.192 19.404 160.71C19.772 159.228 21.271 158.325 22.752 158.692Z" fill="#343844"/>
<path d="M17.612 160.014C17.501 159.344 17.447 158.623 17.46 157.879C17.464 157.48 17.471 157.242 17.524 156.714C17.551 156.398 17.608 155.944 17.672 155.553C17.925 153.923 18.396 152.174 18.849 150.346C19.309 148.508 19.723 146.604 19.834 144.683C19.956 142.776 19.744 140.867 19.105 139.242C19.255 141.048 18.847 142.743 18.22 144.306C17.596 145.878 16.742 147.334 15.856 148.865C14.97 150.402 14.028 152.033 13.305 153.993C12.59 155.931 12.12 158.324 12.54 160.847C12.717 161.928 13.061 163.037 13.642 164.082C13.92 164.607 14.277 165.106 14.667 165.575C14.76 165.695 14.873 165.803 14.976 165.916L15.135 166.082L15.215 166.164L15.341 166.292L15.374 166.319L15.638 166.537L15.775 166.649L15.999 166.818L16.455 167.142C16.602 167.236 16.734 167.303 16.875 167.383C17.15 167.544 17.44 167.663 17.728 167.784C18.308 168.013 18.906 168.173 19.513 168.258C20.724 168.422 21.98 168.346 23.155 167.884C24.332 167.437 25.382 166.627 26.009 165.51C26.069 165.386 26.102 165.347 26.184 165.152C26.257 164.983 26.324 164.812 26.385 164.642C26.496 164.305 26.524 164.025 26.565 163.721C26.594 163.125 26.555 162.551 26.392 162.024C26.108 160.965 25.499 160.057 24.706 159.421C23.923 158.765 22.84 158.546 21.981 158.8C22.866 158.808 23.65 159.273 24.104 159.951C24.56 160.629 24.798 161.457 24.749 162.239C24.714 163.9 23.478 164.65 22.207 164.695C21.564 164.708 20.9 164.558 20.316 164.288C20.029 164.141 19.749 163.996 19.517 163.804C19.39 163.723 19.292 163.613 19.183 163.523C19.081 163.423 19.08 163.392 18.98 163.297C18.514 162.759 18.301 162.301 18.066 161.741C17.85 161.194 17.711 160.608 17.612 160.014Z" fill="#343844"/>
<path d="M11.888 166.093C12.304 166.3 12.714 166.411 13.008 166.42C13.293 166.412 13.5 166.347 13.599 166.228C13.819 165.981 13.483 165.551 12.859 164.871C11.787 163.692 10.892 161.922 10.658 159.942C10.414 157.83 10.88 155.481 11.879 153.142C12.87 150.801 14.366 148.512 15.764 146.216C17.165 143.926 18.432 141.575 19.103 139.242C18.317 141.463 16.797 143.643 15.069 145.755C13.351 147.875 11.422 150.029 10.023 152.562C8.62502 155.065 7.84702 158.006 8.29902 160.659C8.72902 163.31 10.327 165.31 11.888 166.093Z" fill="#353945"/>
<path d="M21.889 154.445C22.191 155.352 23.034 155.691 23.447 154.544C24.133 152.556 23.889 149.685 22.956 146.893C22.049 144.081 20.482 141.418 19.103 139.243C20.205 141.503 20.865 144.617 21.108 147.445C21.385 150.284 21.324 152.833 21.889 154.445Z" fill="#353945"/>
<path d="M113.232 186.94C112.415 186.915 111.568 186.93 110.703 187.003C110.263 187.042 109.848 187.09 109.376 187.168L109.024 187.228L108.743 187.285C108.494 187.332 108.286 187.389 108.057 187.443C106.275 187.913 104.513 188.732 103.027 190.067C101.53 191.374 100.425 193.319 100.144 195.284C99.838 197.267 100.144 199.197 101.14 201.006C103.041 204.326 107.156 205.846 110.434 204.786C112.05 204.278 113.502 203.158 114.125 201.633C114.74 200.14 114.511 198.387 113.517 197.316C114.33 198.59 114.13 200.218 113.39 201.306C112.644 202.411 111.366 203.013 110.116 203.158C109.811 203.193 109.464 203.205 109.197 203.183C108.79 203.164 108.564 203.122 108.256 203.05C107.654 202.911 107.08 202.677 106.558 202.37C105.528 201.769 104.668 200.774 104.297 199.86C103.389 197.716 104.025 195.201 105.658 193.913C106.488 193.215 107.613 192.7 108.859 192.402C109.017 192.37 109.172 192.33 109.332 192.304L109.846 192.219C110.177 192.175 110.483 192.139 110.854 192.115C111.56 192.064 112.304 192.058 113.085 192.081C118.535 192.322 125.143 193.092 131.549 191.356C133.145 190.92 134.681 190.324 136.159 189.546C137.622 188.751 139.114 187.621 139.896 185.971C140.281 185.141 140.453 184.261 140.392 183.378C140.334 182.508 139.991 181.615 139.395 181.016C138.74 180.361 137.924 180.097 137.12 180.087C136.324 180.078 135.515 180.422 135.099 181.053C136.147 179.977 138.011 180.45 138.715 181.456C139.494 182.564 139.215 184.086 138.47 185.123C137.707 186.178 136.442 186.836 135.072 187.273C133.669 187.701 132.191 187.987 130.718 188.12C127.76 188.395 124.77 188.147 121.852 187.821C120.37 187.644 118.923 187.471 117.52 187.304C116.11 187.142 114.683 186.981 113.232 186.94Z" fill="#343844"/>
<path d="M108.699 199.158C108.699 197.632 109.936 196.394 111.463 196.394C112.989 196.394 114.227 197.632 114.227 199.158C114.227 200.684 112.989 201.922 111.463 201.922C109.936 201.922 108.699 200.684 108.699 199.158Z" fill="#343844"/>
<path d="M116.771 206.536C117.418 205.635 117.862 204.552 118.013 203.413C118.162 202.283 117.984 201.077 117.534 200.079C116.651 198.054 114.781 196.68 112.973 196.457C114.709 197.227 115.646 198.878 115.903 200.454C115.968 200.852 115.994 201.253 115.966 201.644C115.965 201.823 115.923 202.071 115.906 202.186C115.863 202.424 115.822 202.683 115.768 202.823C115.567 203.554 115.187 204.327 114.683 205.037C114.242 205.646 113.713 206.228 113.085 206.731C112.924 206.849 112.767 206.98 112.595 207.087L112.356 207.246L112.041 207.424C111.704 207.61 111.307 207.794 110.895 207.945C109.246 208.543 107.269 208.626 105.466 208.112C106.997 209.06 109.095 209.761 111.296 209.561C113.526 209.4 115.639 208.156 116.771 206.536Z" fill="#343844"/>
<path d="M155.969 170.619C155.969 169.093 157.206 167.855 158.733 167.855C160.26 167.855 161.497 169.092 161.497 170.619C161.497 172.146 160.259 173.383 158.733 173.383C157.207 173.383 155.969 172.146 155.969 170.619Z" fill="#343844"/>
<path d="M158.489 175.29C157.865 175.559 157.179 175.785 156.454 175.951C156.066 176.043 155.833 176.094 155.308 176.169C154.995 176.219 154.54 176.272 154.146 176.304C152.503 176.451 150.692 176.414 148.809 176.414C146.914 176.41 144.967 176.466 143.076 176.82C141.196 177.16 139.394 177.825 137.97 178.837C139.687 178.257 141.43 178.245 143.098 178.478C144.774 178.706 146.392 179.184 148.091 179.677C149.796 180.167 151.606 180.689 153.682 180.92C155.735 181.148 158.171 181.028 160.519 180.014C161.526 179.582 162.52 178.982 163.394 178.166C163.837 177.77 164.235 177.303 164.597 176.813C164.691 176.694 164.768 176.558 164.853 176.431L164.976 176.236L165.037 176.138L165.131 175.985L165.15 175.946L165.298 175.637L165.374 175.477L165.484 175.219L165.689 174.699C165.745 174.534 165.779 174.389 165.822 174.233C165.912 173.927 165.957 173.617 166.006 173.309C166.089 172.691 166.1 172.073 166.037 171.463C165.905 170.248 165.529 169.048 164.798 168.017C164.081 166.982 163.043 166.158 161.807 165.818C161.672 165.79 161.627 165.767 161.418 165.734C161.236 165.704 161.054 165.68 160.875 165.662C160.522 165.635 160.242 165.676 159.937 165.709C159.352 165.824 158.803 166 158.331 166.285C157.371 166.815 156.636 167.625 156.21 168.548C155.762 169.466 155.81 170.569 156.262 171.343C156.057 170.482 156.32 169.61 156.869 169.006C157.418 168.401 158.164 167.97 158.935 167.83C160.555 167.464 161.581 168.483 161.93 169.707C162.098 170.328 162.111 171.009 161.99 171.641C161.917 171.955 161.843 172.262 161.713 172.533C161.665 172.676 161.581 172.797 161.52 172.925C161.447 173.048 161.417 173.056 161.349 173.177C160.939 173.758 160.545 174.076 160.058 174.438C159.577 174.775 159.041 175.052 158.489 175.29Z" fill="#343844"/>
<path d="M165.766 179.384C165.867 178.931 165.876 178.506 165.814 178.219C165.738 177.944 165.625 177.759 165.485 177.691C165.192 177.537 164.856 177.966 164.346 178.735C163.46 180.059 161.957 181.354 160.091 182.057C158.1 182.802 155.708 182.914 153.197 182.508C150.686 182.109 148.104 181.208 145.54 180.402C142.98 179.593 140.394 178.928 137.967 178.839C140.312 179.067 142.793 180.019 145.259 181.188C147.73 182.346 150.285 183.7 153.08 184.449C155.846 185.204 158.888 185.252 161.354 184.175C163.825 183.12 165.382 181.087 165.766 179.384Z" fill="#353945"/>
<path d="M128.838 194.721C127.711 195.512 127.561 196.867 129.334 197.01C130.808 197.12 132.549 196.899 134.417 196.221C136.265 195.551 138.256 194.342 139.774 192.582C140.534 191.71 141.172 190.697 141.607 189.608C141.709 189.332 141.814 189.06 141.889 188.777L141.949 188.567L141.988 188.433L142.007 188.337L142.084 187.952C142.195 187.333 142.222 186.779 142.207 186.214C142.128 183.97 141.093 181.923 139.579 180.813C140.924 182.063 141.418 184.231 140.959 186.126C140.845 186.604 140.68 187.062 140.483 187.467L140.301 187.83C140.262 187.881 140.181 188.021 140.124 188.112C139.995 188.314 139.861 188.512 139.712 188.699C139.133 189.456 138.412 190.086 137.653 190.62C136.901 191.146 136.053 191.595 135.3 191.931C134.447 192.314 133.667 192.599 132.878 192.888C131.319 193.454 129.88 193.982 128.838 194.721Z" fill="#353945"/>
<path d="M146.868 192.385C147.471 193.067 148.784 193.198 149.199 192.154C149.54 191.279 149.589 190.239 149.366 189.093C149.141 187.953 148.626 186.705 147.831 185.578C147.034 184.438 145.938 183.477 144.773 182.847C143.602 182.205 142.361 181.909 141.271 181.878C142.312 182.122 143.3 182.862 143.971 183.807C144.662 184.769 145.045 185.849 145.277 186.917C145.725 189.038 145.728 191.11 146.868 192.385Z" fill="#353945"/>
<path d="M185.782 124.26C187.57 122.941 189.52 121.22 190.813 118.869C191.454 117.72 191.95 116.326 192.073 115C192.243 113.426 191.952 112.035 191.292 110.729C190.956 110.087 190.512 109.483 189.945 108.982C189.663 108.732 189.349 108.511 189.014 108.328C188.861 108.234 188.629 108.14 188.44 108.059C188.225 107.968 188.152 107.974 188.001 107.928C186.427 107.514 185.049 107.97 184.009 108.709C182.955 109.456 182.293 110.584 182.047 111.681C181.783 112.788 181.86 113.891 182.133 114.879C182.038 112.765 183.159 110.702 184.793 110.169C185.59 109.876 186.446 109.914 187.005 110.244C187.384 110.45 187.491 110.614 187.707 110.89C187.891 111.154 188.032 111.467 188.127 111.808C188.529 113.246 188.089 114.689 187.082 116.104C186.078 117.526 184.597 118.756 182.724 120.123C181.134 121.309 179.297 122.609 177.63 124.456C176.009 126.264 174.552 128.67 174.433 131.469C174.386 132.825 174.65 134.172 175.252 135.373C175.851 136.566 176.849 137.605 178.041 138.11C179.32 138.652 180.586 138.599 181.706 138.204C182.816 137.814 183.745 136.962 184.058 135.932C182.953 137.758 180.245 137.791 178.91 136.697C177.459 135.544 177.224 133.444 177.753 131.791C178.277 130.153 179.565 128.763 181.025 127.607L181.58 127.179L182.172 126.748C182.571 126.475 182.965 126.206 183.351 125.941C184.158 125.399 184.985 124.849 185.782 124.26Z" fill="#343844"/>
<path d="M179.048 135.244C179.048 133.82 180.203 132.665 181.627 132.665C183.051 132.665 184.206 133.82 184.206 135.244C184.206 136.668 183.051 137.823 181.627 137.823C180.203 137.823 179.048 136.669 179.048 135.244Z" fill="#343844"/>
<path d="M181.893 113.746C181.893 112.322 183.048 111.167 184.472 111.167C185.896 111.167 187.051 112.322 187.051 113.746C187.051 115.17 185.896 116.325 184.472 116.325C183.047 116.325 181.893 115.17 181.893 113.746Z" fill="#343844"/>
<path d="M152.055 172.478C152.863 171.967 152.989 171.067 151.777 170.942C149.683 170.754 146.955 171.682 144.469 173.258C141.958 174.815 139.75 176.977 137.97 178.839C139.899 177.226 142.762 175.836 145.449 174.92C148.137 173.968 150.626 173.415 152.055 172.478Z" fill="#353945"/>
<path d="M169.759 158.692C168.277 159.059 167.374 160.558 167.741 162.04C168.108 163.522 169.607 164.425 171.089 164.058C172.571 163.691 173.474 162.192 173.107 160.71C172.74 159.228 171.241 158.325 169.759 158.692Z" fill="#343844"/>
<path d="M179.973 160.848C180.158 159.727 180.17 158.606 180.042 157.517C179.991 156.997 179.863 156.322 179.765 155.939C179.625 155.346 179.487 154.895 179.313 154.39C178.633 152.426 177.672 150.723 176.755 149.113C175.837 147.517 174.936 145.964 174.299 144.339C173.653 142.718 173.266 140.991 173.407 139.244C172.757 140.93 172.568 142.81 172.671 144.651C172.762 146.502 173.136 148.329 173.563 150.097C174.421 153.637 175.436 156.952 174.9 160.015C174.677 161.323 174.284 162.454 173.453 163.359C173.425 163.39 173.398 163.423 173.372 163.461C173.334 163.502 173.269 163.55 173.22 163.597C173.12 163.7 172.996 163.779 172.877 163.871C172.633 164.044 172.36 164.199 172.07 164.321C171.492 164.562 170.839 164.717 170.226 164.672C169.617 164.648 168.996 164.434 168.544 164.036C168.479 163.967 168.341 163.838 168.336 163.817C168.308 163.779 168.274 163.741 168.233 163.703C168.153 163.621 168.074 163.445 167.998 163.306C167.88 162.994 167.767 162.636 167.765 162.254C167.714 161.488 167.932 160.664 168.385 159.982C168.827 159.289 169.621 158.812 170.534 158.802C169.703 158.548 168.641 158.749 167.842 159.387C167.046 160.016 166.413 160.927 166.125 162.007C165.96 162.544 165.919 163.131 165.952 163.742C166.004 164.055 166.019 164.337 166.151 164.691C166.215 164.865 166.285 165.04 166.362 165.213L166.536 165.555C167.217 166.724 168.317 167.495 169.533 167.936C170.747 168.349 172.034 168.413 173.257 168.199C173.866 168.078 174.473 167.917 175.046 167.653C175.339 167.538 175.614 167.375 175.892 167.222C176.167 167.064 176.516 166.799 176.766 166.607C177.641 165.918 178.452 164.885 178.968 163.895C179.499 162.88 179.809 161.837 179.973 160.848Z" fill="#343844"/>
<path d="M179.715 164.933C179.469 165.23 179.291 165.484 179.149 165.722C178.988 165.957 178.919 166.163 178.956 166.313C179.029 166.586 179.522 166.79 180.667 166.17C182.485 165.126 183.981 162.904 184.282 160.153C184.424 158.885 184.293 157.442 183.938 156.123C183.585 154.785 183.022 153.498 182.33 152.291C180.942 149.873 179.092 147.81 177.419 145.745C175.741 143.686 174.219 141.54 173.404 139.243C174.045 141.501 175.303 143.891 176.748 146.241C178.186 148.597 179.747 150.981 180.739 153.405C181.742 155.817 182.128 158.273 181.808 160.274C181.495 162.285 180.575 163.845 179.715 164.933Z" fill="#353945"/>
<path d="M169.151 154.533C169.558 155.397 170.437 155.634 170.71 154.446C171.181 152.554 171.136 150.04 171.41 147.29C171.656 144.553 172.265 141.58 173.403 139.241C172.061 141.337 170.403 144.129 169.499 147.05C168.566 149.949 168.391 152.871 169.151 154.533Z" fill="#353945"/>
<path d="M99.63 17.153C99.63 19.017 98.119 20.528 96.255 20.528C94.391 20.528 92.88 19.017 92.88 17.153C92.88 15.289 94.391 13.778 96.255 13.778C98.119 13.779 99.63 15.29 99.63 17.153Z" fill="#343844"/>
<path d="M99.63 192.927C99.63 191.063 98.119 189.552 96.255 189.552C94.391 189.552 92.88 191.063 92.88 192.927C92.88 194.791 94.391 196.302 96.255 196.302C98.119 196.301 99.63 194.79 99.63 192.927Z" fill="#343844"/>
<path d="M8.36899 101.665C10.233 101.665 11.743 103.176 11.743 105.039C11.743 106.903 10.232 108.414 8.36899 108.414C6.50499 108.414 4.99399 106.903 4.99399 105.039C4.99399 103.176 6.50499 101.665 8.36899 101.665Z" fill="#343844"/>
<path d="M184.142 101.665C182.278 101.665 180.767 103.176 180.767 105.039C180.767 106.903 182.278 108.414 184.142 108.414C186.006 108.414 187.517 106.903 187.517 105.039C187.517 103.176 186.006 101.665 184.142 101.665Z" fill="#343844"/>
</svg>
