<svg width="195" height="195" viewBox="0 0 195 195" fill="none" xmlns="http://www.w3.org/2000/svg">
<path d="M43.866 20.689C41.494 20.399 39.017 20.238 36.463 20.458C33.905 20.677 31.318 21.256 28.831 22.548C27.698 23.146 26.516 23.905 25.525 24.806C24.526 25.701 23.611 26.675 22.856 27.744C21.316 29.861 20.232 32.214 19.542 34.625C19.177 35.826 18.95 37.056 18.769 38.278C18.611 39.477 18.524 40.819 18.541 41.934C18.572 44.414 18.902 46.765 19.48 49.052C20.617 53.619 22.653 57.74 24.986 61.426C23.019 57.362 21.632 53.122 21.126 48.83C20.599 44.544 20.977 40.229 22.488 36.311C23.981 32.419 26.59 28.86 30.167 27.059C33.745 25.212 38.324 25.168 43.233 25.791C47.506 26.332 51.906 27.159 56.514 27.872C61.105 28.578 65.894 29.153 70.742 29.031C75.597 28.91 80.477 27.974 84.859 26.034C89.245 24.115 93.072 21.093 95.647 17.367C92.758 20.666 88.74 23.141 84.319 24.465C79.884 25.814 75.139 26.11 70.506 25.689C65.853 25.271 61.286 24.243 56.838 23.228C52.409 22.208 48.012 21.21 43.866 20.689Z" fill="#343844"/>
<path d="M19.8449 84.843C20.5509 83.555 21.7679 82.226 23.1369 80.702C24.4839 79.196 26.0259 77.381 26.9089 75.191C28.6679 70.881 28.0079 66.214 26.0539 62.958C27.0969 66.782 26.1079 70.612 24.1049 73.364C23.5829 74.073 23.0659 74.633 22.3729 75.278C21.7539 75.84 21.0029 76.455 20.2279 77.086C18.6929 78.372 16.7949 79.84 15.3669 82.314C14.1339 84.453 13.6859 87.169 14.3719 89.725C14.5499 90.365 14.7959 90.992 15.1139 91.587C15.2849 91.881 15.4529 92.173 15.6579 92.445L15.8069 92.651L15.8259 92.676L15.8889 92.765L15.8969 92.774L15.9289 92.809L15.9929 92.88L16.2669 93.18C16.8309 93.794 17.3279 94.143 17.9079 94.503C18.4779 94.845 19.0899 95.093 19.7119 95.274C20.9589 95.622 22.3019 95.661 23.5409 95.273C24.1549 95.087 24.7469 94.8 25.2399 94.415C25.4039 94.296 25.7569 93.984 25.9519 93.768C26.1559 93.533 26.3429 93.292 26.4959 93.034C27.1239 92.013 27.3709 90.859 27.2909 89.773C27.2139 88.684 26.7339 87.663 25.9849 87.016C27.0979 88.632 26.4829 90.867 25.2079 91.99C23.9679 93.135 22.1019 92.976 20.8309 92.138C20.1949 91.73 19.6489 91.138 19.3929 90.603C19.0549 89.97 18.9089 89.32 18.8739 88.633C18.8369 87.955 18.9249 87.263 19.1019 86.621C19.1809 86.307 19.3059 85.971 19.4119 85.714L19.4829 85.544L19.6249 85.248L19.6969 85.097L19.6989 85.092C19.6849 85.121 19.7339 85.02 19.6679 85.157L19.6719 85.15L19.6799 85.137L19.6949 85.11L19.7249 85.057L19.8449 84.843Z" fill="#343844"/>
<path d="M87.1779 13.634C85.8299 15.365 83.9909 16.705 81.7859 17.861C79.5739 18.999 77.166 19.894 74.66 20.487C69.649 21.662 64.2139 21.546 59.3589 20.004C63.9639 22.51 69.1459 23.953 74.6769 23.835C77.4279 23.776 80.3009 23.301 83.0879 22.331C84.5389 21.814 85.9429 21.179 87.3399 20.292C88.7099 19.427 90.105 18.24 91.167 16.878C91.717 16.171 92.101 15.553 92.479 14.825C92.844 14.112 93.1459 13.356 93.3709 12.565C93.8219 10.989 93.9499 9.24302 93.6009 7.53902L93.5709 7.38002L93.546 7.25902L93.5379 7.22902L93.5209 7.16902L93.4539 6.92702C93.4219 6.79902 93.333 6.52102 93.255 6.29402C93.089 5.81502 92.928 5.45802 92.716 5.06202C92.309 4.29302 91.8009 3.58802 91.2039 2.96502C90.0189 1.72402 88.4409 0.785025 86.6859 0.497025C86.4689 0.461025 86.2469 0.443022 86.0299 0.419022L85.9479 0.411022L85.8399 0.400024H85.8239L85.7919 0.401024L85.6639 0.403023L85.4079 0.408024C85.2529 0.408024 84.9339 0.437022 84.7089 0.460022C84.4479 0.479022 84.2669 0.540024 84.0449 0.582024C83.2009 0.785024 82.4269 1.14102 81.7449 1.60602C80.3899 2.53102 79.3539 3.93502 79.0579 5.53502C78.7559 7.14702 79.2649 8.75802 80.3689 9.79702C81.4799 10.835 83.2059 10.968 84.2749 10.164C83.1109 10.72 81.6739 10.243 81.0029 9.29802C80.3029 8.35102 80.2079 7.01002 80.6509 5.99702C81.0799 4.96302 82.006 4.16702 83.035 3.76602C84.088 3.35702 85.1379 3.37002 86.0319 3.76902C87.8749 4.54702 89.0679 6.67602 89.0619 8.46202C89.0849 9.40702 88.8849 10.354 88.5399 11.243C88.2109 12.113 87.6579 13.002 87.1779 13.634Z" fill="#343844"/>
<path d="M51.9389 8.19103C51.9459 8.99803 52.3199 9.60403 52.6829 9.87903C52.8589 10.019 53.0409 10.094 53.1809 10.122C53.3119 10.133 53.4119 10.113 53.4779 10.069C53.7689 9.85303 53.2549 9.37403 53.4909 8.36403C53.6049 7.94803 53.8679 7.64303 54.2729 7.43303C54.6819 7.22703 55.1719 7.16703 55.6429 7.29403C56.1129 7.40203 56.6509 7.75603 56.9839 8.13503C57.4259 8.63003 57.6599 9.15103 57.8069 9.80403C57.9389 10.439 57.9209 11.136 57.7279 11.779C57.4899 12.477 57.1819 13.064 56.6579 13.553C55.6569 14.555 53.9319 14.978 52.1509 15.038C50.3509 15.108 48.4609 14.815 46.5099 14.577C44.5709 14.315 42.507 14.253 40.563 14.545C38.614 14.813 36.7139 15.389 35.0789 16.34C33.4279 17.268 32.1209 18.658 31.3459 20.225C32.1609 18.744 33.5039 17.45 35.1769 16.667C36.8309 15.851 38.7409 15.455 40.6709 15.373C42.6159 15.265 44.5359 15.538 46.4929 15.991C48.4329 16.42 50.4849 16.927 52.5959 16.957C53.6559 16.962 54.7429 16.878 55.8119 16.541C56.8779 16.222 57.9249 15.618 58.7049 14.752C58.9069 14.543 59.0669 14.305 59.2419 14.075C59.3899 13.829 59.5899 13.511 59.6759 13.315L59.8209 13.004L59.8569 12.927L59.8989 12.829L59.9169 12.779L59.9889 12.579C60.0819 12.312 60.1549 12.041 60.2079 11.769C60.4209 10.68 60.3369 9.57803 59.9959 8.57803C59.3429 6.55603 57.4449 5.05503 55.5019 5.04103C54.4559 5.03103 53.5879 5.40403 52.9269 5.99903C52.2569 6.59803 51.9219 7.44903 51.9389 8.19103Z" fill="#353945"/>
<path d="M45.535 18.477C46.359 18.288 46.781 17.496 45.864 16.95C44.239 16.026 41.673 15.938 39.17 16.576C36.646 17.186 34.272 18.486 32.377 19.651C34.366 18.757 37.11 18.405 39.532 18.469C41.972 18.498 44.09 18.847 45.535 18.477Z" fill="#353945"/>
<path d="M43.7279 11.214C44.5209 10.836 44.7569 9.96604 43.6889 9.65304C43.2599 9.52604 42.6559 9.48404 42.1039 9.51304C41.5389 9.53504 40.9499 9.65104 40.3469 9.81604C39.1469 10.171 37.9309 10.823 36.8499 11.676C34.6489 13.378 33.1399 15.874 32.2939 18.039C32.8469 17.048 33.6849 16.062 34.6839 15.237C35.6819 14.407 36.8379 13.744 37.9739 13.244C40.2619 12.222 42.4049 11.915 43.7279 11.214Z" fill="#353945"/>
<path d="M4.81897 40.098C5.67997 40.091 6.21097 40.628 6.52597 40.674C6.60597 40.672 6.67096 40.629 6.71696 40.541C6.76896 40.463 6.79696 40.32 6.73796 40.073C6.65096 39.657 6.22097 38.909 5.17297 38.577C4.31997 38.29 3.21697 38.471 2.42797 39.062C1.62797 39.627 1.03997 40.566 0.880966 41.608C0.725966 42.656 0.911965 43.662 1.43896 44.653C1.88896 45.513 2.70797 46.341 3.61497 46.85C4.53497 47.378 5.60197 47.678 6.71297 47.675C7.74697 47.657 8.93197 47.402 9.88797 46.797C10.868 46.214 11.63 45.358 12.177 44.447C12.739 43.534 13.097 42.556 13.377 41.577C13.926 39.61 14.057 37.614 14.254 35.701C14.428 33.775 14.784 31.934 15.471 30.164C16.135 28.403 17.089 26.744 18.363 25.422C19.619 24.081 21.269 23.169 22.993 22.849C21.323 23.089 19.594 23.853 18.182 25.134C16.746 26.384 15.581 28.042 14.694 29.858C13.779 31.663 13.204 33.723 12.839 35.711C12.449 37.714 12.118 39.641 11.421 41.371C10.742 43.075 9.68797 44.519 8.34397 45C8.18197 45.073 8.00197 45.106 7.83797 45.162C7.66297 45.181 7.58297 45.227 7.33897 45.244L6.99797 45.273L6.91296 45.28L6.89196 45.282L6.88097 45.283C6.86397 45.284 6.99296 45.274 6.93396 45.278L6.90197 45.277L6.77396 45.276C6.60396 45.274 6.43297 45.261 6.26497 45.234C5.59097 45.134 4.95297 44.861 4.44497 44.484C3.41597 43.741 2.95897 42.54 3.14697 41.595C3.21197 41.203 3.46996 40.757 3.77296 40.501C4.06696 40.238 4.43597 40.093 4.81897 40.098Z" fill="#353945"/>
<path d="M15.438 35.627C15.708 36.428 16.538 36.77 16.99 35.802C17.743 34.298 18.085 32.207 18.804 29.953C19.49 27.709 20.607 25.317 22.125 23.651C20.477 25.029 18.389 26.963 17.006 29.268C15.598 31.541 14.942 34.067 15.438 35.627Z" fill="#353945"/>
<path d="M9.18098 31.301C9.24198 32.177 9.96398 32.716 10.648 31.837C11.743 30.55 12.73 28.65 14.377 26.862C15.968 25.068 18.285 23.491 20.62 23.065C19.491 23.138 18.195 23.303 16.868 23.69C15.543 24.073 14.2 24.686 13.024 25.495C10.644 27.091 9.09798 29.554 9.18098 31.301Z" fill="#353945"/>
<path d="M23.7319 14.325C22.8409 14.762 22.0909 15.557 21.7179 16.568C21.3379 17.589 21.4329 18.664 21.8539 19.519C22.2569 20.383 23.0679 21.027 23.8259 21.185C24.5809 21.37 25.2989 21.189 25.7359 20.853C25.1869 20.686 24.8629 20.241 24.7879 19.835C24.6999 19.415 24.9129 19.109 25.1319 18.937C25.3589 18.762 25.6249 18.706 25.7629 18.805C25.9049 18.888 25.9669 18.958 26.0059 18.936C26.0319 18.925 26.0059 18.905 26.0559 18.849C26.0239 18.81 26.0439 18.743 26.0039 18.659C25.8559 18.469 25.9849 18.182 26.3199 18.192C26.6469 18.185 27.0649 18.397 27.4199 18.779C27.7809 19.161 28.0839 19.679 28.3449 20.181C28.5869 19.685 28.8729 19.162 29.0539 18.501C29.2339 17.843 29.2849 17.005 28.9409 16.137C28.7699 15.707 28.4939 15.268 28.0809 14.889C27.9779 14.797 27.8759 14.707 27.7049 14.602C27.4589 14.468 27.6249 14.51 27.3729 14.389C27.1109 14.25 26.8389 14.144 26.5709 14.072C26.0249 13.927 25.5379 13.896 25.0269 13.952C24.5949 13.993 24.1179 14.132 23.7319 14.325Z" fill="#343844"/>
<path d="M22.993 64.429C22.993 66.213 21.547 67.659 19.763 67.659C17.979 67.659 16.533 66.213 16.533 64.429C16.533 62.645 17.979 61.199 19.763 61.199C21.547 61.199 22.993 62.645 22.993 64.429Z" fill="#343844"/>
<path d="M16.714 47.168C16.238 46.578 15.35 46.527 15.18 47.459C14.908 49.052 15.548 51.08 16.574 53.039C17.591 55.01 18.982 56.885 20.039 58.524C19.258 56.793 18.749 54.43 18.348 52.293C17.932 50.152 17.59 48.227 16.714 47.168Z" fill="#353945"/>
<path d="M12.4609 52.563C11.9499 52.201 11.0829 52.34 10.9929 53.096C10.8869 54.467 11.8919 56.024 13.3399 57.106C14.7829 58.222 16.571 58.823 17.999 59.251C16.6919 58.563 15.4839 57.108 14.6969 55.741C13.8739 54.371 13.3759 53.137 12.4609 52.563Z" fill="#353945"/>
<path d="M7.88994 60.03C7.31694 60.138 6.79394 60.84 7.18194 61.422C7.88894 62.419 9.37994 62.88 10.9639 62.941C12.5579 63.018 14.1949 62.695 15.5309 62.54C14.2169 62.407 12.6589 61.721 11.3489 61.057C10.0229 60.403 8.90394 59.804 7.88994 60.03Z" fill="#353945"/>
<path d="M7.76398 67.189C7.41298 67.585 7.37998 68.456 7.93198 68.742C8.90298 69.21 10.171 68.85 11.338 68.168C12.519 67.491 13.568 66.51 14.501 65.847C13.451 66.246 11.984 66.308 10.723 66.346C9.45498 66.397 8.37298 66.46 7.76398 67.189Z" fill="#353945"/>
<path d="M10.6689 73.657C10.7959 74.151 11.4849 74.682 12.0229 74.435C12.8879 74.084 13.314 73.217 13.823 72.2C14.317 71.188 14.93 70.022 15.747 69.309C14.816 69.747 13.4609 70.197 12.3609 70.954C11.2599 71.693 10.4579 72.697 10.6689 73.657Z" fill="#353945"/>
<path d="M14.9269 76.066C14.8859 76.617 15.4079 77.318 16.0439 77.158C17.1689 76.821 17.9799 75.538 18.3229 74.081C18.6899 72.615 18.5869 71.052 18.5579 69.824C18.3029 71.014 17.4159 72.315 16.5619 73.307C15.7149 74.325 14.9459 75.1 14.9269 76.066Z" fill="#353945"/>
<path d="M21.283 72.715C21.423 73.174 22.11 73.706 22.623 73.518C23.533 73.111 23.89 71.928 23.776 70.741C23.682 69.537 23.142 68.408 22.804 67.539C22.862 68.472 22.369 69.606 21.877 70.445C21.392 71.309 20.974 71.94 21.283 72.715Z" fill="#353945"/>
<path d="M85.8299 7.59204C85.8299 9.31404 84.4339 10.709 82.7129 10.709C80.9909 10.709 79.5959 9.31304 79.5959 7.59204C79.5959 5.87004 80.9919 4.47504 82.7129 4.47504C84.4339 4.47504 85.8299 5.87004 85.8299 7.59204Z" fill="#343844"/>
<path d="M26.879 89.1931C26.879 90.9151 25.483 92.3101 23.762 92.3101C22.04 92.3101 20.645 90.9141 20.645 89.1931C20.645 87.4711 22.041 86.076 23.762 86.076C25.483 86.076 26.879 87.4721 26.879 89.1931Z" fill="#343844"/>
<path d="M152.115 25.792C154.294 25.524 156.456 25.349 158.548 25.45C160.622 25.534 162.701 25.926 164.444 26.68C168.173 28.231 170.988 31.682 172.657 35.714C173.09 36.716 173.408 37.768 173.697 38.829C173.966 39.924 174.161 40.897 174.294 42.101C174.529 44.258 174.512 46.542 174.236 48.748C173.712 53.197 172.254 57.494 170.36 61.425C172.767 57.606 174.732 53.537 175.85 49.136C176.423 46.942 176.749 44.665 176.823 42.344C176.83 41.699 176.835 41.226 176.812 40.619C176.776 40.02 176.749 39.407 176.672 38.828C176.556 37.65 176.321 36.48 176.036 35.311C175.423 32.986 174.5 30.673 173.091 28.54C172.398 27.469 171.585 26.444 170.634 25.514C169.705 24.569 168.609 23.721 167.433 23.022C165.063 21.6 162.333 20.802 159.617 20.515C156.891 20.215 154.165 20.358 151.482 20.689C142.356 21.834 133.572 24.92 124.513 25.702C120.018 26.084 115.416 25.788 111.066 24.48C106.73 23.191 102.685 20.785 99.7 17.367C102.179 20.972 105.972 24.06 110.447 26.018C114.906 28.002 119.977 28.939 124.954 29.018C129.937 29.105 134.818 28.475 139.378 27.769C143.96 27.049 148.196 26.284 152.115 25.792Z" fill="#343844"/>
<path d="M179.981 82.316C178.734 80.115 176.957 78.637 175.409 77.364C173.829 76.081 172.409 74.996 171.36 73.591C169.204 70.761 168.264 66.651 169.295 62.959C167.323 66.356 166.737 70.731 168.287 74.898C168.665 75.914 169.253 76.991 169.855 77.86C170.524 78.818 171.21 79.628 171.918 80.422C173.32 81.989 174.694 83.388 175.504 84.844C176.193 86.023 176.553 87.425 176.448 88.794C176.415 89.131 176.356 89.461 176.268 89.785C176.213 89.94 176.169 90.104 176.099 90.255L176.052 90.372L176.046 90.387C175.997 90.459 176.112 90.294 176.098 90.313L176.095 90.318L176.089 90.328L176.065 90.369L176.017 90.451L175.839 90.757C175.765 90.926 175.507 91.26 175.274 91.5C175.027 91.758 174.732 91.978 174.417 92.177C173.782 92.562 173.032 92.812 172.279 92.803C171.9 92.803 171.519 92.752 171.15 92.606L170.972 92.535L170.866 92.481C170.794 92.44 170.721 92.426 170.638 92.367C170.47 92.261 170.301 92.145 170.148 92.002C168.899 90.916 168.217 88.695 169.362 87.017C167.846 88.274 167.566 90.962 168.838 93.019C168.995 93.282 169.183 93.5291 169.394 93.7681C169.596 93.9911 169.953 94.303 170.121 94.425C170.635 94.816 171.24 95.109 171.877 95.288C173.156 95.666 174.536 95.597 175.808 95.208C177.084 94.793 178.257 94.102 179.227 92.987C180.12 91.977 180.74 90.685 181.029 89.416C181.332 88.137 181.35 86.848 181.152 85.642C181.056 85.028 180.908 84.47 180.697 83.871L180.518 83.406L180.378 83.087L180.309 82.934L180.179 82.681L179.981 82.316Z" fill="#343844"/>
<path d="M104.182 16.878C105.113 18.072 106.368 19.195 107.644 20.039C108.937 20.902 110.31 21.567 111.702 22.093C114.475 23.124 117.385 23.669 120.26 23.79C126.029 24.017 131.559 22.47 135.989 20.004C130.965 21.584 125.873 21.605 121.056 20.527C118.636 19.982 116.305 19.169 113.995 18.046C112.904 17.504 111.791 16.866 110.81 16.147C109.807 15.407 108.96 14.647 108.169 13.633C107.027 12.15 106.161 10.101 106.316 8.24003C106.405 6.46003 107.643 4.41903 109.448 3.73103C111.11 2.97503 113.82 3.92403 114.692 5.97803C115.134 6.95203 115.065 8.30103 114.384 9.25703C113.732 10.216 112.281 10.741 111.072 10.164C112.098 10.943 113.794 10.865 114.928 9.84903C116.056 8.84403 116.597 7.19103 116.296 5.56303C116.002 3.92903 114.93 2.48802 113.521 1.55902C112.812 1.09202 112.006 0.740026 111.129 0.556026C110.921 0.504026 110.679 0.469027 110.416 0.451027L110.035 0.423027L109.772 0.418026L109.509 0.413025L109.086 0.456028C108.86 0.476028 108.636 0.509028 108.416 0.560028C106.632 0.925028 105.063 1.94303 103.91 3.24803C103.33 3.90403 102.844 4.63803 102.466 5.43103L102.203 6.04003L101.966 6.74603L101.828 7.23603L101.691 7.94403C101.419 9.64703 101.607 11.338 102.067 12.842C102.295 13.598 102.599 14.307 102.95 14.973C103.313 15.652 103.679 16.231 104.182 16.878Z" fill="#343844"/>
<path d="M141.944 8.34405C142.22 9.16005 141.875 9.83204 141.93 10.145C141.957 10.22 142.018 10.268 142.116 10.285C142.206 10.31 142.351 10.292 142.567 10.159C142.935 9.94604 143.511 9.30505 143.499 8.20505C143.505 7.30505 142.988 6.31405 142.181 5.74905C141.394 5.16505 140.319 4.90005 139.279 5.07505C138.235 5.25505 137.338 5.74604 136.56 6.55604C135.884 7.25204 135.352 8.28904 135.153 9.30904C134.939 10.348 134.987 11.455 135.336 12.51C135.677 13.487 136.288 14.532 137.162 15.252C138.022 16.001 139.073 16.458 140.11 16.692C141.152 16.941 142.193 16.976 143.211 16.936C145.251 16.843 147.188 16.344 149.067 15.934C150.951 15.497 152.811 15.261 154.707 15.361C156.588 15.442 158.461 15.829 160.115 16.627C161.782 17.402 163.163 18.684 164.005 20.221C163.256 18.71 161.989 17.306 160.332 16.365C158.696 15.392 156.757 14.802 154.755 14.527C152.755 14.221 150.618 14.318 148.615 14.593C146.59 14.848 144.656 15.136 142.796 15.014C140.965 14.901 139.264 14.35 138.387 13.224C138.267 13.093 138.179 12.932 138.075 12.794C138.002 12.634 137.934 12.572 137.841 12.345L137.707 12.03L137.674 11.952L137.666 11.932L137.662 11.922C137.655 11.906 137.705 12.026 137.683 11.971L137.674 11.94L137.635 11.818C137.583 11.656 137.543 11.49 137.516 11.322C137.4 10.65 137.461 9.95905 137.66 9.35805C138.044 8.14905 139.042 7.33904 140 7.22304C140.393 7.16204 140.897 7.26905 141.235 7.47605C141.576 7.67305 141.829 7.97905 141.944 8.34405Z" fill="#353945"/>
<path d="M149.508 17.0351C148.831 17.5411 148.766 18.4371 149.826 18.5641C151.49 18.8091 153.584 18.4821 155.949 18.4611C158.295 18.4121 160.916 18.7261 162.973 19.6481C161.149 18.5131 158.66 17.1331 156.038 16.5401C153.44 15.9111 150.835 16.0771 149.508 17.0351Z" fill="#353945"/>
<path d="M151.663 9.74104C150.85 10.073 150.564 10.927 151.612 11.302C153.177 11.94 155.29 12.284 157.503 13.291C159.704 14.242 161.926 15.951 163.06 18.036C162.638 16.986 162.076 15.806 161.294 14.667C160.516 13.528 159.515 12.443 158.379 11.579C156.12 9.81504 153.298 9.11604 151.663 9.74104Z" fill="#353945"/>
<path d="M190.217 38.658C189.453 38.917 188.994 39.461 188.845 39.892C188.767 40.103 188.752 40.3 188.77 40.441C188.8 40.569 188.851 40.657 188.913 40.707C189.209 40.916 189.504 40.278 190.537 40.187C190.968 40.165 191.34 40.32 191.666 40.639C191.989 40.963 192.199 41.41 192.226 41.897C192.27 42.377 192.102 42.999 191.846 43.434C191.514 44.009 191.092 44.394 190.518 44.737C189.956 45.061 189.288 45.261 188.617 45.279C187.88 45.271 187.225 45.162 186.598 44.816C185.334 44.178 184.392 42.671 183.779 40.998C183.15 39.31 182.839 37.422 182.455 35.495C182.099 33.571 181.513 31.591 180.628 29.836C179.765 28.069 178.625 26.443 177.211 25.187C175.814 23.909 174.085 23.101 172.355 22.854C174.017 23.166 175.665 24.037 176.931 25.382C178.223 26.698 179.195 28.39 179.876 30.197C180.586 32.011 180.926 33.92 181.107 35.92C181.306 37.897 181.465 40.004 182.095 42.019C182.422 43.028 182.84 44.034 183.495 44.944C184.131 45.857 185.031 46.663 186.099 47.133C186.36 47.26 186.636 47.337 186.91 47.432C187.19 47.496 187.554 47.587 187.768 47.607L188.108 47.648L188.193 47.658L188.3 47.667L188.353 47.669L188.565 47.675C188.848 47.681 189.128 47.665 189.403 47.63C190.504 47.492 191.525 47.068 192.368 46.432C194.085 45.18 194.918 42.908 194.325 41.058C194.008 40.062 193.382 39.353 192.611 38.911C191.83 38.463 190.916 38.41 190.217 38.658Z" fill="#353945"/>
<path d="M178.446 35.787C178.883 36.511 179.767 36.665 179.999 35.623C180.369 33.791 179.651 31.326 178.263 29.147C176.896 26.94 174.919 25.091 173.22 23.655C174.69 25.265 175.881 27.762 176.577 30.083C177.313 32.409 177.643 34.53 178.446 35.787Z" fill="#353945"/>
<path d="M184.781 31.802C185.388 32.437 186.288 32.39 186.252 31.277C186.239 30.829 186.09 30.242 185.89 29.727C185.692 29.198 185.398 28.674 185.053 28.152C184.341 27.123 183.342 26.171 182.194 25.41C179.889 23.85 177.047 23.197 174.727 23.069C175.841 23.285 177.039 23.773 178.135 24.465C179.235 25.154 180.226 26.045 181.056 26.968C182.742 28.824 183.702 30.764 184.781 31.802Z" fill="#353945"/>
<path d="M169.342 18.936C169.376 18.952 169.446 18.888 169.583 18.802C169.718 18.703 169.99 18.736 170.218 18.917C170.443 19.094 170.658 19.403 170.564 19.83C170.483 20.245 170.144 20.684 169.611 20.852C170.067 21.19 170.776 21.357 171.51 21.191C172.246 21.05 173.036 20.465 173.468 19.648C173.904 18.836 174.065 17.808 173.725 16.75C173.391 15.709 172.622 14.819 171.614 14.324C171.193 14.112 170.682 13.972 170.231 13.934C169.697 13.882 169.195 13.926 168.642 14.089C167.457 14.424 166.656 15.352 166.366 16.186C166.051 17.035 166.111 17.849 166.292 18.495C166.475 19.145 166.759 19.668 167 20.181C167.261 19.697 167.562 19.174 167.924 18.783C168.279 18.392 168.705 18.17 169.033 18.181C169.113 18.182 169.185 18.2 169.242 18.228C169.271 18.244 169.295 18.26 169.315 18.282C169.325 18.291 169.334 18.302 169.342 18.315L169.307 18.261C169.29 18.229 169.277 18.194 169.223 18.192C169.104 18.205 169.342 18.089 169.241 18.129C169.265 18.196 169.286 18.288 169.299 18.398C169.313 18.507 169.315 18.629 169.31 18.746C169.296 18.825 169.328 18.822 169.292 18.849C169.343 18.905 169.318 18.927 169.342 18.936Z" fill="#343844"/>
<path d="M172.355 64.429C172.355 66.213 173.801 67.659 175.585 67.659C177.369 67.659 178.815 66.213 178.815 64.429C178.815 62.645 177.369 61.199 175.585 61.199C173.801 61.199 172.355 62.645 172.355 64.429Z" fill="#343844"/>
<path d="M180.081 47.447C179.859 46.722 179.054 46.344 178.549 47.146C177.712 48.436 177.383 50.336 176.984 52.411C176.598 54.481 176.124 56.737 175.314 58.526C176.342 56.946 177.804 54.979 178.836 52.931C179.878 50.895 180.486 48.823 180.081 47.447Z" fill="#353945"/>
<path d="M184.271 53.07C184.114 52.464 183.362 52.011 182.806 52.53C181.913 53.271 181.415 54.491 180.612 55.82C179.842 57.143 178.701 58.544 177.351 59.256C178.732 58.853 180.617 58.23 182.09 57.047C183.572 55.902 184.535 54.282 184.271 53.07Z" fill="#353945"/>
<path d="M188.123 61.345C188.375 60.819 188.12 59.982 187.421 59.95C186.317 59.861 185.214 60.46 183.928 61.099C182.658 61.745 181.175 62.41 179.817 62.546C181.107 62.703 182.827 63.045 184.474 62.942C186.111 62.857 187.61 62.344 188.123 61.345Z" fill="#353945"/>
<path d="M187.423 68.654C187.852 68.344 188.073 67.5 187.596 67.102C186.857 66.442 185.786 66.392 184.554 66.349C183.33 66.316 181.928 66.266 180.845 65.851C181.743 66.497 182.845 67.528 184.075 68.21C185.291 68.898 186.587 69.225 187.423 68.654Z" fill="#353945"/>
<path d="M183.401 74.389C183.891 74.53 184.699 74.205 184.758 73.616C184.823 72.579 184 71.616 182.925 70.917C181.849 70.201 180.559 69.772 179.599 69.313C180.389 70.005 181.039 71.22 181.55 72.261C182.078 73.304 182.518 74.175 183.401 74.389Z" fill="#353945"/>
<path d="M179.365 77.094C179.915 77.15 180.629 76.647 180.486 76.007C180.324 75.008 179.559 74.243 178.734 73.254C177.906 72.289 177.048 71.054 176.786 69.824C176.749 71.01 176.636 72.654 177.043 74.164C177.421 75.666 178.291 76.939 179.365 77.094Z" fill="#353945"/>
<path d="M172.801 73.47C173.271 73.564 174.065 73.212 174.143 72.671C174.337 71.864 173.914 71.24 173.441 70.398C172.962 69.58 172.48 68.5 172.542 67.536C172.207 68.373 171.637 69.558 171.565 70.807C171.469 72.038 171.882 73.225 172.801 73.47Z" fill="#353945"/>
<path d="M109.519 7.59204C109.519 9.31404 110.915 10.709 112.636 10.709C114.357 10.709 115.753 9.31304 115.753 7.59204C115.753 5.87004 114.357 4.47504 112.636 4.47504C110.915 4.47504 109.519 5.87004 109.519 7.59204Z" fill="#343844"/>
<path d="M168.47 89.1931C168.47 90.9151 169.866 92.3101 171.587 92.3101C173.309 92.3101 174.704 90.9141 174.704 89.1931C174.704 87.4711 173.308 86.076 171.587 86.076C169.865 86.076 168.47 87.4721 168.47 89.1931Z" fill="#343844"/>
<path d="M43.233 168.717C41.054 168.985 38.892 169.16 36.8 169.059C34.726 168.975 32.647 168.583 30.904 167.829C27.175 166.278 24.36 162.827 22.691 158.794C22.258 157.792 21.94 156.74 21.651 155.679C21.382 154.584 21.188 153.611 21.054 152.407C20.819 150.25 20.836 147.966 21.112 145.759C21.636 141.31 23.094 137.013 24.988 133.082C22.581 136.901 20.616 140.97 19.498 145.371C18.925 147.565 18.599 149.842 18.525 152.163C18.518 152.808 18.513 153.281 18.536 153.888C18.572 154.487 18.599 155.1 18.676 155.679C18.792 156.857 19.027 158.027 19.312 159.196C19.925 161.521 20.848 163.834 22.257 165.967C22.95 167.038 23.763 168.063 24.714 168.993C25.643 169.938 26.739 170.786 27.915 171.485C30.285 172.906 33.015 173.705 35.731 173.992C38.457 174.292 41.184 174.149 43.866 173.818C52.992 172.673 61.776 169.587 70.835 168.805C75.33 168.423 79.932 168.719 84.282 170.027C88.618 171.316 92.663 173.722 95.648 177.14C93.169 173.535 89.376 170.447 84.901 168.489C80.442 166.505 75.371 165.568 70.394 165.489C65.411 165.402 60.53 166.032 55.97 166.738C51.389 167.459 47.153 168.224 43.233 168.717Z" fill="#343844"/>
<path d="M15.367 112.193C16.614 114.394 18.391 115.872 19.939 117.145C21.518 118.428 22.939 119.513 23.988 120.918C26.144 123.748 27.084 127.857 26.053 131.55C28.025 128.153 28.611 123.778 27.061 119.611C26.683 118.595 26.095 117.518 25.493 116.649C24.824 115.691 24.138 114.881 23.43 114.087C22.028 112.52 20.654 111.121 19.844 109.665C19.155 108.486 18.795 107.084 18.9 105.715C18.933 105.378 18.992 105.048 19.08 104.724C19.135 104.569 19.179 104.405 19.249 104.255L19.296 104.138L19.302 104.123C19.351 104.051 19.236 104.216 19.249 104.197L19.252 104.192L19.258 104.182L19.282 104.141L19.33 104.059L19.508 103.754C19.582 103.585 19.84 103.251 20.073 103.011C20.32 102.753 20.615 102.533 20.93 102.333C21.565 101.948 22.315 101.698 23.068 101.707C23.447 101.707 23.828 101.758 24.197 101.904L24.374 101.975L24.48 102.029C24.552 102.07 24.625 102.084 24.708 102.143C24.876 102.25 25.045 102.365 25.198 102.508C26.447 103.594 27.129 105.815 25.984 107.493C27.5 106.236 27.78 103.548 26.508 101.491C26.351 101.228 26.163 100.981 25.952 100.742C25.751 100.519 25.393 100.207 25.225 100.085C24.711 99.694 24.106 99.401 23.469 99.222C22.19 98.844 20.81 98.913 19.537 99.302C18.261 99.717 17.088 100.408 16.118 101.523C15.225 102.533 14.605 103.825 14.316 105.093C14.013 106.372 13.995 107.661 14.193 108.867C14.289 109.481 14.437 110.038 14.648 110.638L14.827 111.102L14.967 111.421L15.036 111.574L15.166 111.827L15.367 112.193Z" fill="#343844"/>
<path d="M91.167 177.63C90.236 176.436 88.981 175.313 87.705 174.469C86.412 173.606 85.039 172.941 83.647 172.415C80.874 171.384 77.964 170.839 75.089 170.718C69.32 170.491 63.79 172.038 59.36 174.504C64.384 172.924 69.476 172.903 74.293 173.981C76.713 174.526 79.044 175.339 81.354 176.462C82.445 177.004 83.558 177.642 84.539 178.361C85.542 179.101 86.389 179.862 87.18 180.875C88.322 182.358 89.188 184.407 89.033 186.268C88.944 188.049 87.706 190.089 85.901 190.777C84.239 191.533 81.529 190.584 80.657 188.53C80.215 187.556 80.284 186.207 80.965 185.251C81.616 184.292 83.068 183.767 84.276 184.344C83.251 183.564 81.554 183.643 80.42 184.659C79.292 185.664 78.751 187.317 79.052 188.945C79.346 190.579 80.418 192.02 81.827 192.949C82.536 193.416 83.342 193.768 84.219 193.952C84.427 194.004 84.669 194.039 84.932 194.057L85.313 194.085L85.576 194.09L85.839 194.094L86.262 194.051C86.488 194.031 86.712 193.998 86.932 193.947C88.716 193.582 90.285 192.564 91.438 191.258C92.018 190.602 92.504 189.868 92.882 189.075L93.145 188.466L93.382 187.76L93.52 187.27L93.657 186.562C93.929 184.859 93.741 183.168 93.281 181.664C93.053 180.908 92.749 180.199 92.398 179.533C92.036 178.856 91.669 178.277 91.167 177.63Z" fill="#343844"/>
<path d="M53.404 186.164C53.128 185.348 53.472 184.676 53.418 184.363C53.391 184.288 53.33 184.24 53.232 184.222C53.142 184.197 52.998 184.215 52.781 184.348C52.413 184.561 51.837 185.202 51.849 186.302C51.843 187.202 52.359 188.193 53.167 188.758C53.954 189.342 55.029 189.607 56.069 189.432C57.113 189.252 58.01 188.761 58.787 187.95C59.463 187.254 59.995 186.218 60.195 185.197C60.409 184.158 60.361 183.051 60.011 181.996C59.67 181.019 59.059 179.974 58.185 179.254C57.325 178.505 56.274 178.048 55.237 177.814C54.195 177.565 53.154 177.53 52.136 177.57C50.096 177.663 48.159 178.162 46.28 178.572C44.396 179.009 42.536 179.245 40.64 179.145C38.759 179.064 36.886 178.677 35.232 177.879C33.565 177.104 32.184 175.822 31.342 174.285C32.091 175.796 33.358 177.2 35.015 178.141C36.651 179.114 38.59 179.704 40.592 179.979C42.592 180.285 44.729 180.188 46.732 179.913C48.757 179.658 50.691 179.37 52.552 179.492C54.383 179.605 56.084 180.156 56.961 181.282C57.081 181.413 57.169 181.574 57.273 181.712C57.346 181.872 57.415 181.934 57.507 182.161L57.641 182.476L57.674 182.555L57.682 182.575L57.686 182.585C57.693 182.601 57.643 182.481 57.665 182.536L57.674 182.567L57.713 182.689C57.765 182.851 57.805 183.017 57.832 183.185C57.948 183.856 57.887 184.548 57.688 185.149C57.304 186.358 56.306 187.168 55.348 187.285C54.955 187.345 54.451 187.239 54.113 187.032C53.772 186.835 53.519 186.53 53.404 186.164Z" fill="#353945"/>
<path d="M45.8399 177.473C46.5169 176.967 46.5819 176.071 45.5219 175.944C43.8579 175.699 41.7639 176.026 39.3989 176.047C37.0529 176.096 34.4319 175.782 32.3749 174.86C34.1989 175.995 36.6879 177.375 39.3099 177.968C41.9089 178.597 44.5129 178.431 45.8399 177.473Z" fill="#353945"/>
<path d="M43.685 184.767C44.498 184.435 44.784 183.581 43.736 183.206C42.171 182.568 40.058 182.224 37.845 181.217C35.644 180.266 33.422 178.557 32.288 176.472C32.71 177.522 33.272 178.702 34.054 179.842C34.832 180.981 35.834 182.065 36.969 182.93C39.229 184.693 42.051 185.393 43.685 184.767Z" fill="#353945"/>
<path d="M5.13096 155.85C5.89496 155.591 6.35396 155.047 6.50296 154.616C6.58096 154.404 6.59596 154.208 6.57796 154.067C6.54796 153.939 6.49696 153.851 6.43496 153.801C6.13896 153.592 5.84396 154.23 4.81096 154.321C4.37996 154.343 4.00796 154.188 3.68196 153.869C3.35896 153.545 3.14896 153.098 3.12196 152.611C3.07796 152.131 3.24696 151.509 3.50196 151.074C3.83396 150.499 4.25596 150.114 4.82996 149.771C5.39196 149.447 6.05996 149.247 6.73096 149.229C7.46796 149.237 8.12296 149.346 8.74996 149.692C10.014 150.33 10.956 151.837 11.569 153.51C12.198 155.198 12.509 157.086 12.893 159.013C13.249 160.937 13.835 162.917 14.72 164.672C15.583 166.439 16.723 168.065 18.137 169.321C19.534 170.599 21.263 171.407 22.993 171.654C21.332 171.342 19.683 170.471 18.417 169.126C17.125 167.81 16.153 166.118 15.472 164.311C14.762 162.497 14.422 160.588 14.241 158.588C14.042 156.611 13.883 154.504 13.253 152.489C12.926 151.481 12.508 150.474 11.853 149.564C11.217 148.651 10.317 147.845 9.24896 147.375C8.98796 147.248 8.71196 147.171 8.43796 147.076C8.15796 147.012 7.79396 146.921 7.57996 146.901L7.23996 146.861L7.15496 146.851L7.04796 146.842L6.99496 146.84L6.78296 146.834C6.49996 146.828 6.21996 146.844 5.94496 146.879C4.84396 147.016 3.82296 147.44 2.97996 148.077C1.26296 149.329 0.429959 151.601 1.02296 153.451C1.33996 154.447 1.96596 155.156 2.73696 155.598C3.51896 156.045 4.43196 156.098 5.13096 155.85Z" fill="#353945"/>
<path d="M16.902 158.721C16.465 157.997 15.581 157.843 15.349 158.885C14.979 160.717 15.697 163.182 17.085 165.36C18.452 167.567 20.429 169.416 22.128 170.852C20.658 169.242 19.467 166.745 18.771 164.424C18.036 162.099 17.705 159.978 16.902 158.721Z" fill="#353945"/>
<path d="M10.567 162.706C9.95996 162.071 9.05996 162.118 9.09596 163.231C9.10896 163.679 9.25796 164.266 9.45796 164.781C9.65496 165.31 9.94996 165.834 10.294 166.356C11.006 167.385 12.005 168.337 13.153 169.098C15.458 170.658 18.3 171.311 20.62 171.439C19.506 171.223 18.308 170.735 17.212 170.043C16.112 169.354 15.121 168.463 14.291 167.54C12.607 165.684 11.647 163.744 10.567 162.706Z" fill="#353945"/>
<path d="M26.006 175.572C25.972 175.556 25.902 175.62 25.765 175.706C25.629 175.805 25.358 175.772 25.129 175.591C24.904 175.414 24.689 175.105 24.783 174.678C24.865 174.263 25.203 173.824 25.736 173.656C25.28 173.318 24.57 173.151 23.837 173.316C23.101 173.457 22.311 174.042 21.879 174.859C21.443 175.671 21.282 176.699 21.622 177.757C21.956 178.798 22.725 179.688 23.733 180.183C24.154 180.395 24.665 180.535 25.116 180.573C25.65 180.625 26.152 180.581 26.705 180.418C27.89 180.083 28.691 179.155 28.981 178.321C29.296 177.472 29.236 176.658 29.055 176.012C28.872 175.362 28.589 174.839 28.347 174.326C28.086 174.81 27.785 175.333 27.423 175.724C27.068 176.115 26.642 176.337 26.314 176.326C26.234 176.325 26.162 176.307 26.105 176.279C26.077 176.263 26.052 176.247 26.032 176.225C26.022 176.216 26.013 176.205 26.005 176.192L26.04 176.246C26.057 176.278 26.07 176.313 26.124 176.315C26.243 176.302 26.005 176.418 26.106 176.378C26.082 176.311 26.061 176.219 26.048 176.109C26.034 176 26.032 175.879 26.037 175.761C26.051 175.682 26.019 175.685 26.055 175.658C26.005 175.603 26.031 175.582 26.006 175.572Z" fill="#343844"/>
<path d="M22.993 130.079C22.993 128.295 21.547 126.849 19.763 126.849C17.979 126.849 16.533 128.295 16.533 130.079C16.533 131.863 17.979 133.309 19.763 133.309C21.547 133.309 22.993 131.863 22.993 130.079Z" fill="#343844"/>
<path d="M15.267 147.061C15.489 147.786 16.294 148.164 16.799 147.362C17.636 146.072 17.965 144.172 18.364 142.097C18.75 140.027 19.224 137.771 20.034 135.982C19.006 137.562 17.544 139.529 16.512 141.578C15.471 143.613 14.862 145.685 15.267 147.061Z" fill="#353945"/>
<path d="M11.077 141.439C11.234 142.045 11.986 142.498 12.542 141.979C13.435 141.238 13.933 140.018 14.736 138.689C15.506 137.366 16.647 135.965 17.997 135.253C16.616 135.656 14.731 136.279 13.258 137.462C11.776 138.606 10.813 140.226 11.077 141.439Z" fill="#353945"/>
<path d="M7.22494 133.163C6.97294 133.689 7.22794 134.526 7.92694 134.558C9.03094 134.647 10.1339 134.048 11.4199 133.409C12.6899 132.763 14.1729 132.098 15.5309 131.962C14.2409 131.805 12.5209 131.464 10.8739 131.566C9.23794 131.651 7.73794 132.164 7.22494 133.163Z" fill="#353945"/>
<path d="M7.92495 125.854C7.49595 126.164 7.27495 127.008 7.75195 127.406C8.48995 128.067 9.56195 128.116 10.7939 128.159C12.0179 128.192 13.4199 128.242 14.5029 128.657C13.6049 128.011 12.5029 126.98 11.2729 126.298C10.0579 125.61 8.76095 125.283 7.92495 125.854Z" fill="#353945"/>
<path d="M11.9479 120.12C11.4579 119.979 10.6509 120.304 10.5909 120.893C10.5259 121.93 11.3479 122.893 12.4239 123.592C13.4999 124.308 14.7899 124.737 15.7499 125.197C14.9599 124.505 14.3099 123.29 13.7989 122.249C13.2699 121.204 12.8299 120.333 11.9479 120.12Z" fill="#353945"/>
<path d="M15.983 117.414C15.433 117.358 14.719 117.861 14.862 118.501C15.024 119.5 15.789 120.265 16.614 121.254C17.442 122.219 18.3 123.454 18.562 124.684C18.599 123.498 18.712 121.854 18.305 120.344C17.927 118.842 17.058 117.569 15.983 117.414Z" fill="#353945"/>
<path d="M22.5479 121.038C22.0779 120.944 21.2839 121.296 21.2059 121.837C21.0119 122.644 21.4349 123.268 21.9079 124.11C22.3869 124.928 22.8689 126.008 22.8069 126.972C23.1419 126.135 23.7119 124.95 23.7839 123.702C23.8789 122.47 23.4659 121.284 22.5479 121.038Z" fill="#353945"/>
<path d="M85.8299 186.916C85.8299 185.195 84.4339 183.799 82.7129 183.799C80.9909 183.799 79.5959 185.195 79.5959 186.916C79.5959 188.638 80.9919 190.033 82.7129 190.033C84.4339 190.033 85.8299 188.638 85.8299 186.916Z" fill="#343844"/>
<path d="M26.879 105.315C26.879 103.593 25.483 102.198 23.762 102.198C22.04 102.198 20.645 103.594 20.645 105.315C20.645 107.037 22.041 108.432 23.762 108.432C25.483 108.432 26.879 107.036 26.879 105.315Z" fill="#343844"/>
<path d="M151.483 173.819C153.855 174.109 156.332 174.27 158.886 174.05C161.444 173.831 164.031 173.252 166.518 171.96C167.651 171.362 168.833 170.603 169.824 169.702C170.823 168.807 171.738 167.833 172.492 166.764C174.032 164.647 175.116 162.294 175.806 159.883C176.171 158.681 176.398 157.452 176.579 156.23C176.737 155.031 176.824 153.689 176.807 152.574C176.776 150.094 176.446 147.743 175.868 145.457C174.731 140.89 172.695 136.769 170.362 133.083C172.329 137.147 173.716 141.387 174.222 145.679C174.749 149.965 174.371 154.28 172.86 158.198C171.367 162.09 168.758 165.649 165.181 167.45C161.603 169.297 157.024 169.341 152.115 168.718C147.842 168.177 143.442 167.35 138.834 166.637C134.243 165.931 129.454 165.356 124.606 165.478C119.751 165.599 114.871 166.535 110.489 168.475C106.103 170.394 102.276 173.416 99.701 177.142C102.59 173.844 106.608 171.368 111.029 170.044C115.464 168.695 120.209 168.399 124.842 168.82C129.495 169.238 134.062 170.266 138.51 171.281C142.94 172.3 147.336 173.298 151.483 173.819Z" fill="#343844"/>
<path d="M175.504 109.665C174.798 110.953 173.581 112.282 172.212 113.806C170.865 115.312 169.323 117.127 168.44 119.317C166.681 123.627 167.341 128.294 169.295 131.55C168.252 127.726 169.241 123.896 171.244 121.144C171.766 120.435 172.283 119.875 172.976 119.23C173.595 118.668 174.346 118.053 175.121 117.422C176.657 116.136 178.554 114.668 179.982 112.194C181.215 110.055 181.663 107.339 180.977 104.783C180.799 104.143 180.553 103.516 180.235 102.921C180.064 102.627 179.896 102.335 179.691 102.063L179.543 101.857L179.524 101.831L179.461 101.742L179.453 101.733L179.421 101.698L179.357 101.628L179.083 101.328C178.519 100.714 178.022 100.365 177.442 100.005C176.872 99.663 176.26 99.415 175.638 99.234C174.391 98.886 173.048 98.848 171.809 99.235C171.195 99.421 170.603 99.709 170.11 100.093C169.946 100.212 169.593 100.524 169.398 100.74C169.194 100.975 169.007 101.216 168.854 101.474C168.226 102.495 167.979 103.649 168.059 104.735C168.136 105.824 168.616 106.845 169.364 107.492C168.251 105.876 168.866 103.641 170.14 102.518C171.381 101.372 173.246 101.532 174.518 102.37C175.154 102.778 175.7 103.37 175.956 103.905C176.294 104.538 176.44 105.188 176.475 105.875C176.512 106.553 176.424 107.245 176.247 107.887C176.168 108.201 176.043 108.537 175.937 108.793L175.866 108.963L175.724 109.259L175.652 109.41L175.65 109.415C175.664 109.386 175.615 109.487 175.681 109.351L175.677 109.358L175.669 109.371L175.654 109.398L175.623 109.451L175.504 109.665Z" fill="#343844"/>
<path d="M108.17 180.875C109.518 179.144 111.357 177.804 113.562 176.648C115.774 175.51 118.182 174.615 120.688 174.022C125.699 172.847 131.134 172.963 135.989 174.505C131.384 171.999 126.202 170.556 120.671 170.674C117.92 170.733 115.047 171.207 112.26 172.178C110.809 172.695 109.405 173.33 108.008 174.217C106.638 175.082 105.243 176.269 104.181 177.631C103.631 178.338 103.247 178.956 102.869 179.684C102.504 180.397 102.202 181.153 101.977 181.944C101.526 183.52 101.398 185.266 101.747 186.97L101.777 187.129L101.802 187.25L101.81 187.28L101.827 187.341L101.894 187.583C101.926 187.711 102.015 187.989 102.093 188.216C102.259 188.695 102.42 189.052 102.632 189.448C103.039 190.217 103.547 190.922 104.143 191.546C105.328 192.787 106.906 193.726 108.661 194.014C108.878 194.05 109.1 194.068 109.317 194.092L109.399 194.1L109.507 194.111H109.523L109.555 194.11L109.683 194.108L109.939 194.103C110.094 194.103 110.413 194.074 110.638 194.051C110.899 194.032 111.08 193.97 111.302 193.929C112.146 193.726 112.92 193.37 113.602 192.905C114.957 191.98 115.993 190.576 116.289 188.976C116.591 187.364 116.082 185.753 114.978 184.714C113.867 183.675 112.141 183.543 111.073 184.347C112.237 183.791 113.674 184.268 114.345 185.213C115.045 186.16 115.14 187.501 114.697 188.514C114.268 189.548 113.342 190.344 112.313 190.745C111.26 191.154 110.21 191.141 109.316 190.742C107.473 189.964 106.28 187.835 106.287 186.049C106.264 185.104 106.464 184.157 106.809 183.268C107.137 182.395 107.69 181.506 108.17 180.875Z" fill="#343844"/>
<path d="M143.41 186.317C143.403 185.51 143.029 184.904 142.666 184.629C142.49 184.489 142.308 184.414 142.168 184.387C142.037 184.376 141.937 184.396 141.871 184.44C141.58 184.656 142.094 185.136 141.858 186.145C141.744 186.561 141.481 186.866 141.076 187.076C140.667 187.282 140.177 187.342 139.706 187.215C139.236 187.107 138.698 186.753 138.365 186.374C137.923 185.879 137.688 185.358 137.542 184.705C137.41 184.07 137.428 183.373 137.621 182.73C137.859 182.032 138.167 181.444 138.691 180.956C139.692 179.954 141.417 179.531 143.198 179.471C144.998 179.401 146.889 179.694 148.839 179.932C150.778 180.194 152.842 180.256 154.786 179.964C156.735 179.696 158.635 179.12 160.27 178.17C161.921 177.242 163.228 175.852 164.003 174.285C163.188 175.766 161.845 177.06 160.172 177.843C158.518 178.659 156.608 179.055 154.678 179.137C152.733 179.245 150.813 178.972 148.856 178.519C146.916 178.09 144.865 177.584 142.753 177.553C141.693 177.548 140.606 177.632 139.537 177.969C138.471 178.288 137.424 178.892 136.644 179.758C136.442 179.967 136.282 180.205 136.107 180.435C135.959 180.681 135.759 180.998 135.673 181.195L135.528 181.506L135.492 181.583L135.45 181.681L135.432 181.731L135.36 181.931C135.267 182.198 135.194 182.469 135.141 182.741C134.928 183.83 135.012 184.932 135.353 185.932C136.006 187.955 137.904 189.455 139.847 189.469C140.893 189.479 141.761 189.106 142.422 188.511C143.091 187.91 143.427 187.059 143.41 186.317Z" fill="#353945"/>
<path d="M149.814 176.032C148.99 176.221 148.568 177.013 149.485 177.559C151.11 178.483 153.676 178.571 156.179 177.932C158.703 177.323 161.077 176.022 162.972 174.857C160.983 175.751 158.239 176.103 155.817 176.039C153.377 176.01 151.258 175.661 149.814 176.032Z" fill="#353945"/>
<path d="M151.62 183.294C150.827 183.672 150.591 184.542 151.66 184.855C152.089 184.982 152.693 185.024 153.245 184.995C153.809 184.973 154.399 184.857 155.002 184.692C156.202 184.337 157.418 183.685 158.499 182.832C160.701 181.13 162.209 178.633 163.055 176.469C162.502 177.46 161.664 178.446 160.665 179.271C159.667 180.101 158.511 180.764 157.375 181.264C155.086 182.287 152.944 182.593 151.62 183.294Z" fill="#353945"/>
<path d="M190.53 154.41C189.669 154.417 189.138 153.88 188.823 153.834C188.743 153.836 188.678 153.879 188.632 153.967C188.58 154.045 188.552 154.188 188.611 154.435C188.698 154.851 189.128 155.599 190.176 155.931C191.029 156.218 192.132 156.037 192.921 155.446C193.721 154.881 194.309 153.942 194.467 152.9C194.622 151.852 194.436 150.846 193.909 149.855C193.459 148.995 192.64 148.167 191.733 147.658C190.813 147.13 189.746 146.83 188.635 146.833C187.6 146.851 186.416 147.106 185.46 147.711C184.48 148.294 183.718 149.15 183.171 150.061C182.609 150.974 182.251 151.952 181.971 152.931C181.422 154.898 181.291 156.894 181.094 158.807C180.92 160.734 180.564 162.574 179.877 164.344C179.213 166.105 178.259 167.764 176.985 169.086C175.729 170.427 174.079 171.339 172.355 171.659C174.025 171.419 175.754 170.655 177.166 169.374C178.602 168.124 179.767 166.466 180.654 164.65C181.569 162.845 182.144 160.785 182.509 158.797C182.899 156.794 183.229 154.866 183.927 153.137C184.606 151.433 185.66 149.989 187.004 149.508C187.166 149.435 187.346 149.401 187.51 149.346C187.685 149.327 187.765 149.281 188.009 149.264L188.351 149.235L188.436 149.228L188.457 149.226L188.468 149.225C188.486 149.224 188.356 149.234 188.415 149.23L188.447 149.231L188.575 149.232C188.745 149.234 188.916 149.248 189.084 149.274C189.758 149.374 190.396 149.647 190.904 150.024C191.933 150.767 192.39 151.968 192.202 152.913C192.137 153.306 191.878 153.751 191.576 154.007C191.282 154.27 190.913 154.415 190.53 154.41Z" fill="#353945"/>
<path d="M179.911 158.882C179.641 158.081 178.811 157.739 178.359 158.707C177.606 160.211 177.264 162.302 176.545 164.556C175.859 166.8 174.742 169.192 173.224 170.858C174.872 169.48 176.96 167.546 178.343 165.241C179.751 162.967 180.406 160.441 179.911 158.882Z" fill="#353945"/>
<path d="M186.167 163.207C186.106 162.331 185.384 161.792 184.7 162.671C183.605 163.958 182.619 165.859 180.971 167.646C179.38 169.44 177.063 171.017 174.728 171.443C175.857 171.37 177.153 171.205 178.481 170.818C179.806 170.435 181.149 169.822 182.325 169.013C184.705 167.417 186.251 164.955 186.167 163.207Z" fill="#353945"/>
<path d="M171.616 180.183C172.507 179.746 173.257 178.952 173.63 177.94C174.01 176.919 173.915 175.844 173.494 174.99C173.091 174.126 172.28 173.482 171.522 173.324C170.767 173.139 170.049 173.32 169.612 173.656C170.161 173.823 170.485 174.268 170.56 174.674C170.648 175.094 170.435 175.4 170.216 175.572C169.99 175.747 169.723 175.803 169.585 175.704C169.443 175.621 169.381 175.551 169.342 175.573C169.316 175.584 169.342 175.604 169.292 175.66C169.324 175.699 169.304 175.766 169.344 175.85C169.492 176.04 169.363 176.327 169.028 176.317C168.701 176.324 168.283 176.112 167.928 175.73C167.567 175.348 167.264 174.83 167.003 174.328C166.761 174.824 166.475 175.347 166.294 176.008C166.114 176.666 166.063 177.504 166.407 178.372C166.578 178.801 166.854 179.241 167.267 179.62C167.37 179.712 167.472 179.802 167.643 179.907C167.889 180.041 167.723 179.999 167.975 180.12C168.237 180.259 168.509 180.365 168.777 180.437C169.323 180.582 169.81 180.613 170.321 180.557C170.753 180.515 171.231 180.377 171.616 180.183Z" fill="#343844"/>
<path d="M172.355 130.079C172.355 128.295 173.801 126.849 175.585 126.849C177.369 126.849 178.815 128.295 178.815 130.079C178.815 131.863 177.369 133.309 175.585 133.309C173.801 133.309 172.355 131.863 172.355 130.079Z" fill="#343844"/>
<path d="M178.635 147.341C179.111 147.931 179.999 147.982 180.169 147.05C180.441 145.457 179.801 143.429 178.775 141.47C177.758 139.499 176.367 137.624 175.31 135.986C176.091 137.717 176.6 140.08 177.001 142.216C177.417 144.356 177.759 146.281 178.635 147.341Z" fill="#353945"/>
<path d="M182.887 141.945C183.398 142.307 184.265 142.168 184.355 141.412C184.461 140.041 183.456 138.484 182.008 137.402C180.565 136.286 178.777 135.685 177.349 135.257C178.656 135.945 179.864 137.4 180.651 138.767C181.475 140.137 181.972 141.371 182.887 141.945Z" fill="#353945"/>
<path d="M187.458 134.478C188.031 134.37 188.554 133.668 188.166 133.086C187.459 132.089 185.968 131.627 184.384 131.567C182.79 131.49 181.153 131.813 179.817 131.967C181.131 132.1 182.689 132.786 183.999 133.451C185.325 134.105 186.444 134.704 187.458 134.478Z" fill="#353945"/>
<path d="M187.584 127.319C187.935 126.923 187.968 126.052 187.416 125.766C186.444 125.298 185.177 125.658 184.01 126.34C182.829 127.017 181.78 127.998 180.847 128.661C181.897 128.262 183.364 128.2 184.625 128.162C185.893 128.111 186.976 128.049 187.584 127.319Z" fill="#353945"/>
<path d="M184.68 120.851C184.553 120.357 183.864 119.826 183.326 120.073C182.461 120.424 182.035 121.291 181.526 122.308C181.032 123.32 180.419 124.486 179.602 125.199C180.533 124.761 181.888 124.311 182.988 123.554C184.088 122.815 184.891 121.811 184.68 120.851Z" fill="#353945"/>
<path d="M180.421 118.442C180.462 117.891 179.941 117.19 179.304 117.35C178.178 117.687 177.368 118.97 177.025 120.427C176.658 121.893 176.761 123.456 176.79 124.685C177.045 123.495 177.932 122.194 178.785 121.202C179.633 120.184 180.403 119.408 180.421 118.442Z" fill="#353945"/>
<path d="M174.066 121.793C173.926 121.334 173.239 120.802 172.726 120.991C171.816 121.398 171.459 122.581 171.573 123.768C171.667 124.972 172.207 126.101 172.545 126.97C172.487 126.036 172.98 124.903 173.472 124.064C173.956 123.199 174.374 122.568 174.066 121.793Z" fill="#353945"/>
<path d="M109.519 186.916C109.519 185.195 110.915 183.799 112.636 183.799C114.357 183.799 115.753 185.195 115.753 186.916C115.753 188.638 114.357 190.033 112.636 190.033C110.915 190.033 109.519 188.638 109.519 186.916Z" fill="#343844"/>
<path d="M168.47 105.315C168.47 103.593 169.866 102.198 171.587 102.198C173.309 102.198 174.704 103.594 174.704 105.315C174.704 107.037 173.308 108.432 171.587 108.432C169.865 108.432 168.47 107.036 168.47 105.315Z" fill="#343844"/>
<path d="M151.094 164.028H44.2549C36.8909 164.028 30.9009 158.037 30.9009 150.673V43.835C30.9009 36.471 36.8919 30.48 44.2549 30.48H151.094C158.457 30.48 164.448 36.471 164.448 43.835V150.673C164.448 158.037 158.457 164.028 151.094 164.028ZM44.2549 35.822C39.8369 35.822 36.2419 39.417 36.2419 43.835V150.673C36.2419 155.091 39.8369 158.686 44.2549 158.686H151.094C155.512 158.686 159.107 155.091 159.107 150.673V43.835C159.107 39.416 155.512 35.822 151.094 35.822H44.2549Z" fill="#343844"/>
<path d="M151.096 156.857H44.255C42.586 156.854 41.076 156.229 39.886 155.049C38.7 153.852 38.075 152.342 38.072 150.675V43.835C38.075 42.166 38.7 40.656 39.88 39.466C41.077 38.279 42.587 37.654 44.254 37.651H151.095C152.764 37.654 154.274 38.28 155.464 39.46C156.65 40.656 157.276 42.166 157.278 43.833V150.675C157.275 152.343 156.649 153.853 155.469 155.043C154.272 156.229 152.763 156.854 151.096 156.857ZM44.255 39.651C43.127 39.653 42.103 40.078 41.293 40.88C40.498 41.682 40.074 42.707 40.071 43.837V150.673C40.073 151.801 40.498 152.826 41.3 153.635C42.103 154.43 43.127 154.855 44.256 154.857H151.094C152.222 154.855 153.246 154.43 154.055 153.629C154.851 152.826 155.276 151.801 155.278 150.671V43.835C155.276 42.707 154.851 41.682 154.049 40.873C153.246 40.078 152.222 39.653 151.092 39.65L44.255 39.651Z" fill="#343844"/>
</svg>
