<?xml version="1.0" encoding="UTF-8"?><svg id="Layer_2" xmlns="http://www.w3.org/2000/svg" viewBox="0 0 173.49 173.49"><defs><style>.cls-1{fill:#4b3205;}</style></defs><g id="Corner_Frames"><g><path class="cls-1" d="M160.71,53.83c-1.43,.03-2.86,.39-4.16,.97,3.19-1.72,5.81-4.3,6.71-8.04,.93-3.85,.66-8.21-1.53-11.52,7.62,1.63,12.6-4.96,10.79-12.1-.9-3.53-3.91-5.29-7.38-4.8,0,0-.01,0-.02,0,4.39-3.54,6.74-8.83,7.3-14.98,.15-1.54-.62-2.35-2.28-2.28-6.15,.56-11.44,2.9-14.98,7.29,0,0,0-.01,0-.02,.49-3.47-1.27-6.48-4.8-7.38-7.14-1.81-13.74,3.16-12.1,10.79-3.31-2.2-7.67-2.47-11.52-1.53-3.74,.91-6.33,3.52-8.04,6.72,.59-1.31,.94-2.74,.97-4.17,.19-7.83-7.5-13.69-14.88-11.34-8.28,2.64-10.04,14.4-7.5,21.41,3.02,8.33,8.24,16.13,14.3,22.81-7.18-5.54-13.41-11.98-19.17-19.22-2.12-2.67-4.12-5.57-6-8.55-1.01-1.59-.83-8.88-3.84-11.63-2.96-2.7-6.97-4.16-11.15-4.16-3.33,0-2.98,1.24-.97,2.86,9.45,6.9,15.25,16.94,22.28,25.55,7.24,8.86,16.03,17.53,25.65,23.71,0,0,0-.02,0-.03,.34,.28,.77-1.96,.65-2.46-2.78-11.68-7.57-34.81,8.47-38.7,10.8-2.62,16.86,7.22,15.2,16.97-.13,.85,.03,.97,.78,.78,9.75-1.65,19.59,4.41,16.97,15.21-3.89,16.04-27.03,11.25-38.7,8.47-.52-.12-2.95,.35-2.4,.69,0,0-.02,.02-.02,.03,6.18,9.61,14.78,18.35,23.64,25.58,8.6,7.03,18.64,12.82,25.54,22.28,1.62,2.01,2.86,2.36,2.86-.97,0-4.18-1.45-8.19-4.16-11.15-2.75-3-10.04-2.83-11.63-3.84-2.98-1.88-5.88-3.87-8.55-6-7.24-5.76-13.68-11.99-19.22-19.17,6.68,6.06,14.48,11.28,22.81,14.3,7.02,2.54,18.78,.78,21.42-7.5,2.35-7.38-3.5-15.07-11.33-14.88Zm-44.36-30.13c-1.57,7.98-.96,15.91,.52,23.78-4.1-3.91-7.69-8.12-10.84-12.86-4.2-6.29-9.45-13.86-8.01-21.76,1.38-7.61,9.34-11.07,15.66-7.29,4.39,2.62,6.41,9.55,1.43,12.89-.61,.41-1.26,.66-1.94,.8,.11-1.28-.43-2.76-1.57-3.93-1.81-1.86-4.42-2.24-5.83-.87-1.41,1.38-1.1,3.99,.71,5.85,.29,.3,.61,.55,.93,.77,4.18,3.11,8.59,.73,10.81-3.19-.87,1.85-1.48,3.85-1.87,5.81ZM169.25,4.24c-1.23,8.81-7.39,17.65-16.51,16.5-1.14-9.11,7.7-15.28,16.51-16.5Zm-27.91,4.32c.09-1.19,.38-2.33,.85-3.42,.32-.7,1.04-1.54,1.66-1.88,3.52-1.37,7.09-.9,8.32,2.98,.37,1.58-.23,3.19-1.23,4.15,0-.16,.01-.31,0-.47-.21-1.64-1.85-2.78-3.66-2.54-1.81,.23-3.1,1.75-2.88,3.39,.21,1.64,1.85,2.78,3.66,2.54,1.66-.16,3.55-.64,4.97-1.63-.63,1.24-1.16,2.57-1.57,4.04-.41,1.48-.57,3.06-.51,4.66-1-.26-2.03-.6-3.09-1.11-4.31-2.08-7.18-5.71-6.52-10.71Zm2.28,21.31c.54-3.57,.67-7.22-.27-10.6,2.25,1.62,4.99,2.68,7.78,3.1,.41,2.79,1.48,5.53,3.1,7.78-3.38-.95-7.04-.82-10.61-.28Zm10.6-4.23c-.51-1.06-.85-2.09-1.11-3.09,1.6,.06,3.18-.1,4.66-.51,1.47-.41,2.8-.94,4.04-1.57-1,1.42-1.48,3.31-1.64,4.97-.23,1.81,.9,3.45,2.54,3.66,1.64,.21,3.16-1.08,3.39-2.89,.24-1.81-.9-3.44-2.54-3.66-.16-.02-.32-.02-.47,0,.96-1,2.57-1.59,4.15-1.23,3.88,1.23,4.36,4.8,2.98,8.32-.35,.62-1.18,1.34-1.88,1.67-1.09,.48-2.22,.76-3.42,.85-5,.67-8.63-2.2-10.71-6.51Zm6.41,49.84c-7.9,1.44-15.47-3.81-21.76-8.01-4.73-3.16-8.94-6.74-12.85-10.85,7.87,1.48,15.79,2.09,23.78,.52,1.96-.38,3.96-.99,5.81-1.87-3.92,2.22-6.3,6.63-3.19,10.81,.22,.32,.47,.64,.77,.93,1.86,1.81,4.47,2.12,5.85,.71,1.37-1.41,.99-4.02-.87-5.83-1.17-1.14-2.65-1.68-3.93-1.57,.14-.67,.39-1.33,.8-1.94,3.34-4.98,10.27-2.96,12.89,1.43,3.78,6.33,.32,14.28-7.29,15.67ZM125.42,31.5c-1.53,.46-2.48,1.82-2.11,3.04,.36,1.2,1.85,1.8,3.36,1.38,0,0,0,.02,0,.02,.02,0,.04-.02,.06-.02,0,0,0,0,.02,0,.25-.08,.48-.18,.69-.3,2.85-1.39,4.06-6.03,2.82-8.83-2.14-4.84-8.7-4.62-11.87-.98-2.6,2.98-2.2,8.41-.3,11.56,2.7,4.47,8.64,5.04,13.43,4.61-.43,4.78,.14,10.73,4.61,13.42,3.16,1.9,8.58,2.3,11.56-.3,3.64-3.17,3.86-9.73-.98-11.87-2.79-1.23-7.44-.02-8.83,2.82-.12,.21-.23,.44-.3,.69,0,0,0,0,0,.01,0,.02-.02,.04-.02,.06,0,0,.01,0,.02,0-.41,1.51,.18,3,1.38,3.36,1.22,.37,2.58-.58,3.04-2.11,.35-1.17,.07-2.33-.62-2.99,1.1-1.3,3.34-1.25,4.35-.2,1.09,1.14,1.62,2.73,1.62,4.32,0,2.78-1.97,8-5.79,6.86-6.73-2.01-7.62-9.48-6.87-15.49,.15-1.27-.54-1.93-1.76-1.76-6.01,.76-13.48-.14-15.49-6.87-1.14-3.82,4.08-5.8,6.86-5.79,1.59,0,3.18,.54,4.32,1.62,1.05,1.01,1.1,3.25-.2,4.35-.65-.69-1.82-.97-2.99-.62Z"/><path class="cls-1" d="M146.16,87.79c7.35,5.55,14.2,12.47,19.07,20.3,4.68,7.53,5.32,15.21,5.32,23.8v16.6c0,2.73,2.95,4.31,2.95,8.19s-1.21,8.25-2.95,14.06c-1.08,3.61-3.06,3.61-3.06,.27v-35.39c0-7.11,.39-14.13-2.22-20.9-3.84-9.97-13.01-17.73-20.81-25.73-1.7-1.74-2.62-2.94-1.47-3.07,.77-.09,2.6,1.43,3.16,1.86h0Z"/><path class="cls-1" d="M85.7,27.34c-5.55-7.35-12.47-14.2-20.31-19.07-7.53-4.68-15.21-5.32-23.8-5.32H24.99c-2.73,0-4.31-2.95-8.19-2.95S8.56,1.2,2.74,2.95c-3.61,1.08-3.61,3.06-.27,3.06H37.86c7.11,0,14.13-.39,20.9,2.22,9.97,3.84,17.74,13.01,25.73,20.81,1.74,1.7,2.94,2.62,3.07,1.47,.09-.76-1.43-2.6-1.86-3.16h0Z"/></g></g></svg>