<?xml version="1.0" encoding="UTF-8"?><svg id="Layer_2" xmlns="http://www.w3.org/2000/svg" viewBox="0 0 165.76 166.31"><defs><style>.cls-1{fill:#4b3205;}</style></defs><g id="Corner_Frames"><g><path class="cls-1" d="M116.73,76.41c7.39-7.74,18.38-10.5,28.47-6.83,9.81,3.56,14.72,13.19,16.46,22.91,.35,1.92-1.06,.8-1.28-.41-1.71-9.54-6.9-17.41-16.41-20.33-9.4-2.9-19.47,.22-26.16,7.24-.58,.6-1.66-1.96-1.08-2.56h0Z"/><path class="cls-1" d="M127.63,36.11c-1.66,.86-3.29,1.79-4.88,2.79-2.98,1.88-6.01,3.05-9.1,3.51-2.25,.33-4.27,.31-6.05-.07-1.71-.4-3.07-1.09-4.07-2.09-.42-.42-.75-.99-.97-1.73-.26-.77-.35-1.48-.25-2.12,.07-.53,.33-1.02,.78-1.46,.71-.71,1.43-1.21,2.16-1.51,.63-.26,1.03-.3,1.23-.11,.06,.06,0,.28-.15,.66-.16,.38-.32,.64-.46,.78-.12,.12-.35,.27-.71,.44-.35,.18-.6,.34-.75,.48-.56,.55-.84,1.16-.86,1.81-.02,.65,.23,1.24,.75,1.75,.84,.84,2.54,1.22,5.09,1.14,2.77-.09,6.09-.72,9.96-1.89,2.92-.88,5.93-2.18,9.03-3.91,.38-.21,.64-.34,.78-.37,.21-.06,.38-.02,.54,.14,.21,.2,.2,.41,0,.61-.1,.1-.78,.48-2.05,1.16Zm-7.59,17.17c-.4,.02-.72-.09-.95-.32-.08-.08-.17-.36-.25-.81-.08-.46-.16-.72-.24-.79-.06-.06-.29-.06-.7,.02-1.05,.16-1.61,.24-1.69,.25-.52,.06-.85,.09-.99,.09-.28-.01-.52-.12-.72-.32-.26-.27-.29-1-.09-2.21,.09-.44,.17-.89,.25-1.33,.06-.33,.05-.52-.02-.6-.08-.08-.34-.17-.78-.26-.44-.09-.71-.18-.8-.28-.13-.13-.2-.35-.2-.65,0-.3,.08-.53,.25-.7,.13-.13,1.3-.67,3.51-1.6,3.22-1.37,5.07-2.18,5.57-2.43,1.41-.73,2.76-1.66,4.07-2.78,1.03-.91,2.07-1.81,3.1-2.7,.71-.59,1.18-.77,1.41-.54l.04,.03c.11,.11-.59,.91-2.09,2.41-.41,.41-1.05,.97-1.91,1.7-.94,.77-1.62,1.36-2.05,1.77-.69,.67-1.34,1.27-1.94,1.8-.53,.46-.78,.67-.74,.63-.4,.4-.53,.66-.4,.79,.14,.14,.79-.23,1.95-1.12,1.32-1.03,2.87-2.44,4.66-4.23l.14-.15c.13-.13,.33-.33,.58-.61,.25-.28,.45-.49,.59-.63,.69-.68,1.1-.96,1.24-.81,.11,.11,.02,.33-.26,.69-.39,.49-.8,.98-1.2,1.46-1.95,2.35-3.18,3.88-3.71,4.58-1.08,1.41-1.85,2.6-2.3,3.56-.53,1.13-1.05,2.43-1.55,3.89-.37,1.04-.64,1.65-.79,1.8-.25,.25-.58,.39-.98,.41Zm9.2,11.2c-1.07-.09-2.08-.61-3.02-1.54-1.97-1.97-2.89-4.58-2.77-7.85,.14-3.36,1.4-7.05,3.76-11.04,1.42-2.14,2.42-3.56,3.01-4.27,.35-.52,.74-1.12,1.18-1.8,.3-.49,.49-.77,.56-.84,.1-.1,.22-.16,.38-.2,.14,.26,.19,.49,.14,.68-.04,.08-.16,.28-.36,.58-.61,.87-1.26,1.97-1.96,3.29-.81,1.55-1.45,3.1-1.93,4.63-1.31,4.24-1.97,7.83-2,10.79,0,2.85,.57,4.86,1.75,6.03,.3,.3,.76,.5,1.39,.61,.63,.1,1.08,.02,1.34-.24,.16-.16,.42-.59,.81-1.3,.38-.71,.77-1.25,1.15-1.64,.71-.71,1.26-.87,1.64-.49,.29,.29,.13,.73-.47,1.33-.06,.06-.13,.14-.21,.22-.1,.07-.16,.12-.18,.15-.01,.01-.17,.24-.47,.68-.3,.44-.64,.86-1.03,1.24-.75,.74-1.65,1.07-2.73,.98Z"/><path class="cls-1" d="M110.85,48.22c-1.77-.33-2.77-.51-3.01-.56-3.3-.54-5.66-.97-7.06-1.3-1.77-.42-2.86-.84-3.3-1.27-1.08-1.08-1.24-2.01-.47-2.78,.73-.73,1.97-.82,3.71-.25,1.17,.38,3.5,1.44,6.97,3.18,1,.49,1.99,.98,2.97,1.46,.8,.4,1.31,.7,1.51,.9,.21,.2,.18,.43-.07,.68-.09,.1-.52,.07-1.26-.07Zm-6.14,4.16c-1.79,.39-2.92,.6-3.39,.61-1.03,.05-1.85-.23-2.45-.83-.39-.39-.57-.84-.57-1.36,0-.52,.18-.96,.53-1.3,.46-.45,1.19-.69,2.22-.7,1.35,.05,2.69,.11,4.04,.18,2.05,.08,3.79,.22,5.22,.39,1.2,.15,1.86,.27,1.96,.38,.25,.25,.26,.5,.02,.74-.22,.22-2.75,.85-7.58,1.89Zm1.8,8.7c-.62,.08-1.14-.08-1.55-.49-.52-.52-.76-1.12-.71-1.79,.04-.68,.37-1.32,.98-1.94,.52-.52,1.52-1.24,3.01-2.18,2-1.29,3.43-2.23,4.29-2.85,.35-.25,.53-.38,.54-.4,.15-.07,.28-.04,.41,.09,.13,.13,.16,.27,.07,.43-.05,.12-.23,.37-.56,.74-.57,.66-1.19,1.59-1.87,2.78-.6,1.03-1.2,2.06-1.8,3.09-.54,.87-.89,1.4-1.06,1.57-.54,.54-1.12,.85-1.75,.94Zm8.29,6.43c-.94-.94-1.37-2.73-1.3-5.37,.01-.32,.09-1.45,.23-3.37,.13-1.79,.21-3.42,.23-4.88l.29-.72c.35-.13,.61-.11,.79,.07,.36,.36,.9,2.73,1.64,7.12,.38,2.3,.6,3.77,.65,4.4,.07,1.15-.09,1.92-.49,2.32-.83,.83-1.51,.97-2.05,.43Zm6.5,.81c-.72-.72-1.37-1.94-1.96-3.66-.04-.08-.65-2.11-1.82-6.07-.63-2.09-.98-3.32-1.06-3.7-.22-.89-.23-1.43-.04-1.62,.24-.24,.59-.12,1.06,.34,.39,.4,2.41,3.69,6.05,9.87,.64,1.07,.96,2.04,.98,2.93,.02,.88-.23,1.58-.75,2.1-.76,.76-1.58,.69-2.47-.2Z"/><path class="cls-1" d="M142.73,22.4c-.14,.14-.28,.14-.41,0-.11-.11-.14-.23-.1-.37,.03-.09,.11-.26,.25-.52,1.17-2.1,2.05-4.13,2.64-6.1,.79-2.62,1.22-4.86,1.28-6.73,.06-1.73-.2-2.88-.77-3.44-.35-.35-.75-.52-1.19-.5-.44,.01-.85,.2-1.22,.58-.1,.1-.2,.26-.32,.5-.12,.24-.22,.4-.3,.48-.1,.1-.27,.2-.53,.31-.26,.11-.41,.14-.45,.1-.13-.13-.1-.41,.07-.83,.2-.49,.54-.98,1.02-1.46,.3-.3,.63-.47,.99-.52,.44-.06,.92,0,1.44,.17,.49,.15,.88,.37,1.17,.66,.67,.67,1.14,1.59,1.41,2.75,.26,1.2,.27,2.57,.05,4.09-.32,2.09-1.11,4.14-2.37,6.15-.67,1.08-1.3,2.18-1.89,3.3-.46,.86-.71,1.32-.78,1.39Zm12.11-5.86c-.1,.11-.51,.29-1.22,.54-.99,.34-1.87,.69-2.63,1.05-.65,.31-1.45,.83-2.41,1.56-.47,.36-1.5,1.19-3.09,2.51-.33,.27-.65,.55-.99,.82-.23,.19-.39,.24-.46,.17-.1-.1,.09-.38,.55-.84,.1-.1,.24-.23,.42-.4,.19-.17,.32-.3,.41-.39l.1-.1c1.21-1.21,2.16-2.26,2.86-3.15,.6-.78,.85-1.22,.76-1.32-.09-.09-.27,0-.54,.27,.02-.03-.12,.14-.42,.5-.36,.41-.77,.85-1.22,1.31-.28,.29-.67,.75-1.19,1.39-.49,.58-.87,1.01-1.14,1.29-1.02,1.01-1.56,1.48-1.63,1.41l-.02-.02c-.15-.16-.03-.47,.37-.95,.6-.7,1.21-1.4,1.83-2.09,.75-.88,1.38-1.8,1.88-2.75,.17-.33,.72-1.58,1.64-3.76,.63-1.49,1-2.28,1.08-2.37,.11-.11,.27-.17,.47-.17s.35,.04,.44,.13c.07,.06,.13,.25,.19,.54,.06,.3,.12,.47,.18,.53,.05,.05,.18,.05,.4,.01,.3-.06,.6-.11,.9-.17,.82-.14,1.32-.12,1.5,.06,.14,.14,.21,.3,.22,.49,0,.1-.02,.32-.06,.67,0,.06-.07,.44-.17,1.14-.05,.28-.05,.43-.01,.48,.05,.05,.23,.1,.54,.16,.31,.06,.49,.11,.55,.17,.15,.16,.22,.37,.21,.64-.01,.27-.1,.49-.28,.66Zm7.18,7.4c-.26,.26-.54,.49-.84,.7-.3,.2-.45,.31-.46,.32-.02,.02-.05,.06-.1,.12-.06,.06-.1,.1-.15,.15-.4,.4-.71,.51-.9,.32-.26-.26-.15-.63,.33-1.11,.26-.26,.63-.52,1.1-.78,.48-.26,.77-.44,.88-.55,.18-.18,.23-.48,.17-.91-.07-.43-.21-.74-.41-.94-.8-.8-2.15-1.19-4.08-1.18-2,.02-4.43,.47-7.29,1.35-1.04,.33-2.08,.76-3.13,1.3-.89,.47-1.64,.91-2.23,1.33-.2,.14-.33,.22-.39,.24-.13,.03-.28,0-.46-.1,.02-.11,.07-.19,.13-.26,.05-.05,.24-.17,.57-.38,.46-.3,.87-.57,1.22-.8,.48-.4,1.44-1.08,2.88-2.03,2.7-1.6,5.19-2.45,7.46-2.54,2.21-.08,3.97,.54,5.3,1.88,.63,.63,.98,1.31,1.04,2.04,.06,.73-.16,1.34-.66,1.84Z"/><path class="cls-1" d="M151.74,10.53c-.17,.17-.33,.18-.46,.05-.14-.14-.34-.48-.61-1.02-.33-.67-.65-1.34-.99-2.01-1.18-2.34-1.89-3.91-2.15-4.71-.38-1.18-.33-2.01,.17-2.51,.52-.52,1.14-.42,1.88,.32,.29,.29,.58,1.03,.86,2.23,.22,.95,.51,2.54,.88,4.77,.03,.16,.16,.84,.38,2.03,.1,.5,.11,.79,.05,.85Zm1.48,.12c-.16,.16-.33,.16-.5-.01-.07-.07-.16-.52-.26-1.33-.12-.96-.21-2.14-.27-3.53-.05-.91-.09-1.82-.12-2.73,0-.69,.17-1.19,.47-1.5,.24-.24,.53-.36,.88-.36,.35,0,.66,.12,.92,.39,.41,.4,.59,.96,.56,1.65,0,.32-.15,1.08-.41,2.29-.71,3.27-1.13,4.98-1.28,5.12Zm6.52-2.73c-.11,.11-.47,.35-1.06,.72-.7,.41-1.4,.81-2.09,1.22-.8,.46-1.43,.88-1.88,1.26-.25,.22-.42,.35-.5,.38-.1,.06-.2,.04-.29-.05-.09-.09-.11-.18-.06-.28,0,0,.1-.13,.27-.37,.41-.58,1.05-1.54,1.92-2.9,.63-1.01,1.12-1.69,1.47-2.03,.41-.41,.85-.63,1.31-.66,.46-.03,.86,.13,1.21,.48,.27,.28,.38,.62,.33,1.05-.06,.42-.27,.81-.63,1.18Zm4.69,5.81c-.27,.27-.79,.38-1.57,.33-.42-.03-1.41-.18-2.97-.44-2.96-.5-4.57-.86-4.81-1.11-.12-.12-.14-.3-.05-.54l.49-.19c.99-.02,2.09-.07,3.3-.16,1.3-.1,2.06-.15,2.28-.16,1.79-.05,2.99,.25,3.62,.88,.37,.36,.27,.83-.29,1.39Zm.97,4.67c-.35,.35-.82,.52-1.42,.51-.59-.01-1.26-.23-1.98-.66-4.18-2.46-6.4-3.82-6.67-4.09-.32-.32-.39-.55-.23-.72,.13-.13,.49-.12,1.1,.03,.25,.06,1.08,.29,2.49,.72,2.68,.79,4.05,1.2,4.1,1.23,1.16,.4,1.98,.84,2.47,1.33,.6,.6,.65,1.16,.13,1.67Z"/><path class="cls-1" d="M132.34,137.08c-1.79-8.18,2.06-14.42,7.94-19.7,3.16-2.83,6.56-5.47,9.29-8.73,4.04-4.81,5.29-12.71,1.53-18.05-.42-.59-.51-3.38,.35-2.16,4.54,6.44,3.92,15.49-.24,21.85-5.8,8.87-20.61,13.5-17.75,26.53,.36,1.65-.76,1.91-1.12,.25h0Z"/><path class="cls-1" d="M89.9,49.58c7.74-7.39,10.5-18.38,6.83-28.47-3.56-9.81-13.19-14.72-22.91-16.46-1.93-.34-.8,1.06,.41,1.28,9.54,1.71,17.41,6.9,20.33,16.4,2.89,9.41-.22,19.47-7.24,26.17-.6,.57,1.96,1.66,2.56,1.08h0Z"/><path class="cls-1" d="M29.24,33.97c8.17,1.79,14.41-2.06,19.7-7.94,2.83-3.15,5.48-6.56,8.73-9.29,4.81-4.04,12.71-5.29,18.05-1.53,.6,.42,3.38,.51,2.16-.35-6.44-4.54-15.49-3.91-21.85,.24-8.87,5.8-13.51,20.61-26.53,17.75-1.65-.36-1.91,.76-.25,1.12h0Z"/><path class="cls-1" d="M140.52,7.63c-2.67-4.02-7.46-6.14-12.24-6.3-.02-.02-.07-.04-.16-.04H.99C-.96,1.29,.37,3.75,1.6,3.75H15.22c-2.02,.59-3.92,1.62-5.47,3.05-5.64,5.23-4.1,14.07,.54,19.32,4.73,5.34,12.2,6.63,18.87,5.07,8.44-1.98,15.45-8.19,21.71-13.82,7.62-6.85,18.44-9.95,27.22-3.06,5.59,4.39,7.4,11.71,5.45,18.36-2.23,7.64-11.16,13.57-18.72,9.15-6.74-3.94-6.3-13.61-.27-17.84,4.99-3.5,10.59,1.32,9.54,6.74-.41,2.13-2.1,3.74-4.08,4.44-3.2,1.14-3.85-1.62-3.46-3.94,.4-.16,.79-.4,1.13-.75,1.03-1.09,1.14-2.66,.24-3.53-.85-.81-2.29-.68-3.32,.24-.11,.04-.2,.08-.26,.16-4.7,5.75,3.02,10.44,8.35,9.53,2.99-.51,5.2-4.09,5.01-6.96-.23-3.69-2.47-5.98-5.57-7.66-6.62-3.6-14.02,.59-15.53,7.59-1.51,7,4.63,13.1,10.97,14.68,7.53,1.87,14.35-1.13,18.18-7.87,3.95-6.95,1.84-15.48-3.39-21.04-4.9-5.2-12.54-7.48-19.52-6.96-9.19,.69-14.9,7.37-21.63,12.79-5.57,4.48-12.13,8.4-19.44,8.67-8.74,.32-13.83-9.76-11.66-17.26,1.01-3.49,3.93-6.08,7.23-7.33,5.28-2,9.52,1.66,10.29,6.73,.56,3.67-4.14,10.85-8.59,7.49-1.73-1.31-2-3.78-1.48-5.69,.65-2.35,4.21-3.49,5.01-.9-.38,.49-.58,1.18-.5,1.91,.16,1.33,1.18,2.31,2.29,2.18,1.11-.13,1.88-1.32,1.72-2.65-.02-.17-.05-.33-.1-.49-1.1-5.53-9.38-6.35-11.81-1.26-3,6.31,6.15,9.95,10.74,9.08,8-1.51,7.04-11.46,2.32-15.75-1.27-1.16-2.74-1.96-4.3-2.45h53.03s.05,0,.08,0c3.47,.09,9.55,1.69,12.31,3.01,5.43,2.58,9.62,7.21,13.05,12.62,4.6,7.26,9.59,12.67,18.41,14.2,6.81,1.18,13.59-.7,18.49-5.6,5.33-5.33,6.34-14.1,2.19-20.35Zm-5.03,19.3c-4.58,5.67-12.07,6.63-18.58,4.11-6.42-2.47-9.73-8.49-13.23-13.96-4.53-7.07-11.23-11.73-19.18-13.33h34.96c-4.27,3.14-6.16,9.02-3.57,14.03,2.89,5.58,11.53,6.38,15.97,2.47,5.27-4.65,.81-12.4-5.63-11.75-2.87,.29-5.08,1.67-5.7,4.43-.08,.26-.15,.53-.16,.82-.06,1.39,.84,2.57,2,2.62,1.16,.05,2.15-1.05,2.21-2.44,.02-.55-.11-1.07-.35-1.5,.58-1.78,1.98-3.19,4.29-1.77,1.44,.89,1.96,2.67,2.08,4.22,.36,4.47-4.35,7.53-8.24,5.52-6.24-3.23-4.65-11.84-.14-15.68,5.85-4.98,13.48,.02,16.25,5.74,2.62,5.41,.61,12.07-2.96,16.48Zm23.2-1.13c-6.25-4.15-15.02-3.14-20.36,2.19-4.9,4.9-6.78,11.68-5.6,18.49,1.53,8.82,6.94,13.81,14.2,18.41,5.41,3.43,10.11,7.59,12.63,13.05,1.77,3.84,3.14,8.96,3.23,12.43,0,.25,.02,.44,.04,.56v53.37c-.43-1.91-1.32-3.71-2.7-5.24-4.29-4.72-14.24-5.68-15.75,2.33-.86,4.58,2.78,13.74,9.08,10.74,5.1-2.43,4.27-10.7-1.26-11.81-.16-.05-.32-.08-.49-.1-1.33-.16-2.52,.62-2.65,1.72-.13,1.11,.84,2.13,2.17,2.29,.74,.09,1.42-.12,1.91-.5,2.59,.8,1.45,4.37-.9,5.01-1.91,.53-4.38,.25-5.69-1.48-3.36-4.45,3.82-9.15,7.49-8.59,5.08,.78,8.73,5.01,6.74,10.29-1.25,3.3-3.84,6.23-7.33,7.23-7.5,2.17-17.58-2.91-17.26-11.66,.27-7.32,4.2-13.87,8.67-19.44,5.41-6.73,12.1-12.45,12.78-21.63,.52-6.98-1.75-14.62-6.96-19.52-5.56-5.24-14.08-7.34-21.04-3.39-6.74,3.83-9.75,10.65-7.87,18.18,1.58,6.33,7.67,12.48,14.67,10.97,7.01-1.51,11.2-8.91,7.6-15.53-1.69-3.11-3.98-5.34-7.67-5.57-2.87-.18-6.45,2.02-6.96,5.01-.91,5.33,3.79,13.05,9.54,8.35,.08-.06,.12-.15,.16-.26,.93-1.03,1.06-2.47,.24-3.32-.86-.9-2.44-.8-3.52,.24-.35,.33-.6,.73-.75,1.13-2.32,.39-5.08-.26-3.94-3.46,.7-1.98,2.31-3.66,4.44-4.08,5.41-1.05,10.24,4.56,6.73,9.55-4.23,6.02-13.9,6.46-17.84-.28-4.42-7.56,1.5-16.49,9.15-18.72,6.65-1.94,13.97-.14,18.36,5.45,6.9,8.78,3.79,19.59-3.05,27.22-5.62,6.26-11.83,13.27-13.82,21.71-1.57,6.67-.28,14.14,5.07,18.87,5.24,4.64,14.09,6.18,19.32,.54,1.66-1.8,2.8-4.07,3.31-6.47v14.62c0,1.24,2.14,2.57,2.14,.61V39.84c.38-5.34-1.75-11.04-6.28-14.05Zm2.92,18.32c-3.84,4.51-12.45,6.1-15.68-.14-2.02-3.89,1.05-8.6,5.52-8.24,1.56,.13,3.33,.64,4.22,2.08,1.43,2.31,0,3.71-1.77,4.29-.43-.24-.95-.37-1.5-.35-1.4,.06-2.49,1.05-2.44,2.21,.05,1.16,1.22,2.06,2.62,2,.29-.01,.56-.07,.82-.16,2.76-.62,4.14-2.84,4.43-5.7,.65-6.45-7.1-10.91-11.75-5.63-3.91,4.44-3.1,13.07,2.47,15.96,5.14,2.67,11.21,.59,14.28-3.94v36.13c-1.55-8.23-6.38-15.36-13.59-19.98-5.47-3.5-11.49-6.81-13.96-13.23-2.51-6.52-1.55-14.01,4.11-18.59,4.41-3.57,11.08-5.58,16.48-2.96,5.71,2.77,10.72,10.4,5.74,16.25Z"/></g></g></svg>