<?xml version="1.0" encoding="UTF-8"?><svg id="Layer_2" xmlns="http://www.w3.org/2000/svg" viewBox="0 0 175.95 177.21"><defs><style>.cls-1{fill:#4b3205;}</style></defs><g id="Corner_Frames"><g><g><path class="cls-1" d="M151.95,37.27c.5,8.53,3.65,16.82,10.18,22.64,2.88,2.57,7.99,5.95,11.5,2.78,2.17-1.96,2.63-6.2,2.14-8.88-1.98-10.8-12.29-16.25-22.2-19.53-.04-1.15-.03-2.28,.02-3.39,.08-1.53,.58-5.33,1.56-9.06,5.77-1.71,15.01-5.36,10.02-11.07-5.71-4.99-9.36,4.25-11.07,10.02-3.74,.98-7.53,1.48-9.07,1.56-1.11,.05-2.24,.06-3.38,.02-3.28-9.91-8.73-20.23-19.53-22.2-2.68-.49-6.91-.03-8.88,2.14-3.17,3.5,.21,8.61,2.78,11.5,5.83,6.53,14.11,9.68,22.64,10.18,.77,2.25,1.47,4.53,2.11,6.84-5.27-1.22-10.59-2.28-15.89-3.39-3.53-5.75-7.63-10.97-12.73-15.22-5.96-4.96-18.83-11.16-26.53-7.23-6.07,3.1,.93,11.02,3.5,13.36,8.56,7.79,21.79,9.46,32.65,11.65,.06,.01,.11,.02,.17,.03,2.26,3.52,4.31,7.12,6.23,10.51,.12,.21,.23,.42,.35,.62-11.14-4.75-22.52-9.07-31.95-15.07-.87-.56-1.47,.35-.76,.81,11.14,7.1,23.28,12.17,34.9,18.31,6.14,11.63,11.21,23.77,18.31,34.91,.45,.71,1.37,.12,.81-.76-6.01-9.42-10.33-20.81-15.07-31.95,.21,.12,.42,.23,.62,.35,3.39,1.92,6.98,3.98,10.51,6.23,.01,.06,.02,.12,.03,.17,2.19,10.86,3.86,24.09,11.65,32.65,2.33,2.57,10.26,9.57,13.36,3.5,3.94-7.7-2.26-20.58-7.23-26.54-4.25-5.1-9.47-9.2-15.22-12.73-1.1-5.3-2.17-10.62-3.39-15.89,2.31,.64,4.6,1.33,6.84,2.11Zm6.09,2.33c5.29,2.27,10.4,5.62,13.77,10.35,2.45,3.44,4.01,12.07-2.58,10.39-3.73-.95-6.89-4.23-9.3-7.07-3.55-4.18-5.42-9.76-6.09-15.33,1.42,.52,2.82,1.07,4.19,1.66Zm4.81-26.5c1.93,3.42-2.35,5.79-7.28,7.28,1.49-4.93,3.87-9.21,7.28-7.28Zm-40.17,2.91c-2.84-2.41-6.12-5.57-7.07-9.3-1.68-6.59,6.95-5.03,10.39-2.57,4.73,3.37,8.07,8.48,10.35,13.77,.59,1.38,1.14,2.78,1.66,4.19-5.57-.67-11.15-2.54-15.33-6.09Zm20.86,12.75c-.4-1.52-.84-3.09-1.34-4.69,3.3-.08,6.59-.55,9.75-1.35,.45-.12,1.06-.27,1.75-.46-.19,.7-.34,1.3-.46,1.75-.81,3.16-1.27,6.45-1.35,9.75-1.6-.49-3.18-.94-4.7-1.34-.97-.26-1.95-.49-2.92-.73-.24-.97-.47-1.95-.73-2.92Zm-39.09-6.31c-6.48-1.99-12.44-5.08-17.01-10.16-2.8-3.13-2.63-4.84,1.93-4.9,3.81-.06,7.49,.88,11.02,2.24,7.88,3.05,13.99,9.47,19.05,16.65-5.04-1.11-10.06-2.32-14.98-3.83Zm61.87,53.12c1.36,3.52,2.3,7.21,2.24,11.01-.07,4.55-1.77,4.73-4.9,1.93-5.09-4.57-8.18-10.53-10.16-17.01-1.51-4.93-2.72-9.94-3.83-14.98,7.19,5.07,13.6,11.17,16.65,19.05Zm-21.41-26.61c-3.85-2.14-7.9-4.06-12.02-5.89-1.83-4.12-3.76-8.16-5.89-12.02,4.88,.97,9.82,1.99,14.69,3.22,1.23,4.88,2.24,9.82,3.22,14.69Z"/><path class="cls-1" d="M154.15,90.35c3.42,6.12,8.46,11.39,15.01,14.06-.25-.58-.49-1.16-.74-1.74v72.1c0,3.11,1.85,3.33,1.85-.16V101.61c0-.61-.11-1.48-.74-1.74-6.15-2.51-10.44-7.38-14.37-12.56-1.07-1.41-2.57,.58-1.01,3.04h0Z"/><path class="cls-1" d="M86.82,23.02c-6.12-3.41-11.38-8.46-14.06-15.01,.58,.25,1.16,.5,1.74,.74H2.4c-3.11,0-3.33-1.85,.16-1.85H75.57c.62,0,1.48,.11,1.74,.74,2.51,6.15,7.38,10.44,12.55,14.37,1.41,1.07-.58,2.57-3.04,1.01h0Z"/></g><path class="cls-1" d="M72.09,12.46H2.4c-3.11,0-3.33-1.3,.16-1.3H71.57c.08,.35,.32,.93,.52,1.3Z"/><path class="cls-1" d="M164.82,105.12v69.69c0,3.11,1.3,3.33,1.3-.16V105.65c-.35-.08-.93-.32-1.3-.52Z"/></g></g></svg>