<svg width="420" height="248" viewBox="0 0 420 248" fill="none" xmlns="http://www.w3.org/2000/svg">
<path d="M217.894 14.402C217.845 13.934 217.805 13.46 217.8 12.979C217.805 12.487 217.827 11.986 217.854 11.49C217.952 9.51303 218.43 7.47303 218.975 5.75103C219.294 4.88203 219.613 4.08403 219.915 3.38403C220.203 2.68803 220.615 2.07703 220.881 1.58703C221.48 0.605029 221.861 0.0650253 221.861 0.0650253C221.861 0.0650253 222.163 0.681025 222.664 1.68303C222.916 2.17003 223.134 2.73503 223.51 3.35803C223.861 3.95803 224.233 4.62103 224.636 5.32803C226.279 8.08903 228.403 11.014 229.209 13.518C229.635 14.774 229.661 15.96 229.56 17.048C229.417 18.145 229.081 19.162 228.713 20.024C227.959 21.756 226.944 22.933 226.944 22.933C226.944 22.933 225.437 23.061 223.558 22.388C222.605 22.058 221.599 21.508 220.677 20.639C219.725 19.786 218.936 18.583 218.408 17.01C218.119 16.239 218.004 15.328 217.894 14.402ZM249.477 29.711C249.477 32.232 251.52 34.277 254.045 34.277C256.563 34.277 258.614 32.232 258.614 29.711C258.614 27.185 256.562 25.14 254.045 25.14C251.521 25.14 249.477 27.185 249.477 29.711ZM233.51 40.657C234.596 42.317 235.961 43.649 237.357 44.73C240.185 46.884 243.132 47.981 245.84 48.761C251.3 50.219 256.068 50.34 260.017 50.378C263.956 50.369 267.099 50.172 269.284 50.097C271.456 50.013 272.679 50.039 272.679 50.039C272.679 50.039 271.598 49.457 269.51 48.69C267.432 47.919 264.365 46.975 260.678 45.869C257.009 44.739 252.635 43.46 248.447 41.526C246.386 40.545 244.375 39.39 242.908 37.999C242.181 37.303 241.551 36.59 241.113 35.812C240.67 35.036 240.369 34.216 240.16 33.299C240.125 33.06 240.085 32.827 240.05 32.59C240.001 32.355 240.024 32.144 240.001 31.923L239.975 31.597C239.957 31.49 239.993 31.415 240.001 31.32C240.036 31.138 240.001 30.99 240.076 30.764C240.209 29.909 240.519 29.1 240.972 28.329C241.854 26.791 243.326 25.417 245.018 24.42C246.703 23.399 248.573 22.749 250.358 22.384C252.144 22.053 253.868 21.989 255.383 22.191C258.419 22.592 260.63 23.921 262.088 25.178C263.555 26.419 264.433 27.398 265.062 27.172C265.355 27.064 265.54 26.687 265.58 26.009C265.607 25.668 265.589 25.256 265.482 24.79C265.403 24.32 265.279 23.775 265.026 23.197C264.591 22.014 263.746 20.634 262.416 19.313C261.1 17.99 259.266 16.783 257.054 15.967C252.645 14.367 246.813 14.299 241.122 16.973C238.3 18.316 235.459 20.436 233.389 23.616C232.353 25.187 231.564 27.039 231.178 29.005C230.726 31.108 230.859 33.224 231.231 35.121C231.636 37.081 232.425 38.999 233.51 40.657ZM261.283 37.054C261.283 39.515 263.291 41.516 265.755 41.516C268.228 41.516 270.222 39.515 270.222 37.054C270.222 34.583 268.228 32.584 265.755 32.584C263.291 32.585 261.283 34.584 261.283 37.054ZM199.776 28.576C199.568 29.061 199.444 29.58 199.21 30.083C199.099 30.335 199.027 30.604 198.917 30.858C198.797 31.113 198.686 31.377 198.576 31.64C198.097 32.675 197.569 33.719 196.905 34.791C196.209 35.952 195.549 37.058 194.928 38.097C194.281 39.249 193.545 40.35 192.907 41.379C192.242 42.372 191.643 43.295 191.2 43.916C190.77 44.55 190.513 44.96 190.513 44.96C190.513 44.96 190.948 45.091 191.741 45.232C192.539 45.392 193.678 45.481 195.109 45.374C196.501 45.223 198.211 44.88 199.913 43.954C201.615 43.058 203.383 41.649 204.628 39.635C205.869 37.645 206.574 35.429 206.782 33.427C206.822 32.92 206.84 32.43 206.857 31.949C206.857 31.479 206.791 31.018 206.751 30.586C206.676 29.702 206.423 28.922 206.206 28.224C205.696 26.841 205.05 25.835 204.336 25.255C203.649 24.663 202.98 24.462 202.377 24.632C201.128 24.971 200.481 26.635 199.776 28.576ZM191.299 20.023C192.053 21.755 193.068 22.932 193.068 22.932C193.068 22.932 194.57 23.06 196.454 22.387C197.416 22.057 198.413 21.507 199.325 20.638C200.274 19.785 201.071 18.582 201.598 17.009C201.891 16.238 202.001 15.327 202.108 14.401C202.153 13.933 202.193 13.459 202.215 12.978C202.202 12.486 202.18 11.985 202.145 11.489C202.065 9.51203 201.573 7.47203 201.028 5.75003C200.714 4.88103 200.385 4.08303 200.084 3.38303C199.797 2.68703 199.402 2.07603 199.118 1.58603C198.538 0.604025 198.147 0.0640259 198.147 0.0640259C198.147 0.0640259 197.837 0.680026 197.345 1.68203C197.092 2.16903 196.866 2.73403 196.49 3.35703C196.153 3.95703 195.767 4.62003 195.374 5.32703C193.738 8.08803 191.606 11.013 190.8 13.517C190.37 14.773 190.349 15.959 190.45 17.047C190.586 18.144 190.932 19.161 191.299 20.023ZM184.372 52.476C183.668 52.766 183.096 53.13 182.626 53.389C181.683 53.93 181.204 54.273 181.204 54.273C181.204 54.273 181.784 54.49 182.786 54.805C183.282 54.973 183.894 55.109 184.562 55.355C185.241 55.599 185.99 55.86 186.792 56.113C187.563 56.423 188.392 56.758 189.282 57.115C190.107 57.547 190.998 57.866 191.777 58.38C193.425 59.291 194.871 60.337 196.133 61.575C197.418 62.814 198.371 64.349 199.152 65.984C199.586 66.771 199.839 67.659 200.197 68.453C200.481 69.282 200.724 70.101 201.012 70.85C201.234 71.621 201.464 72.33 201.722 72.971C201.974 73.614 202.152 74.192 202.409 74.673C202.888 75.632 203.45 76.231 204.075 76.295C204.705 76.363 205.334 75.887 205.945 74.903C206.247 74.413 206.584 73.801 206.823 73.064C207.053 72.322 207.261 71.456 207.461 70.487C207.564 69.503 207.665 68.413 207.648 67.223C207.555 66.022 207.506 64.724 207.125 63.352C206.491 60.642 205.061 57.534 202.503 55.05C201.843 54.467 201.165 53.922 200.482 53.408C199.764 52.956 199.015 52.571 198.289 52.205C196.812 51.584 195.324 51.122 193.932 50.991C192.532 50.752 191.233 50.876 190.036 50.931C188.852 51.071 187.789 51.326 186.841 51.556C185.906 51.869 185.081 52.186 184.372 52.476ZM154.242 41.517C156.715 41.517 158.713 39.516 158.713 37.055C158.713 34.584 156.715 32.585 154.242 32.585C151.778 32.585 149.784 34.584 149.784 37.055C149.784 39.516 151.778 41.517 154.242 41.517ZM213.191 73.063C213.421 73.801 213.758 74.413 214.055 74.902C214.675 75.886 215.304 76.362 215.934 76.294C216.559 76.23 217.122 75.631 217.6 74.672C217.853 74.191 218.03 73.613 218.288 72.97C218.54 72.329 218.779 71.62 218.983 70.849C219.285 70.1 219.528 69.28 219.812 68.452C220.166 67.659 220.415 66.77 220.867 65.983C221.634 64.348 222.586 62.813 223.867 61.574C225.135 60.335 226.584 59.289 228.223 58.379C229.011 57.865 229.907 57.546 230.722 57.114C231.604 56.757 232.433 56.423 233.208 56.112C234.006 55.859 234.759 55.598 235.436 55.354C236.11 55.108 236.712 54.973 237.213 54.804C238.219 54.489 238.8 54.272 238.8 54.272C238.8 54.272 238.313 53.929 237.382 53.388C236.912 53.129 236.327 52.765 235.631 52.475C234.927 52.184 234.098 51.868 233.167 51.553C232.219 51.323 231.147 51.068 229.968 50.928C228.776 50.873 227.473 50.749 226.076 50.988C224.672 51.119 223.196 51.582 221.707 52.202C220.989 52.568 220.24 52.953 219.526 53.405C218.852 53.919 218.161 54.464 217.501 55.047C214.936 57.531 213.518 60.639 212.888 63.349C212.49 64.721 212.455 66.019 212.348 67.22C212.33 68.41 212.441 69.5 212.547 70.484C212.739 71.455 212.952 72.321 213.191 73.063ZM215.381 39.635C216.612 41.649 218.39 43.058 220.091 43.954C221.784 44.88 223.499 45.224 224.9 45.374C226.318 45.481 227.462 45.392 228.259 45.232C229.048 45.09 229.482 44.96 229.482 44.96C229.482 44.96 229.239 44.55 228.804 43.916C228.361 43.295 227.772 42.372 227.103 41.379C226.464 40.351 225.72 39.25 225.078 38.097C224.457 37.058 223.793 35.952 223.105 34.791C222.436 33.719 221.909 32.675 221.43 31.64C221.328 31.376 221.213 31.113 221.093 30.858C220.978 30.604 220.911 30.335 220.801 30.083C220.566 29.58 220.442 29.062 220.238 28.576C219.529 26.635 218.869 24.971 217.628 24.632C217.017 24.461 216.36 24.663 215.67 25.255C214.956 25.836 214.309 26.841 213.795 28.224C213.573 28.922 213.33 29.702 213.254 30.586C213.219 31.018 213.152 31.479 213.152 31.949C213.161 32.43 213.192 32.92 213.227 33.427C213.431 35.43 214.135 37.646 215.381 39.635ZM322.293 80.349C321.123 80.114 319.759 80.019 318.389 80.44C317.02 80.835 315.686 81.741 314.786 83.105C313.873 84.457 313.438 86.23 313.607 88.093C313.647 88.565 313.714 89.037 313.841 89.511C313.939 89.987 314.094 90.457 314.293 90.927C314.466 91.412 314.696 91.863 314.953 92.314C315.073 92.536 315.206 92.786 315.339 92.979L315.716 93.533C316.757 95.015 318.073 96.256 319.505 97.296C322.386 99.303 325.714 100.547 328.904 101.2C330.446 101.497 331.979 101.814 333.708 101.94C335.388 102.06 337.015 102.042 338.583 101.94C341.716 101.703 344.521 101.138 346.985 100.538C351.895 99.286 355.44 98.03 358.29 97.316C361.136 96.578 363.382 96.239 365.368 96.211C367.331 96.158 368.939 96.362 370.069 96.455C371.16 96.606 371.785 96.624 371.785 96.624C371.785 96.624 371.634 96.07 371.075 94.998C370.472 93.981 369.44 92.408 367.264 90.87C365.146 89.308 361.724 87.983 357.594 87.763C353.477 87.51 348.895 88.348 344.268 89.52C341.942 90.087 339.588 90.719 337.275 91.155C336.119 91.368 334.975 91.536 333.823 91.645C332.733 91.745 331.434 91.707 330.154 91.707C327.69 91.687 325.408 91.317 323.4 90.588C322.429 90.2 321.547 89.721 320.834 89.152L320.36 88.78C320.24 88.68 320.116 88.574 320.006 88.461C319.788 88.235 319.58 87.963 319.412 87.657C319.084 87.05 318.915 86.279 319.075 85.545C319.217 84.812 319.646 84.138 320.266 83.719C321.516 82.877 323.072 82.848 324.587 83.117C326.098 83.391 327.326 83.865 328.15 84.205C328.978 84.566 329.425 84.768 329.425 84.768C329.425 84.768 329.07 84.425 328.415 83.795C327.737 83.184 326.709 82.299 325.188 81.453C324.811 81.238 324.404 81.021 323.899 80.841C323.651 80.75 323.407 80.644 323.145 80.562C322.869 80.491 322.581 80.419 322.293 80.349ZM359.731 112.432C360.059 111.592 360.427 110.952 360.719 110.437C361.313 109.436 361.623 108.749 362.28 107.867C362.9 107.001 363.796 106.11 364.624 105.337C365.462 104.577 366.224 103.877 366.742 103.392C367.265 102.889 367.549 102.557 367.549 102.557C367.549 102.557 367.355 102.189 366.854 101.619C366.353 101.045 365.538 100.312 364.204 99.678C362.866 99.089 360.938 98.59 358.377 99.117C357.096 99.361 355.718 99.968 354.353 100.909C353.001 101.864 351.774 103.227 350.852 104.84C349.93 106.453 349.345 108.297 349.124 110.134C348.885 111.966 348.96 113.79 349.257 115.523C349.838 118.995 351.296 122.06 352.887 124.477C354.504 126.897 356.282 128.665 357.655 129.764C358.341 130.304 358.896 130.712 359.308 130.958C359.706 131.215 359.923 131.355 359.923 131.355C359.923 131.355 359.848 131.107 359.697 130.659C359.533 130.225 359.346 129.571 359.13 128.787C358.718 127.203 358.341 124.98 358.239 122.583C358.141 120.179 358.314 117.584 358.828 115.373C359.076 114.273 359.395 113.265 359.731 112.432ZM318.225 62.587C317.268 62.381 316.187 62.334 315.012 62.399C313.842 62.505 312.584 62.749 311.343 63.214C308.857 64.131 306.482 65.829 304.652 67.998C301.022 72.372 299.547 77.057 299.134 80.477C298.731 83.93 299.435 86.172 300.641 86.46C301.869 86.761 303.375 85.175 305.174 82.73C306.96 80.293 309.074 76.903 311.617 73.876C312.885 72.371 314.014 71.038 315.145 69.903C316.279 68.769 317.458 67.818 318.69 67.122C319.922 66.426 321.14 65.974 322.044 65.697C322.971 65.436 323.507 65.287 323.507 65.287C323.507 65.287 323.121 64.892 322.292 64.294C321.451 63.728 320.131 62.979 318.225 62.587ZM328.107 68.979L328.453 69.69C328.564 69.934 328.688 70.171 328.83 70.39C329.122 70.838 329.415 71.294 329.694 71.746C330.004 72.187 330.354 72.592 330.695 73.02C332.087 74.655 333.722 76.124 335.5 77.272C337.268 78.433 339.146 79.397 341.048 80.204C344.86 81.782 348.808 82.823 352.602 83.811C356.43 84.826 360.388 85.768 364.305 86.749C368.218 87.733 372.122 88.772 375.934 90.038C379.741 91.308 383.459 92.794 386.884 94.713L388.143 95.458C388.555 95.71 388.998 95.937 389.384 96.218L390.567 97.033L391.162 97.432C391.356 97.569 391.529 97.724 391.72 97.868C393.232 99.012 394.606 100.272 395.912 101.6C398.478 104.319 400.761 107.383 402.489 110.545C404.217 113.7 405.396 117.008 405.498 120.164C405.524 120.955 405.48 121.73 405.348 122.493C405.245 123.26 405.037 124.006 404.767 124.733C404.634 125.092 404.456 125.462 404.285 125.828C404.116 126.209 403.903 126.537 403.713 126.901C403.279 127.572 402.836 128.233 402.299 128.804C401.249 129.968 399.95 130.883 398.48 131.498C397.762 131.807 396.986 132.05 396.189 132.201C395.803 132.296 395.386 132.334 394.992 132.393C394.576 132.422 394.173 132.473 393.769 132.473C390.467 132.577 387.174 131.664 384.258 130.303C381.333 128.927 378.728 127.075 376.592 124.948C374.455 122.821 372.772 120.39 371.908 117.822C371.053 115.267 371.19 112.569 372.453 110.541C373.659 108.482 375.644 107.122 377.572 106.138C379.5 105.185 381.503 104.797 383.31 104.884C385.127 104.966 386.723 105.531 387.937 106.342C389.16 107.144 389.975 108.203 390.494 109.2C390.601 109.406 390.681 109.608 390.769 109.812C389.058 108.759 386.789 109.178 385.579 110.827C384.298 112.564 384.661 115.015 386.403 116.293C388.144 117.576 390.591 117.206 391.876 115.464C392.74 114.278 392.855 112.765 392.284 111.515C392.226 110.7 392.057 109.727 391.605 108.672C391.078 107.473 390.147 106.171 388.716 105.191C387.302 104.21 385.441 103.547 383.371 103.452C381.311 103.359 379.063 103.817 376.94 104.886C375.903 105.424 374.853 106.058 373.874 106.863C372.886 107.667 371.973 108.653 371.277 109.85C370.909 110.437 370.647 111.091 370.408 111.765C370.222 112.452 370.045 113.156 370.018 113.885C369.88 115.343 370.128 116.83 370.581 118.255C371.503 121.116 373.258 123.735 375.456 126.055C377.654 128.384 380.305 130.429 383.326 132.113C386.357 133.772 389.788 135.118 393.656 135.494C394.614 135.595 395.602 135.616 396.599 135.55C397.609 135.499 398.619 135.344 399.634 135.091C401.668 134.602 403.676 133.633 405.413 132.286C406.299 131.612 407.079 130.828 407.832 130.006C408.178 129.578 408.555 129.157 408.874 128.708C409.193 128.26 409.525 127.808 409.817 127.3C410.416 126.312 410.934 125.244 411.311 124.125C411.714 123.011 411.997 121.845 412.166 120.673C412.339 119.499 412.414 118.307 412.374 117.132C412.343 115.951 412.232 114.781 412.037 113.633C411.847 112.485 411.585 111.346 411.253 110.241C410.934 109.126 410.539 108.045 410.105 106.981C408.346 102.731 405.865 98.833 402.722 95.317C401.114 93.575 399.354 91.931 397.471 90.453C397.236 90.265 397.01 90.068 396.766 89.888L396.043 89.369C395.552 89.028 395.065 88.685 394.572 88.339C394.085 87.983 393.566 87.701 393.06 87.386C392.551 87.075 392.033 86.77 391.527 86.462C387.375 84.093 383.067 82.419 378.835 81.073C374.595 79.737 370.42 78.749 366.347 77.889C364.314 77.45 362.306 77.06 360.342 76.67C358.388 76.28 356.451 75.89 354.528 75.509C352.582 75.114 350.712 74.747 348.922 74.337C347.136 73.927 345.426 73.473 343.804 72.945C342.195 72.404 340.701 71.771 339.336 71.031C337.963 70.309 336.806 69.409 335.791 68.432C335.557 68.173 335.29 67.931 335.064 67.667C334.851 67.39 334.638 67.118 334.425 66.841C334.31 66.712 334.222 66.568 334.133 66.418L333.871 65.97C333.681 65.676 333.494 65.381 333.37 65.091C332.816 63.934 332.475 62.625 332.39 61.32C332.297 60.002 332.448 58.685 332.825 57.471C333.202 56.267 333.813 55.177 334.611 54.302C335.391 53.418 336.371 52.74 337.452 52.275C337.735 52.175 338.019 52.076 338.289 51.978C338.44 51.922 338.573 51.898 338.715 51.86C338.857 51.822 338.994 51.789 339.136 51.772C339.721 51.661 340.342 51.621 340.966 51.61C343.457 51.605 345.979 52.232 348.057 53.247C350.145 54.253 351.842 55.74 352.591 57.494C352.967 58.374 353.109 59.309 353.033 60.226C352.958 61.148 352.675 62.043 352.32 62.87C351.943 63.685 351.478 64.408 350.923 64.986C350.36 65.562 349.718 66.003 349.044 66.238C348.366 66.493 347.67 66.524 347.041 66.418C346.403 66.296 345.836 66.028 345.361 65.682C345.233 65.58 345.108 65.474 344.989 65.363C346.593 65.983 348.476 65.491 349.553 64.038C350.829 62.296 350.461 59.85 348.724 58.567C346.983 57.286 344.537 57.654 343.247 59.4C341.984 61.115 342.335 63.528 344.018 64.822C344.271 65.249 344.594 65.681 345.033 66.087C345.503 66.521 346.128 66.9 346.859 67.117C347.603 67.319 348.459 67.365 349.305 67.15C350.169 66.942 350.997 66.492 351.743 65.876C352.483 65.253 353.112 64.46 353.653 63.565C354.163 62.661 354.614 61.648 354.836 60.481C355.063 59.324 355.036 58.026 354.65 56.765C354.282 55.504 353.564 54.334 352.682 53.304C351.791 52.269 350.714 51.394 349.522 50.64C348.348 49.887 347.045 49.249 345.654 48.755C344.266 48.261 342.777 47.88 341.177 47.715C340.375 47.631 339.551 47.593 338.682 47.649C338.457 47.658 338.244 47.678 338.018 47.715C337.8 47.742 337.575 47.757 337.358 47.815C336.923 47.912 336.503 48.01 336.059 48.109C334.335 48.619 332.624 49.516 331.189 50.803C329.757 52.088 328.591 53.717 327.803 55.521C327.023 57.329 326.576 59.306 326.499 61.335C326.437 63.367 326.726 65.465 327.475 67.513C327.643 68.044 327.882 68.507 328.107 68.979ZM396.164 141.601C395.929 141.02 395.659 140.535 395.424 140.152C394.95 139.372 394.649 138.975 394.649 138.975C394.649 138.975 394.387 139.436 393.993 140.203C393.807 140.584 393.568 141.045 393.28 141.563C392.987 142.073 392.735 142.649 392.362 143.253C392.021 143.86 391.68 144.505 391.281 145.168C390.918 145.842 390.492 146.52 390.089 147.215C389.252 148.594 388.445 150.034 387.616 151.447C386.797 152.865 385.95 154.071 385.112 155.143C384.66 155.622 384.265 156.171 383.814 156.575C383.411 157.062 382.959 157.426 382.542 157.838C382.44 157.94 382.338 158.042 382.241 158.14C382.138 158.228 382.028 158.317 381.934 158.401C381.726 158.57 381.527 158.752 381.34 158.928C380.973 159.319 380.618 159.602 380.317 159.925C379.732 160.559 379.355 161.215 379.4 161.844C379.449 162.474 379.927 163.01 380.871 163.431C381.341 163.635 381.926 163.829 382.604 163.869C382.941 163.9 383.308 163.909 383.703 163.923C383.898 163.923 384.106 163.923 384.314 163.909C384.523 163.883 384.726 163.851 384.935 163.82C385.803 163.678 386.76 163.483 387.7 163.058C388.697 162.707 389.628 162.122 390.616 161.48C392.509 160.12 394.246 158.206 395.536 155.976C396.834 153.725 397.361 151.345 397.521 149.218C397.574 148.145 397.56 147.135 397.423 146.199C397.334 145.261 397.117 144.395 396.908 143.629C396.709 142.859 396.408 142.181 396.164 141.601ZM295.575 38.047C296.058 38.257 296.621 38.417 297.25 38.672C297.56 38.785 297.901 38.887 298.238 38.991C298.584 39.086 298.943 39.188 299.31 39.334C300.05 39.611 300.853 39.797 301.672 40.149C302.084 40.3 302.51 40.453 302.931 40.614C303.357 40.807 303.795 40.997 304.23 41.177C305.98 41.988 307.833 42.912 309.631 44.16C311.426 45.399 313.102 46.624 314.693 47.86C315.423 48.514 316.23 49.099 316.882 49.748C317.218 50.067 317.586 50.359 317.909 50.669C318.223 50.988 318.525 51.294 318.813 51.585C319.452 52.166 319.921 52.764 320.4 53.284C320.634 53.548 320.882 53.787 321.069 54.022C321.255 54.264 321.437 54.49 321.592 54.687C322.243 55.496 322.655 55.965 322.655 55.965C322.655 55.965 322.798 55.4 322.97 54.319C323.005 54.046 323.045 53.74 323.098 53.41C323.129 53.077 323.121 52.725 323.129 52.333C323.12 51.564 323.134 50.64 322.956 49.676C322.881 49.187 322.792 48.675 322.677 48.134C322.567 47.595 322.385 47.066 322.203 46.501C321.866 45.349 321.29 44.23 320.674 43.031C319.326 40.72 317.341 38.402 314.753 36.625C312.17 34.841 309.333 33.744 306.705 33.148C306.036 33.019 305.385 32.906 304.765 32.804C304.126 32.733 303.506 32.72 302.912 32.691C301.728 32.607 300.603 32.771 299.61 32.893C299.118 32.951 298.653 33.057 298.205 33.19C297.767 33.316 297.363 33.442 296.986 33.575C296.233 33.819 295.617 34.187 295.13 34.521C294.159 35.204 293.743 35.866 293.854 36.48C293.976 37.105 294.613 37.626 295.575 38.047ZM272.677 60.741C272.677 60.741 272.558 60.734 272.309 60.741C271.706 60.318 270.776 59.72 269.531 59.289C268.88 59.07 268.144 58.861 267.32 58.706C266.496 58.571 265.605 58.486 264.621 58.467C262.698 58.458 260.46 58.768 258.138 59.475C255.785 60.175 253.347 61.261 250.958 62.212C248.579 63.158 246.19 63.929 243.828 64.255C243.526 64.294 243.234 64.337 242.955 64.386C242.653 64.432 242.37 64.412 242.091 64.432C241.515 64.461 240.948 64.478 240.425 64.503C239.379 64.419 238.382 64.386 237.558 64.277C235.874 63.976 234.855 63.792 234.855 63.792C234.855 63.792 235.51 64.57 236.764 65.864C237.411 66.478 238.271 67.127 239.255 67.905C239.782 68.219 240.35 68.559 240.961 68.911C241.262 69.071 241.568 69.277 241.9 69.418C242.241 69.564 242.578 69.706 242.923 69.85C245.711 71.058 249.238 71.696 252.558 71.654C254.126 71.638 255.642 71.508 257.065 71.295C257.051 71.295 257.051 71.295 257.051 71.295C254.552 75.006 252.473 79.715 250.253 84.521C249.123 86.925 247.908 89.287 246.433 91.366C245.68 92.401 244.9 93.343 243.96 94.242C243.473 94.714 242.958 95.138 242.453 95.574C242.2 95.815 241.939 95.955 241.691 96.157C241.429 96.352 241.185 96.549 240.911 96.697C239.848 97.413 238.69 97.931 237.48 98.346C236.275 98.749 234.995 99.013 233.713 99.071C231.148 99.201 228.502 98.665 226.405 97.471C224.287 96.285 222.762 94.506 222.181 92.532C221.907 91.544 221.88 90.525 221.964 89.541C222.123 88.573 222.367 87.635 222.744 86.827C223.085 85.996 223.537 85.303 223.9 84.669C224.343 84.084 224.693 83.55 225.03 83.149C225.718 82.355 226.09 81.916 226.09 81.916C226.09 81.916 225.603 82.222 224.698 82.787C224.251 83.077 223.75 83.503 223.12 83.973C222.562 84.502 221.871 85.087 221.241 85.892C220.572 86.667 219.969 87.649 219.433 88.817C218.963 90.007 218.604 91.409 218.613 92.967C218.64 94.507 219.03 96.154 219.783 97.707C220.523 99.26 221.604 100.709 222.934 101.959C225.584 104.476 229.196 106.169 233.135 106.813C237.079 107.454 241.387 106.902 245.207 105.251C245.708 105.062 246.159 104.828 246.62 104.591C247.072 104.347 247.569 104.128 247.972 103.858C248.832 103.341 249.665 102.805 250.454 102.232C252.076 101.064 253.592 99.659 254.872 98.21C257.42 95.285 259.193 92.166 260.514 89.362C261.839 86.537 262.752 83.991 263.549 81.704C264.294 79.493 264.972 77.472 265.602 75.628C266.807 72.058 267.87 69.357 268.943 67.207C269.196 66.691 269.453 66.21 269.683 65.753C270.033 65.45 270.352 65.142 270.654 64.856C271.54 63.925 272.178 63.159 272.608 62.531C273.046 61.93 273.237 61.536 273.237 61.536C273.237 61.536 273.011 61.29 272.564 60.942C272.642 60.81 272.677 60.741 272.677 60.741ZM281.323 43.972C281.842 44.218 282.355 44.437 282.856 44.635C283.361 44.81 283.884 44.923 284.363 45.04C285.311 45.299 286.273 45.299 287.08 45.326C287.899 45.364 288.662 45.195 289.291 45.102C289.92 45.016 290.457 44.805 290.882 44.654C291.729 44.339 292.163 44.109 292.163 44.109C292.163 44.109 291.764 43.792 291.086 43.242C290.421 42.757 289.539 41.939 288.613 41.035C288.183 40.539 287.682 40.104 287.27 39.522C287.043 39.245 286.809 38.995 286.6 38.718C286.397 38.416 286.188 38.129 285.98 37.851C285.169 36.677 284.438 35.487 283.694 34.253C282.971 33.003 282.462 31.733 282.049 30.49C281.965 30.182 281.867 29.869 281.756 29.564C281.698 29.258 281.637 28.948 281.562 28.647C281.363 28.043 281.353 27.453 281.203 26.879C281.039 25.751 280.826 24.688 280.627 23.859C280.393 23.023 280.016 22.368 279.462 22.091C278.899 21.805 278.19 21.931 277.357 22.496C276.489 23.045 275.633 24.114 274.88 25.642C274.569 26.429 274.157 27.297 274.007 28.307C273.913 28.808 273.816 29.333 273.754 29.874C273.723 30.425 273.714 30.988 273.723 31.571C273.798 33.9 274.446 36.501 275.828 38.863C277.22 41.224 279.28 42.944 281.323 43.972ZM277.508 92.099C277.437 89.799 277.393 87.625 277.144 85.786C276.665 82.135 275.34 79.653 274.069 77.785C273.404 76.865 272.837 76.143 272.349 75.647C271.879 75.146 271.551 74.882 271.551 74.882C271.551 74.882 271.175 75.03 270.59 75.401C270.027 75.773 269.181 76.38 268.418 77.331C266.827 79.184 265.285 82.587 265.896 87.278C266.207 89.607 267.062 92.175 268.253 94.575C269.454 96.981 270.975 99.226 272.472 101.092C273.949 102.971 275.451 104.456 276.528 105.486C277.635 106.501 278.323 107.07 278.323 107.07C278.323 107.07 278.247 106.173 278.123 104.703C278.013 103.236 277.844 101.238 277.747 99.019C277.645 96.803 277.583 94.393 277.508 92.099ZM280.309 77.143C281.607 77.016 282.294 74.449 283.81 71.377C285.272 68.275 287.842 64.847 292.097 62.057C296.293 59.287 300.845 57.043 304.5 55.609C306.317 54.893 307.891 54.339 309.017 53.989C310.147 53.632 310.798 53.426 310.798 53.426C310.798 53.426 310.648 53.341 310.372 53.191C310.084 53.045 309.668 52.803 309.104 52.564C307.983 52.061 306.308 51.465 304.119 51.068C301.947 50.674 299.253 50.519 296.279 50.968C293.328 51.407 290.071 52.479 287.061 54.46C284.061 56.454 281.548 59.064 279.949 61.892C278.301 64.688 277.609 67.616 277.508 69.991C277.41 72.38 277.871 74.243 278.425 75.437C279.027 76.642 279.688 77.206 280.309 77.143ZM23.4289 237.873C23.8679 234.185 24.1419 229.284 24.1509 224.374C24.1509 219.464 23.8809 214.554 23.4289 210.871C23.2299 209.032 22.9859 207.499 22.7999 206.426C22.6009 205.354 22.4589 204.742 22.4589 204.742C22.4589 204.742 22.3089 205.353 22.1229 206.426C21.9229 207.499 21.6879 209.032 21.4939 210.871C21.0289 214.554 20.7669 219.464 20.7669 224.374C20.7669 229.284 21.0419 234.185 21.4939 237.873C21.6889 239.712 21.9319 241.241 22.1229 242.314C22.3089 243.395 22.4589 244.006 22.4589 244.006C22.4589 244.006 22.6009 243.395 22.7999 242.314C22.9769 241.241 23.2299 239.712 23.4289 237.873ZM23.0259 195.724C23.5489 196.412 24.1339 197.018 24.6699 197.625C25.2069 198.254 25.7999 198.76 26.3629 199.256C26.9389 199.743 27.4709 200.248 28.0379 200.648C29.1859 201.423 30.2319 202.181 31.2639 202.695C32.2919 203.227 33.2409 203.671 34.0869 204.008C34.9419 204.318 35.722 204.513 36.382 204.632C37.698 204.862 38.5629 204.726 38.8989 204.193C39.2399 203.662 39.0229 202.789 38.3669 201.685C38.0389 201.13 37.5869 200.533 37.0599 199.868C36.5589 199.177 35.9699 198.445 35.3009 197.679C34.6309 196.912 34.0019 196.027 33.2489 195.162C32.8809 194.727 32.5709 194.24 32.2169 193.779C31.8539 193.3 31.4719 192.835 31.1799 192.316C29.7879 190.331 28.6889 188.133 27.8879 185.598C27.0809 183.072 26.4919 180.36 25.9109 177.723C25.3299 175.095 24.7809 172.569 24.2089 170.455C23.1019 166.186 21.9709 163.537 21.9709 163.537C21.9709 163.537 20.8229 166.165 19.6439 170.436C19.0899 172.59 18.4869 175.147 18.2349 178.161C17.9819 181.14 18.0269 184.658 19.1919 188.353C19.5239 189.257 19.8259 190.166 20.2199 191.03C20.6449 191.882 21.0569 192.714 21.5099 193.512C22.0069 194.266 22.5159 195.011 23.0259 195.724ZM382.102 243.248C377.178 243.045 371.218 242.774 364.367 242.557C357.52 242.314 349.796 242.035 341.371 241.822C332.942 241.588 323.813 241.33 314.157 241.171C304.5 240.985 294.312 240.75 283.778 240.657C273.253 240.55 262.369 240.36 251.307 240.32C240.242 240.275 229.011 240.231 217.769 240.196C215.18 240.205 212.592 240.214 209.999 240.222C207.411 240.213 204.828 240.204 202.239 240.196C190.997 240.231 179.762 240.275 168.701 240.32C157.64 240.36 146.756 240.55 136.217 240.657C125.683 240.75 115.504 240.984 105.852 241.171C96.191 241.33 87.0579 241.588 78.6369 241.822C70.2079 242.035 62.4839 242.314 55.6369 242.557C48.7899 242.775 42.8249 243.045 37.9059 243.248C32.9959 243.44 29.1269 243.665 26.4899 243.789C23.8619 243.927 22.4569 244.006 22.4569 244.006C22.4569 244.006 23.8619 244.077 26.4899 244.219C29.1269 244.343 32.9949 244.565 37.9059 244.755C42.8249 244.964 48.7899 245.238 55.6369 245.451C62.4839 245.699 70.2079 245.973 78.6369 246.182C87.0569 246.416 96.191 246.673 105.852 246.833C115.504 247.023 125.684 247.258 136.217 247.355C146.755 247.453 157.639 247.648 168.701 247.692C179.763 247.732 190.997 247.772 202.239 247.812C204.828 247.807 207.411 247.793 209.999 247.785C212.592 247.794 215.18 247.807 217.769 247.812C229.011 247.772 240.242 247.732 251.307 247.692C262.368 247.648 273.252 247.453 283.778 247.355C294.312 247.257 304.5 247.023 314.157 246.833C323.813 246.673 332.942 246.416 341.371 246.182C349.796 245.973 357.52 245.699 364.367 245.451C371.219 245.238 377.178 244.964 382.102 244.755C387.012 244.565 390.877 244.343 393.513 244.219C396.146 244.077 397.546 244.006 397.546 244.006C397.546 244.006 396.146 243.927 393.513 243.789C390.877 243.665 387.013 243.44 382.102 243.248ZM16.0329 198.268C16.0329 198.268 14.4729 198.618 12.6609 199.957C10.8439 201.286 8.84495 203.608 7.86995 207.127C7.36095 208.882 7.09894 210.921 6.86394 212.999C6.62894 215.077 6.39395 217.196 6.06695 219.146C5.75195 221.11 5.26495 222.842 4.88795 224.145C4.45395 225.43 4.17495 226.219 4.17495 226.219C4.17495 226.219 4.94195 225.917 6.23595 225.297C7.46795 224.632 9.22295 223.595 10.9289 222.049C12.6659 220.537 14.4079 218.578 15.7899 216.478C17.1729 214.382 18.2189 212.189 18.7809 210.225C19.8849 206.286 19.0919 203.361 18.1609 201.367C17.2119 199.366 16.0329 198.268 16.0329 198.268ZM17.9469 158.36C19.5599 155.826 20.6239 153.047 21.1779 150.441C21.4039 149.107 21.6029 147.862 21.5949 146.661C21.5949 146.058 21.6209 145.5 21.5769 144.941C21.5289 144.392 21.4709 143.867 21.4179 143.373C21.3159 142.38 21.0499 141.487 20.8419 140.73C20.6509 139.97 20.3899 139.336 20.1639 138.825C19.7209 137.81 19.4189 137.283 19.4189 137.283C19.4189 137.283 19.1489 137.861 18.7369 138.834C18.5369 139.323 18.3019 139.906 17.9659 140.556C17.6339 141.205 17.3499 141.939 16.8979 142.701C16.7029 143.078 16.4949 143.472 16.2819 143.883C16.0649 144.29 15.7899 144.696 15.5549 145.119C15.1029 145.963 14.5089 146.823 13.9819 147.726C12.8249 149.499 11.5849 151.422 10.2689 153.439C7.63595 157.52 4.80495 161.19 2.88595 164.15C0.966948 167.092 -0.0210539 169.335 0.784946 170.314C1.58695 171.267 4.05095 170.766 7.32595 168.826C10.5599 166.878 14.6499 163.431 17.9469 158.36ZM38.0849 158.4C37.9699 158.316 37.8679 158.227 37.7659 158.139C37.6639 158.041 37.5659 157.939 37.4649 157.837C37.0529 157.425 36.6009 157.062 36.1969 156.574C35.7449 156.171 35.3459 155.621 34.8939 155.142C34.0609 154.07 33.2099 152.864 32.3809 151.446C31.5519 150.033 30.7589 148.592 29.9209 147.214C29.5129 146.519 29.0919 145.841 28.7249 145.167C28.3219 144.504 27.9889 143.859 27.6439 143.252C27.2759 142.648 27.0149 142.071 26.7179 141.562C26.4299 141.043 26.2039 140.582 26.0129 140.202C25.6229 139.435 25.3569 138.974 25.3569 138.974C25.3569 138.974 25.0559 139.37 24.5859 140.151C24.3509 140.534 24.0759 141.019 23.8409 141.6C23.5969 142.18 23.2959 142.859 23.1099 143.629C22.8929 144.396 22.6749 145.262 22.5829 146.199C22.4499 147.135 22.4319 148.144 22.4849 149.218C22.6359 151.345 23.1759 153.725 24.4699 155.976C25.7599 158.206 27.5009 160.12 29.3799 161.48C30.3679 162.123 31.3119 162.707 32.2999 163.058C33.2479 163.483 34.2099 163.678 35.0659 163.82C35.2779 163.851 35.4869 163.883 35.6949 163.909C35.8989 163.923 36.1069 163.923 36.3069 163.923C36.6919 163.909 37.0689 163.901 37.4059 163.869C38.0839 163.829 38.6689 163.635 39.1379 163.431C40.0779 163.01 40.5559 162.474 40.5959 161.844C40.6449 161.215 40.2769 160.559 39.6829 159.925C39.3899 159.602 39.0359 159.319 38.6679 158.928C38.4829 158.751 38.2839 158.569 38.0849 158.4ZM401.77 178.161C401.518 175.147 400.916 172.591 400.352 170.436C399.182 166.165 398.039 163.537 398.039 163.537C398.039 163.537 396.908 166.186 395.801 170.455C395.225 172.568 394.68 175.095 394.095 177.723C393.514 180.36 392.929 183.072 392.122 185.598C391.32 188.133 390.222 190.33 388.83 192.316C388.537 192.835 388.142 193.3 387.793 193.779C387.425 194.24 387.123 194.727 386.76 195.162C385.993 196.026 385.377 196.912 384.699 197.679C384.03 198.446 383.445 199.177 382.949 199.868C382.422 200.533 381.97 201.131 381.641 201.685C380.981 202.789 380.754 203.662 381.096 204.193C381.433 204.725 382.31 204.862 383.626 204.632C384.282 204.513 385.053 204.318 385.917 204.008C386.772 203.671 387.717 203.228 388.744 202.695C389.768 202.181 390.823 201.424 391.957 200.648C392.524 200.248 393.069 199.744 393.642 199.256C394.209 198.76 394.798 198.254 395.339 197.625C395.875 197.018 396.455 196.411 396.983 195.724C397.493 195.011 397.99 194.266 398.499 193.513C398.951 192.715 399.363 191.882 399.784 191.031C400.183 190.167 400.484 189.258 400.812 188.354C401.97 184.658 402.019 181.14 401.77 178.161ZM417.117 164.148C415.207 161.188 412.375 157.518 409.729 153.437C408.421 151.42 407.171 149.497 406.024 147.724C405.497 146.821 404.894 145.96 404.455 145.117C404.216 144.693 403.937 144.288 403.728 143.881C403.511 143.471 403.303 143.076 403.108 142.699C402.656 141.937 402.373 141.204 402.044 140.554C401.702 139.905 401.463 139.322 401.264 138.832C400.861 137.859 400.578 137.281 400.578 137.281C400.578 137.281 400.285 137.808 399.833 138.823C399.607 139.335 399.354 139.968 399.169 140.728C398.969 141.486 398.686 142.378 398.593 143.371C398.539 143.865 398.478 144.391 398.424 144.939C398.375 145.498 398.415 146.056 398.415 146.659C398.402 147.86 398.602 149.105 398.827 150.439C399.372 153.044 400.445 155.824 402.067 158.358C405.346 163.428 409.45 166.876 412.685 168.822C415.96 170.762 418.419 171.263 419.212 170.31C420.028 169.333 419.045 167.091 417.117 164.148ZM413.948 219.145C413.606 217.196 413.372 215.077 413.133 212.998C412.903 210.92 412.637 208.881 412.14 207.126C411.161 203.607 409.166 201.285 407.341 199.956C405.537 198.617 403.977 198.267 403.977 198.267C403.977 198.267 402.798 199.366 401.846 201.365C400.907 203.359 400.126 206.284 401.225 210.223C401.78 212.187 402.834 214.38 404.216 216.476C405.599 218.576 407.341 220.536 409.073 222.047C410.784 223.593 412.543 224.63 413.766 225.295C415.055 225.915 415.826 226.217 415.826 226.217C415.826 226.217 415.555 225.428 415.112 224.143C414.741 222.841 414.254 221.108 413.948 219.145ZM8.68895 124.124C9.06995 125.243 9.58895 126.311 10.1909 127.299C10.4839 127.807 10.8159 128.259 11.1299 128.707C11.4539 129.156 11.8299 129.577 12.1759 130.005C12.9289 130.827 13.7099 131.611 14.5959 132.285C16.3329 133.632 18.3359 134.6 20.3699 135.09C21.3889 135.343 22.4039 135.498 23.4099 135.549C24.4029 135.615 25.3949 135.594 26.3519 135.493C30.2079 135.117 33.6419 133.771 36.6729 132.112C39.6999 130.428 42.3549 128.382 44.5569 126.054C46.7379 123.734 48.5059 121.115 49.4279 118.254C49.8709 116.829 50.1149 115.342 49.9949 113.884C49.9549 113.155 49.7859 112.45 49.5869 111.764C49.3609 111.09 49.0949 110.436 48.7319 109.849C48.0359 108.652 47.1229 107.666 46.1349 106.862C45.1469 106.057 44.1059 105.424 43.0599 104.885C40.9329 103.817 38.6859 103.358 36.6249 103.451C34.5639 103.546 32.7029 104.209 31.2889 105.19C29.8619 106.17 28.9269 107.472 28.3949 108.671C27.9519 109.726 27.7699 110.698 27.7259 111.514C27.1539 112.764 27.2559 114.277 28.1289 115.463C29.4189 117.205 31.8649 117.575 33.5969 116.292C35.3339 115.014 35.7109 112.563 34.4219 110.826C33.2209 109.178 30.9519 108.759 29.2409 109.811C29.3249 109.607 29.4089 109.405 29.5109 109.199C30.0299 108.202 30.8409 107.143 32.0729 106.341C33.2829 105.53 34.8869 104.965 36.6909 104.883C38.5079 104.797 40.5109 105.184 42.4389 106.137C44.3579 107.121 46.3429 108.481 47.5579 110.54C48.8159 112.567 48.9579 115.266 48.0899 117.821C47.2349 120.389 45.5419 122.82 43.4189 124.947C41.2829 127.074 38.6719 128.926 35.7519 130.302C32.8319 131.663 29.5299 132.575 26.2369 132.472C25.8249 132.472 25.4299 132.421 25.0179 132.392C24.6149 132.332 24.2069 132.294 23.8219 132.2C23.0239 132.049 22.2529 131.805 21.5269 131.497C20.0599 130.882 18.7609 129.967 17.7069 128.803C17.1709 128.232 16.7189 127.572 16.2979 126.9C16.1119 126.536 15.8899 126.209 15.7259 125.827C15.5439 125.461 15.3759 125.092 15.2469 124.732C14.9719 124.005 14.7599 123.259 14.6579 122.492C14.5299 121.729 14.4809 120.954 14.5069 120.163C14.6129 117.008 15.7879 113.7 17.5209 110.544C19.2539 107.382 21.5269 104.317 24.0929 101.599C25.4049 100.272 26.7649 99.011 28.2809 97.867C28.4719 97.723 28.6489 97.568 28.8479 97.431L29.4369 97.032L30.6249 96.217C31.0109 95.936 31.4499 95.71 31.8659 95.457L33.1199 94.712C36.5499 92.793 40.2679 91.306 44.0709 90.037C47.8779 88.772 51.7909 87.732 55.7039 86.748C59.6169 85.767 63.5789 84.825 67.4079 83.81C71.1969 82.822 75.1409 81.78 78.9479 80.203C80.8579 79.396 82.7279 78.432 84.5099 77.271C86.2869 76.124 87.9269 74.654 89.3139 73.019C89.6509 72.591 90.0009 72.186 90.3019 71.745C90.5939 71.293 90.887 70.836 91.171 70.389C91.322 70.17 91.441 69.933 91.557 69.689L91.9029 68.978C92.1289 68.506 92.3639 68.043 92.5369 67.513C93.2769 65.466 93.5689 63.367 93.4939 61.335C93.4279 59.306 92.9749 57.329 92.1959 55.521C91.4069 53.717 90.2549 52.088 88.8099 50.803C87.3779 49.516 85.6679 48.618 83.9479 48.109C83.5049 48.009 83.0699 47.912 82.6409 47.815C82.4279 47.757 82.2019 47.742 81.9809 47.715C81.7549 47.677 81.5379 47.657 81.3199 47.649C80.4559 47.594 79.6269 47.631 78.8249 47.715C77.2289 47.879 75.7449 48.26 74.3489 48.755C72.9569 49.249 71.6589 49.887 70.4709 50.64C69.2879 51.393 68.2069 52.269 67.3199 53.304C66.4379 54.334 65.7119 55.504 65.3479 56.765C64.9709 58.026 64.9449 59.325 65.1709 60.481C65.3829 61.648 65.8489 62.661 66.3539 63.565C66.8899 64.46 67.5199 65.253 68.2639 65.876C69.0039 66.492 69.833 66.941 70.688 67.15C71.548 67.365 72.4029 67.318 73.1339 67.117C73.8699 66.9 74.4899 66.521 74.9689 66.087C75.4119 65.681 75.7309 65.249 75.9749 64.822C77.6679 63.527 78.0179 61.114 76.7549 59.4C75.4699 57.654 73.0239 57.286 71.2859 58.567C69.5399 59.85 69.1769 62.296 70.4569 64.038C71.5249 65.492 73.4089 65.983 75.0169 65.363C74.8929 65.474 74.7689 65.58 74.6409 65.682C74.1709 66.028 73.6079 66.296 72.9739 66.418C72.3309 66.524 71.6399 66.493 70.9619 66.238C70.2839 66.003 69.6459 65.562 69.0789 64.986C68.5249 64.408 68.0549 63.686 67.6789 62.87C67.3199 62.043 67.0499 61.148 66.9739 60.226C66.8979 59.309 67.0399 58.373 67.4079 57.494C68.1699 55.739 69.8589 54.252 71.9499 53.247C74.0279 52.232 76.5499 51.605 79.0399 51.61C79.6649 51.621 80.2809 51.661 80.8569 51.772C81.0079 51.79 81.1499 51.823 81.2919 51.86C81.4199 51.898 81.5629 51.922 81.7039 51.978C81.9879 52.076 82.2669 52.175 82.5509 52.275C83.6319 52.74 84.6119 53.419 85.4049 54.302C86.1939 55.177 86.7969 56.267 87.1779 57.471C87.5499 58.685 87.7009 60.001 87.6119 61.32C87.5279 62.625 87.1869 63.935 86.6239 65.091C86.5129 65.381 86.3139 65.676 86.1369 65.97L85.8709 66.418C85.7909 66.568 85.6939 66.712 85.5829 66.841C85.3659 67.118 85.1579 67.39 84.9399 67.667C84.7139 67.931 84.4529 68.172 84.2179 68.432C83.2029 69.409 82.0419 70.309 80.6729 71.031C79.3079 71.771 77.8099 72.405 76.1969 72.945C74.5749 73.472 72.8599 73.926 71.0869 74.337C69.2959 74.747 67.4219 75.114 65.4769 75.509C63.5619 75.89 61.6209 76.28 59.6579 76.67C57.6899 77.06 55.6869 77.45 53.6529 77.889C49.5889 78.749 45.4059 79.737 41.1689 81.073C36.9279 82.418 32.6209 84.093 28.4769 86.462C27.9629 86.77 27.4569 87.076 26.9429 87.386C26.4379 87.7 25.9109 87.982 25.4319 88.339C24.9449 88.685 24.4529 89.028 23.9649 89.369L23.2299 89.888C22.9949 90.068 22.7599 90.265 22.5339 90.453C20.6499 91.931 18.8949 93.575 17.2869 95.317C14.1449 98.834 11.6589 102.731 9.89894 106.981C9.46094 108.044 9.06995 109.126 8.75595 110.241C8.41495 111.346 8.16195 112.485 7.97595 113.633C7.76395 114.781 7.66094 115.951 7.63494 117.132C7.59994 118.306 7.66195 119.498 7.83895 120.673C8.01195 121.844 8.29095 123.01 8.68895 124.124ZM397.888 206.426C397.698 205.354 397.547 204.742 397.547 204.742C397.547 204.742 397.397 205.353 397.21 206.426C397.02 207.499 396.78 209.032 396.581 210.871C396.129 214.554 395.853 219.464 395.853 224.374C395.853 229.284 396.128 234.185 396.581 237.873C396.78 239.712 397.019 241.241 397.21 242.314C397.396 243.395 397.547 244.006 397.547 244.006C397.547 244.006 397.697 243.395 397.888 242.314C398.066 241.242 398.323 239.712 398.518 237.873C398.969 234.185 399.245 229.284 399.245 224.374C399.245 219.464 398.979 214.554 398.527 210.871C398.322 209.032 398.074 207.499 397.888 206.426ZM90.5769 84.765C90.5769 84.765 91.0289 84.563 91.8579 84.202C92.6729 83.863 93.905 83.389 95.421 83.114C96.937 82.845 98.4879 82.874 99.7369 83.716C100.349 84.135 100.783 84.808 100.934 85.542C101.093 86.275 100.925 87.046 100.588 87.654C100.424 87.96 100.22 88.232 99.9939 88.458C99.8879 88.571 99.7689 88.677 99.6439 88.777L99.1739 89.149C98.4519 89.718 97.5739 90.197 96.6079 90.585C94.6009 91.314 92.314 91.684 89.85 91.704C88.565 91.704 87.2659 91.742 86.1849 91.642C85.0369 91.534 83.8849 91.365 82.7289 91.152C80.4069 90.715 78.0669 90.084 75.7449 89.517C71.1139 88.345 66.5319 87.507 62.4009 87.76C58.2789 87.979 54.8589 89.305 52.7309 90.867C50.5679 92.405 49.5359 93.978 48.9329 94.995C48.3789 96.068 48.2279 96.621 48.2279 96.621C48.2279 96.621 48.8439 96.603 49.9389 96.452C51.0689 96.359 52.6729 96.155 54.6409 96.208C56.6259 96.237 58.8639 96.576 61.7049 97.313C64.5769 98.027 68.1129 99.283 73.0229 100.535C75.4779 101.135 78.2969 101.701 81.4209 101.937C82.9809 102.039 84.6209 102.057 86.2959 101.937C88.0279 101.811 89.562 101.494 91.104 101.197C94.295 100.543 97.614 99.3 100.49 97.293C101.921 96.254 103.238 95.013 104.284 93.53L104.67 92.976C104.798 92.783 104.931 92.533 105.055 92.311C105.308 91.859 105.543 91.409 105.711 90.924C105.911 90.454 106.066 89.985 106.163 89.508C106.296 89.034 106.363 88.562 106.402 88.09C106.566 86.227 106.128 84.454 105.21 83.102C104.319 81.737 102.985 80.831 101.607 80.437C100.247 80.016 98.8729 80.111 97.7069 80.346C97.4229 80.417 97.1449 80.488 96.8609 80.556C96.5949 80.638 96.3509 80.745 96.1079 80.835C95.6029 81.015 95.1989 81.231 94.8229 81.447C93.2849 82.293 92.2699 83.177 91.5919 83.789C90.9319 84.421 90.5769 84.765 90.5769 84.765ZM147.537 101.091C149.031 99.225 150.546 96.981 151.751 94.574C152.948 92.174 153.803 89.606 154.113 87.277C154.72 82.587 153.182 79.183 151.592 77.33C150.83 76.38 149.983 75.772 149.407 75.4C148.836 75.03 148.45 74.881 148.45 74.881C148.45 74.881 148.126 75.145 147.661 75.646C147.169 76.142 146.593 76.864 145.929 77.784C144.67 79.652 143.341 82.134 142.862 85.785C142.614 87.624 142.57 89.798 142.494 92.098C142.428 94.391 142.361 96.802 142.259 99.018C142.166 101.236 141.984 103.235 141.882 104.702C141.749 106.171 141.678 107.069 141.678 107.069C141.678 107.069 142.374 106.499 143.482 105.485C144.554 104.455 146.052 102.97 147.537 101.091ZM147.386 62.531C147.82 63.158 148.467 63.925 149.353 64.856C149.641 65.142 149.974 65.45 150.311 65.753C150.559 66.21 150.811 66.691 151.064 67.207C152.127 69.357 153.2 72.058 154.406 75.628C155.021 77.471 155.7 79.492 156.444 81.704C157.242 83.991 158.168 86.537 159.493 89.362C160.809 92.165 162.578 95.285 165.139 98.21C166.414 99.659 167.921 101.064 169.539 102.232C170.327 102.806 171.174 103.342 172.021 103.858C172.438 104.128 172.938 104.347 173.377 104.591C173.838 104.828 174.299 105.063 174.786 105.251C178.605 106.902 182.927 107.454 186.866 106.813C190.81 106.168 194.418 104.476 197.077 101.959C198.397 100.709 199.478 99.26 200.223 97.707C200.967 96.154 201.353 94.507 201.388 92.967C201.388 91.409 201.034 90.007 200.573 88.817C200.037 87.649 199.426 86.668 198.757 85.892C198.127 85.087 197.449 84.502 196.878 83.973C196.253 83.503 195.756 83.078 195.296 82.787C194.401 82.222 193.913 81.916 193.913 81.916C193.913 81.916 194.289 82.355 194.976 83.149C195.304 83.55 195.663 84.084 196.101 84.669C196.474 85.303 196.925 85.996 197.262 86.827C197.639 87.636 197.883 88.573 198.033 89.541C198.126 90.525 198.086 91.544 197.816 92.532C197.231 94.506 195.707 96.285 193.601 97.471C191.5 98.665 188.859 99.201 186.288 99.071C185.003 99.013 183.731 98.75 182.521 98.346C181.316 97.931 180.159 97.413 179.091 96.697C178.82 96.549 178.568 96.351 178.311 96.157C178.058 95.955 177.806 95.816 177.548 95.574C177.043 95.138 176.533 94.714 176.046 94.242C175.098 93.343 174.317 92.401 173.565 91.366C172.093 89.287 170.879 86.926 169.75 84.521C167.524 79.715 165.455 75.006 162.942 71.302V71.295C164.36 71.508 165.876 71.638 167.449 71.654C170.768 71.696 174.283 71.058 177.084 69.85C177.43 69.706 177.77 69.564 178.107 69.418C178.435 69.276 178.737 69.07 179.046 68.911C179.658 68.559 180.221 68.22 180.739 67.905C181.736 67.127 182.591 66.478 183.234 65.864C184.483 64.57 185.153 63.792 185.153 63.792C185.153 63.792 184.125 63.976 182.454 64.277C181.625 64.386 180.619 64.419 179.569 64.503C179.046 64.479 178.492 64.461 177.907 64.432C177.624 64.412 177.344 64.432 177.06 64.386C176.768 64.337 176.48 64.295 176.178 64.255C173.816 63.929 171.427 63.158 169.034 62.212C166.654 61.261 164.221 60.175 161.868 59.475C159.546 58.768 157.304 58.458 155.389 58.467C154.401 58.487 153.496 58.571 152.69 58.706C151.861 58.861 151.117 59.069 150.479 59.289C149.225 59.719 148.294 60.317 147.691 60.741C147.443 60.734 147.315 60.741 147.315 60.741C147.315 60.741 147.363 60.809 147.43 60.938C146.987 61.29 146.752 61.537 146.752 61.537C146.752 61.537 146.96 61.931 147.386 62.531ZM170.528 29.711C170.528 27.185 168.476 25.14 165.955 25.14C163.433 25.14 161.386 27.185 161.386 29.711C161.386 32.232 163.433 34.277 165.955 34.277C168.477 34.277 170.528 32.232 170.528 29.711ZM140.061 61.893C138.457 59.066 135.944 56.455 132.944 54.461C129.926 52.48 126.682 51.408 123.726 50.969C120.757 50.519 118.071 50.675 115.891 51.069C113.711 51.466 112.018 52.062 110.905 52.565C110.342 52.805 109.917 53.046 109.634 53.192C109.363 53.342 109.213 53.427 109.213 53.427C109.213 53.427 109.856 53.633 110.99 53.99C112.107 54.34 113.689 54.894 115.506 55.61C119.153 57.044 123.709 59.288 127.915 62.058C132.165 64.848 134.727 68.276 136.202 71.378C137.704 74.449 138.391 77.017 139.699 77.144C140.324 77.208 140.98 76.643 141.582 75.44C142.136 74.246 142.602 72.382 142.495 69.994C142.4 67.617 141.705 64.689 140.061 61.893ZM60.8759 128.786C60.6629 129.57 60.473 130.224 60.313 130.658C60.163 131.106 60.0779 131.354 60.0779 131.354C60.0779 131.354 60.2949 131.214 60.6989 130.957C61.1159 130.711 61.6559 130.303 62.3559 129.763C63.7169 128.663 65.4979 126.896 67.1249 124.476C68.7159 122.059 70.1689 118.994 70.7459 115.522C71.0379 113.789 71.1229 111.966 70.8879 110.133C70.6619 108.296 70.0679 106.452 69.1549 104.839C68.2369 103.226 67.0059 101.864 65.6499 100.908C64.3029 99.966 62.9019 99.359 61.6299 99.116C59.0729 98.589 57.1359 99.087 55.8069 99.677C54.4599 100.311 53.6529 101.044 53.1529 101.618C52.6569 102.187 52.4619 102.556 52.4619 102.556C52.4619 102.556 52.7409 102.888 53.2589 103.391C53.7859 103.876 54.5349 104.576 55.3859 105.336C56.2149 106.109 57.0969 107 57.7259 107.866C58.3859 108.748 58.6969 109.435 59.2819 110.436C59.5699 110.95 59.9379 111.591 60.2749 112.431C60.6029 113.264 60.9259 114.272 61.1699 115.371C61.6889 117.582 61.8699 120.177 61.7809 122.581C61.6699 124.98 61.2929 127.202 60.8759 128.786ZM130.706 45.102C131.335 45.195 132.098 45.363 132.917 45.326C133.737 45.299 134.685 45.299 135.642 45.04C136.125 44.923 136.644 44.81 137.149 44.635C137.65 44.438 138.155 44.218 138.683 43.972C140.726 42.944 142.778 41.224 144.178 38.865C145.56 36.503 146.203 33.902 146.287 31.573C146.291 30.99 146.278 30.427 146.256 29.876C146.19 29.335 146.088 28.81 146.004 28.309C145.853 27.299 145.437 26.43 145.127 25.644C144.369 24.115 143.518 23.047 142.654 22.498C141.821 21.933 141.112 21.807 140.549 22.093C139.986 22.37 139.614 23.026 139.384 23.861C139.176 24.69 138.967 25.753 138.799 26.881C138.648 27.455 138.648 28.045 138.453 28.649C138.377 28.951 138.307 29.261 138.253 29.566C138.138 29.872 138.045 30.184 137.961 30.492C137.549 31.735 137.039 33.005 136.317 34.255C135.568 35.489 134.837 36.679 134.03 37.853C133.822 38.13 133.605 38.418 133.405 38.72C133.192 38.997 132.957 39.247 132.74 39.524C132.323 40.107 131.827 40.541 131.384 41.037C130.471 41.941 129.589 42.759 128.92 43.244C128.233 43.794 127.848 44.111 127.848 44.111C127.848 44.111 128.269 44.341 129.124 44.656C129.54 44.805 130.089 45.016 130.706 45.102ZM150.723 50.096C152.908 50.171 156.041 50.368 159.989 50.377C163.942 50.339 168.711 50.218 174.171 48.76C176.874 47.98 179.821 46.883 182.645 44.729C184.045 43.648 185.41 42.316 186.504 40.656C187.585 38.999 188.365 37.08 188.777 35.119C189.154 33.222 189.282 31.106 188.831 29.003C188.449 27.038 187.661 25.185 186.619 23.614C184.554 20.434 181.705 18.314 178.89 16.971C173.191 14.297 167.368 14.365 162.945 15.965C160.743 16.78 158.899 17.988 157.583 19.311C156.258 20.632 155.421 22.012 154.978 23.195C154.734 23.773 154.61 24.319 154.517 24.788C154.424 25.253 154.407 25.665 154.433 26.007C154.482 26.685 154.646 27.062 154.947 27.17C155.572 27.396 156.454 26.417 157.921 25.176C159.379 23.92 161.582 22.59 164.631 22.189C166.133 21.987 167.857 22.051 169.651 22.382C171.442 22.747 173.312 23.397 175.001 24.418C176.689 25.415 178.151 26.789 179.042 28.327C179.494 29.098 179.796 29.907 179.937 30.762C180.012 30.988 179.972 31.137 180.012 31.318C180.021 31.413 180.047 31.489 180.038 31.595L180.012 31.921C179.986 32.142 180.012 32.353 179.963 32.588C179.914 32.825 179.874 33.058 179.848 33.297C179.644 34.214 179.334 35.034 178.891 35.81C178.457 36.588 177.827 37.301 177.101 37.997C175.629 39.389 173.621 40.543 171.561 41.524C167.377 43.459 163.003 44.737 159.334 45.867C155.646 46.972 152.58 47.916 150.497 48.688C148.41 49.455 147.32 50.037 147.32 50.037C147.32 50.037 148.552 50.012 150.723 50.096ZM101.306 67.123C102.551 67.819 103.739 68.769 104.856 69.904C105.995 71.039 107.116 72.372 108.383 73.877C110.923 76.904 113.041 80.294 114.84 82.731C116.635 85.175 118.132 86.762 119.374 86.461C120.575 86.173 121.284 83.931 120.876 80.478C120.455 77.057 118.988 72.373 115.354 67.999C113.528 65.83 111.148 64.133 108.653 63.215C107.421 62.75 106.154 62.506 104.997 62.4C103.818 62.336 102.737 62.382 101.78 62.588C99.8699 62.98 98.545 63.729 97.716 64.296C96.887 64.895 96.5019 65.289 96.5019 65.289C96.5019 65.289 97.038 65.437 97.96 65.699C98.855 65.975 100.087 66.427 101.306 67.123ZM97.0389 54.32C97.1989 55.401 97.3489 55.966 97.3489 55.966C97.3489 55.966 97.7649 55.496 98.4119 54.688C98.5719 54.491 98.7399 54.265 98.9309 54.023C99.1309 53.788 99.3699 53.549 99.5959 53.285C100.088 52.764 100.549 52.166 101.191 51.586C101.479 51.295 101.78 50.99 102.1 50.67C102.41 50.36 102.778 50.067 103.115 49.749C103.775 49.1 104.582 48.515 105.322 47.861C106.895 46.625 108.579 45.4 110.378 44.161C112.177 42.913 114.03 41.99 115.772 41.178C116.211 40.998 116.645 40.808 117.066 40.615C117.5 40.453 117.921 40.301 118.325 40.15C119.149 39.798 119.947 39.611 120.687 39.335C121.064 39.189 121.423 39.087 121.764 38.992C122.114 38.888 122.442 38.786 122.757 38.673C123.386 38.418 123.953 38.259 124.436 38.048C125.393 37.627 126.032 37.106 126.147 36.484C126.271 35.87 125.837 35.208 124.879 34.525C124.387 34.191 123.775 33.823 123.022 33.579C122.637 33.446 122.229 33.32 121.799 33.194C121.36 33.061 120.886 32.955 120.39 32.897C119.402 32.775 118.285 32.611 117.093 32.695C116.503 32.724 115.874 32.737 115.245 32.808C114.616 32.91 113.964 33.023 113.304 33.152C110.671 33.748 107.831 34.845 105.252 36.629C102.664 38.406 100.678 40.724 99.335 43.035C98.706 44.234 98.1429 45.353 97.8019 46.505C97.6249 47.07 97.4339 47.599 97.3229 48.138C97.2209 48.678 97.123 49.191 97.048 49.68C96.871 50.644 96.8879 51.568 96.8789 52.337C96.8879 52.73 96.879 53.082 96.91 53.414C96.954 53.741 96.9939 54.047 97.0389 54.32ZM182.011 77.499C178.523 77.499 175.691 80.327 175.691 83.816C175.691 87.306 178.523 90.135 182.011 90.135C185.503 90.135 188.334 87.306 188.334 83.816C188.334 80.327 185.503 77.499 182.011 77.499ZM238.531 77.499C235.03 77.499 232.207 80.327 232.207 83.816C232.207 87.306 235.03 90.135 238.531 90.135C242.018 90.135 244.855 87.306 244.855 83.816C244.855 80.327 242.019 77.499 238.531 77.499Z" fill="#473D2E"/>
</svg>
