<?xml version="1.0" encoding="UTF-8"?><svg id="Layer_2" xmlns="http://www.w3.org/2000/svg" viewBox="0 0 179.25 179.75"><defs><style>.cls-1{fill:#4b3205;}</style></defs><g id="Corner_Frames"><g><g><path class="cls-1" d="M164.2,3.15c.27,.28,.28,1.4,.05,3.38-.27,2.15-.1,3.73,.5,4.73,.78-.5,1.4-.98,1.86-1.46,1.11-1.1,1.96-2.56,2.54-4.35,.59-1.79,1.07-2.88,1.44-3.26,.3-.29,.76-.35,1.36-.15,.71,.3,1.14,.45,1.29,.44,.15-.03,.72-.21,1.69-.58,.61-.2,1.04-.17,1.31,.11,.34,.33,.32,.84-.07,1.54-.39,.68-.57,1.13-.54,1.34,.03,.2,.32,.59,.86,1.2,.37,.44,.39,.82,.05,1.16-.4,.41-1.58,1.09-3.53,2.07-1.94,.98-3.36,1.89-4.24,2.77-1.04,1.04-1.24,1.88-.6,2.52,.77,.77,2.15,1.16,4.13,1.16s3.04,.07,3.17,.2c.23,.23,.21,.5-.09,.8-.5,.51-2.44,1.33-5.79,2.47-4.03,1.4-7.41,2.9-10.13,4.48-3.26,1.92-7.13,5.02-11.64,9.32-4.5,4.3-6.97,6.22-7.4,5.8-.23-.24,.68-1.65,2.77-4.29,.56-.7,2.08-2.45,4.53-5.24,1.95-2.22,3.47-4.11,4.58-5.7,2.99-4.2,5.31-8.39,6.95-12.59,1.51-3.73,2.19-5.51,2.02-5.34l.25-.26c.17-.16,.43-.5,.81-1.01,.37-.5,.67-.87,.91-1.1,.37-.37,.68-.43,.96-.16Z"/><path class="cls-1" d="M119.5,63.56c.36,.35,.37,.75,.03,1.2-1.21,.07-2.14,.43-2.78,1.07-1.44,1.44-2.38,3.08-2.81,4.92-.43,1.83-.22,3.17,.62,4.01,.37,.38,.81,.55,1.31,.51,.18,0,.72-.11,1.61-.32,.48-.12,.82-.08,1.01,.11,.21,.21,.05,.59-.51,1.15-.21,.22-1.14,.69-2.78,1.45,.04,.07,.11,.16,.21,.27,.27,.27,.68,.48,1.25,.63,.56,.15,.9,.29,1.03,.42,.62,.62,.89,1.53,.81,2.7-.08,1.19-.49,2.15-1.21,2.88-.68,.68-1.14,.89-1.39,.64-.09-.09-.05-.45,.13-1.1,.18-.64,.16-1.07-.05-1.28-.14-.14-.37-.18-.68-.12-.31,.06-.62,.13-.95,.2-1.01,.13-1.93-.22-2.75-1.04-.32-.32-.71-1.04-1.18-2.15-.86,.4-1.73,.79-2.62,1.18-.64,.24-1.09,.25-1.33,0-.3-.31-.23-.8,.24-1.48,1.05-1.51,1.73-2.55,2.03-3.1,.78-1.71,1.57-3.42,2.35-5.14,.96-2.06,1.97-3.62,3.02-4.68,.04-.03,.1-.08,.19-.13,.05-.05,.1-.1,.1-.1,.52-.51,.57-.99,.16-1.39-.3-.31-.8-.29-1.5,.05-.99,.5-2.08,1.23-3.26,2.19-1.44,1.16-2.28,1.82-2.51,1.98-.73,.48-2.13,.94-4.2,1.37-1.85,.39-3.04,.85-3.55,1.37-.03,.03-.09,.11-.19,.24-.09,.09-.16,.16-.21,.22-.55,.55-1.01,.65-1.36,.29-.27-.27-.24-.65,.08-1.15,.11-.18,.61-.82,1.5-1.92,.48-.6,.61-1,.37-1.23-.09-.09-.41-.25-.96-.48-.56-.23-.95-.47-1.2-.73-.32-.32-.47-.88-.46-1.68,.02-.8,0-1.22-.03-1.26-.14-.14-.52-.15-1.14-.01-.62,.13-.95,.17-1,.12-.07-.07-.04-.29,.09-.66,.14-.37,.34-.7,.63-.97,.57-.57,1.48-.86,2.72-.86,1.36,0,2.41,.37,3.16,1.12,.2,.2,.42,.65,.67,1.37,.25,.71,.46,1.16,.64,1.34,.05,.06,.13,.08,.24,.08-.02-.81-.03-1.61-.05-2.41,.02-.66,.15-1.12,.4-1.36,.22-.22,.5-.29,.86-.22,.09,.24,.25,.84,.48,1.82,.16,.66,.38,1.13,.67,1.41,.76,.77,1.9,.94,3.39,.51,1.85-.53,3.39-1.42,4.63-2.65,.32-.32,.53-.89,.64-1.71,.11-.82,.2-1.26,.26-1.34,.2-.2,.6-.45,.95-.17,.37,.3,.64,.99,.96,1.31,.07,.08-.09-.16,0,0,.41-.69,.96-1.12,1.23-1.85,.28-.73,1.55-2.36,2.43-2.32-.04-1.18,.15-3.02,1.56-4.42,1.4-1.4,7.13-5.34,8.49-6.42,.19-.15,.4-.41,.7-.71,.31-.24,.5-.41,.6-.5,.51-.5,.58-.94,.21-1.3-.1-.11-.37-.25-.81-.4-.43-.18-.75-.36-.95-.56-.67-.67-.69-1.42-.05-2.27,2.28-.13,4.03-.81,5.24-2.02,2.73-2.72,4.49-5.82,5.3-9.27,.8-3.46,.42-5.98-1.16-7.55-.71-.71-1.53-1.03-2.46-.96-.34,0-1.35,.2-3.03,.6-.9,.24-1.54,.17-1.91-.2-.41-.4-.09-1.12,.95-2.16,.4-.41,2.15-1.31,5.24-2.72-.07-.13-.2-.3-.4-.5-.5-.5-1.29-.9-2.35-1.18-1.05-.29-1.7-.55-1.93-.79-1.17-1.17-1.68-2.87-1.53-5.1,.15-2.24,.91-4.05,2.29-5.43,1.28-1.28,2.15-1.68,2.62-1.21,.17,.17,.09,.85-.25,2.06-.34,1.21-.31,2.02,.1,2.42,.26,.27,.7,.34,1.29,.23,.58-.12,1.18-.25,1.79-.38,1.91-.24,3.64,.42,5.19,1.96,.6,.6,1.34,1.95,2.21,4.04,1.61-.75,3.26-1.49,4.94-2.22,1.2-.46,2.05-.47,2.52,0,.57,.59,.42,1.5-.45,2.78-1.99,2.85-3.26,4.81-3.83,5.85-1.48,3.23-2.96,6.45-4.43,9.68-1.81,3.9-3.71,6.83-5.69,8.81-.07,.07-.19,.15-.36,.25-.1,.1-.2,.2-.2,.2-.97,.96-1.07,1.85-.3,2.62,.57,.57,1.51,.54,2.83-.1,1.88-.94,3.92-2.31,6.15-4.13,2.71-2.18,4.3-3.42,4.73-3.73,1.37-.91,4.01-1.76,7.91-2.57,3.49-.74,5.72-1.6,6.7-2.58,.07-.06,.18-.21,.35-.45,.17-.16,.3-.3,.4-.41,1.04-1.04,1.9-1.23,2.58-.55,.51,.5,.45,1.23-.16,2.17-.2,.34-1.14,1.55-2.82,3.62-.9,1.12-1.14,1.89-.7,2.33,.16,.17,.76,.47,1.81,.9,1.05,.44,1.8,.89,2.27,1.37,.6,.6,.89,1.65,.86,3.16-.03,1.52-.02,2.31,.05,2.37,.27,.27,.98,.28,2.14,.02,1.16-.25,1.78-.33,1.88-.23,.14,.14,.08,.55-.17,1.24-.26,.7-.65,1.31-1.19,1.84-1.07,1.08-2.79,1.61-5.14,1.61-2.55,0-4.53-.71-5.95-2.11-.37-.37-.79-1.23-1.26-2.58-.47-1.33-.88-2.17-1.21-2.51-.09-.1-.24-.15-.45-.15,.03,1.52,.06,3.03,.1,4.54-.04,1.25-.28,2.11-.76,2.57-.41,.41-.94,.54-1.61,.41-.17-.44-.48-1.58-.91-3.42-.3-1.25-.72-2.14-1.26-2.68-1.44-1.44-3.58-1.76-6.4-.96-3.49,1-6.4,2.67-8.72,4.99-.6,.6-1,1.68-1.2,3.23-.21,1.54-.37,2.38-.5,2.52-.37,.37-.97,.47-1.79,.33-.83-.16-1.54-.53-2.14-1.14-.13-.14-.29-.36-.45-.66-.17-.3-.31-.51-.41-.6-.47-.47-1.02-.39-1.66,.25-.24,.23-.49,.65-.79,1.24-.96,1.93-3.32,6.81-4.56,8.21-1.23,1.41-3.48,1.8-4.21,1.8-.34,1.23-1.12,2.25-1.91,2.64-.79,.39-1.71,.74-2.51,1.58,.23,.1,.4,.19,.5,.3Z"/><path class="cls-1" d="M101.21,84.37c-.14-.14-.15-.75-.02-1.79,.14-1.14,.05-1.98-.27-2.51-.41,.26-.74,.52-.99,.78-.59,.58-1.04,1.36-1.35,2.3-.31,.95-.57,1.53-.76,1.74-.16,.15-.4,.18-.72,.08-.37-.16-.61-.24-.68-.23-.08,.01-.38,.11-.9,.31-.32,.1-.55,.09-.69-.06-.18-.17-.17-.45,.03-.81,.21-.36,.3-.6,.29-.71-.01-.1-.17-.32-.45-.64-.19-.23-.21-.44-.03-.61,.21-.21,.83-.58,1.87-1.1,1.03-.52,1.78-1,2.25-1.47,.55-.55,.66-1,.32-1.34-.41-.41-1.14-.61-2.2-.61s-1.61-.03-1.68-.11c-.12-.12-.11-.26,.05-.43,.27-.27,1.29-.71,3.07-1.32,2.14-.74,3.93-1.54,5.38-2.37,1.73-1.02,3.78-2.67,6.18-4.95,2.39-2.28,3.7-3.3,3.92-3.07,.12,.13-.36,.88-1.47,2.27-.3,.37-1.1,1.3-2.41,2.78-1.04,1.17-1.84,2.18-2.43,3.02-1.59,2.23-2.82,4.46-3.69,6.68-.8,1.98-1.16,2.93-1.07,2.83l-.13,.14c-.09,.09-.23,.27-.43,.54-.2,.26-.36,.46-.48,.58-.2,.19-.37,.22-.51,.08Z"/></g><path class="cls-1" d="M170.73,124.42c11.37-5.39,9.33-23.53-4.42-22.96-4.66,.19-10.93,1.68-12.95,6.58-2.24,5.43-.18,10.1,5.57,11.55,2.47,.67,4.93-.46,5.49-2.52,.56-2.06-.98-4.29-3.45-4.95-1.02-.28-2.04-.24-2.92,.04-.81-4.76,2.35-8.68,8.8-7.49,4.87,.89,7.91,6.66,6.37,11.43-4.3,13.37-21.83,7.35-30.19,1.49-13.17-9.23-20.15-27.88-14.9-43.44,2.59-7.69,8.08-15.88,16.17-18.62,8.45-2.87,20.83-.19,25.92,7.74,5.84,9.1,4.55,25.92-8.26,28.34-5.49,1.04-12.41-.29-15.74-5.3-2.32-3.49-4.07-13.15,2.13-14.36-.18,.32-.32,.67-.38,1.03-.45,2.47,1.86,4.96,5.16,5.56,3.3,.6,6.33-.92,6.78-3.39,.42-2.35-1.65-4.69-4.68-5.43-.12-.05-.27-.09-.47-.12-6.56-1.08-16.15,2.58-16.03,10.52,.21,13.11,15.75,16.52,26.04,12.95,12.57-4.36,19.38-20.16,10.37-31.57-16.92-21.42-51.28-4.97-53.44,19.42-1.21,13.68,3.16,29.14,14.96,37.41,5.32,3.73,11.6,6.8,18.04,7.95,.06,9.14,3.96,21.8,14.43,22.39,4.21,.24,9.46-3.22,8.65-8.02-.79-4.66-4.04-6.57-8.54-6.64-.38,0-.63,.04-.82,.09-1.39,.24-2.48,1.26-2.58,2.62-.12,1.63,1.21,3.05,2.98,3.18,1.77,.12,3.29-1.09,3.41-2.71,.03-.42-.04-.82-.18-1.19,2.93,1.69,2.8,6.96,.65,9.16-4.21,4.33-9.34-.09-11.08-4.2-1.88-4.43-3.31-9.39-3.4-14.25,4.24,.27,8.49-.37,12.54-2.28Z"/><path class="cls-1" d="M117.75,4.11c-11.4-9-27.21-2.19-31.57,10.38-3.57,10.3-.16,25.84,12.96,26.04,7.94,.12,11.6-9.47,10.52-16.03-.03-.2-.08-.35-.12-.47-.74-3.03-3.09-5.11-5.43-4.68-2.47,.45-3.99,3.48-3.39,6.78,.6,3.29,3.09,5.6,5.56,5.16,.37-.07,.71-.21,1.03-.38-1.21,6.2-10.87,4.45-14.36,2.13-5.01-3.33-6.33-10.24-5.3-15.74,2.42-12.81,19.24-14.1,28.34-8.26,7.93,5.09,10.61,17.47,7.74,25.92-2.75,8.09-10.93,13.57-18.62,16.17-15.56,5.24-34.21-1.74-43.44-14.91-5.86-8.36-11.87-25.89,1.49-30.19,4.77-1.54,10.54,1.5,11.43,6.37,1.18,6.45-2.74,9.62-7.49,8.8,.28-.88,.32-1.9,.04-2.92-.67-2.47-2.89-4.01-4.96-3.45-2.06,.56-3.19,3.02-2.52,5.49,1.45,5.75,6.12,7.8,11.55,5.57,4.9-2.02,6.39-8.29,6.58-12.95,.56-13.75-17.58-15.79-22.96-4.42-1.92,4.05-2.56,8.3-2.29,12.54-4.87-.09-9.83-1.52-14.26-3.4-4.11-1.74-8.52-6.87-4.2-11.08,2.21-2.15,7.47-2.28,9.16,.65-.37-.14-.77-.21-1.19-.18-1.62,.12-2.84,1.64-2.71,3.41,.13,1.76,1.55,3.09,3.17,2.98,1.36-.1,2.38-1.2,2.62-2.58,.06-.19,.1-.44,.09-.82-.07-4.49-1.98-7.75-6.64-8.54-4.8-.81-8.26,4.44-8.02,8.64,.59,10.47,13.25,14.37,22.39,14.43,1.15,6.44,4.22,12.72,7.95,18.04,8.27,11.8,23.73,16.17,37.41,14.95,24.39-2.17,40.84-36.53,19.42-53.45Z"/><path class="cls-1" d="M175.74,151.26v26.18c0,1.69-2.18,3.33-4.2,1.52-.76-.68-.97-1.6-.97-2.79,0-2.51,1.15-2.9,1.15-4.34v-14.69c0-1.8-.43-2.81-1.66-4.62-.69-1.02,5.68-2.31,5.68-1.25h0Z"/><path class="cls-1" d="M28.49,2.49H2.31C.62,2.49-1.02,4.67,.79,6.69c.68,.76,1.6,.97,2.8,.97,2.51,0,2.9-1.15,4.34-1.15h14.69c1.8,0,2.81,.43,4.62,1.66,1.02,.69,2.31-5.67,1.25-5.67h0Z"/></g></g></svg>