<?xml version="1.0" encoding="UTF-8"?><svg id="Layer_2" xmlns="http://www.w3.org/2000/svg" viewBox="0 0 158.51 151.96"><defs><style>.cls-1{fill:#4b3205;}</style></defs><g id="Corner_Frames"><path class="cls-1" d="M142.54,40.88c1.54-1.06,2.1-2.91,1.25-4.14-.78-1.14-2.49-1.28-3.96-.46-.14,.05-.27,.11-.36,.17-.21,.15-.4,.31-.57,.47-5.63,4.76-4.05,14.17,4.42,14.38,6.42,.16,13.79-2.57,14.97-9.78,1.79-11.03-7.99-17.83-18.34-16.05-2.95,.51-5.43,1.65-7.59,3.2,1.16-4.2,1.33-8.39,.53-12.48-.92-4.75-2.93-9.61-6.26-13.93-.9-1-3.07-2.47-5.39-1.66-2.97,1.04-1.97,3.38-1.43,3.97,3.41,3.77,5.47,5.56,6.49,8,2.93,7.01,2.4,14.82-1.74,22.04-6.4,11.19-19.61,15.84-30.7,7.79-3.45-2.51-6.55-5.32-9.46-8.33-3.95-6.83-3.47-16.13,.92-22.74,5.37-8.09,18.31-14.26,25.16-4.03,4.18,6.25,5,16.47-2.7,20.67-9.82,5.35-14.78-7.64-8.76-13.16,.53,1.24,2.14,1.89,3.81,1.47,1.81-.45,2.99-1.99,2.63-3.43-.36-1.44-2.12-2.25-3.94-1.79-11.9,1.96-12.91,17.06-.98,19.89,11.01,2.62,20.5-8.55,16.72-19.03-3.95-10.95-16.74-14.9-26.9-9.6-8.62,4.49-13.91,14.39-12.94,23.81-.05-.06-.1-.12-.15-.19,.07-.12,.03-.27-.18-.45-.16-.13-.33-.26-.5-.39-4.39-5.44-8.63-11.16-13.38-16.73-2.98-3.5-6.34-6.87-11.3-7.48-5.38-.66-8.17,3.96-5.38,4.67,3.77,.96,9.18,2.73,12.08,4.96,0,0,.02,.01,.02,.02-2.03-.62-4.12-1.13-6.32-1.69-6.19-1.55-12.54-2.99-18.93-3.35C23.36,4.95,8.13,4.68,.3,12.12c-.54,.51-.47,1.52,1.06,2.06,2.03,.72,4.38,.2,5.19-.57,6.63-6.3,20.92-6.26,29.44-5.22,8.7,1.06,19.91,2.68,27.42,7.5,.31,.2,.79,.32,1.33,.38,1.15,1.27,2.23,2.59,3.29,3.93-5.06-1.87-10.56-2.09-15.68,.73-6.42,3.54-9.96,13.8-2.35,18.51,4.5,2.78,15.11,3.64,17.34-2.71,2.58-7.34-4.1-12.27-10.9-10.24-1.81,.46-2.99,1.99-2.63,3.44,.36,1.44,2.12,2.24,3.94,1.79,1.81-.45,2.99-1.99,2.63-3.43-.03-.12-.08-.23-.13-.34,4.28-.4,4.81,6.9,1.93,9.51-5.64,5.12-12.81-.45-11.97-7,.46-3.66,2.37-6.64,5.84-8.19,5.84-2.62,10.69-1.04,15.19,2.17,1.83,2.49,3.68,5.04,5.76,7.6,6.36,7.81,14.49,15.76,25.09,16.58,1.97,.15,3.93,.15,5.84,0-10.67,4.58-22.28,7.5-33.84,6.87-1.1-.06-4.91,1.98-2.63,2.1,15.3,.83,30.63-3.8,44.26-10.56,1.7-.59,3.33-1.33,4.87-2.24-.43,.81-.85,1.62-1.28,2.41-6.69,12.46-12.35,27.11-10.32,41.57,1.24,8.84,5.58,16,12.56,20.09-.21,.19-.27,.37-.08,.49,6.73,4.03,14.12,8.03,18.52,14.79,5.43,8.34,6.04,17.66,3.29,27.11-.36,1.24,3.9,.72,4.26-.51,2.61-8.99,2.56-18.72-2.71-26.81-3.2-4.91-7.47-8.45-12.15-11.56,9.92,.81,21.11-4.87,24.12-14.72,3.01-9.88-1.24-21.27-12.54-22.84-9.29-1.29-22.9,4.77-19.46,16.61,2.66,9.12,12.53,10.45,19.26,5.12,.39-.23,.75-.53,1.07-.92,.13-.13,.18-.23,.19-.33,.95-1.4,.95-3.11-.11-4-1.15-.95-3.04-.55-4.23,.89-1,1.21-1.13,2.73-.49,3.76-5.3,4.12-11.4-.68-11.54-6.63-.15-6.14,3.65-14,11.45-12.91,9.76,1.36,15.36,10.85,12.52,20.15-3.63,11.89-16.43,17.54-27.58,11.05-7.67-4.46-11.58-12.34-12.14-21.06-.97-15.16,4.43-29.25,11.8-42.16,.32,7.96,5.21,14.54,14.14,17.32,1.11,.35,5.01-1.23,3.53-1.69-11.5-3.59-15.83-13.69-12.07-24.77,3.33-5.08,6.97-9.77,14.29-7.73,4.1,1.14,7.87,3.8,8.86,8.19,.91,3.99,.56,9.21-2.99,11.93-6.65,5.08-11.84-.79-10.83-6.07,.83,.1,1.76-.09,2.59-.67Z"/></g></svg>