<?xml version="1.0" encoding="UTF-8"?><svg id="Layer_2" xmlns="http://www.w3.org/2000/svg" viewBox="0 0 162.22 163.47"><defs><style>.cls-1{fill:#4b3205;}</style></defs><g id="Corner_Frames"><g><g><path class="cls-1" d="M151.68,11.2c-2.35-1.26-4.54-1.86-6.56-1.8-4.9,.19-10.7,3.16-17.4,8.89-.11,.1-.26,.25-.47,.47-.2,.22-.35,.37-.44,.45-.47,.4-.94,.33-1.4-.21-.28-.33-.11-.89,.51-1.71,.92-1.16,1.49-2.08,1.73-2.75l-.6-.65c-1.56-.29-3.47-.29-5.72,.02-1.74,.24-2.74,.2-3-.11-.38-.45-.05-1.13,1.03-2.05,1.16-1,3.19-2.15,6.05-3.45,4.07-1.82,7.73-2.78,10.97-2.87,3.8-.09,7.11,.28,9.93,1.12,2.61,.77,4.49,1.83,5.63,3.17,.65,.76,.83,1.26,.54,1.51-.17,.15-.43,.14-.78-.04Zm-13.65,24.14c-.28-.33-.17-1.02,.31-2.09,.48-1.07,.6-1.74,.38-2.01-.22-.26-.83-.36-1.82-.32-1.2,.06-2.4,.35-3.58,.87-2.04,1.05-3.29,1.75-3.73,2.11-.36,.09-.71-.06-1.04-.46-.3-.34-.21-.76,.27-1.27,.78-.76,1.57-1.53,2.35-2.3,1.04-1.09,1.7-2.16,2-3.19,.31-1.03,.26-1.79-.16-2.28-.21-.25-.52-.35-.91-.3-.12,0-.57,.12-1.34,.36-1.23,.36-2.08,.26-2.56-.3-.26-.31-.19-.63,.21-.97,4.66-3.99,7.87-6.61,9.61-7.85,1.3-.93,2.76-1.7,4.38-2.32,1.61-.61,3.01-.97,4.18-1.06,1.61-.13,4.02-.1,7.22,.11,.47,.03,.85,.21,1.13,.54,.45,.54,.62,1.12,.44,1.73-.25,.56-.48,1.1-.71,1.64-.24,.96-.49,1.92-.73,2.87-.46,1.65-1.09,3.19-1.88,4.62-.8,1.43-1.68,2.56-2.66,3.4-.07,.06-.82,.62-2.26,1.67-1.43,1.06-2.78,2.12-4.04,3.21-.49,.42-1.06,1.02-1.71,1.82-.65,.79-1.1,1.29-1.36,1.51-.84,.73-1.51,.82-1.97,.28Zm13.93-21.03c-.22-.25-1,0-2.36,.75-1.72,.95-3.75,2.41-6.06,4.39-2.08,1.78-3.73,3.36-4.95,4.75-1.02,1.17-1.47,1.84-1.31,2.02,.09,.11,.28,.07,.56-.11,.37-.26,.75-.52,1.12-.77,4.01-2.56,7.16-4.81,9.45-6.78,2.76-2.37,3.94-3.78,3.54-4.25Zm-3.47,32.91c-.77-.9-.88-2.89-.32-5.97,.5-2.64,.61-4.12,.37-4.4-.14-.16-.41-.17-.81-.06-.61,.21-1.21,.41-1.83,.62-.92,.3-1.47,.35-1.65,.15-.27-.32-.25-.63,.07-.9,.13-.11,.63-.45,1.51-1.04,.88-.58,1.65-1.16,2.34-1.75,3.04-2.59,5.31-6.22,6.83-10.88,.49-1.48,.87-3.04,1.15-4.69,.19-1.16,.35-1.8,.47-1.91,.31-.26,.59-.25,.83,.04,.22,.25,.42,1.57,.63,3.97,.29,3.11,.2,6.22-.27,9.34-.55,3.85-1.74,7.39-3.58,10.62-.92,1.6-1.96,3.18-3.12,4.74-.85,1.13-1.37,1.78-1.57,1.95-.47,.41-.83,.46-1.08,.17Z"/><path class="cls-1" d="M153.39,67.37c-.3-.3-.55-.91-.78-1.85-.22-.93-.45-1.52-.69-1.75-.3-.3-.73-.45-1.32-.47-.58-.02-.99,.1-1.23,.34-.29,.29-.87,1.56-1.71,3.81-.84,2.24-1.41,3.5-1.67,3.77-.41,.42-.99,.67-1.74,.8-.74,.12-1.28,.01-1.6-.31-.17-.17-.23-.39-.15-.64,.07-.25,.04-.46-.12-.61-.21-.21-.73-.37-1.56-.49-.95-.18-1.69-.42-2.23-.71-.51-.98-.81-1.83-.91-2.56-.1-.73,0-1.26,.32-1.59,.27-.26,.88-.16,1.83,.32,1.15,.5,2.15,.63,2.98,.4-.18-.3-.32-.51-.44-.62-1.24-1.54-1.44-2.75-.58-3.61,.24-.23,.6-.53,1.09-.86,.49-.35,.82-.61,1-.79,.77-.77,1.01-1.86,.71-3.29-.35-1.6-1.35-3.23-2.98-4.86-3.84-3.83-8.47-6.33-13.91-7.49-3.42-.74-5.33-.91-5.75-.49-.21,.2-.38,.9-.49,2.08-.24,2.38-.4,3.85-.49,4.42-.42,2.91-1.19,5.67-2.33,8.28-1.01,2.26-2.07,3.93-3.16,5.03-2.79,2.79-6.16,4.25-10.09,4.39-3.93,.14-7.13-1.03-9.6-3.49-1.01-1.01-1.76-2.49-2.23-4.42-.48-1.93-.51-3.85-.09-5.75,.59-2.67,2.54-5.66,5.84-8.96,1.93-1.93,4.98-3.48,9.17-4.63,1.96-.53,4.1-.98,6.41-1.34,1.73-.24,2.65-.41,2.77-.53,.32-.33,.52-1.18,.58-2.54,.08-1.58-.04-3.32-.4-5.22-.84-4.34-2.41-7.66-4.73-9.98-3.42-3.42-6.22-5.09-8.42-5.04-.69,.03-1.98,.32-3.88,.85-1.27,.39-2.15,.34-2.63-.13-.27-.27-.53-.87-.78-1.81-.26-.93-.55-1.57-.87-1.89-.15-.15-.27-.21-.36-.18-.03,.03-.05,.07-.05,.14-.38,1.21-.51,2.43-.36,3.65,.12,1.01,.36,1.69,.72,2.04,.21,.22,.88,.37,2.02,.47,1.15,.1,1.89,.32,2.21,.65,.74,.74,.75,1.47,.05,2.18-.69,.69-2.41,1.13-5.18,1.33-1.45,.1-2.42-.1-2.89-.57-1.97-1.97-2.97-3.8-3.03-5.52-.03-1.22,.23-2.54,.8-3.97,.56-1.43,1.22-2.5,1.96-3.24,.89-.89,2.74-1.72,5.57-2.45-.42-1.73-.59-3-.53-3.83,.05-1.01,.44-1.87,1.15-2.59,1.24-1.25,2.18-1.56,2.8-.93,.33,.33,.46,.99,.39,1.98-.07,1-.14,2.03-.2,3.11-.03,1.27,.71,2.66,2.22,4.18,.32,.33,1.8,1.29,4.45,2.92,2.62,1.62,4.79,3.28,6.48,4.97,3.62,3.62,5.79,8.34,6.5,14.17,.15,1.46,.33,3.3,.54,5.53,.09,1.33,.19,2.07,.31,2.18,.23,.24,1.23,.49,2.99,.76,2.67,.42,4.8,.82,6.37,1.2,3.45,.83,6.85,2.12,10.21,3.88,2.88,1.51,5.02,2.97,6.41,4.36,1.6,1.6,3.18,3.79,4.72,6.55,1.55,2.76,2.41,4.23,2.59,4.41,.36,.36,1.37,.5,3.06,.42,1.67-.07,2.81,.19,3.41,.78,.83,.83,.02,2.47-2.42,4.9-2.28,2.28-4.31,2.54-6.1,.76Zm-35.33-23.57c-.12-.3-.29-.55-.49-.76-.2-.21-.44-.36-.71-.45-4.77,1.93-8.79,4.51-12.03,7.75-4.25,4.25-4.79,7.95-1.64,11.1,.98,.98,2.16,1.5,3.54,1.53,1.38,.04,2.59-.46,3.63-1.49,5.77-5.77,8.33-11.66,7.71-17.69Z"/><path class="cls-1" d="M16.86,16.64c4.05,.96,16.8,3.57,20.57,6.18,3.77,2.61,7.71,4.34,10.76,11.22,3.86,8.7,7.24,12.53,13.35,16.54,8.69,5.7,20.02,5.66,24.37,5.51,2.97-.1,3.15-1.47,.29-2.03-5.32-1.04-11.67-3-15.08-5.51-3.18-2.33-4.64-6.67-4.64-11.89s-.81-8.06,2.67-11.27c2.98-2.76,6.26-2.71,8.59-1.55,2.32,1.16,2.92-.82,1.79-3.71-1.29-3.3-4.44-6.89-8.99-6.96-4.15-.06-6.05,1.93-9.16,6.47-2.19,3.2-2.37,8.95-2.55,12.42-.17,3.2-1.89,3.68-2.47-.09-.58-3.77-1.38-10.78-6.12-15.32-8.47-8.09-25.28-6.57-32.43-4.23-4.75,1.55-3.75,3.56-.93,4.23Z"/><path class="cls-1" d="M145.81,145.58c-.96-4.04-3.58-16.8-6.18-20.57-2.61-3.77-4.34-7.71-11.22-10.76-8.69-3.86-12.53-7.24-16.53-13.34-5.7-8.69-5.66-20.02-5.51-24.37,.1-2.97,1.48-3.15,2.03-.29,1.04,5.32,3.01,11.67,5.51,15.08,2.33,3.18,6.67,4.64,11.89,4.64s8.07,.81,11.28-2.67c2.75-2.99,2.71-6.27,1.55-8.59-1.16-2.32,.83-2.92,3.71-1.79,3.3,1.29,6.89,4.45,6.96,8.99,.06,4.15-1.92,6.05-6.46,9.16-3.2,2.19-8.95,2.37-12.43,2.55-3.2,.17-3.68,1.89,.09,2.47,3.77,.58,10.78,1.37,15.32,6.12,8.08,8.47,6.57,25.27,4.23,32.43-1.55,4.75-3.56,3.74-4.23,.93Z"/><path class="cls-1" d="M91.98,70.38c3.4,3.39,8.04,4.72,12.51,4.12-5.76,4.55-13.09,5.14-17.19,1.04-3.92-3.92-3.58-10.8,.43-16.44-.21,4.08,1.17,8.19,4.25,11.28Z"/></g><path class="cls-1" d="M1.7,8.16h63.23c6.42,0,13.72-.87,16.99,6.36,.81,1.79,4.64,.69,3.86-1.04-3.05-6.73-9.42-8.31-16.11-8.31H2c-2.27,0-2.92,2.99-.3,2.99h0Z"/><path class="cls-1" d="M159.29,161.85V94.64c0-6.67-1.41-12.96-8.2-16.03-1.71-.78-4.47,1.69-2.2,2.72,6.93,3.14,6.47,10.05,6.47,16.28v64.48c0,2.12,3.93,1.6,3.93-.25h0Z"/></g></g></svg>