<svg width="223" height="184" viewBox="0 0 223 184" fill="none" xmlns="http://www.w3.org/2000/svg">
<path d="M186.362 45.605C185.65 45.063 185.173 44.468 184.728 43.712C184.306 42.967 184.029 42.115 183.921 41.246C183.699 39.546 184.331 37.614 185.698 36.159C186.979 34.749 189.172 33.802 191.127 34.307C191.378 34.369 191.598 34.456 191.811 34.546L192.16 34.743C192.263 34.808 192.367 34.874 192.461 34.957C192.851 35.27 193.184 35.693 193.408 36.177C193.871 37.131 193.922 38.366 193.263 39.329C195.075 37.609 194.32 34.066 191.816 32.797C190.622 32.126 189.225 31.899 187.862 32.003C187.52 32.029 187.177 32.078 186.836 32.149L186.581 32.207C186.52 32.225 186.537 32.21 186.412 32.254L186.306 32.283L185.873 32.405C185.136 32.659 184.545 32.946 183.927 33.32C181.528 34.785 179.603 37.446 179.302 40.721C179.164 42.324 179.414 43.976 180.051 45.525C180.37 46.299 180.788 47.05 181.312 47.747C181.814 48.43 182.507 49.123 183.14 49.614C185.631 51.506 188.161 52.006 190.126 52.8C192.059 53.552 193.935 54.677 195.381 56.242C196.108 56.997 196.722 57.958 197.152 58.847C197.252 59.118 197.399 59.457 197.456 59.667C197.539 59.895 197.61 60.149 197.669 60.422C197.792 60.955 197.863 61.508 197.874 62.067C197.959 64.297 197.109 66.678 195.269 68.211C197.326 67.171 198.985 64.909 199.52 62.258C199.666 61.597 199.743 60.911 199.748 60.213C199.757 59.87 199.74 59.507 199.699 59.127C199.657 58.712 199.633 58.532 199.551 58.096C199.265 56.704 198.715 55.347 197.961 54.129C196.454 51.682 194.225 49.763 191.826 48.493C190.653 47.868 189.558 47.399 188.622 46.94C187.697 46.495 186.891 46.015 186.362 45.605Z" fill="#343844"/>
<path d="M216.446 80.945C216.511 78.561 215.755 76.276 214.541 74.376C213.921 73.405 213.221 72.599 212.329 71.782C211.831 71.33 211.647 71.225 211.055 70.79C210.611 70.48 210.146 70.21 209.679 69.959C205.873 67.978 201.841 67.838 198.332 68.09C201.913 68.843 205.191 70.334 207.576 72.558C207.878 72.829 208.155 73.124 208.426 73.416L208.623 73.642L208.721 73.754L208.77 73.81L208.795 73.838L208.801 73.845C208.813 73.856 208.708 73.758 208.754 73.802L208.757 73.806L208.771 73.823L209.21 74.366C209.603 74.938 210.013 75.626 210.332 76.33C210.975 77.739 211.354 79.291 211.307 80.79C211.249 82.065 210.957 83.303 210.235 84.376C209.877 84.906 209.436 85.387 208.922 85.735C208.685 85.908 208.35 86.065 208.144 86.163L207.831 86.252L207.676 86.305C207.524 86.334 207.367 86.364 207.203 86.375C205.9 86.495 204.338 85.84 203.798 84.473C203.263 83.106 203.849 80.962 205.625 80.299C203.798 80.415 202.084 82.372 202.16 84.731L202.218 85.224L202.287 85.599C202.389 85.955 202.473 86.198 202.614 86.488C202.879 87.042 203.25 87.551 203.692 87.988C204.578 88.865 205.732 89.457 206.997 89.702C208.334 89.953 209.64 89.787 210.849 89.304C212.044 88.826 213.082 88.078 213.911 87.192C215.617 85.381 216.373 83.051 216.446 80.945Z" fill="#343844"/>
<path d="M220.71 72.121C221.798 72.487 222.597 72.007 221.648 70.873C219.985 68.934 216.828 67.292 213.294 66.523C209.758 65.708 205.954 65.781 202.803 66.115C205.895 66.065 209.699 67.008 212.892 68.414C216.12 69.781 218.762 71.496 220.71 72.121Z" fill="#353945"/>
<path d="M195.596 43.841C194.425 43.497 193.712 44.068 194.718 45.132C196.29 46.891 198.582 48.991 200.226 51.981C201.898 54.912 202.711 58.756 202.115 61.993C202.525 60.471 202.843 58.685 202.854 56.78C202.873 54.887 202.561 52.855 201.898 51.018C201.238 49.168 200.223 47.509 199.079 46.266C197.937 45.014 196.686 44.189 195.596 43.841Z" fill="#353945"/>
<path d="M207.427 63.636C209.005 63.636 210.284 62.3569 210.284 60.779C210.284 59.2011 209.005 57.922 207.427 57.922C205.849 57.922 204.57 59.2011 204.57 60.779C204.57 62.3569 205.849 63.636 207.427 63.636Z" fill="#343844"/>
<path d="M206.107 85.929C207.685 85.929 208.964 84.6499 208.964 83.072C208.964 81.4942 207.685 80.215 206.107 80.215C204.529 80.215 203.25 81.4942 203.25 83.072C203.25 84.6499 204.529 85.929 206.107 85.929Z" fill="#343844"/>
<path d="M190.526 40.73C188.588 40.73 187.017 39.159 187.017 37.221C187.017 35.283 188.588 33.712 190.526 33.712C192.464 33.712 194.035 35.283 194.035 37.221C194.035 39.159 192.464 40.73 190.526 40.73Z" fill="#343844"/>
<path d="M202.19 65.635C201.373 65.635 200.712 64.973 200.712 64.156C200.712 63.34 201.374 62.678 202.19 62.678C203.007 62.678 203.668 63.34 203.668 64.156C203.668 64.973 203.006 65.635 202.19 65.635Z" fill="#343844"/>
<path d="M175.359 33.129C172.61 33.129 170.382 30.9 170.382 28.151C170.382 25.402 172.611 23.173 175.359 23.173C178.108 23.173 180.336 25.402 180.336 28.151C180.336 30.9 178.108 33.129 175.359 33.129Z" fill="#343844"/>
<path d="M181.789 21.535C180.894 20.651 179.66 20.121 178.447 19.953C177.228 19.777 176.036 19.948 175.046 20.261C176.11 20.456 177.015 20.937 177.803 21.492C178.595 22.054 179.277 22.682 179.987 23.369C180.59 23.964 181.259 24.595 181.863 25.408C182.463 26.211 182.974 27.192 183.185 28.252C183.483 27.257 183.624 25.997 183.394 24.752C183.183 23.518 182.576 22.301 181.789 21.535Z" fill="#343844"/>
<path d="M184.502 19.202C183.825 18.533 182.865 18.175 181.946 18.115C181.02 18.048 180.14 18.264 179.441 18.559C180.204 18.771 180.818 19.207 181.324 19.661C181.834 20.122 182.24 20.591 182.7 21.036C183.092 21.423 183.584 21.79 184.072 22.313C184.556 22.826 185.013 23.49 185.236 24.25C185.521 23.546 185.715 22.615 185.607 21.668C185.518 20.732 185.097 19.779 184.502 19.202Z" fill="#343844"/>
<path d="M186.893 16.87C186.435 16.417 185.749 16.229 185.123 16.277C184.491 16.318 183.922 16.579 183.514 16.858C183.976 17.086 184.299 17.478 184.522 17.831C184.751 18.19 184.88 18.501 185.092 18.704C185.272 18.884 185.588 18.987 185.961 19.218C186.328 19.44 186.732 19.789 186.967 20.248C187.239 19.835 187.486 19.233 187.5 18.584C187.529 17.947 187.293 17.257 186.893 16.87Z" fill="#343844"/>
<path d="M197.488 31.549C198.541 32.121 199.53 31.921 198.591 30.443C197.721 29.196 196.244 28.106 194.395 27.471C192.553 26.849 190.344 26.733 188.261 27.325C186.181 27.906 184.316 29.174 182.971 30.721C181.609 32.27 180.735 34.09 180.322 35.834C180.857 34.181 182.01 32.524 183.558 31.314C185.112 30.086 186.993 29.345 188.843 29.171C190.681 28.994 192.43 29.358 193.878 29.878C195.335 30.392 196.519 31.078 197.488 31.549Z" fill="#353945"/>
<path d="M153.896 20.367C154.809 21.567 156.165 22.62 157.576 23.265C159.007 23.926 160.582 24.248 162.161 24.211C162.546 24.195 162.952 24.166 163.405 24.097C163.651 24.066 163.732 24.032 163.903 23.999L164.218 23.93L164.504 23.851C165.265 23.635 165.986 23.329 166.654 22.95C167.984 22.182 169.099 21.135 169.931 19.919C170.348 19.299 170.676 18.674 170.953 17.957C171.019 17.779 171.102 17.573 171.132 17.441L171.272 16.94C171.358 16.585 171.425 16.23 171.462 15.872C171.617 14.452 171.412 12.986 170.733 11.742C169.433 9.10898 165.805 8.47398 164.181 10.248C165.178 9.56298 166.427 9.64798 167.367 10.113C167.845 10.339 168.255 10.675 168.559 11.055C168.64 11.147 168.703 11.249 168.766 11.349L168.814 11.423C168.797 11.41 168.84 11.474 168.85 11.496L168.955 11.687C169.049 11.9 169.125 12.106 169.189 12.35C169.434 13.284 169.337 14.288 169.03 15.196C168.953 15.423 168.862 15.645 168.759 15.857L168.679 16.015C168.672 16.022 168.638 16.109 168.654 16.051L168.601 16.147C168.531 16.271 168.459 16.415 168.392 16.522C168.169 16.848 167.847 17.263 167.522 17.588C166.193 18.944 164.329 19.692 162.609 19.588C160.84 19.475 159.049 18.652 157.904 17.149C157.451 16.568 156.954 15.685 156.493 14.706C156.018 13.717 155.537 12.581 154.882 11.392C153.549 8.99298 151.635 6.85398 149.219 5.42898C148.003 4.70298 146.738 4.21798 145.295 3.91998C144.972 3.87998 144.729 3.82898 144.333 3.79998C143.962 3.75998 143.612 3.74998 143.277 3.75798C142.596 3.76598 141.925 3.84198 141.276 3.98498C138.681 4.50898 136.391 6.11798 135.299 8.23898C136.78 6.46098 139.145 5.55898 141.423 5.63598C143.723 5.66598 145.807 6.69298 147.391 8.21698C148.982 9.73298 150.104 11.658 150.818 13.613C151.58 15.618 152.14 18.09 153.896 20.367Z" fill="#343844"/>
<path d="M158.446 8.73701C159.332 9.43801 160.291 9.34101 159.746 7.87201C159.249 6.63001 158.308 5.35501 157.017 4.22601C155.725 3.10401 154.084 2.15701 152.288 1.54501C148.67 0.279007 144.638 0.532007 141.517 1.39901C143.073 1.12901 144.874 1.14901 146.651 1.50001C148.439 1.84801 150.162 2.51801 151.69 3.38201C154.767 5.10501 156.819 7.49801 158.446 8.73701Z" fill="#353945"/>
<path d="M162.779 12.984C162.779 14.922 164.35 16.493 166.288 16.493C168.226 16.493 169.797 14.922 169.797 12.984C169.797 11.046 168.226 9.47498 166.288 9.47498C164.35 9.47398 162.779 11.046 162.779 12.984Z" fill="#343844"/>
<path d="M114.376 10.688C114.376 12.626 115.947 14.197 117.885 14.197C119.823 14.197 121.394 12.626 121.394 10.688C121.394 8.75002 119.823 7.17902 117.885 7.17902C115.947 7.17902 114.376 8.75002 114.376 10.688Z" fill="#343844"/>
<path d="M135.299 20.355C135.299 22.293 136.87 23.864 138.808 23.864C140.746 23.864 142.317 22.293 142.317 20.355C142.317 18.417 140.746 16.846 138.808 16.846C136.87 16.846 135.299 18.417 135.299 20.355Z" fill="#343844"/>
<path d="M173.011 4.98702C171.82 4.32302 171.028 4.77302 171.893 6.07702C172.526 7.14002 173.217 8.41803 173.728 9.89303C174.225 11.372 174.528 13.09 174.326 14.867C174.128 16.645 173.391 18.467 172.196 19.972C171.015 21.478 169.39 22.639 167.678 23.192C169.363 22.796 171.219 21.942 172.811 20.537C174.397 19.162 175.709 17.171 176.251 15.015C176.812 12.843 176.603 10.582 175.918 8.78903C175.24 6.97803 174.112 5.65802 173.011 4.98702Z" fill="#353945"/>
<path d="M134.37 15.121L134.817 14.873L135.195 14.673C135.45 14.534 135.715 14.417 135.976 14.289C136.505 14.055 137.042 13.845 137.584 13.67C138.667 13.331 139.759 13.146 140.767 13.194C141.259 13.21 141.775 13.322 142.174 13.439C142.268 13.474 142.329 13.471 142.461 13.526L142.932 13.762L142.991 13.791L143.006 13.798L143.013 13.802C143.096 13.854 142.908 13.735 142.929 13.749L142.946 13.76L143.016 13.804L143.16 13.889C143.262 13.939 143.354 14.005 143.443 14.079C144.195 14.61 144.804 15.523 145.126 16.556C145.456 17.592 145.482 18.753 145.161 19.81C145.06 20.058 145.057 20.227 144.844 20.566L144.716 20.793L144.684 20.85L144.668 20.878L144.664 20.885C144.627 20.935 144.71 20.825 144.7 20.838L144.692 20.848L144.632 20.933L144.392 21.281C144.033 21.72 143.592 22.113 143.088 22.442C141.057 23.731 138.036 23.812 135.95 22.178C137.759 24.245 140.958 24.936 143.747 23.961C144.442 23.701 145.134 23.361 145.746 22.87C146.054 22.614 146.333 22.385 146.625 22.036L146.955 21.657L147.319 21.113C148.184 19.71 148.556 18.087 148.476 16.434C148.393 14.79 147.85 13.093 146.717 11.64C146.43 11.284 146.118 10.931 145.756 10.625L145.483 10.395L145.344 10.281L145.274 10.224L145.127 10.128L144.697 9.82998C144.346 9.61598 143.775 9.30298 143.385 9.16198C142.956 8.97298 142.513 8.84798 142.065 8.72298C138.441 7.87498 134.83 8.94198 131.88 10.619C129.292 12.101 127.27 13.837 125.155 15.168C124.12 15.829 123.011 16.402 121.981 16.727C120.874 17.072 119.7 17.245 118.571 17.161C117.452 17.063 116.377 16.723 115.539 16.005C114.674 15.306 114.101 14.249 113.903 13.046C113.709 11.852 113.967 10.575 114.68 9.49598C115.384 8.41898 116.496 7.56098 117.796 7.17798C116.496 7.30398 115.151 7.89898 114.107 8.93198C113.053 9.94498 112.322 11.458 112.246 13.075C112.202 13.88 112.29 14.711 112.542 15.516C112.666 15.926 112.819 16.304 113.039 16.711C113.162 16.937 113.26 17.096 113.349 17.241C113.501 17.464 113.617 17.601 113.757 17.785C114.309 18.464 114.996 19.052 115.755 19.502C116.518 19.943 117.338 20.258 118.171 20.469C119.841 20.878 121.545 20.884 123.174 20.601C123.572 20.54 124.011 20.43 124.444 20.317L124.96 20.166L125.086 20.129L125.149 20.11L125.278 20.062L125.557 19.961C126.302 19.695 127.009 19.383 127.678 19.051C130.351 17.719 132.523 16.156 134.37 15.121Z" fill="#343844"/>
<path d="M183.143 134.894C181.943 135.808 180.89 137.163 180.245 138.574C179.584 140.006 179.262 141.58 179.3 143.159C179.316 143.544 179.345 143.949 179.414 144.403C179.444 144.649 179.479 144.73 179.512 144.901L179.581 145.216L179.66 145.502C179.876 146.263 180.182 146.984 180.561 147.652C181.329 148.981 182.376 150.097 183.592 150.929C184.212 151.346 184.838 151.674 185.554 151.951C185.732 152.017 185.938 152.1 186.07 152.13L186.571 152.27C186.926 152.356 187.281 152.423 187.639 152.46C189.059 152.615 190.525 152.41 191.769 151.731C194.402 150.431 195.037 146.803 193.263 145.179C193.948 146.176 193.863 147.425 193.398 148.365C193.172 148.843 192.836 149.253 192.456 149.557C192.364 149.638 192.261 149.701 192.162 149.764L192.088 149.812C192.101 149.795 192.037 149.838 192.015 149.848L191.824 149.953C191.611 150.047 191.405 150.123 191.161 150.187C190.227 150.432 189.223 150.335 188.315 150.028C188.088 149.951 187.867 149.86 187.654 149.757L187.496 149.677C187.489 149.67 187.402 149.636 187.46 149.652L187.364 149.599C187.24 149.529 187.096 149.457 186.989 149.39C186.663 149.167 186.248 148.845 185.923 148.52C184.567 147.191 183.819 145.327 183.924 143.607C184.037 141.838 184.86 140.047 186.363 138.902C186.944 138.449 187.827 137.952 188.806 137.491C189.795 137.016 190.931 136.535 192.12 135.88C194.519 134.547 196.658 132.633 198.083 130.217C198.809 129.001 199.294 127.736 199.592 126.292C199.632 125.969 199.684 125.726 199.712 125.33C199.752 124.959 199.762 124.609 199.754 124.273C199.746 123.592 199.67 122.921 199.527 122.272C199.003 119.677 197.394 117.387 195.273 116.295C197.051 117.776 197.953 120.141 197.876 122.419C197.846 124.719 196.819 126.803 195.295 128.387C193.779 129.978 191.854 131.1 189.899 131.814C187.892 132.579 185.42 133.138 183.143 134.894Z" fill="#343844"/>
<path d="M211.307 103.716C211.344 105.04 211.066 106.498 210.485 107.915C210.212 108.61 209.784 109.345 209.403 109.927C209.266 110.176 208.772 110.736 208.64 110.909C208.374 111.225 208.08 111.521 207.777 111.815C205.328 114.165 201.792 115.688 198.332 116.417C200.16 116.541 201.999 116.563 203.855 116.328C205.709 116.098 207.602 115.629 209.426 114.718C209.885 114.497 210.33 114.235 210.773 113.956L211.1 113.736L211.264 113.625L211.346 113.569L211.387 113.541L211.397 113.534L211.456 113.48L211.473 113.467L212.029 113.044C212.923 112.281 213.662 111.464 214.315 110.519C215.604 108.64 216.516 106.263 216.444 103.562C216.377 101.277 215.468 98.825 213.719 97.093C212.855 96.228 211.803 95.51 210.599 95.086C209.981 94.871 209.412 94.742 208.69 94.678L208.303 94.671L207.752 94.68C207.432 94.71 207.118 94.752 206.812 94.822C205.592 95.102 204.484 95.693 203.633 96.56C203.21 96.992 202.854 97.492 202.599 98.035C202.462 98.318 202.384 98.555 202.282 98.906L202.216 99.27L202.159 99.754C202.12 100.923 202.517 101.978 203.144 102.79C203.777 103.599 204.698 104.142 205.62 104.208C203.904 103.573 203.256 101.457 203.791 100.045C204.327 98.652 205.955 97.96 207.29 98.123C208.567 98.251 209.653 99.165 210.328 100.246C210.493 100.512 210.651 100.816 210.756 101.07L210.951 101.564C210.945 101.608 211.019 101.833 211.054 101.953C211.209 102.542 211.281 103.131 211.307 103.716Z" fill="#343844"/>
<path d="M221.589 113.569C222.253 112.633 222.023 111.729 220.663 112.311C218.477 113.204 215.852 114.865 212.718 116.176C209.619 117.516 206 118.444 202.801 118.397C205.843 118.735 209.841 118.834 213.49 117.942C217.14 117.106 220.302 115.352 221.589 113.569Z" fill="#353945"/>
<path d="M194.773 139.445C194.072 140.331 194.169 141.29 195.638 140.745C196.88 140.248 198.155 139.307 199.284 138.017C200.406 136.725 201.353 135.084 201.965 133.288C203.231 129.67 202.978 125.638 202.111 122.517C202.381 124.073 202.361 125.874 202.01 127.651C201.662 129.439 200.992 131.162 200.128 132.69C198.405 135.766 196.012 137.817 194.773 139.445Z" fill="#353945"/>
<path d="M207.427 126.586C209.005 126.586 210.284 125.307 210.284 123.729C210.284 122.151 209.005 120.872 207.427 120.872C205.849 120.872 204.57 122.151 204.57 123.729C204.57 125.307 205.849 126.586 207.427 126.586Z" fill="#343844"/>
<path d="M206.107 104.293C207.685 104.293 208.964 103.014 208.964 101.436C208.964 99.8581 207.685 98.579 206.107 98.579C204.529 98.579 203.25 99.8581 203.25 101.436C203.25 103.014 204.529 104.293 206.107 104.293Z" fill="#343844"/>
<path d="M190.526 143.778C188.588 143.778 187.017 145.349 187.017 147.287C187.017 149.225 188.588 150.796 190.526 150.796C192.464 150.796 194.035 149.225 194.035 147.287C194.035 145.349 192.464 143.778 190.526 143.778Z" fill="#343844"/>
<path d="M202.19 118.874C201.373 118.874 200.712 119.536 200.712 120.353C200.712 121.17 201.374 121.831 202.19 121.831C203.007 121.831 203.668 121.169 203.668 120.353C203.668 119.537 203.006 118.874 202.19 118.874Z" fill="#343844"/>
<path d="M175.359 151.38C172.61 151.38 170.382 153.608 170.382 156.357C170.382 159.106 172.611 161.334 175.359 161.334C178.108 161.334 180.336 159.105 180.336 156.357C180.336 153.608 178.108 151.38 175.359 151.38Z" fill="#343844"/>
<path d="M179.987 161.139C179.365 161.75 178.696 162.412 177.87 162.993C177.052 163.572 176.076 164.053 175.046 164.247C176.072 164.559 177.191 164.728 178.365 164.584C179.53 164.44 180.768 163.966 181.788 162.974C182.655 162.127 183.212 160.923 183.41 159.716C183.617 158.502 183.481 157.287 183.184 156.256C182.975 157.282 182.467 158.309 181.848 159.133C181.228 159.973 180.545 160.589 179.987 161.139Z" fill="#343844"/>
<path d="M182.701 163.471C182.297 163.867 181.902 164.357 181.37 164.831C180.845 165.301 180.182 165.738 179.442 165.949C180.167 166.244 180.995 166.458 181.886 166.414C182.769 166.372 183.731 166.057 184.502 165.306C185.157 164.666 185.538 163.726 185.62 162.81C185.711 161.886 185.521 160.988 185.237 160.257C185.015 160.992 184.56 161.69 184.064 162.216C183.563 162.759 183.065 163.11 182.701 163.471Z" fill="#343844"/>
<path d="M185.092 165.804C184.907 165.985 184.785 166.303 184.546 166.669C184.314 167.031 183.963 167.423 183.514 167.651C183.939 167.929 184.475 168.188 185.084 168.245C185.685 168.304 186.371 168.148 186.893 167.639C187.337 167.207 187.541 166.531 187.508 165.906C187.483 165.273 187.239 164.69 186.967 164.261C186.732 164.705 186.33 165.074 185.956 165.302C185.574 165.544 185.262 165.632 185.092 165.804Z" fill="#343844"/>
<path d="M198.522 154.009C199.186 152.818 198.736 152.026 197.432 152.891C196.369 153.524 195.091 154.215 193.616 154.726C192.137 155.223 190.419 155.526 188.642 155.324C186.864 155.126 185.042 154.389 183.537 153.194C182.031 152.013 180.87 150.388 180.317 148.675C180.713 150.36 181.567 152.216 182.972 153.808C184.346 155.394 186.338 156.706 188.494 157.248C190.666 157.809 192.928 157.6 194.72 156.915C196.532 156.238 197.852 155.111 198.522 154.009Z" fill="#353945"/>
<path d="M157.905 167.36C158.447 166.648 159.042 166.171 159.799 165.726C160.544 165.304 161.396 165.027 162.265 164.919C163.965 164.697 165.897 165.329 167.352 166.696C168.762 167.977 169.709 170.17 169.204 172.125C169.143 172.376 169.055 172.596 168.965 172.809L168.768 173.157C168.703 173.26 168.637 173.364 168.554 173.458C168.241 173.848 167.818 174.181 167.334 174.405C166.38 174.868 165.145 174.919 164.182 174.26C165.902 176.072 169.445 175.317 170.714 172.813C171.385 171.618 171.612 170.222 171.508 168.859C171.481 168.517 171.432 168.174 171.362 167.833L171.304 167.578C171.287 167.517 171.301 167.534 171.257 167.409L171.228 167.303L171.106 166.87C170.852 166.133 170.565 165.542 170.191 164.924C168.726 162.525 166.066 160.6 162.79 160.3C161.187 160.162 159.535 160.412 157.986 161.049C157.211 161.368 156.461 161.786 155.764 162.31C155.082 162.812 154.388 163.505 153.897 164.138C152.005 166.629 151.505 169.159 150.711 171.124C149.959 173.057 148.834 174.933 147.269 176.379C146.514 177.106 145.553 177.72 144.664 178.15C144.393 178.25 144.054 178.397 143.844 178.454C143.616 178.537 143.362 178.608 143.089 178.667C142.556 178.79 142.003 178.861 141.444 178.872C139.214 178.957 136.833 178.107 135.3 176.267C136.34 178.324 138.602 179.983 141.253 180.519C141.914 180.665 142.6 180.742 143.299 180.747C143.642 180.756 144.005 180.739 144.385 180.698C144.801 180.656 144.98 180.632 145.416 180.55C146.808 180.264 148.165 179.715 149.383 178.96C151.83 177.453 153.749 175.224 155.019 172.825C155.644 171.652 156.113 170.557 156.572 169.621C157.015 168.696 157.495 167.889 157.905 167.36Z" fill="#343844"/>
<path d="M159.668 176.594C160.012 175.423 159.441 174.71 158.377 175.716C156.618 177.288 154.518 179.58 151.528 181.224C148.597 182.896 144.753 183.709 141.516 183.113C143.038 183.523 144.823 183.841 146.729 183.852C148.622 183.871 150.654 183.559 152.491 182.896C154.341 182.235 156 181.221 157.243 180.077C158.496 178.935 159.321 177.685 159.668 176.594Z" fill="#353945"/>
<path d="M162.779 171.525C162.779 169.587 164.35 168.016 166.288 168.016C168.226 168.016 169.797 169.587 169.797 171.525C169.797 173.463 168.226 175.034 166.288 175.034C164.35 175.034 162.779 173.463 162.779 171.525Z" fill="#343844"/>
<path d="M114.376 173.82C114.376 171.882 115.947 170.311 117.885 170.311C119.823 170.311 121.394 171.882 121.394 173.82C121.394 175.758 119.823 177.329 117.885 177.329C115.947 177.329 114.376 175.758 114.376 173.82Z" fill="#343844"/>
<path d="M135.299 164.153C135.299 162.215 136.87 160.644 138.808 160.644C140.746 160.644 142.317 162.215 142.317 164.153C142.317 166.091 140.746 167.662 138.808 167.662C136.87 167.662 135.299 166.091 135.299 164.153Z" fill="#343844"/>
<path d="M171.961 178.487C171.389 179.541 171.589 180.529 173.067 179.59C174.314 178.72 175.404 177.243 176.039 175.394C176.661 173.552 176.777 171.343 176.185 169.26C175.604 167.18 174.336 165.315 172.789 163.97C171.24 162.608 169.42 161.733 167.676 161.321C169.329 161.856 170.986 163.009 172.196 164.557C173.424 166.111 174.166 167.992 174.339 169.842C174.516 171.68 174.152 173.429 173.632 174.878C173.118 176.333 172.432 177.518 171.961 178.487Z" fill="#353945"/>
<path d="M131.885 173.888C134.484 175.366 137.806 176.488 141.362 175.9C142.259 175.742 143.103 175.47 143.989 175.032C144.21 174.915 144.474 174.778 144.65 174.666L145.082 174.365L145.136 174.327L145.254 174.25L145.289 174.221L145.428 174.106L145.703 173.874C145.891 173.724 146.058 173.556 146.217 173.38C147.534 172.006 148.212 170.261 148.402 168.562C148.593 166.855 148.268 165.12 147.45 163.649C147.232 163.285 146.94 162.822 146.729 162.614L146.558 162.418L146.428 162.266L146.315 162.159L145.863 161.74C145.225 161.228 144.524 160.842 143.803 160.569C140.907 159.525 137.682 160.325 135.954 162.33C138.12 160.641 141.1 160.818 143.051 162.049C143.534 162.369 143.977 162.727 144.315 163.157C144.472 163.363 144.659 163.611 144.746 163.8L144.984 164.232L145.093 164.559C145.42 165.52 145.443 166.643 145.177 167.645C144.921 168.654 144.38 169.569 143.693 170.178C143.518 170.326 143.345 170.471 143.153 170.578L143.012 170.661L142.943 170.704L142.909 170.726C142.826 170.778 143.018 170.657 142.995 170.671L142.988 170.675L142.973 170.682L142.944 170.697L142.477 170.932C142.206 171.028 142.154 171.044 141.872 171.114C141.646 171.183 141.397 171.211 141.157 171.252C140.166 171.358 139.052 171.248 137.898 170.915C137.323 170.755 136.738 170.548 136.158 170.292C135.868 170.167 135.577 170.031 135.291 169.883L134.876 169.666L134.372 169.386C132.352 168.249 130.092 166.591 127.371 165.278C125.991 164.623 124.537 164.078 122.84 163.821C121.227 163.592 119.562 163.636 117.94 164.076C116.333 164.521 114.742 165.422 113.698 166.791C112.629 168.119 112.16 169.841 112.252 171.403C112.327 172.988 113.022 174.492 114.066 175.521C115.103 176.562 116.454 177.195 117.801 177.329C116.548 176.954 115.438 176.131 114.726 175.058C114.001 173.99 113.713 172.701 113.908 171.483C114.002 170.877 114.194 170.29 114.485 169.773C114.622 169.518 114.801 169.258 114.968 169.064C115.033 168.985 115.149 168.856 115.279 168.717L115.585 168.456C116.458 167.731 117.57 167.386 118.736 167.319C123.708 167.009 127.196 171.219 131.885 173.888Z" fill="#343844"/>
<path d="M39.3689 49.614C40.5689 48.7 41.622 47.345 42.267 45.934C42.928 44.503 43.25 42.928 43.212 41.349C43.196 40.964 43.1669 40.559 43.0979 40.105C43.0669 39.859 43.033 39.778 43 39.607L42.931 39.292L42.8519 39.006C42.6359 38.245 42.3299 37.524 41.9509 36.856C41.1829 35.527 40.136 34.411 38.92 33.579C38.3 33.162 37.675 32.834 36.958 32.557C36.78 32.491 36.5739 32.408 36.4419 32.378L35.941 32.238C35.586 32.152 35.2309 32.085 34.8729 32.048C33.4529 31.893 31.987 32.098 30.743 32.777C28.11 34.077 27.4749 37.705 29.2489 39.329C28.5639 38.332 28.649 37.083 29.114 36.143C29.34 35.665 29.676 35.255 30.056 34.951C30.148 34.87 30.25 34.807 30.35 34.743L30.424 34.695C30.411 34.712 30.475 34.669 30.497 34.659L30.6879 34.554C30.9009 34.46 31.107 34.384 31.351 34.32C32.285 34.075 33.2889 34.172 34.1969 34.479C34.4239 34.556 34.645 34.647 34.858 34.75L35.0159 34.83C35.0239 34.837 35.11 34.871 35.052 34.855L35.148 34.908C35.272 34.978 35.416 35.05 35.523 35.117C35.849 35.34 36.264 35.662 36.588 35.987C37.944 37.316 38.692 39.18 38.588 40.9C38.475 42.669 37.6519 44.46 36.1489 45.605C35.5679 46.058 34.6849 46.555 33.7059 47.016C32.7169 47.491 31.581 47.972 30.392 48.627C27.993 49.96 25.8539 51.874 24.4289 54.29C23.7029 55.506 23.218 56.771 22.92 58.214C22.88 58.537 22.8279 58.78 22.7999 59.176C22.7599 59.547 22.75 59.897 22.758 60.233C22.766 60.914 22.8419 61.585 22.9849 62.234C23.5089 64.829 25.118 67.119 27.239 68.211C25.461 66.73 24.5589 64.365 24.6359 62.087C24.6659 59.787 25.693 57.703 27.217 56.119C28.733 54.528 30.658 53.406 32.613 52.693C34.619 51.929 37.0909 51.37 39.3689 49.614Z" fill="#343844"/>
<path d="M11.204 80.792C11.167 79.468 11.445 78.01 12.027 76.593C12.3 75.898 12.728 75.163 13.109 74.58C13.246 74.331 13.74 73.771 13.872 73.599C14.138 73.283 14.432 72.987 14.734 72.693C17.183 70.343 20.719 68.82 24.179 68.09C22.351 67.966 20.512 67.944 18.656 68.179C16.802 68.409 14.91 68.878 13.085 69.789C12.626 70.01 12.181 70.272 11.738 70.551L11.411 70.771L11.247 70.882L11.165 70.938L11.124 70.966L11.114 70.973L11.055 71.027L11.038 71.04L10.482 71.463C9.58798 72.226 8.849 73.043 8.196 73.988C6.907 75.867 5.99497 78.244 6.06697 80.945C6.13397 83.23 7.04298 85.681 8.79298 87.414C9.65698 88.279 10.709 88.997 11.912 89.421C12.53 89.636 13.099 89.765 13.82 89.829L14.207 89.836L14.758 89.827C15.078 89.797 15.392 89.755 15.698 89.685C16.918 89.405 18.026 88.814 18.877 87.947C19.3 87.514 19.656 87.015 19.91 86.472C20.047 86.189 20.125 85.952 20.227 85.601L20.293 85.238L20.35 84.754C20.389 83.585 19.992 82.53 19.365 81.718C18.732 80.909 17.811 80.366 16.889 80.3C18.605 80.935 19.253 83.051 18.718 84.463C18.182 85.856 16.554 86.547 15.218 86.385C13.941 86.256 12.855 85.343 12.18 84.262C12.014 83.996 11.857 83.692 11.752 83.438L11.557 82.944C11.563 82.9 11.489 82.675 11.454 82.555C11.303 81.966 11.23 81.377 11.204 80.792Z" fill="#343844"/>
<path d="M0.921959 70.939C0.257959 71.875 0.487954 72.779 1.84795 72.196C4.03395 71.303 6.65895 69.642 9.79195 68.331C12.891 66.991 16.51 66.063 19.709 66.11C16.667 65.772 12.669 65.673 9.01995 66.565C5.37095 67.402 2.20896 69.156 0.921959 70.939Z" fill="#353945"/>
<path d="M27.739 45.063C28.44 44.177 28.343 43.218 26.874 43.763C25.632 44.26 24.357 45.201 23.228 46.492C22.106 47.784 21.159 49.425 20.547 51.221C19.281 54.839 19.534 58.871 20.401 61.992C20.131 60.436 20.151 58.635 20.502 56.858C20.85 55.07 21.52 53.347 22.384 51.819C24.106 48.743 26.499 46.691 27.739 45.063Z" fill="#353945"/>
<path d="M17.7267 61.8741C18.3261 60.4146 17.6289 58.7455 16.1693 58.146C14.7098 57.5466 13.0407 58.2438 12.4412 59.7034C11.8418 61.1629 12.539 62.8321 13.9986 63.4315C15.4581 64.0309 17.1272 63.3337 17.7267 61.8741Z" fill="#343844"/>
<path d="M16.404 85.929C17.9818 85.929 19.261 84.6498 19.261 83.072C19.261 81.4941 17.9818 80.215 16.404 80.215C14.8261 80.215 13.547 81.4941 13.547 83.072C13.547 84.6498 14.8261 85.929 16.404 85.929Z" fill="#343844"/>
<path d="M31.985 40.73C33.923 40.73 35.494 39.159 35.494 37.221C35.494 35.283 33.923 33.712 31.985 33.712C30.047 33.712 28.476 35.283 28.476 37.221C28.476 39.159 30.047 40.73 31.985 40.73Z" fill="#343844"/>
<path d="M20.322 65.635C21.139 65.635 21.8 64.973 21.8 64.156C21.8 63.34 21.138 62.678 20.322 62.678C19.506 62.678 18.844 63.34 18.844 64.156C18.843 64.973 19.505 65.635 20.322 65.635Z" fill="#343844"/>
<path d="M47.153 33.129C49.902 33.129 52.13 30.9 52.13 28.151C52.13 25.402 49.902 23.173 47.153 23.173C44.404 23.173 42.176 25.402 42.176 28.151C42.176 30.9 44.404 33.129 47.153 33.129Z" fill="#343844"/>
<path d="M42.5239 23.369C43.1459 22.758 43.815 22.096 44.641 21.515C45.46 20.936 46.434 20.455 47.465 20.261C46.439 19.949 45.32 19.78 44.146 19.924C42.981 20.068 41.743 20.542 40.723 21.534C39.856 22.381 39.298 23.586 39.101 24.792C38.894 26.006 39.03 27.221 39.327 28.252C39.536 27.226 40.0439 26.199 40.6619 25.375C41.2829 24.535 41.9659 23.92 42.5239 23.369Z" fill="#343844"/>
<path d="M39.81 21.037C40.214 20.641 40.6089 20.151 41.1409 19.677C41.6659 19.207 42.329 18.77 43.069 18.559C42.344 18.264 41.516 18.05 40.625 18.094C39.742 18.136 38.78 18.451 38.009 19.202C37.354 19.841 36.9719 20.782 36.8909 21.698C36.7999 22.622 36.9899 23.52 37.2739 24.251C37.4959 23.516 37.9509 22.818 38.4469 22.292C38.9479 21.749 39.446 21.398 39.81 21.037Z" fill="#343844"/>
<path d="M37.42 18.705C37.605 18.524 37.727 18.205 37.966 17.84C38.198 17.478 38.549 17.086 38.998 16.859C38.574 16.581 38.037 16.322 37.428 16.265C36.827 16.206 36.141 16.362 35.619 16.871C35.175 17.303 34.971 17.979 35.004 18.604C35.029 19.237 35.273 19.82 35.545 20.249C35.78 19.805 36.182 19.436 36.556 19.208C36.937 18.964 37.249 18.876 37.42 18.705Z" fill="#343844"/>
<path d="M23.989 30.499C23.325 31.69 23.775 32.482 25.079 31.617C26.142 30.984 27.42 30.293 28.895 29.782C30.374 29.285 32.092 28.982 33.869 29.185C35.647 29.383 37.469 30.12 38.974 31.315C40.48 32.496 41.641 34.121 42.194 35.834C41.798 34.149 40.944 32.293 39.539 30.701C38.165 29.115 36.173 27.803 34.017 27.261C31.845 26.7 29.5829 26.909 27.7909 27.594C25.9789 28.27 24.659 29.398 23.989 30.499Z" fill="#353945"/>
<path d="M64.606 17.148C64.064 17.86 63.469 18.337 62.712 18.782C61.967 19.204 61.115 19.481 60.246 19.589C58.546 19.811 56.614 19.179 55.159 17.812C53.749 16.531 52.802 14.338 53.307 12.383C53.368 12.132 53.456 11.912 53.546 11.698L53.743 11.35C53.808 11.247 53.874 11.143 53.957 11.049C54.27 10.659 54.693 10.326 55.177 10.102C56.131 9.63903 57.366 9.58804 58.329 10.247C56.609 8.43503 53.066 9.19003 51.797 11.694C51.126 12.888 50.899 14.285 51.003 15.648C51.029 15.99 51.079 16.333 51.149 16.674L51.207 16.929C51.224 16.99 51.209 16.973 51.254 17.098L51.283 17.204L51.405 17.637C51.659 18.374 51.946 18.965 52.32 19.582C53.785 21.981 56.446 23.906 59.721 24.207C61.324 24.345 62.975 24.095 64.525 23.458C65.299 23.139 66.05 22.721 66.747 22.197C67.429 21.695 68.123 21.001 68.614 20.369C70.506 17.878 71.006 15.348 71.8 13.383C72.552 11.45 73.677 9.57403 75.242 8.12803C75.997 7.40103 76.958 6.78703 77.847 6.35703C78.118 6.25703 78.457 6.11004 78.667 6.05304C78.895 5.97004 79.149 5.89903 79.422 5.84003C79.955 5.71703 80.508 5.64603 81.067 5.63503C83.297 5.55003 85.678 6.40004 87.211 8.24004C86.171 6.18304 83.909 4.52403 81.258 3.98803C80.597 3.84203 79.91 3.76503 79.212 3.76003C78.869 3.75103 78.506 3.76803 78.126 3.81003C77.711 3.85203 77.531 3.87603 77.095 3.95803C75.703 4.24403 74.346 4.79403 73.128 5.54803C70.681 7.05503 68.762 9.28403 67.492 11.683C66.867 12.856 66.398 13.951 65.939 14.887C65.496 15.812 65.016 16.619 64.606 17.148Z" fill="#343844"/>
<path d="M62.8429 7.91401C62.4989 9.08501 63.07 9.798 64.134 8.793C65.893 7.221 67.993 4.929 70.984 3.285C73.915 1.613 77.759 0.800005 80.996 1.396C79.474 0.986005 77.689 0.668006 75.783 0.657006C73.89 0.638006 71.857 0.950004 70.021 1.613C68.171 2.273 66.512 3.288 65.269 4.432C64.015 5.573 63.1909 6.82301 62.8429 7.91401Z" fill="#353945"/>
<path d="M59.732 12.984C59.732 14.922 58.161 16.493 56.223 16.493C54.285 16.493 52.714 14.922 52.714 12.984C52.714 11.046 54.285 9.47498 56.223 9.47498C58.161 9.47398 59.732 11.046 59.732 12.984Z" fill="#343844"/>
<path d="M108.135 10.688C108.135 12.626 106.564 14.197 104.626 14.197C102.688 14.197 101.117 12.626 101.117 10.688C101.117 8.75002 102.688 7.17902 104.626 7.17902C106.564 7.17902 108.135 8.75002 108.135 10.688Z" fill="#343844"/>
<path d="M87.212 20.355C87.212 22.293 85.641 23.864 83.703 23.864C81.765 23.864 80.194 22.293 80.194 20.355C80.194 18.417 81.765 16.846 83.703 16.846C85.641 16.846 87.212 18.417 87.212 20.355Z" fill="#343844"/>
<path d="M50.55 6.022C51.122 4.968 50.922 3.98 49.444 4.919C48.197 5.789 47.107 7.26601 46.472 9.11501C45.85 10.957 45.734 13.166 46.326 15.249C46.907 17.329 48.175 19.194 49.722 20.539C51.271 21.901 53.091 22.776 54.835 23.188C53.182 22.653 51.525 21.5 50.315 19.952C49.087 18.398 48.346 16.517 48.172 14.667C47.995 12.829 48.359 11.08 48.879 9.631C49.393 8.175 50.079 6.991 50.55 6.022Z" fill="#353945"/>
<path d="M90.627 10.62C88.028 9.14203 84.707 8.01903 81.15 8.60803C80.253 8.76603 79.409 9.03803 78.523 9.47603C78.302 9.59303 78.038 9.73003 77.862 9.84203L77.43 10.143L77.376 10.181L77.258 10.258L77.223 10.287L77.084 10.402L76.809 10.634C76.621 10.784 76.454 10.952 76.296 11.128C74.979 12.502 74.301 14.247 74.111 15.946C73.92 17.653 74.245 19.388 75.063 20.859C75.282 21.222 75.573 21.686 75.784 21.894L75.955 22.09L76.085 22.242L76.198 22.349L76.65 22.768C77.288 23.28 77.989 23.666 78.71 23.939C81.606 24.983 84.831 24.183 86.559 22.178C84.393 23.867 81.413 23.69 79.462 22.459C78.979 22.139 78.536 21.781 78.198 21.351C78.041 21.145 77.854 20.897 77.767 20.708L77.529 20.276L77.42 19.949C77.093 18.988 77.07 17.865 77.336 16.863C77.592 15.854 78.133 14.939 78.821 14.33C78.996 14.182 79.169 14.037 79.361 13.93L79.502 13.847L79.571 13.804L79.605 13.783C79.688 13.73 79.496 13.852 79.519 13.838L79.526 13.834L79.541 13.827L79.57 13.812L80.037 13.577C80.308 13.481 80.36 13.465 80.642 13.395C80.868 13.326 81.116 13.298 81.357 13.257C82.348 13.151 83.462 13.261 84.616 13.594C85.191 13.754 85.777 13.961 86.356 14.217C86.646 14.342 86.937 14.478 87.223 14.626L87.638 14.843L88.142 15.123C90.162 16.26 92.422 17.918 95.143 19.231C96.523 19.886 97.977 20.431 99.674 20.688C101.287 20.917 102.952 20.873 104.574 20.433C106.181 19.988 107.772 19.087 108.816 17.718C109.885 16.39 110.354 14.668 110.262 13.107C110.187 11.522 109.492 10.018 108.448 8.98903C107.411 7.94803 106.059 7.31503 104.713 7.18103C105.966 7.55603 107.076 8.37903 107.788 9.45203C108.513 10.52 108.801 11.809 108.606 13.027C108.512 13.633 108.32 14.22 108.029 14.737C107.892 14.992 107.713 15.252 107.546 15.446C107.481 15.525 107.365 15.654 107.235 15.793L106.929 16.054C106.056 16.779 104.944 17.124 103.778 17.191C98.803 17.5 95.315 13.289 90.627 10.62Z" fill="#343844"/>
<path d="M36.149 138.903C36.861 139.445 37.338 140.04 37.783 140.796C38.205 141.541 38.482 142.393 38.59 143.262C38.812 144.962 38.18 146.893 36.813 148.349C35.532 149.759 33.34 150.706 31.384 150.201C31.133 150.139 30.913 150.052 30.699 149.962L30.351 149.765C30.248 149.7 30.144 149.634 30.05 149.551C29.66 149.238 29.327 148.815 29.103 148.331C28.64 147.377 28.589 146.142 29.248 145.179C27.436 146.899 28.191 150.442 30.695 151.711C31.89 152.382 33.286 152.609 34.649 152.505C34.991 152.478 35.334 152.429 35.675 152.359L35.93 152.301C35.991 152.283 35.974 152.298 36.099 152.254L36.205 152.225L36.638 152.103C37.375 151.849 37.966 151.562 38.584 151.188C40.983 149.723 42.908 147.062 43.208 143.787C43.346 142.184 43.096 140.532 42.459 138.983C42.14 138.208 41.722 137.458 41.198 136.761C40.696 136.079 40.003 135.385 39.369 134.894C36.878 133.002 34.348 132.502 32.383 131.708C30.45 130.956 28.574 129.831 27.128 128.266C26.401 127.511 25.787 126.55 25.357 125.661C25.257 125.39 25.11 125.051 25.053 124.841C24.97 124.613 24.899 124.359 24.84 124.086C24.717 123.553 24.646 123 24.635 122.441C24.55 120.211 25.4 117.83 27.24 116.297C25.183 117.337 23.524 119.599 22.989 122.25C22.843 122.911 22.766 123.597 22.761 124.296C22.752 124.639 22.769 125.002 22.81 125.382C22.852 125.797 22.876 125.977 22.958 126.413C23.244 127.805 23.794 129.162 24.549 130.38C26.056 132.827 28.285 134.746 30.684 136.016C31.857 136.641 32.952 137.11 33.888 137.57C34.814 138.013 35.62 138.493 36.149 138.903Z" fill="#343844"/>
<path d="M6.06498 103.564C5.99998 105.948 6.75598 108.233 7.96998 110.133C8.58998 111.104 9.28998 111.91 10.182 112.727C10.68 113.179 10.864 113.284 11.456 113.719C11.9 114.029 12.365 114.299 12.832 114.55C16.638 116.531 20.67 116.671 24.179 116.419C20.598 115.666 17.32 114.175 14.934 111.951C14.632 111.68 14.355 111.385 14.084 111.093L13.887 110.867L13.789 110.755L13.74 110.699L13.715 110.671L13.709 110.664C13.697 110.653 13.802 110.751 13.756 110.707L13.753 110.703L13.739 110.686L13.3 110.143C12.907 109.571 12.497 108.883 12.178 108.179C11.535 106.77 11.156 105.218 11.203 103.718C11.261 102.443 11.553 101.206 12.276 100.132C12.634 99.602 13.075 99.121 13.589 98.773C13.826 98.6 14.161 98.443 14.367 98.345L14.68 98.256L14.835 98.203C14.987 98.174 15.145 98.144 15.308 98.133C16.611 98.013 18.173 98.668 18.713 100.035C19.248 101.402 18.662 103.546 16.886 104.209C18.713 104.093 20.426 102.136 20.351 99.777L20.294 99.285L20.225 98.91C20.123 98.554 20.039 98.311 19.898 98.022C19.633 97.468 19.262 96.959 18.82 96.522C17.934 95.645 16.781 95.053 15.515 94.808C14.178 94.557 12.872 94.723 11.663 95.206C10.468 95.684 9.42999 96.432 8.60099 97.318C6.89399 99.127 6.13798 101.457 6.06498 103.564Z" fill="#343844"/>
<path d="M1.80095 112.387C0.712952 112.02 -0.0860365 112.501 0.862964 113.635C2.52596 115.574 5.68297 117.216 9.21697 117.985C12.753 118.8 16.557 118.727 19.708 118.393C16.616 118.443 12.8119 117.5 9.61895 116.095C6.39095 114.727 3.74895 113.012 1.80095 112.387Z" fill="#353945"/>
<path d="M26.915 140.667C28.086 141.011 28.799 140.44 27.794 139.376C26.222 137.617 23.93 135.516 22.286 132.527C20.614 129.596 19.801 125.752 20.397 122.515C19.987 124.037 19.669 125.823 19.658 127.728C19.639 129.621 19.951 131.653 20.614 133.49C21.275 135.34 22.289 136.999 23.433 138.242C24.575 139.494 25.825 140.319 26.915 140.667Z" fill="#353945"/>
<path d="M16.1623 126.363C17.6219 125.764 18.3191 124.095 17.7197 122.635C17.1202 121.175 15.4511 120.478 13.9916 121.078C12.532 121.677 11.8348 123.346 12.4342 124.806C13.0336 126.265 14.7028 126.963 16.1623 126.363Z" fill="#343844"/>
<path d="M16.404 104.293C17.9818 104.293 19.261 103.014 19.261 101.436C19.261 99.8581 17.9818 98.579 16.404 98.579C14.8261 98.579 13.547 99.8581 13.547 101.436C13.547 103.014 14.8261 104.293 16.404 104.293Z" fill="#343844"/>
<path d="M31.985 143.778C33.923 143.778 35.494 145.349 35.494 147.287C35.494 149.225 33.923 150.796 31.985 150.796C30.047 150.796 28.476 149.225 28.476 147.287C28.476 145.349 30.047 143.778 31.985 143.778Z" fill="#343844"/>
<path d="M20.322 118.874C21.139 118.874 21.8 119.536 21.8 120.353C21.8 121.17 21.138 121.831 20.322 121.831C19.506 121.831 18.844 121.169 18.844 120.353C18.844 119.537 19.505 118.874 20.322 118.874Z" fill="#343844"/>
<path d="M47.153 151.38C49.902 151.38 52.13 153.608 52.13 156.357C52.13 159.106 49.902 161.334 47.153 161.334C44.404 161.334 42.176 159.105 42.176 156.357C42.175 153.608 44.404 151.38 47.153 151.38Z" fill="#343844"/>
<path d="M40.7229 162.973C41.6179 163.857 42.852 164.387 44.064 164.555C45.283 164.731 46.475 164.56 47.465 164.247C46.401 164.052 45.496 163.571 44.708 163.016C43.916 162.454 43.2339 161.826 42.5239 161.139C41.9209 160.544 41.252 159.913 40.648 159.1C40.048 158.297 39.5369 157.316 39.3259 156.256C39.0279 157.251 38.887 158.511 39.117 159.756C39.328 160.991 39.9349 162.207 40.7229 162.973Z" fill="#343844"/>
<path d="M38.009 165.306C38.686 165.975 39.646 166.333 40.565 166.393C41.491 166.46 42.371 166.244 43.07 165.949C42.307 165.737 41.693 165.301 41.187 164.847C40.677 164.386 40.271 163.917 39.81 163.472C39.418 163.085 38.926 162.718 38.438 162.195C37.954 161.683 37.497 161.018 37.274 160.258C36.989 160.962 36.795 161.893 36.903 162.84C36.994 163.776 37.415 164.729 38.009 165.306Z" fill="#343844"/>
<path d="M35.618 167.638C36.076 168.091 36.762 168.279 37.388 168.231C38.02 168.19 38.589 167.929 38.997 167.651C38.535 167.422 38.212 167.031 37.989 166.677C37.76 166.318 37.631 166.007 37.419 165.804C37.239 165.624 36.9229 165.521 36.5499 165.29C36.1819 165.068 35.779 164.719 35.544 164.26C35.272 164.673 35.0249 165.275 35.0109 165.924C34.9819 166.561 35.218 167.251 35.618 167.638Z" fill="#343844"/>
<path d="M25.023 152.96C23.969 152.388 22.981 152.588 23.92 154.066C24.79 155.313 26.267 156.403 28.116 157.038C29.958 157.66 32.167 157.776 34.25 157.184C36.33 156.603 38.195 155.335 39.54 153.788C40.902 152.239 41.777 150.419 42.189 148.675C41.654 150.328 40.501 151.985 38.953 153.195C37.399 154.423 35.518 155.164 33.668 155.338C31.83 155.515 30.081 155.151 28.632 154.631C27.176 154.117 25.992 153.43 25.023 152.96Z" fill="#353945"/>
<path d="M68.6149 164.141C67.7019 162.941 66.346 161.888 64.935 161.243C63.504 160.582 61.929 160.26 60.35 160.298C59.965 160.314 59.5599 160.343 59.1059 160.412C58.8599 160.443 58.779 160.477 58.608 160.51L58.293 160.578L58.0069 160.657C57.2459 160.872 56.525 161.179 55.857 161.558C54.527 162.326 53.4119 163.373 52.5799 164.589C52.1629 165.209 51.835 165.834 51.558 166.551C51.492 166.729 51.409 166.935 51.379 167.067L51.239 167.568C51.153 167.923 51.086 168.278 51.049 168.636C50.894 170.056 51.099 171.522 51.778 172.766C53.078 175.399 56.7059 176.034 58.3299 174.26C57.3329 174.945 56.084 174.86 55.144 174.395C54.666 174.169 54.256 173.833 53.952 173.453C53.871 173.361 53.808 173.259 53.745 173.159L53.6969 173.085C53.7139 173.098 53.671 173.034 53.661 173.012L53.556 172.821C53.462 172.608 53.3859 172.402 53.3219 172.158C53.0769 171.224 53.1739 170.22 53.4809 169.312C53.5579 169.085 53.649 168.864 53.752 168.651L53.832 168.493C53.839 168.485 53.873 168.399 53.857 168.456L53.91 168.36C53.979 168.236 54.0519 168.092 54.1189 167.985C54.3419 167.659 54.664 167.244 54.989 166.919C56.318 165.563 58.182 164.815 59.902 164.92C61.671 165.033 63.462 165.856 64.607 167.359C65.06 167.94 65.557 168.823 66.018 169.802C66.493 170.791 66.974 171.927 67.629 173.116C68.962 175.515 70.876 177.654 73.292 179.079C74.508 179.805 75.773 180.29 77.217 180.588C77.54 180.628 77.7829 180.68 78.1789 180.708C78.5499 180.748 78.9 180.758 79.236 180.75C79.917 180.742 80.588 180.666 81.237 180.523C83.832 179.999 86.1219 178.39 87.2139 176.269C85.7329 178.047 83.368 178.949 81.09 178.872C78.79 178.842 76.706 177.815 75.122 176.291C73.531 174.775 72.409 172.85 71.695 170.895C70.931 168.89 70.3719 166.419 68.6149 164.141Z" fill="#343844"/>
<path d="M64.065 175.771C63.179 175.07 62.22 175.167 62.765 176.636C63.262 177.878 64.203 179.153 65.494 180.282C66.786 181.404 68.427 182.35 70.223 182.962C73.841 184.228 77.873 183.975 80.995 183.108C79.439 183.378 77.638 183.358 75.86 183.007C74.072 182.659 72.349 181.989 70.821 181.125C67.744 179.403 65.693 177.01 64.065 175.771Z" fill="#353945"/>
<path d="M59.732 171.525C59.732 169.587 58.161 168.016 56.223 168.016C54.285 168.016 52.714 169.587 52.714 171.525C52.714 173.463 54.285 175.034 56.223 175.034C58.161 175.034 59.732 173.463 59.732 171.525Z" fill="#343844"/>
<path d="M108.135 173.82C108.135 171.882 106.564 170.311 104.626 170.311C102.688 170.311 101.117 171.882 101.117 173.82C101.117 175.758 102.688 177.329 104.626 177.329C106.564 177.329 108.135 175.758 108.135 173.82Z" fill="#343844"/>
<path d="M87.212 164.153C87.212 162.215 85.641 160.644 83.703 160.644C81.765 160.644 80.194 162.215 80.194 164.153C80.194 166.091 81.765 167.662 83.703 167.662C85.641 167.662 87.212 166.091 87.212 164.153Z" fill="#343844"/>
<path d="M49.5 179.521C50.691 180.185 51.483 179.735 50.618 178.431C49.985 177.367 49.2939 176.09 48.7829 174.615C48.2859 173.136 47.982 171.418 48.185 169.641C48.383 167.863 49.12 166.041 50.315 164.536C51.496 163.03 53.121 161.868 54.833 161.316C53.148 161.712 51.292 162.567 49.7 163.971C48.114 165.346 46.802 167.337 46.26 169.493C45.699 171.665 45.9079 173.927 46.5929 175.719C47.2719 177.53 48.399 178.85 49.5 179.521Z" fill="#353945"/>
<path d="M88.141 169.387L87.694 169.635L87.316 169.836C87.061 169.975 86.796 170.092 86.535 170.22C86.006 170.454 85.469 170.665 84.927 170.839C83.844 171.178 82.752 171.363 81.744 171.316C81.252 171.3 80.736 171.188 80.337 171.071C80.243 171.036 80.182 171.039 80.05 170.984L79.579 170.748L79.52 170.719L79.505 170.712L79.498 170.708C79.415 170.656 79.603 170.775 79.582 170.761L79.564 170.75L79.494 170.706L79.35 170.621C79.248 170.572 79.156 170.505 79.067 170.431C78.315 169.9 77.706 168.987 77.384 167.954C77.054 166.918 77.029 165.757 77.349 164.7C77.45 164.452 77.453 164.283 77.666 163.944L77.793 163.717L77.825 163.66L77.841 163.632L77.845 163.625C77.882 163.575 77.799 163.685 77.809 163.672L77.817 163.662L77.877 163.577L78.117 163.229C78.476 162.79 78.917 162.397 79.421 162.068C81.452 160.78 84.473 160.698 86.559 162.332C84.749 160.265 81.551 159.574 78.762 160.549C78.067 160.809 77.375 161.149 76.763 161.64C76.455 161.896 76.176 162.125 75.884 162.474L75.554 162.853L75.19 163.397C74.324 164.8 73.952 166.423 74.033 168.076C74.116 169.72 74.659 171.417 75.792 172.87C76.079 173.226 76.391 173.579 76.753 173.885L77.026 174.115L77.164 174.229L77.234 174.286L77.381 174.382L77.811 174.68C78.162 174.894 78.733 175.206 79.123 175.348C79.552 175.537 79.995 175.662 80.443 175.787C84.067 176.635 87.678 175.568 90.628 173.891C93.216 172.409 95.239 170.673 97.354 169.342C98.388 168.681 99.498 168.108 100.528 167.783C101.635 167.439 102.809 167.265 103.939 167.349C105.058 167.447 106.133 167.787 106.971 168.505C107.836 169.204 108.409 170.261 108.607 171.464C108.801 172.657 108.543 173.935 107.83 175.014C107.126 176.091 106.014 176.949 104.714 177.332C106.014 177.206 107.359 176.611 108.403 175.578C109.458 174.565 110.188 173.052 110.264 171.435C110.308 170.63 110.22 169.799 109.968 168.994C109.843 168.584 109.691 168.206 109.471 167.799C109.348 167.572 109.25 167.414 109.161 167.269C109.009 167.046 108.893 166.909 108.753 166.725C108.201 166.046 107.515 165.458 106.755 165.008C105.992 164.567 105.172 164.252 104.339 164.041C102.669 163.632 100.965 163.626 99.336 163.909C98.938 163.97 98.499 164.08 98.067 164.193L97.551 164.343L97.425 164.38L97.362 164.399L97.233 164.447L96.954 164.547C96.209 164.813 95.502 165.125 94.832 165.457C92.16 166.789 89.988 168.352 88.141 169.387Z" fill="#343844"/>
<path d="M170.347 151.346H52.164V136.36C35.628 134.49 22.588 115.422 22.588 92.255C22.588 69.088 35.628 50.02 52.164 48.15V33.163H170.347V48.149C186.883 50.019 199.924 69.086 199.924 92.254C199.924 115.422 186.883 134.489 170.347 136.359V151.346ZM57.506 146.004H165.005V131.168H167.676C182.512 131.168 194.582 113.711 194.582 92.254C194.582 70.797 182.512 53.34 167.676 53.34H165.005V38.504H57.506V53.34H54.835C39.999 53.34 27.93 70.797 27.93 92.254C27.93 113.711 39.999 131.168 54.835 131.168H57.506V146.004Z" fill="#343844"/>
<path d="M163.176 144.175H59.335V129.339H54.835C51.666 129.333 48.567 128.447 45.624 126.704C41.162 124.064 37.164 119.394 34.366 113.554C31.349 107.285 29.756 99.919 29.759 92.253C29.747 82.21 32.602 72.442 37.59 65.456C39.907 62.196 42.686 59.549 45.623 57.805C48.567 56.062 51.666 55.175 54.833 55.17H59.335V40.334H163.176V55.17H167.676C170.845 55.175 173.944 56.062 176.887 57.805C181.348 60.444 185.346 65.114 188.146 70.954C191.163 77.223 192.756 84.589 192.753 92.255C192.765 102.298 189.91 112.066 184.921 119.053C182.603 122.314 179.825 124.96 176.888 126.704C173.944 128.448 170.845 129.334 167.678 129.34H163.176V144.175ZM61.335 142.175H161.176V127.339H167.676C170.519 127.334 173.199 126.563 175.867 124.983C178.566 123.381 181.134 120.928 183.292 117.892L183.294 117.891C188.045 111.236 190.764 101.892 190.753 92.256C190.756 84.888 189.231 77.822 186.343 71.82C183.712 66.331 179.992 61.966 175.868 59.526C173.199 57.945 170.518 57.175 167.674 57.17H161.176V42.334H61.335V57.17H54.835C51.992 57.175 49.311 57.945 46.644 59.525C43.945 61.128 41.377 63.58 39.219 66.616C34.467 73.272 31.748 82.615 31.759 92.253C31.756 99.621 33.281 106.687 36.169 112.689C38.799 118.177 42.518 122.543 46.643 124.983C49.312 126.564 51.993 127.334 54.837 127.339H61.335V142.175Z" fill="#343844"/>
</svg>
