<?xml version="1.0" encoding="UTF-8"?><svg id="Layer_2" xmlns="http://www.w3.org/2000/svg" viewBox="0 0 139.72 139.72"><defs><style>.cls-1{fill:#4b3205;}</style></defs><g id="Corner_Frames"><g><path class="cls-1" d="M112.75,75.42c-.15,.15-.43,.19-.82,.1-.39-.09-.7-.24-.91-.46-.07-.06-.25-.36-.56-.88-.3-.52-.61-.94-.92-1.24-.09-.08-.32-.28-.7-.57-.38-.29-.69-.56-.93-.8-1.81-1.81-3.12-4.31-3.92-7.51-.85-3.38-.97-6.98-.35-10.81,.12-.91,.52-2.4,1.17-4.45,.59-1.85,.93-3.29,1.04-4.31-.29,.19-.54,.4-.75,.62-.33,.33-1.25,2.5-2.78,6.5-1.2,3.12-2.21,6.35-3.04,9.7-.65,2.61-1.01,3.95-1.08,4.02-.15,.16-.29,.16-.42,.03-.31-.31-.4-1.59-.27-3.85,.2-2.85,.8-5.93,1.83-9.21,1.2-3.81,2.62-7.51,4.28-11.08,1.24-2.64,1.84-3.97,1.79-4.01-.17-.18-.37-.15-.58,.06-1.27,1.27-3.65,5.31-7.16,12.12-1.5,2.94-2.76,5.86-3.79,8.76-.79,2.26-1.23,3.45-1.34,3.56-.98,.98-1.87,1.08-2.65,.3-.5-.5-.69-1.44-.57-2.83,.12-1.38,.15-2.11,.09-2.17-.35-.35-.92-.13-1.7,.65l-.91,.92c-.72,.72-1.85,.3-3.4-1.24-1.76-1.76-2.36-2.93-1.8-3.5,.26-.26,.64-.56,1.14-.91,.5-.35,.83-.6,.98-.75,.15-.15,.12-.33-.1-.55-.08-.08-.75-.09-1.97-.01-1.24,.07-2.06-.1-2.47-.51-.24-.24-.32-.66-.25-1.25,.08-.6,.29-1.07,.64-1.42,.09-.09,.9-.42,2.45-1.01,2.27-.87,4.39-1.73,6.38-2.58,7.12-3.07,11.63-5.56,13.52-7.45,.11-.11,.29-.26,.54-.44,.25-.18,.43-.33,.54-.44,.2-.19,.23-.36,.1-.49-.09-.09-.6,0-1.54,.29-1.48,.44-3.73,1.36-6.76,2.78-3.33,1.54-5.87,2.63-7.64,3.27-2.48,.87-4.7,1.46-6.63,1.8-1.61,.26-2.53,.28-2.74,.06-.24-.24-.22-.5,.06-.79,.22-.22,.99-.55,2.32-1.01,3.14-.91,6.86-2.07,11.17-3.46,1.55-.63,3.09-1.26,4.64-1.89,1.35-.56,2.31-1.06,2.88-1.5l.52-.78c-.2-.15-1.91,.29-5.13,1.34-2.5,.81-5.85,1.34-10.03,1.6-2.21,.16-5.13-.36-8.79-1.54-1.09-.35-1.83-.72-2.22-1.11-.04-.04-.07-.12-.08-.21,0-.1-.05-.18-.12-.25-.02-.02-.61-.21-1.78-.57-1.17-.36-2.18-.96-3.03-1.81-.54-.54-.87-1.13-.97-1.77l.71-.78c7.17,2.64,15.16,3.62,23.99,2.94,8.71-.65,13.59-1.5,14.64-2.55,.13-.13,.29-.6,.46-1.41,.17-.8,.48-1.42,.91-1.86,1.62-1.62,3.5-1.34,5.65,.81,2.09,2.09,2.3,3.98,.62,5.65-.2,.2-.67,.36-1.41,.49-.75,.13-1.19,.27-1.34,.43-.41,.41-.95,2.32-1.6,5.71-.83,4.32-1.32,9.09-1.47,14.34-.13,3.84-.06,6.81,.23,8.92,.43,3.14,1.43,6.07,2.97,8.79,.39,.61,.79,1.24,1.17,1.9,.39,.65,.39,1.18-.03,1.6Z"/><g><path class="cls-1" d="M4.47,5.04c2.13,5.37,8.73,10.06,20.46,7.64,11.73-2.42,28.64-1.5,36,3.55,5.84,4,1.96,3.89-3.78,2.73-4.37-.89-11.94,.04-15.17,3.68-3.24,3.64-4.89,5.22-4.54,9.77,.24,3.07,2.33,5.76,5.35,6.73,3.17,1.02,5.32,2.59-.8,5.09-4.92,2.01-11.32,1.21-14.55-3.64-3.23-4.85-2.67-7.66-1.61-10.41,1.01-2.63,3.25-4.87,5.86-7.17,2.63-2.33,2.03-3.15-1.01-1.52-2.83,1.52-5.9,4.17-12.42,6.06-6.26,1.82-13.25-1.11-15.69-5.86C.67,17.98-.66,10.78,.35,6.12,1.31,1.71,2.57,.26,4.47,5.04Z"/><path class="cls-1" d="M49.47,4.4c3.72,1.6,10.15,3.55,13.95,6.97,5.05,4.55,9.7,9.1,12.13,14.56,2.43,5.46,3.33,4.55,1.52-1.52-1.82-6.06-4.55-14.86-8.19-19.1C65.23,1.07,58.37-.55,53.11,.16c-7.24,.98-7.89,2.43-3.64,4.24Z"/><path class="cls-1" d="M73.27,66.11c.48,3.03,4.35,7.5,7.23,9.45,3.74,2.53,7.08,2.83,11.42,2.22,2.28-.32,3.74,.6,1.21,3.13-2.89,2.9-9.7,5.96-14.55,3.54-4.85-2.43-7.28-14.15-6.87-16.78-2.63,.41-14.35-2.02-16.78-6.87-2.42-4.85,.64-11.66,3.54-14.56,2.53-2.53,3.45-1.07,3.13,1.21-.6,4.35-.3,7.68,2.22,11.42,1.95,2.88,6.42,6.75,9.45,7.23Z"/><path class="cls-1" d="M80.8,21.39c0-4.05-.2-10.01,2.22-13.14,1.93-2.5,3.74-3.13,9.51-4.04,3.6-.57,8.95-.85,16.88,1.41,4.25,1.21,4.95,2.83,.5,3.03-4.45,.2-14.07,.92-17.38,2.63-3.33,1.72-6.88,3.24-8.79,10.61-.71,2.74-2.93,5.36-2.93-.51Z"/><path class="cls-1" d="M134.68,135.24c-5.37-2.13-10.06-8.73-7.64-20.46,2.43-11.72,1.5-28.64-3.55-36-4-5.84-3.9-1.96-2.73,3.78,.88,4.38-.04,11.94-3.68,15.18-3.64,3.23-5.22,4.88-9.77,4.53-3.07-.24-5.76-2.33-6.73-5.35-1.02-3.17-2.59-5.32-5.1,.8-2.01,4.92-1.22,11.32,3.64,14.56,4.85,3.24,7.66,2.67,10.41,1.61,2.63-1.01,4.87-3.25,7.17-5.86,2.33-2.63,3.14-2.03,1.51,1.01-1.51,2.83-4.16,5.9-6.05,12.42-1.82,6.26,1.11,13.25,5.86,15.69,3.71,1.89,10.91,3.22,15.56,2.21,4.42-.96,5.86-2.22,1.08-4.12Z"/><path class="cls-1" d="M135.31,90.25c-1.59-3.72-3.55-10.15-6.97-13.95-4.55-5.05-9.09-9.7-14.55-12.13-5.46-2.43-4.55-3.34,1.52-1.52,6.06,1.82,14.86,4.55,19.1,8.19,4.25,3.64,5.87,10.51,5.15,15.77-.97,7.24-2.42,7.88-4.24,3.64Z"/><path class="cls-1" d="M118.33,58.91c4.05,0,10.01,.2,13.14-2.22,2.5-1.93,3.13-3.74,4.04-9.5,.57-3.6,.85-8.95-1.41-16.88-1.22-4.24-2.84-4.95-3.04-.5-.2,4.45-.92,14.07-2.62,17.38-1.72,3.33-3.24,6.87-10.62,8.79-2.74,.71-5.36,2.93,.5,2.93Z"/></g></g></g></svg>