<?xml version="1.0" encoding="UTF-8"?><svg id="Layer_2" xmlns="http://www.w3.org/2000/svg" viewBox="0 0 1882 1881.55"><defs><style>.cls-1,.cls-2{fill:#562405;}.cls-2{fill-rule:evenodd;}.cls-3{fill:#ffca91;}</style></defs><g id="Layer_1-2"><g><rect class="cls-3" x=".18" y=".18" width="1881.22" height="1881.22"/><path class="cls-1" d="M1554.07,650.04c49.93-58.11,122.53-72.19,191.39-53.45,16.99,4.61,34.17,11.53,49.63,19.99,15.25,8.34,33.33,18.15,44.71,31.1-12.67-12.7-73.57-44.39-108.54-32.89-35.94,11.82-52.9,30.02-62.53,50.76-11.31,24.38-7.82,43.84-6.39,72.75-.34-9.87-14.42-13.23-21.42-21.43-6.65-7.79-9.75-15.81-11.67-26.07-2.69-14.39,3.27-34.19,14.81-43.53-29.47,18.73-43.05,52.42-33.35,85.99,3.7,12.8,9.5,30.27-9.78,31.23-17.23,.85-29.83-13.24-36.27-27.5,5.04,17.31,17.26,32.62,19.35,50.36,1.91,16.36-.7,37.95,22.23,38.14-27.43,24.83-60.26,17.11-76.3-15.56,10.25,27.53,23.1,61.99,56.76,66.33,16.09,2.06,29.34-6.72,44.8-7.84,24.52-1.77,46.49,1.83,63.63-21.7,10.71-14.71,4.57-27-12.27-40.66,35.95,8.11,59.03,21.56,67.19,59.51,6.63,30.86-14.32,69.56-38.13,89.59,26.64,1.66,52.84-1.34,62.61-30.43-.63,37.51-12.87,60.5-46.11,79.21-37.91,21.34-72.21,12.51-110.13,1.61,7.18,8.66,20.13,16.78,23.36,38.5,3.22,21.72,0,35.04-7.38,49.8-7.38-38.73-37.72-33.84-63.4-37.47-23.75-3.36-32.64-21.07-43.26-40.17,.26,20.46-18.23,32.36-36.9,34.08,18.99-16.99-11.02-39.39-20.87-52.55-18.77-25.08-13.93-53.43-7.82-81.97-21.92,36.66-53.18,19.93-82.21,1.15,26.96-19.21,17.58-34.91,25.42-63.01,8.54-30.57,30.81-46.48,54.72-71.21,11.2-11.61,23.43-21.08,28.39-36.9-9.91,10.12-19.4,17.74-32.96,20.36-12.9,2.49-30.41-9.51-42.24-7.37,11.41-12.83,18.1-28.9,21.89-45.1,5.3-22.69,23.81-44.55,51.4-55.36,25.68-10.07,43.94-17.13,73.82-35.47,17.24-10.57,27.63-18.31,46.92-27.39-15.89,3.04-40.94-13.53-46.37-37.9-3.34-15.02,3.46-25.43,12.22-33.22,8.76-7.78,19.24-9.53,30.47-10.76-20.54,15.37,7.92,38.22,24.79,42.28,25.91,6.22,47.34,3.62,72.89,9.04,28.21,6,55.69,14.61,80.46,29.68,20.92,12.71,31.56,21.5,49.4,40.82-47.58-36.08-120.72-63.83-190.85-47.24-3.83,.91-35.86-5.61-51.07-25.86-5.99-8-8.64-24.09-.15-36.31-12.47,11.7-10.14,28.74-5.27,36.9,13.3,22.3,50.28,28.76,46.46,29.97-12.17,3.84-24.05,9.05-35.47,15.76-26.9,15.8-37.99,26.15-53.26,44.74-2.27,2.76-59.2,72.91-96.35,88.59,38.43-12.73,63.23-44.53,80.87-60.01-10.27,18.68-18.25,41.42-21.91,56.13-7.71,31.08-7.02,46.79-12.88,67.19-18.07,49.14-25.13,68.02-51.33,85.89,29.91-8.93,52.51-59.19,55.8-69.48-3.49,43.24-25.18,100.47,3.31,171.35-15.57-66.28-9.1-118.61,2.79-148.5,3.68,24.63,1.13,116.92,73.43,157.87-48.33-40.5-54.17-87.99-62.13-134.51,23.79,61.4,143.53,129.62,195.19,28.29-53.6,91.24-161.17,30.22-189.03-37.3-26.65-64.58-15.03-150.73,34.9-208.84Z"/><path class="cls-1" d="M1793.28,624.16c-38.92-19.75-80.88-3.65-101.11,17.67-29.16,30.76-31.79,73.77-16.38,110.75,7.25,17.4,17.46,25.64,35.57,30.58-5.91-8.18-5.93-19.2,.32-26.98,10.4,6.65,13.6,19.31,21.36,27.51,9.75,10.28,23.46,10.76,36.25,5.73,24.02-9.46,40.81-36.82,42.17-61.58-4.37,16.87-21.34,16.01-29.88,3.43-5.64-8.3-10.9-6.07-19.08-9.73,20.84,4,25.17-34.42,7.05-41.3,1.25,6.61-4.5,15.04-12.1,16.3-9.22,1.52-18.18-3.64-22.45-11.46-3.77-6.87-6.24-18.76,1.71-31.28,10.48-16.48,30.71-28.13,50.45-29.67-39.13-6.39-65.34,30.1-68.9,53.65-4.57,30.23,7.15,63.86,49.86,74.82-43.39-4.06-62.06-48.3-55.34-77.23,6.53-28.04,29.45-65.17,80.47-51.21Z"/><path class="cls-2" d="M1520.19,637.13c-25.09,9.76-67.84,15.04-103.59,10.1-48.94-6.76-73.01-3.75-86.03,10.86-5.41-14.77,7.67-48.59,36.94-53.39-10.46-3.28-40.21-11.83-55.94-6.43-15.74,5.4-24.52,14.21-24.79,33.63-23.36-15.76-19.67-37.72-10.61-49.72-27.06-2.27-35.36,4.49-47.66,20.47-10.66,13.85-17.42,46.2-29.51,59.02-.25-8.02-6.01-20.09-13.55-24.06-10.99,27.93-51.17,57.61-83.21,50.87,14.8-8.13,26.14-21.3,31.67-37.29,3.96-11.44-.06-36.45,9.98-44.79-10.93,9.08-27.27,4.86-42.02-4.97,36.89-9.84,22.13-62.71,91.72-68.67-2.75-17.54-34-15.39-48.23-24.49,15.61-5.44,34.35-24.97,62.19-27.44,21.93-1.94,48.16,.8,60.06,21.25,3.96-16.8-15.49-38.91-31.43-46.1,20.75-3.06,53.17-3.23,70.36,15.73,10.85,11.97,14.6,24.47,29.23,32.8,.6,.78,.57,.8-.07,.09-7.89-17.12,2.66-40.66,23.59-45.77-6.96,1.7,2.18,26.27,4.23,29.22,4.59,6.64,10.92,44.18,37.41,55.98-17.01-19.29-32.27-58.36-23.68-90.89,4.67-17.7,9.39-31.63,24.69-42.45,18.89-13.34,48.3-20.01,66.76-4.66-14.67,1.78-32.89,13.48-28.2,36.35,5.25-23.68,34.59-39.48,61.2-28.37,19.02,7.95,36.86,32.84,20.2,66.5-6.64-16.63-20.66-21.27-26.2-3.83-4.83,15.19-4.8,27.51-18.85,37.66-13.1,9.45-23.52,14.34-26.42,32.69-2.08,13.19,3.98,24.64,16.03,34.58,9.18,7.6,23.9,14.1,35.8,13.87-14.47-20.11-30.97-45.13-6.88-80.71,11-16.24,35.18-27.82,63.29-16.82-21.79,21.83-26.63,34.41-28.05,47.17-1.65,14.65,3.87,23.73,12.57,33.17,10.16,11.04,27.38,20.1,52.63,17.31-13.48,4.46-29.28,8.34-40.86,9.74-7.23-.49-41.91-11.65-48.51-45.97-3.47-17.96,3.26-39.3,27.97-53.96-27.64,7.49-35.63,42-32.04,55.37,6.53,27.52,25.44,42.14,41,45.96-23.49,4.82-74.83-3.62-94.62-24-28.56-29.42-32.48-55.33-20.6-86.66,8.51-22.43,33.33-42.07,69.77-45.56-31.86-4.27-68.66,18.22-78.65,55.88-8.06-11.08-27.64-55.15,11.32-93.22-47.21,39.08-20.42,92.37-14.65,99.63-1.14,32.72,8.52,51.62,26.98,71.77,21.46,23.42,58.83,28.46,84.57,27.99,15.86-.29,30.56-2.01,67.39-14.83-36.76,19.61-85.07,30.28-130.73,18.35-40.45-10.57-60.18-35.74-91.34-51.26-47.45-23.64-104.61-36.18-152.92-11.34-41.16,21.16-58.12,61.41-59.2,82.39,1.85-29.21,35.04-64.17,62.89-78.7,28.28-14.75,74.69-15.75,127.44,6.43,52.75,22.16,62.88,51.43,111.32,60.01-17.51-.14-72.78-8.3-93.24,6.48,22.26-6.62,69.79,.89,101.38-.13,21.87-.72,47.03,.5,73.5-8.9,19.8-7.04,28.34-11.45,54.39-22.85-30.17,17.98-57.74,30.96-78.2,38.94Z"/><path class="cls-2" d="M1475.66,760.66c-37.11,29.86-80.99,60.06-106.03,71.99-34.52,16.45-67.3,22.72-88.57,23-21.27,.28-51.15-8.23-62.18-28.86-16.89,27.62-.35,50.37,32.49,58.82-49.75,4.37-81.81-25.86-95.5-69.75-16.03,9.46-34.25,24.19-24.8,50.08-.91-2.5-22.66-10.89-26.1-13.51-10.77-8.2-21.06-24.94-18.16-38.99,3.04-14.73,19.54-18.65,29.91-8.56,11.73-30.04-26.56-45.76-42.24-27.31,4.61-8.3,6.79-17,15.68-23.05,20.29-13.83,49.2,6.3,50.9,31.32,9.96-14.73,6.1-32.52-.18-43.31-8.76-15.05-27.67-27.67-50.72-28.59-28.32-1.14-47.95,9.22-67.32,26.74-16.35,14.79-22.57,38.31-23.98,60.86-.92,14.75,10.06,39.58,18.56,40.27-20.83-1.66-30.17-23.58-43.55-42.74-40.93,45.73-8.66,120.07,48.21,116.6,.74-.45,.73-.5-.04-.15-10.4,11.44-22.03,26.1-38.18,27.07,46.11,37.86,76.78,26.43,123.28,14.39,.82-.31-3.12,4.55-3.96,4.79-18.83,16.76-14.48,62.88,20.16,77.26-.65-26.8,14.77-31.79,37.63-36.32,28.97-5.74,31.66-30.32,49.53-46.68-21.21,22.14-2.33,71.41,27.79,70.56-12.73-18.92-4.18-39.88,13.68-51.31,8.81-5.63,20.16-7.21,27.94-14.68,8.76-8.41,11.56-19.88,16.04-31.51,5.18,26.5,27.35,54.52,60.11,41.1-27.49-28.56,1.92-64.88,17.04-94.44,11.58-22.65,38.9-49.05,73.23-81.88,10.48-10.02,29.54-27.64,36.79-39.61-19.54,19.25-28.1,28.49-39.31,37.26-35.67,27.94-24.27,21.07-47.77,40.18-20.31,16.51-82.04,57.66-98.59,66.85-41.22,22.91-80.33,28.07-102.37,36.55-29.61,11.38-67,29.89-78.13,62.24,7.4-32.51,52.31-60.76,72.11-69.59-41.4-.71-77.12-12.6-107.55-32.36-37.78,4.32-85.02-18.68-106.05-49.46,40.18,36.85,67.86,43.67,101.56,41.42-43.23-35.49-49.47-88.39-16.6-131.35-31.09,44.91-16.45,102.28,39.05,138.67,50.15,32.91,114.72,34.25,173.96,7.3,95.19-43.3,187.42-127.09,202.24-141.3Z"/><path class="cls-1" d="M1367.74,816.2c23.33-7.21,42.69-17,100.82-52.98-36.53,31.56-72.42,52.02-97.76,63.49-17.09,7.74-52.9,21.57-80.12,19.27-53.93-4.55-90.78-33.14-110.51-80.35-9.28-22.2-7.6-38.87,4.19-59.73,2.12,12.71,12.1,22.61,24.79,23.94,3.29-15.42-5.33-29.7-5.79-44.1-.57-18.08,11.3-30.97,27.36-38.06,30.15-13.31,70.08-3.98,93.76,17.03-19.22-11.18-33.7,4.99-29.95,24.05,2.47,12.57-4.28,15.34-8.29,26.05,15.08-22.5,53.85,8.07,43.81,30.68-4.87-7.06-17.7-9.41-25.66-3.64-9.66,6.99-12.59,17.44-9.33,28.35,2.86,9.59,16.7,26.05,48.6,29.47,24.8,2.66,50.54-3.02,112.84-30.76-56.68,34.15-71.63,37.51-90.85,41.76-30.21,6.65-62-3.71-79.42-16.43-31.55-23-51.54-63.84-23.13-112.45-31.43,38.34-24.15,87.21,20.77,119.72-8.28,2.14-53.88-1.37-90.85-63.49,39.08,79.34,94.17,71.12,102.11,69.75,14.92,7.21,46.06,16.64,72.62,8.43Z"/><path class="cls-1" d="M1028.4,1290.29c-1.8,24.72-16.91,59.32-28.28,80.84,14.14-39.04,17.83-65.16,16.29-87.29-2.19-31.58-10.15-58.34-19.89-88.51-4.07-12.61-9.19-26.02-16.62-37.49-15.31-23.65-36.96-45.28-31.18-75.74,2.17-11.39,7.13-22.8,14.93-31.44,5.76-6.38,23.9-11.68,27.18-17.42-6.38,11.19-4.89,25.17,4.12,34.21,12.28-9.89,17.81-22.88,29.7-31.03,22.88-15.69,42.75-17.71,59.49-12.42,24.84,7.84,36.72,19.1,41.84,50.34-1.31-8.01-16.82-6.26-21.34-4.17-7.49,3.47-11.02,9.96-15.02,16.58-9.61,15.91-26.17,17.65-42.07,25.31,13.32-4.21,24.47,4.23,33.94,12.5,11.85,10.35,10.44,21.06,14.16,35.03-11.77-10.97-27.35-11.54-41.56-6.68-9.91,3.38-15.59,12.82-18.1,22.5-1.36,5.25,.29,23.06,4.49,30.51,5.91-22.36,26.35-22.36,42.54-24.07-13.63,11.93-19.18,24.04-23,37.48-1.97,6.93-5.32,23.47-10.22,45.15-2.56,11.31-5.33,29.46-9.1,40.51-8.47,24.84-26.11,40.91-38.44,63.07,18.13-32.58,24.13-48.42,30.28-75.47,9.34-41.1-12.97-105.68-18.46-126.55-9.95-37.77,.32-82.05,53.03-101.83-35.96,6.6-56.36,33.69-61.78,70.23-7.77-3.57-34.58-28.13-28.07-70.83-11.59,35.33,18.27,71.05,25.3,74.98,17.06,59.94,29.05,107.43,25.82,151.7Z"/><path class="cls-1" d="M1001.89,1304.22c2.32,19.04,1.02,48.02-5.74,74.73,11.68-30.12,18-66.88,16.58-88.66-1.84-28.28-7.11-55.1-14.75-74.7-15.44-39.59-36.54-63.68-75.35-74.07-18.25-4.88-31.04-1.82-46.03,9.55,7.43,.23,13.23,3.82,17.79,9.43,1.04,1.28,8.17,16.21,5.89,16-15.23-1.38-36.43,1.14-46.32,15.3-9.9,14.16-3.14,31.39-17.76,44.52,18.5,5.43,26.49-.78,37.04-5.48,9.81-4.36,18.13-11.8,28.09-11.26-5.97,7.63-13.15,21.81-8.23,31.47,2.25,4.43,9.46,8.52,14,10.03,3.91,1.3,13.97-1.67,15.66-.81-6.01-3.05-9.2-12.78-5.54-19.59,4.42-8.25,12.15-10.64,21.07-10.25,12.36,.54,33.09,21.96,44.94,44.18,14.75,27.67,15.37,72.54,11.07,106.36,10.45-27.05,4.9-86.39-.61-100.82-12.91-33.81-25.88-46.9-37.61-59.12-21.23-22.13-55.11-33.37-89.94-6.16,26.52-28.49,65.32-27.98,95.34,3.55,.79-6.67-6.74-41.77-58.97-64,65.86,22.05,65.26,65.78,65.02,72.12,7.19,10.84,29.31,36.09,34.38,77.68Z"/><g><path class="cls-1" d="M1368.97,1336.33c7.53-13.77,34.9-22.6,52.43-35.25,24.28-17.5,36.47-37.13,42.16-63.77,3.82-17.87,.78-46.45-12.29-60.71-17.75-19.32-34.25-26.83-52.27-28.2-11.96-.91-37.5,3.76-37.84,25.03-.21,12.78,14.1,16.1,19.65,12.75,6.72-4.06,9.86-15.21-5.8-18.41,7.33-18.88,42.71-10.91,53.44,12.67,10.41,22.88-9.18,55.44-29.24,38.09-11.07,11.17-5.12,23.57,7.12,27.08,7.4,2.11,16.57-.52,23.78-9.37-3.91,9.22-8.09,18.85-16.25,26.29-10.45,9.54-28.59,12.86-41.5,7.59-8.49-3.45-22.5-14.04-19.25-26.31-24.67,11.52-19.59,44.86,8.24,45.59-10.83,4.93-22.45-5.49-34.04-.66-13.17,5.49-20.18,23.82-17.84,44.31,3.47-17.88,23.16-14.18,33.26-13.69,15.04,.74,28.84-6.79,39.18-17.97-4.01,4.34-18.3,23.18-12.94,34.93h0Z"/><path class="cls-1" d="M1246.1,1293.13c2.74-15.46-13.07-39.48-18.84-60.31-7.97-28.87-5.2-51.78,7.04-76.12,8.2-16.33,28.46-36.73,47.58-39.66,25.93-3.97,43.51,.51,58.4,10.72,9.91,6.77,26.9,26.39,13.86,43.21-7.84,10.1-21.08,3.72-23.31-2.36-2.7-7.38,1.84-18.04,16.04-10.73,6.11-19.31-26.47-35.24-49.61-23.56-22.43,11.33-27.52,48.99-1.02,48,1.63,15.64-10.76,21.59-22.5,16.66-7.09-2.97-12.6-10.76-12.69-22.19-2.71,9.65-2.76,22.46-1.05,33.37,2.2,13.97,11.93,24.04,24.9,29.21,10.29,4.11,26.33,3.14,31.48-8.46,12.04,24.42-12.79,47.25-34.97,30.39,5.38,10.63,20.95,9.76,26.97,20.8,6.83,12.52,.84,31.19-13.82,45.72,8.48-16.13-9.2-25.55-17.38-31.48-12.19-8.84-18.25-23.36-19.31-38.54,.41,5.9-.24,29.54-11.77,35.34Z"/><path class="cls-1" d="M1302.36,1327.81c-11.46,19.14-42.16,53.83-31.22,84.06,28.02-15.77,27.38-63.97,31.22-84.06Z"/><path class="cls-1" d="M1310.43,1335.37c-2.11,17.34-14.88,52.5,7.94,69.01,18.47-21.25-2.78-53.88-7.94-69.01Z"/><path class="cls-1" d="M1290.84,1327.66c-14.58,9.63-49.63,22.7-47.42,50.76,28.16,.3,39.23-37.02,47.42-50.76Z"/><path class="cls-1" d="M1363.86,1153.55c-.43-7.3-6.58-18.04-14.85-25.39-5.68-5.04-15.58-11.3-25.96-13.36,14.73-13.31,39.11,.32,42.04,8.25-2.24-7.2-5.02-15.85,1.96-28.19,7.85-13.87,25-22,33.47-45.57-8.16,23.68,.14,40.75-2.42,56.48-2.28,14-13.43,19.25-16.12,23.22,7.25-4.35,34.8,.27,37.96,19.87-9.38-4.88-21.02-6.21-28.6-5.83-11.06,.56-22.59,5.09-27.48,10.51Z"/><path class="cls-1" d="M1547.55,1317.44c-39.8,5.11-77.4-25.62-80.56-61.66-1.59,9-2.07,15.45,.37,23.23,2.84,9.06,9.73,17.54,17.73,22.57,9.12,5.72,18.77,9.51,22.45,20.65,2.77,8.35,.29,16.15,1.62,24.58,1.32,8.35,5.35,21.83,15.73,22.37-18.79,6.17-45.52,5-59.77-11.01-13.36-15.01-4.47-39.57-22-51.62,1.06,13.69,2.02,28.14-5.46,40.36-4.08,6.65-21.73,22.9-15.29,28.97-24.82-3.98-33.97-29.12-16.74-47.78-23.02,3.14-55.67,50.29-18.33,63.96,13.99,5.12,23-8.24,36.28-5.15,16.7,3.91,19.51,18.13,17.65,32.13-5.21-8.95-8.42-16.69-21.32-14.66-12.9,2.03-30.73,15.43-43.83-1.23,3.68,11.48,11.57,21.3,21.44,19.6-20.83,8.6-58.67-6.15-66.79-36.61-3.28-12.33-1.53-25.93,3.79-37.45,4.64-10.04,20.16-27.51,32.36-28.61-3.94,7.67-3.44,18.5-1.27,25.96,4.98-7.5,13.35-14.41,20.94-19.6,10.81-7.4,23.65-13.52,35.49-19.12-2.64,7.5-5.14,12.25-7.1,21.27-3.38,15.54-.8,23.28,.24,31.52-.72-17.11,3.17-37.22,13.58-58.86,8.34-7.74,18.33-16.17,26.12-31.71-2.76,15.89,.64,31.62,5.14,44.52,5.61,16.02,20.07,34.03,36.87,42.19-18.56-12.7-28.37-35.47-31.8-43.78-5.32-12.86-7.29-31.35-4.41-48.92,2.81-7.29,4.4-11.78,5.74-21.99,1.31,6.69,16.74,38.78,45.64,49.2,29.49,10.65,49.26,2.15,57.77-7.14-18.77,11.28-39.38,10.8-54.21,5.01-14.83-5.77-38.29-26.95-45.63-50.88-.21-7.38,.05-12.9-.37-18.11,15.13,9.4,43.98,13.63,64.41,8.61,20.43-5.02,33.83-17.89,38.9-30.72-14.12,22.57-32.29,25.41-42.87,27.63-16.99,3.59-45.75-.9-60.52-10.03-.09-10.13-5.55-27.74-12.16-37.86,9.08-2.58,19.78-5.43,39.02-18.98,14.14-9.96,30.42-34.66,33.33-49.51-3.47,11.18-22.04,34.58-34.26,43.84-16.69,12.66-36.01,17.77-41.07,18.97-6.94-6.1-14.45-13.08-23.08-21.83-7.81-7.92-16.7-18.28-22.65-34.43,9.94-17.91,25.93-40.07,50.94-41.29-24.66-3.66-44.61,19.38-54.1,33.86-4.42-19.18,.1-53.46,4.03-70.45,3.93-16.99,14.18-47.86,15.77-58.39-4.11,10.17-11.55,31.34-22.97,54.81-11.43,23.46-26.34,46.03-41.78,58.22,1.65-17.23,.52-47.68-21.02-60.28,18.76,16.63,17.35,43.91,13.9,64.1-14.74,8.87-28.16,11.38-39.22,12.67-12.21,1.43-22.43,2.16-31.67,2.59-3.19-4.11-15.06-20.19-20.16-40.49-3.73-14.9-3.56-44.76,.72-55.65-7.02,13.4-9.78,42.86-4.97,59.48,6.53,22.61,13.08,31.52,18.56,39.23-11.49,3.75-26.77,14.07-33.18,21.91-17.24-2.13-42.48-16.62-53.49-30.05-6.86-8.37-19.26-21.96-16.15-48.39-4.07,13.18-1.69,31.59,11.12,48.3,12.8,16.71,37.94,31.45,55.62,33.6-3.58,3.81-6.84,8.28-11.63,13.9-20.69,14.08-52.25,15.92-67.42,11.13-15.18-4.77-31.57-17.28-39.16-37.84,.84,12.57,10.93,31.56,40.61,41.73,29.06,9.95,61.18-5.43,66.39-9.82-5.34,8.8-6.92,13.31-9.29,20.75-8.75,15.51-21.86,28.69-34.05,35.4-7.88,4.33-29.77,15.94-52.21,14.23,18.21,4.15,40.77-.85,55.16-9.83,11.59-7.23,24.09-17.38,31.87-31.5-3.64,17-1.14,29.81,.53,41.08-5.41,23.38-14.96,41.51-26.23,54.4,5.96-5.76,12.82-10.19,19.91-24.44,4.12-8.25,5.13-13.51,7.77-21.01,5.72,11.78,11.9,24.57,15.71,37.12,2.67,8.81,4.86,19.44,4.06,28.41,6.36-4.47,13.52-12.6,15.26-21.05,8.82,8.49,9.99,31.83,7.33,42.57-3.05,12.31-10.19,24.01-20.47,31.58-25.4,18.68-64.16,6.5-75.01-13.24,6.63,7.5,18.93,4.77,28.98-1.88-20.64,4.8-26.17-16.82-34.96-26.47-8.79-9.65-16.14-5.64-25.8-1.91,7.31-12.07,18.41-21.43,33.87-14.01,12.3,5.9,10.97,21.97,25.09,26.73,37.68,12.7,41.71-44.51,25.72-61.37,1.76,25.35-21.1,39.23-42.95,26.81,8.82-.71,5.23-24.43,6.21-32.18,1.81-14.2,11.59-24.87,20.99-34.88-21.22-1.58-29.65,23.14-49.47,26.49-21.12,3.57-42.72-12.25-53.52-28.83,8.45,6.08,20.03-1.91,26.28-7.6,6.31-5.73,9.26-13.36,16.64-18.15,9.84-6.37,19.75-3.3,30.44-2.06,9.38,1.1,20.06-1.22,27.95-6.5,6.77-4.54,10.44-9.86,14.84-17.88-25.04,26.13-73.58,26.56-101.43-2.32-20.81-21.58-21.01-59.72,3.09-83.89-6.19,17.85-3.22,35.74,15.77,37.84,21.11,2.33,20.84,13.83,37.65,24.24,16.52,10.23,31.13,13.78,47,6.13-22.81-1.93-46.34-12.42-60.85-36.54-19.49-32.42-4.69-73.41,28.82-90.65-13.68,21.3-1.97,28.58,8.83,31.31,12.95,3.28,25.16,11.32,29.95,24.16,5.85,15.76,3.3,32.72,24.55,41.29-40.73-52.4-7.39-112.23,27.15-123.9-13.27,15.16-3.61,41.67,13,49.53,22.31,10.6,35.85,31.85,20.09,54.36,7.22-4.92,12.5-9.41,18.49-18.93,5.99-9.52,12.15-19.51,3.11-35.9-7.55-13.68-22.78-19.02-41.78-7.3-2.96-9.7,2.06-25.41,11.27-32.02,9.2-6.61,21.36-10.25,39.79,.79,25.58,15.32,13.01,35.54,31.49,44.05-.37-11.32-8.1-20.31-10.93-30.91-4.3-16.05,2.01-34.95,18.18-42.81,16.53-8.02,36.93-6.57,50.16-24.64-.97,20.79,18.14,34.83,26.01,51.42,7.71,16.25,.78,34.93-12.62,44.77-8.84,6.5-20.49,8.68-27.85,17.27,19.73,4.92,22.59-18.72,52.11-14.66,21.29,2.94,28.49,13.37,31.54,24.29,3.04,10.92-2.88,26.31-11.26,32.03-7.48-21.04-22.71-26.4-37.15-20.46-17.3,7.13-18.75,18.77-20.04,29.95-1.28,11.18,.02,17.98,2.57,26.34,1.8-27.42,25.65-35.51,49.69-29.82,17.88,4.26,42.01-10.36,41.14-30.51,19.63,30.72,8.19,98.25-56.37,113.63,21.94,6.62,30.56-8.2,45-16.82,11.77-7.03,26.32-5.67,38.48-.11,10.12,4.62,23.82,6.27,26.48-18.89,15.33,34.4,1.23,75.65-34.26,88.73-26.42,9.73-51.34,3.19-70.34-9.58,7.61,15.9,21.22,22.27,40.51,24.63,19.62,2.4,26.62-6.74,44.54,4.66,16.13,10.25,29.64-1.86,35.98-19.66,3.69,33.94-20.34,63.57-50.09,67.36Z"/><path class="cls-1" d="M1330.98,1247.92c-.46-10.91-4.15-24.01-10.29-31.18-4.81,7.3-17.24,12.23-24.35,11.65-8.93-.73-20.64-8.36-24.12-20.84,13.82,8.04,28.02,2.17,33.51-9.56,4.75-10.15,6.19-22.49-5.75-26.2-11.97-3.71-8.6-18.75,3.46-27.44,9.03-6.51,20.22-6.38,30.67,.67-10.34,7.04-17.54,20.52-10.67,30.65,8.09,11.95,22.39,12.04,30.14,8.26,3,7.67,15.01,16.96,28.8,12.69,11.69-3.61,14.23-18.95,10.57-30.91,12.56,1.04,21.37,7.93,24.34,18.66,3.96,14.33-2.82,28.17-14.46,23.57-11.65-4.59-18.25,5.94-20.9,16.84-3.06,12.58,4.34,26.03,20.16,28.42-10.52,7.54-24.42,6.16-31.85,1.14-5.92-3.99-12.52-15.62-11.71-24.31-9.26,1.75-20.34,9.65-27.54,17.87Z"/></g><path class="cls-1" d="M1200.33,1692.04c75.83,10.88,139.75-26.31,179.26-85.73,9.75-14.66,18.14-31.17,24.21-47.71,5.99-16.31,13.14-35.6,13.19-52.84-1.18,17.9-26.17,81.84-60.07,96.19-34.84,14.76-59.59,12.22-80.48,2.94-24.57-10.91-34.75-27.86-52.7-50.56,6.24,7.65-2.15,19.45-2.03,30.24,.13,10.24,3.07,18.32,8.38,27.31,7.44,12.61,24.98,23.59,39.81,23.02-34.52,5.29-66.92-11.14-81.71-42.79-5.64-12.08-12.77-29.04-27.92-17.07-13.53,10.7-13.73,29.6-9.21,44.59-7.61-16.36-8.47-35.92-18.58-50.66-9.33-13.58-25.5-28.11-8.37-43.35-37-.64-56.63,26.78-47.19,61.93-6.78-25.28-26.76-65.92-1.32-87.29,9.45-7.93,51.54-16.79,51.9,4.04,22.89-19.96-7.53-66.54-34.33-63.13,13.3-7.84,44.61-6.16,59.02-1.06,7.39,2.62,13.57,7.6,14.8,15.7,.55,3.6-3.02,19.66-7.95,19.55,21.12,.46,36.7-18.8,39.37-38.44,3.37-24.79-12.29-41.14-27.06-58.86-27.96-33.54-57.19-51.2-114.98-37.67-23.14,5.42-53.38,27.16-62.71,47.95-15.99-68.86-33.7-65.02-78.69-87.3,13.52,33.2,6.15,49.19,4.92,79.92-.96,23.95,14.91,31.45,19.48,52.82-13.26-15.58-35.02-12.36-50.2-1.37,25.48,.3,17.63,36.91,18.88,53.3,2.38,31.24,24.67,49.4,48.06,66.86-40.63-13.17-53.16,20.01-62.65,53.25,32.94-3.28,36.22,14.7,60.61,30.71,26.55,17.39,53.78,14.7,88.06,17.59,16.08,1.36,31.51,.45,45.66,9.1-14.11-1.1-26.27-.6-38.21,6.35-11.33,6.62-16.63,27.19-26.94,33.36,17.03,2.15,32.65,9.84,46.16,19.54,18.93,13.6,47.26,17.87,75.14,7.86,25.96-9.33,44.35-16.03,78.91-21.9,19.93-3.38,32.85-4.39,53.36-10.27-13.96,8.18-21.92,37.14-9.97,59.06,7.37,13.51,19.35,16.88,31.07,16.97,11.71,.1,20.75-5.48,30.01-11.96-25.58,1.96-19.19-33.99-9.16-48.14,15.41-21.74,33.26-33.88,48.92-54.78,17.28-23.08,32.31-47.65,41.04-75.31,7.38-23.33,9.62-36.96,10.32-63.24-12.07,58.48-48.87,127.52-112.6,161.18-3.47,1.84-23.29,27.83-21.41,53.09,.76,9.96,9.35,23.82,23.78,27.43-17.09-.59-26.54-14.95-28.25-24.32-4.67-25.54,18.91-54.74,15.25-53.14-11.69,5.12-24.07,9.02-37.08,11.49-30.64,5.82-45.81,5.31-69.54,1.37-3.53-.59-92.56-15.93-130.85-3.29,37.31-15.71,76.91-8.1,100.39-8.05-20.03-7.31-41-19.18-53.43-27.84-26.28-18.32-36.1-30.61-53.93-42.1-45.94-25.11-63.69-34.67-95.18-30.88,28.4-12.97,78.49,10.01,87.74,15.58-31.09-30.26-85.09-59.07-110.28-131.18,31.9,60.15,71.22,95.29,99.85,109.96-13.44-20.97-76.11-88.77-48.63-167.19-9.72,62.29,17.13,101.9,41.76,142.15-22.5-61.88,22.74-192.05,128.32-149.77-100.41-33.41-141.23,83.33-117.76,152.5,22.44,66.16,87.89,123.36,163.73,134.25Z"/><path class="cls-1" d="M1397.45,1554.07c-16.3,40.5-58.49,55.98-87.76,53.25-42.19-3.96-72.47-34.61-85.22-72.59-5.99-17.87-3.73-30.8,6.66-46.43,.92,10.05,8.16,18.35,18.01,20.1,1.87,.33-3.35-15.13-2.84-27.05,.4-9.32,3.56-23.67,9.52-31.4,10.15-13.17,25.78-18.75,40.83-24.34-4.62,4.11-5.48,10.32-6.4,15.66,15.49-10.85,33.94-17.39,53.14-10.59,17.22,6.1,30.98,24.09,21.89,41.29,6.42-12.16-20.01-14.41-29.97-7.85-14.47,9.53-15.39,24.45-25.11,36.9,13.06-16.74,41.61,9.34,32.49,26.44-3.41-5.79-13.29-8.36-19.84-4.31-7.94,4.93-11.29,14.7-9.35,23.41,1.69,7.65,7.65,18.22,21.87,22.42,18.75,5.51,41.64,.96,57.51-10.87-25.26,30.57-69,20.35-87.17,4.95-23.35-19.76-36.65-52.79-11.71-89.15-30,31.62-14.93,77.22,9.17,94.57,23.37,16.82,65.07,29.69,94.29-14.42Z"/><path class="cls-1" d="M1015.8,1356.37c11.34-11.01,20.02-20.52,29.45-31.93,10.07-12.18,16.35-16.17,31.1-24.01,22.95-12.19,59.02-14.29,79.77-33.2-16.14,11.99-69.71,22.85-82.26,28.6-12.71,5.83-22.78,13.25-33.37,25.96-9.01,10.81-19,28.43-31.45,39.5,14.37-18.82,30.41-42.74,36.68-65.47,3.47-12.55,6.94-24.22,16.57-34.35,19.36-20.38,50.66-25.46,74-6.69-6.45-.92-14.75,1.85-15.67,8.76-.95,7.1,11.06,4.96,14.29,4.61,12.91-1.38,26.28-6.92,33.23-12.28-1.25,6.82-5.57,20.58-20.32,30.72-12.37,8.5-37.45,13.56-50.76,18.01-.34-.02-.34-.03,0-.05,7.26,3.05,6.1,10.02,9.81,15.61,2.23,3.37,11.9,12.54,16.61,10.39-11.12,5.09-20.33-1.69-31.29-5.07-11.68-3.6-22.75-2.92-35.65,1.69-6.98,2.49-14.46,9.74-20.75,13.83-4.55,2.96-8.76,7.84-19.98,15.37Z"/><path class="cls-2" d="M1301.64,1881.55c-9.47-11.32-24.48-19.87-35.77-24.32-24.34-9.6-54.44-1.62-75.76-19.43-10.25-8.55-13.22-21.17-10.71-36.58,1.93-11.77,8.72-26.34,17.84-34,2.34,24.67,6.39,54.36,47.95,65.29,18.96,4.99,44.79-2.22,58.71-29-30.76-2.09-42.69-8.37-52.16-17.05-10.88-9.94-12.7-20.41-12.37-33.24,.39-15,7.4-33.16,28.24-47.66-13.09,5.51-27.54,13-37.19,19.56-5.13,5.12-23.87,36.36-6.26,66.54,9.21,15.8,28.32,27.44,56.58,22.22-25.74,12.55-54.47-8.17-60.56-20.59-13.2-25.02-8.59-48.48,.61-61.59-20.85,11.83-53.95,51.99-55.43,80.35-1.75,33.51,7.38,54.39,26.97,69.52h109.31Z"/><path class="cls-2" d="M1182.44,1881.55c-18.81-21.93-23.27-41.57-22.69-67.07,.75-31.76,25.56-60.13,45.25-76.73,12.13-10.22,24.33-18.6,60.51-33.19-40.58,9.43-83.98,33.19-110.51,72.23-23.49,34.58-21.78,66.53-35.03,98.72-.83,2.02-1.69,4.03-2.56,6.05h34.47c.63-3.01,1.59-5.99,2.93-8.89,0,2.81,.15,5.79,.48,8.89h27.15Z"/><path class="cls-2" d="M1108.61,1881.55c19.62-45.76,11.13-73.25,40.07-109.24-13.09,11.63-49.32,54.15-74.46,56.5,21.12-9.67,51.96-46.61,76.4-66.63,16.95-13.86,35.08-31.33,61.2-41.68,19.54-7.73,28.86-10.04,55.99-18.59-34.54,6.32-63.85,14.69-84.5,22.16-25.3,9.16-60.97,33.33-84.64,60.56-32.39,37.3-52.49,50.89-71.91,48.45,5.65,14.69,37.76,31.54,62.96,15.89-4.13,6.76-13.99,22.16-24.95,32.59h43.84Z"/><path class="cls-2" d="M697.47,1881.55c-7.49-21.21-8.12-46.79-.41-74.46,16.09-57.78,63.82-101.3,126.16-120,100.17-30.06,224.75-27.68,245.27-26.74-47.61,1.95-100.51,8.09-127.21,15.59-36.82,10.33-65.62,27.2-81.82,40.98-16.19,13.79-33.09,39.86-27.81,62.65-30.89-9.68-33.42-37.69-14.26-65.67-40.33,29.44-44.57,73.31-25.98,115.37-18.31,3.43-41.7,4.33-51.63-21.38-8.74,13.83-16.53,45.49-9.36,73.65h-32.96Z"/><path class="cls-2" d="M644.87,1881.55c8.6-25.14,21.96-40.31,40.11-54.17-3.3,19.86-1.52,38.26,4.59,54.17h-44.71Z"/><path class="cls-2" d="M602.4,1881.55c1.96-14.9,9.2-28.99,22.61-39.34,.85-.15,.88-.09,.07,.15-15.36-1.76-33.76-5.15-46.56,4.74,9.79-58.86,40.41-70.43,83.34-91.98,.83-.3-5.34-1.38-6.14-1-25.2-.21-51.73-28.28-47.87-58.26,24.39,16.91,44.24,1.03,64.43-10.6,25.59-14.75,43.79,1.99,68.01,2.54-30.54-2.71-48.75-52.23-25.52-71.41,2.87,22.63,23.1,32.78,44.07,29.63,10.34-1.56,19.93-7.85,30.69-7.34,12.14,.56,21.79,7.35,32.81,13.17-13.54-23.36-15.29-59.05,18.2-70.51-1.89,39.59,44.15,47.58,74.99,59.88,23.63,9.44,61.57,11.33,109.03,13.45,14.48,.65,40.43,1.36,53.77,5.61-27.38-1.64-39.9-2.95-54.11-2.18-45.25,2.45-32.15,.11-62.41,1.2-26.16,.94-99.72,10.58-118.23,14.56-46.1,9.88-78.95,31.75-101.12,39.87-29.79,10.92-70.12,21.6-99.79,4.57,26.98,19.6,79.39,11.31,100.1,4.94-30.7,27.78-49.76,60.24-59.66,95.15-19.71,13.61-35.1,37.85-42.7,63.18h-37.99Z"/><path class="cls-1" d="M995.1,1881.55c12.25-14.22,20.52-32.12,22.72-49.44-7.11,21.07-28.64,18.43-38.38,1.6-6.42-11.09-13.32-8.73-23.39-14.15,26.16,7.03,35.24-41.51,12.78-51.93,.98,8.52-7.13,18.74-16.92,19.63-11.87,1.1-20.95-4.84-25.68-15.19-4.16-9.11-4.58-30.61,17.19-54.17,16.92-18.33,40.03-31,105.21-51.12-65.15,11.6-78.63,18.9-95.88,28.36-27.13,14.88-44.24,43.6-48.98,64.65-8.61,38.07,3.22,81.97,56.6,99.89-48.89-8.18-75.58-49.77-63.16-103.81-7.64,3.84-39.65,36.49-26.61,107.59-22.8-85.45,24.08-115.52,30.97-119.71,6.48-15.25,23.73-42.84,49.12-54.15,22.31-9.93,43.32-15.3,110.77-26.48-48.26,.29-88.74,8.51-115.39,16.55-17.95,5.43-54.03,18.58-73,38.24-37.61,38.92-46.53,84.7-30.32,133.23,4.57,13.66,10.78,23.24,19.88,30.43h18.4c-1.04-8.07,1.33-16.35,7.1-22.57,7.79,5.83,11.88,14.31,16.01,22.57h90.95Z"/><g><path class="cls-1" d="M598.64,1302.9c14.62,5.7,41.26-5.13,62.82-6.72,29.86-2.21,51.8,4.98,73.29,21.73,14.41,11.23,30.47,35.06,29.62,54.39-1.17,26.21-8.98,42.58-21.9,55.2-8.57,8.38-31.13,21.24-45.07,5.16-8.38-9.65,.44-21.39,6.85-22.4,7.75-1.21,17.33,5.31,7.39,17.83,17.75,9.74,39.72-19.11,32.77-44.07-6.74-24.22-42.68-36.55-46.88-10.37-15.66-1.44-19.07-14.75-11.96-25.32,4.3-6.36,13.03-10.25,24.25-8.11-8.93-4.55-18.32-9.24-29.36-9.68-14.14-.58-30.16,8.54-36.67,20.87-4.28,8.11-8.2,25.23,2.17,32.53-26.3,7.05-43.85-21.76-23.01-40.21-11.46,3.18-13.66,18.64-25.64,22.39-13.62,4.27-30.78-5.26-42.16-22.46,14.16,11.46,26.86-4.04,34.27-10.9,11.03-10.24,26.45-13.35,41.56-11.43-5.86-.76-28.92-5.99-32.36-18.44h0Z"/><path class="cls-1" d="M532.32,1415c12.04,10.08,15.38,38.64,24.36,58.3,12.46,27.23,29.31,43,54.34,53.77,16.78,7.23,45.42,9.83,61.94-.21,22.41-13.64,32.99-28.38,37.82-45.77,3.24-11.56,3.63-37.51-17.16-42.01-12.5-2.69-18.54,10.7-16.33,16.8,2.67,7.38,13,12.63,19.18-2.09,17.1,10.85,2.39,44-22.83,49.94-24.47,5.74-52.59-19.82-31.65-36.11-8.81-13.03-22.13-9.62-27.95,1.71-3.52,6.84-2.73,16.34,4.56,25.16-8.28-5.65-16.55-15.44-22.26-24.89-7.3-12.12-6.33-26.09,.28-38.38,5.23-9.77,18.15-19.34,29.55-13.76-6.49-26.45-40.18-27.96-46.32-.78-2.72-11.59,9.76-20.95,7.28-33.28-2.82-13.98-19.41-24.42-39.98-26.12,16.87,6.89,9.39,25.48,6.94,35.28-3.65,14.61,1.05,29.63,9.99,41.93-3.48-4.79-19.17-22.46-31.74-19.5Z"/><path class="cls-1" d="M712.26,1446.17c4.36,5.86,6.56,18.04,4.96,29-1.11,7.51-4.67,18.67-11.29,26.92,19.84,.73,29.74-25.39,26.88-33.35,2.91,6.95,6.35,15.36,19.63,20.33,14.92,5.58,33.29,.77,54.93,13.38-21.48-12.89-26.1-31.3-38.17-41.7-10.75-9.26-22.66-6.11-27.27-7.42,8.35-1.32,26.47-22.58,16.28-39.62-4.03,9.77-12.1,18.27-18.15,22.85-8.82,6.69-20.57,10.64-27.8,9.62Z"/><path class="cls-1" d="M747.54,1202.53c-33.76,21.68-42.81,69.4-22.05,99.03-7-5.87-11.51-10.5-14.64-18.04-3.65-8.76-3.83-19.67-.94-28.68,3.31-10.24,8.25-19.35,3.91-30.25-3.25-8.18-10.17-12.55-14.56-19.87-4.36-7.24-9.93-20.16-2.33-27.26-18.36,7.36-38.08,25.45-38.7,46.88-.57,20.08,22.02,33.18,16.35,53.68-7.99-11.17-16.55-22.85-30.13-27.39-7.4-2.47-31.37-3.57-30.33-12.36-16.45,19.02-7.28,44.15,17.91,47.35-19.65,12.4-74.98-2.71-55.18-37.19,7.43-12.93,22.92-8.49,31.1-19.39,10.28-13.72,3.28-26.43-7.14-35.95,1.78,10.2,4.29,18.19-6.9,24.94-11.19,6.74-33.46,7.94-32.78,29.13-4.57-11.16-4.84-23.75,3.82-28.8-21.48,6.81-40.98,42.44-27.61,70.99,5.42,11.56,15.5,20.84,26.99,26.24,10.01,4.7,33.13,8.11,43.17,1.1-7.96-3.34-14.53-11.96-17.66-19.07,8.63,2.54,19.49,2.46,28.64,1.55,13.04-1.29,26.81-4.86,39.47-8.18-6.85-4.04-11.81-6.08-19.1-11.72-12.58-9.73-15.59-17.32-20.09-24.29,10.45,13.56,26.37,26.46,48.25,36.33,11.37,.57,24.44,.6,40.39,7.49-12.33-10.4-19.84-24.63-24.68-37.4-6-15.87-6.51-38.96,1.1-56.01-6.04,21.66,1.08,45.41,3.79,53.97,4.21,13.27,14.58,28.69,28.09,40.3,6.84,3.76,10.94,6.2,18.54,13.15-3.3-5.97-12.12-40.47,3.31-67.02,15.74-27.13,36.33-33.32,48.83-31.69-21.63,3.43-37.11,17.06-44.74,31.02-7.64,13.96-12,45.26-2.22,68.3,4.58,5.79,8.33,9.85,11.37,14.11,5.55-16.92,24.92-38.71,43.79-48.01,18.88-9.3,37.41-8.05,49.55-1.48-25.33-8.21-41.07,1.3-50.6,6.41-15.32,8.17-34.46,30.11-39.9,46.59,6.44,7.81,13.59,24.81,15.03,36.82,8.61-3.86,18.65-8.56,42.09-10.57,17.23-1.46,45.58,6.98,57.36,16.49-9.84-6.33-39.12-12.31-54.43-11.54-20.92,1.04-39,9.54-43.65,11.88-1.39,9.14-2.65,19.32-3.64,31.56-.89,11.1-1.04,24.75,4.79,40.94,19.13,7.32,45.63,14,65.57-1.14-16.53,18.67-46.63,13.84-63.21,8.85,8.95,17.53,34.45,40.88,48.39,51.36,13.94,10.49,41.63,27.53,49.63,34.58-9.69-5.15-29-16.58-52.84-27.21-23.84-10.62-49.77-18.32-69.43-17.73,12.34,12.13,31.06,36.18,22.66,59.68,3.67-24.79-14.94-44.78-30.57-58.02-16.99,2.69-28.89,9.39-38.18,15.51-10.27,6.76-18.56,12.77-25.92,18.38,.2,5.19,1.44,25.14,10.6,43.98,6.72,13.82,26.05,36.57,36.33,42.16-14-5.75-35.05-26.53-42.05-42.35-9.54-21.51-10.26-32.55-11.01-41.98-11.22,4.52-29.55,6.45-39.5,4.56-11.84,12.72-21.85,40.04-21.64,57.41,.12,10.82-.63,29.19,18.74,47.44-11.6-7.47-21.61-23.11-22.55-44.13-.95-21.03,8.83-48.49,20.98-61.5-5.2-.61-10.55-1.94-17.84-3.16-24.9,2.51-50.25,21.41-58.79,34.83-8.55,13.42-13.06,33.53-5.65,54.15-7.44-10.17-11.93-31.2,4.26-58.06,15.86-26.31,50.34-35.18,57.16-35.16-9.75-3.31-13.86-5.75-20.46-9.92-16.67-6.25-35.18-7.92-48.84-5.21-8.82,1.75-33.05,6.93-49.14,22.68,11.28-14.89,31.77-25.57,48.56-27.94,13.52-1.91,29.63-2.18,44.66,3.62-13.73-10.68-20.05-22.1-26.01-31.8-19.18-14.44-38.15-22.17-55.07-24.8,8.27,.58,16.37-.44,30.96,5.92,8.46,3.67,12.62,7.04,19.47,11.09-3.2-12.7-6.69-26.47-11.83-38.53-3.62-8.47-8.78-18.01-15.16-24.37,7.75-.66,18.45,.96,25.22,6.3,1.3-12.17-12.82-30.8-21.76-37.31-10.25-7.47-23.25-11.83-35.99-11.02-31.46,2.03-53.31,36.29-48.92,58.38,.25-10,11.43-15.83,23.4-17.2-18.9,9.6-9.22,29.7-9.75,42.75-.52,13.04-8.73,14.7-18.52,18.05,13.36,4.55,27.88,4.58,34.94-11.05,5.62-12.42-5.73-23.87,2.02-36.6,20.69-33.95,60.56,7.27,59.16,30.46-14.95-20.55-41.38-16.48-50.13,7.09,7.21-5.14,19.72,15.34,25.45,20.64,10.51,9.72,24.87,11.6,38.5,13.22-15.24,14.86-37.59,1.35-54.92,11.53-18.47,10.85-24.84,36.85-22.44,56.49,2.56-10.09,16.57-11.41,25.02-11.07,8.52,.32,15.68,4.28,24.41,3.21,11.64-1.46,17.24-10.17,24.64-18.01,6.48-6.87,16.14-11.97,25.58-12.99,8.1-.88,14.34,.83,22.86,4.15-35.97-3.91-73.43,26.97-76.19,67-2.05,29.91,22.31,59.25,56.32,62.26-16.21-9.69-25.46-25.3-12.26-39.12,14.67-15.36,7.07-23.98,13.24-42.77,6.08-18.46,14.98-30.57,32.05-34.93-16.23,16.15-27.5,39.32-23.1,67.12,5.91,37.37,43.61,59.24,80.35,50.89-24.17-7.51-19.88-20.62-13.36-29.66,7.81-10.85,11.98-24.84,7.4-37.76-5.65-15.83-18.51-27.17-7.76-47.41,2.51,66.31,66.51,90.7,100.47,77.42-19.91-3.07-29.56-29.6-21.89-46.29,10.28-22.46,6.97-47.45-19.57-54.55,8.69-.88,15.62-.83,26.33,2.61,10.71,3.44,21.85,7.13,25.46,25.49,3.02,15.33-5.21,29.21-27.31,32.46,3.97,9.33,17.92,18.13,29.22,17.28,11.3-.86,22.95-5.89,29.97-26.19,9.74-28.18-12.88-35.59-4.21-53.99,7.01,8.9,6.86,20.76,11.51,30.69,7.03,15.05,24.02,25.48,41.46,21.1,17.81-4.49,32.5-18.72,54.25-13.39-14.11-15.3-8.5-38.34-13.14-56.1-4.53-17.4-21.87-27.25-38.45-26.17-10.95,.72-21.27,6.53-32.44,4.69,11.94-16.45,29.33-.18,49.33-22.29,14.41-15.94,13.22-28.56,8.53-38.88-4.68-10.32-19.12-18.3-29.21-17.29,7.8,20.93-.41,34.83-15.3,39.57-17.84,5.66-26.44-2.32-34.6-10.05-8.17-7.74-11.55-13.78-14.97-21.83,19,19.84,42.48,10.7,57.23-9.12,10.95-14.75,38.82-19.08,51.12-3.09-4.73-36.15-56.91-80.52-116.24-50.78,12.55-19.17,28.68-13.36,45.28-16.04,13.54-2.18,23.8-12.59,29.54-24.67,4.78-10.05,14.2-20.11,32.42-2.55-10.38-36.2-47.7-58.72-83.29-45.92-26.49,9.53-41.36,30.57-47.71,52.57-4.39-17.07,1.93-30.7,15.19-44.92,13.48-14.45,24.72-11.95,31.11-32.21,5.76-18.22,23.9-17.63,40.2-8.08-19-28.36-56.45-35.6-81.67-19.38Z"/><path class="cls-1" d="M553.1,1352.26c-21.08-7.28-66.9-14.11-77.97-44.3,31.59-5.94,62.11,31.38,77.97,44.3Z"/><path class="cls-1" d="M554.42,1341.29c-12.77-11.92-45.16-30.64-38.3-57.95,27.81,4.4,32.52,43.05,38.3,57.95Z"/><path class="cls-1" d="M544.38,1359.79c-17.36,2-52.6,14.53-68.96-8.38,21.37-18.33,53.85,3.12,68.96,8.38Z"/><path class="cls-1" d="M626.4,1395.05c6.66,8.65,12.26,21.06,12.17,30.49-8.37-2.5-21.07,1.72-26.14,6.73-6.37,6.3-10.43,19.68-5.07,31.47,5.42-15.05,20.06-19.68,31.81-14.23,10.16,4.72,19.2,13.24,12.44,23.77-6.78,10.54,5.48,19.89,20.29,18.79,11.11-.83,19.59-8.12,23.06-20.23-12.44,1.26-26.63-4.43-27.88-16.62-1.49-14.35,9.41-23.62,17.76-25.7-2.64-7.8,.59-22.64,13.9-28.24,11.27-4.76,23.07,5.37,27.97,16.87,8.94-8.88,11.27-19.82,6.63-29.94-6.18-13.52-20.27-19.77-26.23-8.76-5.97,11-17.8,7.19-26.83,.55-10.43-7.67-13.41-22.73-2.84-34.73-12.91,.99-22.67,10.99-25.13,19.6-1.97,6.86,.45,20.01,6.67,26.15-8.22,4.63-21.78,5.69-32.58,4.03Z"/></g><path class="cls-1" d="M281.33,804.14c-84.91,11.3-155.95-30.99-199.43-97.87-10.74-16.5-19.93-35.06-26.52-53.63-6.51-18.3-14.29-39.94-14.14-59.22,1.12,20.02,28.33,91.79,66.07,108.23,38.78,16.89,66.48,14.33,89.94,4.19,27.59-11.92,39.17-30.75,59.49-55.93-7.06,8.49,2.19,21.77,1.92,33.83-.26,11.45-3.64,20.45-9.67,30.43-8.46,14.01-28.19,26.09-44.76,25.29,38.53,6.3,74.93-11.69,91.83-46.91,6.44-13.43,14.61-32.31,31.4-18.76,15.01,12.11,15.03,33.25,9.79,49.94,8.69-18.18,9.88-40.05,21.35-56.41,10.58-15.07,28.83-31.14,9.84-48.37,41.37-.29,63.01,30.59,52.06,69.78,11.99-30.68,19.58-60.6,8.5-93.83-11.49-34.46-62.54-75.3-95.73-33.18-2.55-34.46,43.08-40.36,57.74-39.68-13.78-12.11-43.05-21.45-66.67-11.37-18.46,7.88-34.15,29.19-31.91,59.99-35.73-46.45-30.11-88.37-5.1-113.6,28.59-28.84,82.21-36.93,122.61-23.84-16.36-26.8-18.56-56.67,10.27-76.22-2.03,52.72,71.21,54.47,72.42,103.67-.49-21.03,10.13-54.1,30.57-63.96,2.7,33.18,27.9,33.84,46.62,55.97,17.31,20.48,11.54,41.88,6.19,65.71,15.01-17.26,39.3-13.42,56.15-.96-28.49,.04-20.14,41.06-21.71,59.37-3.01,34.89-28.15,54.94-54.49,74.2,45.58-14.26,59.2,22.97,69.44,60.24-36.78-4.04-40.65,16.03-68.11,33.64-29.87,19.15-60.3,15.83-98.65,18.67-17.99,1.34-35.24,.14-51.15,9.65,15.79-1.07,29.39-.37,42.65,7.54,12.61,7.53,18.29,30.58,29.75,37.6-19.07,2.22-36.62,10.63-51.84,21.33-21.32,14.99-53.03,19.44-84.09,7.93-28.92-10.72-49.41-18.42-87.99-25.38-22.24-4.01-36.67-5.28-59.52-12.08,15.51,9.29,24.08,41.77,10.47,66.13-8.39,15.01-21.81,18.65-34.92,18.62-13.1-.03-23.15-6.37-33.42-13.71,28.57,2.48,21.84-37.78,10.79-53.72-16.98-24.48-36.8-38.26-54.07-61.8-19.05-26-35.57-53.64-45.02-84.65-7.98-26.17-10.31-41.43-10.81-70.82,12.82,65.51,53.18,143.11,124.03,181.47,3.87,2.09,25.74,31.38,23.34,59.59-.95,11.13-10.72,26.52-26.9,30.39,19.1-.47,29.84-16.42,31.86-26.85,5.51-28.5-20.53-61.42-16.44-59.58,13,5.85,26.8,10.35,41.32,13.26,34.19,6.85,51.15,6.46,77.72,2.33,3.95-.62,103.66-16.75,146.33-2.17-41.53-17.99-85.9-9.93-112.14-10.15,22.48-7.95,46.05-20.96,60.05-30.51,29.58-20.18,40.69-33.81,60.77-46.45,51.65-27.55,71.59-38.04,106.76-33.44-31.61-14.82-87.86,10.29-98.26,16.43,35.09-33.48,95.79-65.08,124.78-145.4-36.35,66.88-80.71,105.72-112.88,121.79,15.27-23.29,86.1-98.37,56.27-186.35,10.17,69.74-20.31,113.71-48.3,158.44,25.86-68.92-23.24-214.97-141.76-168.89,112.64-36.22,156.94,94.76,129.92,171.82-25.84,73.69-99.67,136.91-184.57,148.22Z"/><path class="cls-1" d="M62.52,647.66c17.76,45.46,64.76,63.25,97.49,60.52,47.22-3.95,81.42-37.86,96.1-80.18,6.91-19.91,4.53-34.38-6.91-51.98-1.15,11.22-9.34,20.42-20.36,22.26-3.72-13.28,3.03-26.23,2.66-38.85-.48-15.83-11.55-26.44-25.97-31.77-27.08-9.99-61.45,.33-81.01,19.97,16.2-10.81,29.72,2.52,27.48,19.39-1.47,11.12,4.57,13.17,8.67,22.32-14.41-18.86-46.62,9.96-36.62,29.19,3.88-6.44,14.95-9.2,22.23-4.59,8.82,5.59,12.45,16.57,10.19,26.27-1.97,8.53-8.76,20.29-24.71,24.81-21.02,5.95-46.56,.6-64.17-12.8,27.89,34.46,76.91,23.53,97.41,6.53,26.32-21.82,41.57-58.59,14.11-99.53,33.18,35.69,15.81,86.49-11.33,105.62-26.32,18.53-73.08,32.45-105.25-17.19Z"/><path class="cls-2" d="M299.99,840.14c28.19,10.53,67.78,37.95,93.93,68.68,35.8,42.07,58.11,57.49,79.86,54.98-6.48,16.34-42.58,34.81-70.57,17.04,6.28,10.53,24.73,39.8,41.88,47.01,17.15,7.21,31.04,6.39,45.72-9.6,7.75,30.54-11.67,46.1-28.16,49.37,11.67,12.32,42.08,30.88,69.06,32.99,26.97,2.09,72.81-13.92,82.27-55.45,38.55,34.26,5.53,90.97-22.97,100.73,15.88,.55,19.74,12.94,31.68,19.54-34.69,6.17-90.37,66.23-127.96,4.89-10.76,16.69,16.91,38.16,22,56.34-17.06-7.09-47.24-4.73-72.3-23.42-19.74-14.7-39.58-36.52-34.28-62.42-15.81,11.07-16.04,43.99-8.1,61.85-19.59-12.89-46.77-36.88-46.98-65.5-.14-18.06,6.05-31.28,.03-49.12,.08-1.09,.12-1.09,.12-.02-6.16,20.15-32.48,31.94-53.74,20.62,7.07,3.77,17.73-23.54,18.23-27.53,1.11-8.95,23.78-44.98,10.46-74.54-.17,28.75-16.52,72.7-47.91,93.43-17.08,11.29-31.39,19.4-52.19,17.02-25.68-2.93-55.18-19.26-59.16-45.81,13.56,9.43,37.46,13.24,50.58-9.33-22.01,15.85-58.25,7.19-72.16-21.89-9.95-20.78-6.31-54.83,32.64-70.51-6.83,18.82,1.4,33.13,19.01,22.71,15.34-9.07,24.48-19.38,43.77-17.37,17.96,1.86,30.29,5.54,46.36-7.61,11.55-9.45,15.01-23.52,12.38-40.78-2.01-13.17-9.45-29.55-19.54-38.22-2.9,27.55-7.76,60.7-54.35,72.45-21.26,5.36-50.05-2.98-65.31-33.08,34.42-1.99,47.83-8.89,58.51-18.47,12.28-11,14.44-22.68,14.2-37.02-.27-16.77-7.88-37.15-31.02-53.61,14.57,6.3,30.64,14.83,41.35,22.29,5.67,5.79,26.28,40.92,6.25,74.46-10.48,17.56-31.98,30.36-63.51,24.19,28.64,14.33,60.99-8.51,67.95-22.33,15.03-27.82,10.14-54.09,.01-68.87,23.18,13.47,59.72,58.74,61.05,90.46,1.92,45.79-14.1,70.32-47.32,87.62-23.79,12.39-59.11,10.27-92.11-13.92,23.4,27.27,70.83,35.91,107.2,11.93-1.52,15.24-18,66.59-78.84,69.34,68.47,2.54,85.79-61.84,86.38-72.21,25.3-26.44,31.32-49.41,30.93-79.95-.46-35.51-27.89-67.53-49.72-86.3-13.44-11.56-26.99-21.07-67.25-37.79,45.26,11.01,93.49,38.06,122.7,82.01,25.87,38.92,23.59,74.61,38.03,110.76,21.98,55.04,69.35,108.64,128.16,123.89,50.08,12.99,85.16-8.57,101.68-25.27-23.29,23-71.87,31.15-104.62,18.46-27.79-10.77-80.46-42.08-107.95-99.85-27.5-57.76-14.16-89.71-48.19-132.93,14.5,13.16,54.54,61.11,82.61,64.01-23.5-11.05-57.56-52.7-84.66-75.36-18.78-15.68-38.86-35.42-67.94-47.28-21.75-8.87-32.15-11.55-62.38-21.43,38.54,7.46,71.22,17.15,94.22,25.73Z"/><path class="cls-2" d="M429.08,770.24c53.19,2.71,112.27,10.19,142.03,18.87,41.05,11.98,73.06,31.16,91,46.75,17.95,15.6,36.54,44.93,30.38,70.36,34.65-10.47,37.79-41.76,16.68-73.26,44.75,33.38,48.99,82.47,27.73,129.28,20.42,4.04,46.57,5.31,57.97-23.32-.54,1.34,5.91,12.65,6.61,14.67,7.44,21.52,.57,46.29-17.56,60.07-24.29,18.46-41.82,10.98-65.74-.88-5.97,21.99,11.87,34.3,32.09,33.86-27.21,25.64-63.96,22.61-83.24-8.59-9.86,10-2.37,37.17,3.86,48.17,14.8,26.12,47.61,33.6,74.86,26.22-6.88,20.46-24.43,42.71-48.27,48.7,39.84,15.7,101.01,3.58,136.44-27.77,28.35-25.08,41.05-53.13,37.78-89.71,16.13,16.89,17.76,45.03,4.51,68.07,68.18-7.69,96.6-93.71,46.59-133.16-.95-.18-.98-.11-.09,.16,17.19-1.8,37.81-5.38,52,5.83-10.27-65.91-44.36-79.19-92.12-103.77-.92-.34,5.99-1.47,6.87-1.05,28.19,.04,58.15-31.03,54.19-64.58-27.47,18.62-49.48,.65-71.91-12.59-28.44-16.77-48.98,1.73-76.08,2.07,34.18-2.68,55.11-57.84,29.35-79.54-3.46,25.25-26.2,36.38-49.61,32.61-11.54-1.86-22.18-9-34.23-8.56-13.57,.5-24.44,7.98-36.84,14.35,15.41-25.96,17.78-65.84-19.55-79.03,1.67,44.29-49.89,52.69-84.51,66.09-26.52,10.28-68.96,11.95-122.04,13.79-16.2,.55-45.21,1.06-60.17,5.66,30.62-1.52,44.64-2.85,60.52-1.82,50.56,3.25,35.94,.48,69.76,2.05,29.23,1.35,111.36,12.98,132,17.62,51.44,11.58,87.9,36.38,112.6,45.73,33.17,12.54,78.14,24.94,111.51,6.24-30.38,21.61-88.87,11.74-111.96,4.38,34,31.4,54.95,67.92,65.63,107.05,34.72,24.52,57.01,78.86,51.64,120.19-6.08-60.64-24.1-86.94-53.88-110.14,9.64,61.77-35.6,118.6-95,129.96,59.36-14.32,100.92-81.11,81.73-152.78-17.34-64.78-70.2-113.97-139.69-135.59-111.63-34.73-250.94-33.49-273.88-32.67Z"/><path class="cls-1" d="M560.44,804.24c-24.83-11.36-48.26-17.6-123.54-30.86,53.96,.86,99.14,10.52,128.81,19.82,20.01,6.26,60.18,21.38,81.18,43.56,41.6,43.94,51.05,95.22,32.37,149.29-8.78,25.44-22.6,38.09-47.96,46.7,7.7-12.17,6.74-27.86-2.86-38.42-14.22,10.42-17.66,28.75-28,41.1-12.98,15.51-32.47,17.42-51.14,11.38-35.07-11.34-61.42-48.84-65.54-84,7.72,23.64,31.82,20.93,42.89,2.23,7.3-12.33,14.99-9.61,26.31-15.56-29.34,7.55-38.92-46.81-13.71-58.21-1.19,9.52,7.75,21.03,18.7,22.15,13.26,1.35,23.48-5.18,28.88-16.7,4.75-10.14,5.47-34.16-18.6-60.75-18.71-20.68-44.4-35.11-117.03-58.34,72.7,13.71,87.68,22.03,106.87,32.79,30.16,16.94,48.96,49.24,54.03,72.82,9.19,42.68-4.54,91.62-64.42,111.03,54.76-8.58,85.07-54.77,71.79-115.33,8.5,4.38,43.92,41.25,28.52,120.58,26.47-95.27-25.61-129.43-33.25-134.19-7.07-17.12-26.04-48.17-54.3-61.09Z"/><g><path class="cls-1" d="M946.6,369.46c-16.53,5.88-45.94-7.12-69.98-9.62-33.29-3.47-58.05,3.82-82.64,21.81-16.48,12.07-35.23,38.17-34.93,59.79,.41,29.34,8.6,47.88,22.61,62.42,9.3,9.66,34.07,24.78,50.2,7.29,9.69-10.5,.23-23.93-6.91-25.27-8.62-1.61-19.55,5.35-8.86,19.67-20.17,10.3-43.74-22.68-35.14-50.35,8.35-26.83,48.92-39.41,52.73-10,17.55-1.08,21.81-15.85,14.22-27.89-4.59-7.27-14.2-11.9-26.81-9.88,10.13-4.78,20.78-9.71,33.12-9.83,15.82-.17,33.43,10.55,40.28,24.56,4.5,9.2,8.31,28.46-3.53,36.27,29.15,8.76,49.74-22.83,27.06-44.16,12.7,3.95,14.63,21.29,27.91,25.89,15.08,5.23,34.56-4.84,47.86-23.68-16.21,12.33-29.87-5.41-37.93-13.35-11.99-11.81-29.12-15.8-46.06-14.17,6.58-.63,32.53-5.72,36.79-19.51h0Z"/><path class="cls-1" d="M995.83,426.15c23.8-7.43,75.23-13.51,88.62-46.88-35.11-7.7-70.46,32.98-88.62,46.88Z"/><path class="cls-1" d="M994.72,413.85c14.67-12.9,51.49-32.73,44.75-63.48-31.23,3.98-37.78,47.01-44.75,63.48Z"/><path class="cls-1" d="M1005.32,434.86c19.34,2.81,58.29,18.01,77.35-7.05-23.27-21.2-60.29,1.69-77.35,7.05Z"/><path class="cls-1" d="M1016.94,496.96c-13.79,10.86-18.49,42.66-29.18,64.34-14.84,30.01-34.21,47.06-62.53,58.26-18.99,7.51-51.08,9.45-69.21-2.34-24.58-16-35.91-32.82-40.73-52.42-3.22-13.02-2.79-42.04,20.6-46.36,14.05-2.59,20.35,12.58,17.68,19.32-3.23,8.16-14.95,13.67-21.36-2.99-19.48,11.57-4.16,49.1,23.84,56.58,27.14,7.24,59.42-20.37,36.58-39.28,10.28-14.26,25.05-10,31.17,2.85,3.71,7.76,2.5,18.36-5.94,27.96,9.45-6.02,19.02-16.68,25.72-27.05,8.57-13.31,7.94-28.95,.98-42.91-5.53-11.09-19.64-22.21-32.56-16.37,8.14-29.34,45.83-29.89,51.79,.68,3.43-12.86-10.21-23.73-7.02-37.42,3.62-15.54,22.53-26.65,45.56-27.85-19.07,7.14-11.34,28.16-8.94,39.2,3.59,16.44-2.17,33.06-12.57,46.52,4.04-5.22,22.17-24.45,36.12-20.72Z"/><path class="cls-1" d="M814.81,525.74c-5.07,6.4-7.94,19.95-6.51,32.24,.98,8.43,4.59,21.02,11.71,30.46-22.2,.14-32.39-29.38-28.92-38.18-3.5,7.69-7.62,16.96-22.63,22.06-16.87,5.73-37.23-.26-61.84,13.1,24.43-13.68,30.22-34.09,44.07-45.3,12.32-9.99,25.52-6.06,30.73-7.37-9.29-1.76-28.83-26.13-16.87-44.83,4.19,11.05,12.91,20.83,19.52,26.15,9.63,7.77,22.63,12.56,30.74,11.69Z"/><path class="cls-1" d="M783.59,252.28c37,25.37,45.49,78.99,21.3,111.4,8.03-6.32,13.22-11.35,16.98-19.65,4.37-9.67,4.94-21.87,2.01-32.02-3.35-11.56-8.57-21.92-3.35-33.94,3.91-9.03,11.78-13.69,16.94-21.71,5.12-7.94,11.79-22.19,3.53-30.37,20.27,8.84,41.7,29.72,41.67,53.68-.04,22.47-25.72,36.34-20.08,59.44,9.31-12.21,19.27-24.97,34.59-29.59,8.36-2.52,35.17-2.93,34.32-12.79,17.73,21.81,6.65,49.58-21.61,52.32,21.55,14.52,83.89-.5,62.91-39.7-7.86-14.69-25.32-10.25-34.1-22.71-11.03-15.69-2.78-29.65,9.2-39.94-2.33,11.34-5.41,20.19,6.87,28.1,12.27,7.91,37.13,9.99,35.65,33.65,5.48-12.32,6.21-26.38-3.29-32.31,23.78,8.33,44.37,48.81,28.46,80.26-6.44,12.73-18.02,22.76-31.04,28.41-11.34,4.92-37.29,7.94-48.28-.22,9-3.47,16.63-12.88,20.38-20.72-9.73,2.54-21.86,2.08-32.06,.76-14.53-1.87-29.79-6.33-43.83-10.46,7.79-4.29,13.4-6.39,21.75-12.45,14.39-10.46,18-18.83,23.27-26.47-12.13,14.81-30.35,28.69-55.14,38.98-12.72,.25-27.33-.16-45.39,7.01,14.13-11.2,23.01-26.85,28.84-40.96,7.25-17.53,8.6-43.33,.66-62.64,6.03,24.41-2.73,50.71-6.06,60.19-5.15,14.68-17.25,31.58-32.74,44.09-7.77,3.98-12.44,6.55-21.15,14.07,3.88-6.56,14.9-44.81-1.45-75.01-16.68-30.84-39.48-38.46-53.5-37.06,24.07,4.57,40.89,20.32,48.96,36.18,8.07,15.85,11.88,50.98,.18,76.4-5.32,6.31-9.65,10.73-13.18,15.39-5.62-19.09-26.54-44.1-47.33-55.12-20.78-11.02-41.53-10.26-55.31-3.33,28.58-8.32,45.85,2.84,56.33,8.86,16.84,9.66,37.49,34.82,43.02,53.43-7.47,8.51-16.02,27.26-18.04,40.63-9.5-4.61-20.55-10.19-46.68-13.22-19.2-2.23-51.17,6.26-64.65,16.48,11.21-6.74,44.12-12.44,61.21-11.07,23.34,1.88,43.27,11.99,48.38,14.75,1.24,10.26,2.32,21.67,3.01,35.39,.61,12.43,.32,27.69-6.74,45.58-21.62,7.54-51.45,14.12-73.23-3.48,17.85,21.42,51.64,17.05,70.35,12.03-10.6,19.29-39.87,44.52-55.8,55.76-15.93,11.25-47.46,29.36-56.63,36.97,11.01-5.42,32.97-17.54,59.96-28.62,27-11.07,56.23-18.79,78.19-17.47-14.21,13.15-35.94,39.39-27.34,65.93-3.27-27.82,18.2-49.54,36.12-63.82,18.9,3.58,31.96,11.47,42.14,18.62,11.24,7.9,20.31,14.9,28.34,21.42-.39,5.79-2.46,28.05-13.33,48.79-7.97,15.21-30.33,39.98-42.02,45.89,15.83-5.95,40.07-28.48,48.43-45.9,11.38-23.72,12.55-36.04,13.72-46.55,12.38,5.43,32.8,8.2,43.98,6.42,12.8,14.61,23.06,45.49,22.25,64.89-.51,12.08-.28,32.65-22.55,52.38,13.21-7.97,24.92-25.1,26.69-48.57,1.76-23.47-8.24-54.49-21.38-69.44,5.81-.5,11.86-1.81,20.04-2.93,27.74,3.65,55.43,25.61,64.53,40.9,9.11,15.28,13.47,37.92,4.49,60.71,8.67-11.12,14.38-34.47-2.8-65.03-16.84-29.93-55.07-41.01-62.69-41.23,11-3.37,15.67-5.94,23.19-10.39,18.85-6.42,39.59-7.65,54.76-4.18,9.79,2.25,36.7,8.87,54.15,26.99-12.11-17.01-34.64-29.64-53.33-32.86-15.06-2.59-33.03-3.44-50.03,2.55,15.69-11.46,23.13-24.02,30.13-34.66,21.92-15.48,43.37-23.49,62.38-25.85-9.26,.37-18.27-1.04-34.8,5.57-9.57,3.82-14.35,7.45-22.12,11.74,3.99-14.08,8.36-29.35,14.52-42.66,4.33-9.33,10.4-19.83,17.75-26.71-8.64-1-20.66,.44-28.41,6.19-1.03-13.65,15.37-33.99,25.58-40.96,11.71-8,26.37-12.44,40.58-11.1,35.09,3.32,58.35,42.33,52.72,66.89,.05-11.19-12.24-18.08-25.57-20.01,20.8,11.36,9.31,33.51,9.45,48.11,.15,14.59,9.27,16.71,20.11,20.79-15.09,4.63-31.31,4.17-38.69-13.52-5.87-14.08,7.2-26.48-1.03-40.97-21.98-38.64-67.93,6.08-67.15,32.05,17.39-22.46,46.8-17.02,55.79,9.61-7.89-5.98-22.54,16.49-29.13,22.22-12.08,10.5-28.19,12.12-43.48,13.47,16.53,17.11,41.96,2.77,60.99,14.73,20.28,12.75,26.52,42.02,23.18,63.88-2.52-11.35-18.12-13.31-27.58-13.21-9.52,.08-17.66,4.25-27.39,2.75-12.95-2.01-18.93-11.94-26.92-20.94-7.01-7.9-17.64-13.92-28.15-15.38-9.03-1.26-16.05,.45-25.69,3.86,40.33-3.16,81.16,32.62,82.89,77.44,1.29,33.5-26.93,65.46-65.03,67.68,18.44-10.28,29.3-27.42,15.01-43.31-15.88-17.65-7.09-27.04-13.36-48.24-6.17-20.84-15.71-34.67-34.65-40.11,17.6,18.6,29.41,44.86,23.56,75.78-7.87,41.55-50.74,64.73-91.51,54.16,27.26-7.58,22.92-22.37,15.94-32.69-8.37-12.38-12.57-28.17-7-42.44,6.84-17.51,21.6-29.75,10.25-52.73-5.04,74.03-77.39,99.11-114.88,83.14,22.36-2.77,34.03-32.08,26.04-51-10.73-25.45-6.2-53.26,23.7-60.3-9.69-1.28-17.43-1.45-29.52,2.03-12.08,3.48-24.66,7.24-29.31,27.64-3.89,17.02,4.84,32.82,29.41,37.18-4.75,10.29-20.63,19.66-33.23,18.33-12.6-1.34-25.44-7.35-32.61-30.28-9.94-31.81,15.61-39.33,6.53-60.18-8.12,9.72-8.37,22.97-13.89,33.92-8.38,16.58-27.7,27.66-47.04,22.17-19.75-5.62-35.69-22.01-60.18-16.78,16.29-16.62,10.8-42.56,16.58-62.26,5.66-19.28,25.35-29.71,43.84-27.95,12.22,1.17,23.55,8.02,36.1,6.33-12.79-18.8-32.77-1.2-54.38-26.57-15.57-18.3-13.81-32.36-8.22-43.74,5.59-11.37,21.99-19.8,33.23-18.33-9.42,23.12-.71,38.93,15.76,44.72,19.75,6.93,29.62-1.7,39.01-10.06,9.39-8.37,13.36-15.01,17.46-23.89-21.91,21.55-47.84,10.54-63.65-12.1-11.75-16.86-42.75-22.63-57.04-5.19,6.5-40.23,66.31-88.05,131.62-52.83-13.38-21.85-31.61-15.9-50.07-19.46-15.05-2.89-26.16-14.86-32.17-28.55-5-11.4-15.2-22.97-36.15-3.95,12.82-40.11,55.28-64.01,94.63-48.52,29.28,11.54,45.19,35.55,51.55,60.36,5.48-18.93-1.13-34.38-15.46-50.71-14.58-16.61-27.22-14.19-33.68-37.04-5.82-20.56-26.11-20.52-44.64-10.39,22.19-31.05,64.28-37.88,91.92-18.91Z"/><path class="cls-1" d="M912.48,471.5c-7.73,9.45-14.41,23.12-14.63,33.67,9.45-2.5,23.49,2.63,28.98,8.41,6.91,7.25,10.99,22.33,4.62,35.33-5.56-17-21.76-22.66-35.07-16.97-11.51,4.93-21.9,14.15-14.7,26.14,7.22,12-6.79,22.04-23.31,20.32-12.38-1.3-21.62-9.74-25.09-23.4,13.86,1.82,29.9-4.06,31.72-17.63,2.15-15.99-9.71-26.71-18.99-29.31,3.2-8.64,.1-25.33-14.58-32.04-12.44-5.7-25.97,5.22-31.83,17.91-9.7-10.22-11.92-22.53-6.41-33.69,7.36-14.89,23.32-21.39,29.61-8.9,6.3,12.5,19.64,8.63,29.96,1.52,11.92-8.22,15.76-24.94,4.35-38.71,14.38,1.54,24.96,13.04,27.42,22.75,1.96,7.74-1.19,22.35-8.34,29.01,9.03,5.44,24.16,7.08,36.28,5.59Z"/></g><path class="cls-2" d="M1882,1116.88c-10.27-21.13-16.31-47.22-11.25-70.82,2.69-12.54,5.48-23.43,11.25-32.97v103.8Z"/><path class="cls-2" d="M1882,1258.95c-27.26,.78-43.09,6.62-52.67,18.44-6.8-16.21,6.05-54.67,38.47-61.57-11.86-3.13-45.52-11.12-62.8-4.26-17.3,6.86-26.65,17.17-25.93,38.86-26.91-16.39-23.94-41.09-14.45-54.98-16.96-.63-51.67,7.41-72.41,24.79-20.72,17.38-42.26,60.9-19.93,97.18-51.52,2.51-67.63-61.1-54.11-88.02-11.72,10.73-23.15,4.57-36.3,8.23,20.46-28.69,18.19-110.55,87.96-93.06-3.99-19.45-38.78-15.41-55.16-24.83,17.15-6.88,37.05-29.69,68.03-33.89,24.39-3.31,53.83-1.62,68.17,20.59,3.55-18.97-19.34-42.64-37.51-49.84,23.01-4.51,59.21-6.4,79.4,13.9,12.74,12.8,17.58,26.57,34.36,35.1,.71,.83,.68,.86-.07,.1-9.71-18.71,.83-45.54,23.95-52.35-7.69,2.26,3.81,29.22,6.26,32.42,4.02,5.27,9.96,29.07,24.76,46.02v44.23c-3.35-1.77-6.79-3.46-10.35-5.02-54.22-23.91-125.57-29.04-178.25,1.24-44.85,25.79-54.82,65.73-54.93,89.21,.53-32.72,29.52-72.55,61.79-86.41,27.39-11.76,86.91-26.27,146.98-4.26,13.68,5.01,24.91,10.55,34.75,16.19v51.16c-4.3,1.59-8.07,3.55-11.08,5.95,3.23-1.13,6.96-2,11.08-2.68v17.56Z"/><path class="cls-2" d="M1882,508.19c-13.55,14.87-19.6,33.7-4.73,60.6-19.83,1.12-24.83-33.54-38.13-46.96-2.26,18.35-19.21,43.42-15.35,74.44,3.05,24.42,12.22,52.45,37.36,60.62-17.43,8.29-46.17-7.77-57.78-23.49,1.53,23.4,8.98,58.88,33.77,73.19,15.63,9.03,30.18,10.19,42.72,24.22,.98,.48,1.01,.44,.09-.09-20.57-4.6-43.82,12.47-44.47,36.56,.22-8.02,29.23-3.8,32.94-2.26,2.31,.96,7.25,1.5,13.58,2.35V508.19Z"/><path class="cls-2" d="M1882,777.56c-22.33-1.76-45.86,.97-63.31,11.99-34.58,21.84-52.89,69.13-34.99,110.11,1.47-21.67,22.1-37.3,42.14-40.52,.66-.7,.61-.76-.13-.17-26.07,20.8-29.58,30.24-27.31,59.68,1.84,23.98,14.32,48.64,12.91,62.71-1.85,18.44-16.6,27.66-39,27.67,29.78,20.28,68.9,2.16,90.18-31.77,7.49-11.94,13.77-24.01,19.5-36.23v-98.78c-16.66,16.7-26.95,44.5-22.97,78.52-9.86-27.4-1.28-62.48,22.97-85.33v-18.65c-22.38-2.61-56.28,2.06-79.64,39.18,20.68-39.78,55.46-46.37,79.64-44.88v-33.54Z"/><path class="cls-2" d="M1882,1470.33c-37.67,20.15-73.9,28.84-97.61,30.26-23.74,1.43-57.53-6.51-70.94-28.98-17.41,31.73,2.24,56.27,39.37,64-55.32,7.47-138.99-40.98-98.89-73.06,.47-.38-25.21-3.44-36.67,11.46-6.88,8.95-12.6,27.5,3.06,41.1-20.25-2.14-35.19-20.41-42.95-37.77-5.94-13.29-4.59-38.88,9.95-47.82-13.6-2.5-27.46,.36-31.97,18.27-5.84-11.72,6.46-38.78,18.07-43.36,7.18-2.84,23.09-1.6,30.11,1.48,6.02,2.63,21.42,16.27,17.16,24.54,19.48-37.81-12.6-69.89-49.27-67.6-28.55,1.78-65.31,16.04-85.94,48.13-16.53,25.71-26.01,65.17,3.79,87.92-23.36-.78-34.92-24.75-50.88-45.46-43.31,53.22-3.39,134.54,59.93,127.7,.81-.54,.78-.61-.05-.18-11.02,13.32-23.23,30.3-41.22,32.24,53.47,39.88,87.12,25.5,138.42,9.62,.89-.4-3.25,5.24-4.18,5.57-20.16,19.7-19.81,62.86,6.51,84.05,6.58-32.53,34.88-35.1,60.16-41.35,32.05-7.93,33.78-35.52,52.89-54.72-22.54,25.83,1.12,79.88,34.71,77.34-15.2-20.46-6.75-44.31,12.61-58.01,9.54-6.74,22.13-9.09,30.42-17.85,9.35-9.85,11.87-22.8,16.26-36.04,7.17,29.33,33.39,59.47,69.28,42.76-28.22-26.7-7.92-62.35,7.85-93.52v-39.27c-28.21,21.8-64.5,48.09-77.06,55.85-44.84,27.74-88.24,35.55-112.42,46.16-32.47,14.26-73.26,36.88-84,73.6,6.57-36.69,55.24-70.6,76.89-81.49-46.26,1.38-86.79-10.04-121.8-30.51-41.96,6.79-95.93-16.41-121.03-49.69,46.79,39.06,78.08,45.22,115.57,40.95-50.11-37.37-59.87-96.13-25.4-145.82-32.38,51.78-13.03,115.08,50.85,152.82,57.73,34.13,129.92,32.25,194.67-.94,36.33-18.63,72-42.75,103.72-66.97v-15.42Z"/><path class="cls-1" d="M1882,1464.14c-19.08,9.64-57.44,26.28-87.38,25.16-60.47-2.27-103.11-32.27-127.62-83.96-11.53-24.32-10.53-43.02,1.55-66.93,3.02,14.08,14.7,24.62,28.94,25.44,2.86-17.4-7.51-32.9-8.78-48.96-1.58-20.16,10.99-35.17,28.56-43.93,32.98-16.45,78.05-8.11,105.6,14.11-22.06-11.48-37.37,7.33-32.19,28.42,3.43,13.92-3.98,17.36-7.9,29.53,15.67-25.93,60.56,6.19,50.54,31.98-5.81-7.63-20.26-9.59-28.85-2.73-10.42,8.32-13.15,20.14-8.94,32.15,3.7,10.56,20.01,28.22,55.82,30.36,9.6,.58,19.29,.04,30.64-2.32v11.96c-1.81,.51-3.65,1-5.5,1.51-33.39,9.01-69.43-.9-89.56-14.19-36.44-24.05-60.89-68.61-31.72-124.38-33.1,44.46-22.4,98.66,29.46,132.61-9.14,2.82-60.24,1.29-104.77-66.15,47.79,86.57,108.88,74.5,117.68,72.56,17.03,7.27,52.3,16.17,81.54,5.61,.97-.35,1.92-.7,2.88-1.06v13.19Z"/><g><path class="cls-1" d="M1882,1849.57c-8.32,10.79-22.91,4.49-25.67-2.07-3.4-8.09,1.1-20.23,17.35-12.81,5.8-21.9-31.41-37.98-56.64-23.72-24.45,13.82-28.18,56.14,1.37,53.65,1.17,7.67-.82,13.38-4.55,16.94h-24.94c-5.53-4.15-9.56-11.42-10.1-21.27-1.46,6.32-1.87,13.77-1.47,21.27h-39.99c.58-14.29,4.17-28.03,10.53-42.32,8.31-18.66,29.87-42.5,51.07-46.77,28.75-5.78,48.61-1.7,65.77,8.92,5.31,3.28,12.49,9.59,17.26,17.36v30.83Z"/><path class="cls-1" d="M1882,1808.69c-2.26-2.64-4.79-5.13-7.5-7.32-6.6-5.33-17.99-11.8-29.68-13.56,10.58-10.5,26.65-7.66,37.18-2.03v22.91Z"/><path class="cls-1" d="M1882,1725.51c-3.65-12.72-10.56-24.68-23.08-31.23,21.81,17.59,21.68,48.13,18.88,70.86-16,10.67-30.85,14.18-43.13,16.2-13.56,2.23-24.94,3.58-35.23,4.53-3.78-4.41-17.88-21.75-24.63-44.16-4.96-16.44-6.32-49.79-2.12-62.18-7.14,15.33-8.68,48.38-2.46,66.68,8.49,24.91,16.27,34.53,22.79,42.85-12.64,4.78-29.16,17.11-35.9,26.2-19.37-1.47-48.31-16.34-61.31-30.76-8.1-8.98-22.66-23.51-20.57-53.19-3.85,14.93-.22,35.37,14.93,53.36,15.17,17.99,44.03,33.15,63.88,34.62-3.8,4.43-7.2,9.6-12.26,16.12-22.37,16.81-57.51,20.51-74.71,15.95-17.2-4.54-36.17-17.65-45.71-40.21,1.59,14.01,13.86,34.69,47.53,44.48,32.98,9.6,68.03-9.26,73.63-14.43-5.5,10.11-7.03,15.21-9.29,23.65-2.97,5.89-6.48,11.52-10.35,16.71h-21c5.5-1.47,10.74-3.88,15.12-7.13,7.33-5.42,11.15-11.55,15.64-20.74-26.6,30.48-80.79,33.51-113.4,2.71-24.37-23.01-26.59-65.59-.94-93.85-5.98,20.24-1.74,40.09,19.6,41.44,23.69,1.49,23.99,14.35,43.31,25.1,18.99,10.56,35.49,13.76,52.82,4.39-25.58-.96-52.4-11.44-69.87-37.62-23.47-35.18-9.08-81.75,27.44-102.74-14.17,24.49-.72,32.02,11.49,34.51,14.65,2.98,28.69,11.31,34.7,25.4,7.38,17.29,5.4,36.37,29.58,44.84-48.21-56.39-14.11-124.95,23.85-139.79-14.03,17.63-1.85,46.72,17.1,54.65,25.47,10.66,41.71,33.69,25.29,59.65,7.81-5.87,13.46-11.16,19.65-22.11,6.19-10.94,12.55-22.43,1.59-40.26-9.14-14.88-26.43-20.05-47.04-5.96-3.81-10.67,.97-28.48,10.9-36.35,9.93-7.87,23.32-12.57,44.49-1.2,10.51,5.65,15.6,12.25,18.76,18.79v40.22Z"/><path class="cls-1" d="M1730.29,1881.55c1.54-2.39,2.95-4.88,4.23-7.48-.43,2.58-.73,5.07-.94,7.48h-3.29Z"/><path class="cls-1" d="M1882,1881.55h-52.14c4.73-11.57,5.67-25.37-7.84-28.89-13.56-3.52-10.57-20.49,2.43-30.83,9.75-7.74,22.25-8.18,34.29-.85-11.18,8.4-18.51,23.83-10.31,34.78,9.47,12.67,25.01,12.3,33.57,7.91v17.87Z"/></g><path class="cls-2" d="M515.3,1881.55c9.31-11.88,29.77-16.13,42.49-13.68,8.13,1.56,15.83,6.72,22.15,13.68h-64.64Z"/><path class="cls-2" d="M391.28,1881.55c-6.19-16.17-14.08-25.74-24.6-30.89,14.29-10.25,54.64-6.3,68.59,23.77,.41-12.26,.69-46.85-9.85-62.17-10.54-15.33-22.67-22.14-43.66-16.61,9.98-29.89,34.72-32.5,50.37-26.35-3.17-16.67-18.75-48.72-40.32-65.06-21.56-16.32-68.79-27.61-99.18,2.24-13.94-49.66,44.48-79.56,73.74-72.38-13.07-9.04-9.62-21.55-16.12-33.56,32.53,13.55,111.82-6.93,110.33,64.99,18.07-8.23,6.38-41.24,11.9-59.3,10.53,15.19,37.21,29.5,48.21,58.76,8.67,23.04,13.59,52.11-4.86,71.05,19.28-.77,37.26-28.36,40.22-47.67,9.53,21.42,19.44,56.29,4.16,80.5-9.28,14.7-20.63,25.34-26.95,41.88,36.2-8.65,39.91,16.27,36.69,34.32-4.79-3.28-12.22-4.55-17.9-3.96-8.1,.85-19.04,7.65-24.39,12.62-9.32,8.68-12.88,16.69-15.19,27.82h-35.8c1.22-4.35,2.3-8.8,3.18-13.37,11.22-58.19,.3-128.89-40.96-173.48-35.14-37.98-76.3-38.79-99.21-33.65,32.01-6.78,77.3,12.6,98.01,40.96,17.58,24.08,44.99,78.87,36.94,142.34-1.82,14.33-4.68,26.43-7.95,37.2h-75.39Z"/><path class="cls-2" d="M92.42,1881.55c-33.39-35.9-49.75-73.54-64.71-93.69-7.89-10.63-17.18-22.14-27.72-32.49v50.37c3.32,1.41,6.6,3.04,9.8,5.04-3.11-1.67-6.41-2.79-9.8-3.43v52.57c.51,.43,1.01,.86,1.51,1.3,6.59,5.9,11.1,14.06,17.41,20.34H92.42Z"/><path class="cls-2" d="M148.65,1881.55c-4.25-9.14-7.42-17.58-9.57-24.92-6.68-22.82-6.48-57.54,12.43-75.62-34.81-9.9-54.35,14.74-53.61,52.65-19.62-52.26,3.32-95.87,46.48-123.78-15.01-14.44-36.33-29.62-61.38-11.69,.6-34.48,43.21-126.12,127.91-83.7-5.48-28.15-19.27-50.25-50.14-66.02-25.15-12.83-70.84-12.92-85.87,20.1-4.45-22.94,16.34-39.56,32.96-59.73-43.03-21.22-90.38,.29-107.86,35.73v203.07c14.78,11.06,27.05,23.34,33.83,31.53-11.66-44.79-9.57-86.84,2.57-125.53-15.97-39.39-5.39-97.17,21.45-129.06-27.64,54.32-26.67,86.19-14.14,121.79,25.25-57.18,80.36-79.8,136.49-57.28-57.69-20.02-115.09,12.97-137.63,83.65-20.4,63.88-2.47,133.84,44.34,189.55,5.46,6.51,11.15,12.93,17.02,19.25h44.73Z"/><path class="cls-1" d="M157.56,1881.55c-2.31-5.88-4.12-11.75-5.2-17.46-11.28-59.45,8.46-107.71,53.38-143.13,21.14-16.66,39.59-19.86,65.59-13.41-13.05,6.08-20.72,19.81-18.35,33.89,17.6-1.09,30.4-14.66,45.77-19.48,19.3-6.04,36.74,2.87,49.19,18.05,23.39,28.48,25.31,74.28,9.79,106.09,6.28-24.06-15.48-34.79-34.88-25.04-12.8,6.44-17.81-.01-30.54-1.12,28.77,9.49,7.47,60.41-19.9,56.39,6.14-7.37,4.83-21.88-3.78-28.74-10.43-8.29-22.56-8.32-33.33-1.54-6.87,4.33-15.9,15.95-18.09,35.5h-16.73c0-14.29,2.43-27.56,6.27-37.79,15.31-40.89,53.29-74.66,114.17-58.66-50.72-22.35-101.17,.16-122.71,58.29-4.79-8.28-14.69-58.44,41.12-116.88-73.73,65.89-48.34,122.76-44.49,130.89-1.13,6.28-1.97,14.72-1.9,24.15h-35.39Z"/><path class="cls-1" d="M0,1295.42c19.05,12.18,15.78,27.57,26.93,49.49,13.71,26.96,37.5,37.63,64.47,56.25,12.65,8.74,25.84,15.29,33.43,29.14-11.14-7.59-21.44-12.94-34.6-12.83-12.52,.1-26.63,14.6-38.08,14.81,13.07,9.85,22.34,23.6,28.91,38.03,9.21,20.2,30.6,37.15,58.4,42.07,25.88,4.59,44.26,7.75,75.61,19.27,18.07,6.64,29.23,11.93,48.95,16.79-14.59-3.6-29.78,19.12-33.19,30.09-5.49,17.65-1.61,31.65,10.96,44.67,17.65,18.26,60,16.87,79.16,4.1-4.87,3.25-20.37-9.34-22.65-12.99-6.74-10.76-4.51-19.44,2.96-29.79,24.95-34.57,75.91-22.44,108.09-47.71-47.68,49.51,40.85,84.55,66.81,35.45-21.97,16.82-33.27-8.53-33.34-28.21-.09-27.11,27.62-51.43,44.26-71.46-33.2,39.96-122.23,78.83-190.86,76.48-3.74-.14-32.44,11.97-42.85,33.74-4.09,8.6-3.55,24.12,6.67,33.93-13.84-8.58-14.86-24.93-11.84-33.47,8.24-23.33,41.56-36.3,37.76-36.72-12.07-1.3-24.15-3.94-36.09-8.07-28.08-9.7-40.39-17.3-58.13-31.79-2.64-2.15-68.98-56.99-106.63-64.67,38.28,4.67,67.42,29.72,86.81,40.87-13.09-15.53-24.81-35.26-30.99-48.32-13.05-27.58-15.34-42.39-24.65-60.33-26.09-42.52-36.23-58.83-64.06-70.6,29.62,2.73,60.15,45.44,65.15,54.43-11.37-39.74-42.37-89.13-29.05-160.67-2.11,64.83,13.76,112.5,30.48,138.19-1.19-23.69-20.89-109.42,38.97-161.23-37.54,46.89-34.09,92.34-32.8,137.29,10.7-61.81,109.75-148,177.01-63.03-67.19-75.18-156.22,2-169.57,70.3-12.77,65.31,14.25,143.61,71.79,188.51,57.54,44.91,126.18,35.64,150.69,31.56,25.82-4.3,73.78-26.43,90.99-36.88,17.21-10.46,28.28-20.29,39.6-32.51-30.38,19.6-50.43,23.15-78.95,23.29-34.5,.16-68.31-6.55-90.85-36.93-8.41-11.34-14.95-23.8-18.72-36.62-4.11-14.01-6.68-27.24-14.03-40.26-6.47-11.44-18.38-20.46-28.64-29.04,4.35,16.13,6.18,32.92,2.52,49.39-2.93,13.18-7.3,26.12-6.86,39.89,.4,12.66,6.27,24.92,15.43,33.61,6.22,5.89,15.48,17.17,23.38,20.22-31.04-11.98-50.05-40.89-47.28-74.06,1.06-12.65,3.2-30.05-14.99-27.34-16.26,2.44-25.38,17.97-28.72,32.5,1.45-17.11,10-33.7,8.62-50.67-1.27-15.64-7.77-35.32,13.62-39.8-30.28-18.05-59.5-4.67-68.35,28.84,9.97-37.75,22.02-99.26,75.97-93.5,23,2.46,47.2,40.51,11.5,33.14,21.34,21.04,57.02,15.91,78.26-3.63,18.99-17.48,22.28-48.65,6.93-72.68,18.77-.51,41.02,14.89,43.48,35.8,17.77-13.9,12.3-52.87-6.15-71.32-19.99-19.98-56.49-24.94-83.18-24.53,11.13-10.6,22.93-16.04,37.19-16.32-10.7-15.08-29-21.85-54.8-16.94-27.54,5.24-42.57,28.14-64.1,43.48,7.02-10.34,6.88-27.01,.84-41.5-8.73-20.94-23-38.68-42.26-49.51-17.11-9.62-38.64-14.49-57.96-6.04,19.32-1.21,30.1,12.29,31.12,27.77,.83,12.46-8.33,22.18-12.25,33.23-3.56,10.03-4.38,15.06-5.41,29.61-4.86-18.26-23.19-26.1-40.93-24.2,20.93,12.31-2.9,38.86-9.63,53-12.83,26.95-2.99,52.52,8.07,78.04-24.06-26.5-47.11-13.07-68.37,6.19v12.75Z"/><path class="cls-1" d="M420.04,1477.64c-46.96,13.3-89.53-13.41-107.12-41.15-25.37-40.03-19-87.77,5.87-125.02,11.7-17.53,24.67-24.38,45.6-25.89-8.25,7.7-10.63,19.78-5.45,29.68,2.03,3.88,22.98-23.83,25.08-25.49,10.15-8.03,23.54-11.43,35.4-16.02,20.64-7.98,38.31-17.61,36.11-42.23,18.11,22.18,20.46,44.17,13.77,71.62-3.63,14.88-10.9,28.23-21.52,39.26-5.49,5.71-11.77,11-18.4,15.34-7.87,5.16-13.05,4.36-22.15,6.46,23.74,.1,20.21,43.18-1.15,46.82,2.79-6.97-1.7-17.47-9.77-20.48-9.78-3.67-20.72,.07-27.09,7.74-5.61,6.73-10.89,19.23-4.85,34.68,7.94,20.34,27.64,37.47,48.96,43.41-44.31-1.42-65.2-47.08-64.03-73.69,.96-21.89,9.11-38.08,26.47-51.74,19.95-15.71,39.74-25.45,48.81-32.46,10.45-8.08,21.89-19.51,27.19-42.03-6.34,22.51-17.27,27.15-30.25,37.06-18.07,13.79-41.1,21.71-57.34,38.51-13.14,13.6-22.07,32.99-21.4,52.13,1.12,32.16,18.28,77.84,77.27,73.51Z"/><path class="cls-2" d="M0,1363.79c52.23,22.69,91.98,44.82,102.56,51.03-34.36-16.37-72.51-32.03-102.56-42.01v-9.02Z"/><path class="cls-2" d="M0,1348.27c17.45,11.76,38.54,24.2,62.08,38,13.99,8.19,39.27,22.43,50.25,33.6-26.21-15.9-37.92-23.73-52.37-30.39-44.77-20.62-32.57-16.89-59.96-30.22v-10.99Z"/><path class="cls-1" d="M0,1400c19.47,.81,44.56,4.22,79.57,10.81-40.4-12.91-63.27-18.36-79.57-20.59v9.78Z"/><path class="cls-1" d="M0,1386.15c20.28,4.07,46.77,11.95,94.18,27.72-34.51-17.95-67.19-29.71-94.18-37.1v9.38Z"/><g><path class="cls-1" d="M0,921.06c4.31,15.73,5.35,35.77,0,50.9v-50.9Z"/><path class="cls-1" d="M0,1217.19c9.04,1.45,17.88,4.43,26.03,11.89-5.64-22.58,12.22-42.18,17.2-62.09,4.86-19.5-6.84-38.46-23.69-46.3-6.17-2.87-12.99-4.09-19.55-5.95v63.91c5.11,9.82,9.55,18.6,11.33,23.49-2.78-4.22-6.58-10.35-11.33-17.72v32.76Z"/><path class="cls-1" d="M0,1106.28c12.01,2.96,22.66,14.17,45.56,6.2,22.69-7.9,28.28-20.93,29.23-33.57,.92-12.64-8.95-28.21-19.4-32.62-3.56,24.7-19.08,33.93-36.21,30.6-9.19-1.8-15.1-5.28-19.17-9.65v19.27c8.57,3.72,17.94,5.51,28.02,3.99-9.47,3.41-19.03,2.87-28.02,.14v15.65Z"/><path class="cls-1" d="M0,1039.32c12.54,10.17,31.28,9.46,48.66,1.47,18.66-8.6,48.32,2.1,51.82,24.38,14.75-37.99-12.65-109.5-86.81-112.15,22.6-12.09,35.31,2.27,53.04,8.54,14.44,5.12,30.09,.42,42.19-8.35,10.08-7.3,24.72-12.13,33.18,14.87,9.24-41.09-15.3-83.18-57.08-89.72-31.1-4.86-56.97,7.8-75,26,4.85-19.1,18.37-29.09,38.99-35.94,20.98-6.95,30.66,1.53,47.79-14.9,15.42-14.79,32.9-4.5,43.76,13.62-3.43-38.01-36.28-65.19-69.73-62.81-33.1,2.35-60.57,25.92-70.81,54.3v38.22c3.62-14.51,14.64-41.43,37.79-55.44,29.99-18.17,53.52-13.2,64.9-4.9-23.07-8.23-45.55-3.16-60.53,6.44-14.98,9.6-36.04,37.97-38.81,65.82,1.4,8.14,2.9,14.14,3.59,19.95,14.51-13.63,45.2-24.62,68.71-23.62,23.5,1.01,41.01,12.15,49.4,25.11-20.44-21.63-40.99-20.74-53.08-20.85-19.41-.19-49.95,11.07-64.14,24.33,2.14,11.12,.03,31.62-4.99,44.16,10.53,.83,22.88,1.61,46.95,12.21,17.69,7.79,40.98,31.28,47.43,46.93-6.26-11.49-31.77-33.05-47.2-40.52-21.08-10.19-43.39-11.54-49.2-11.75-.27,.36-.55,.72-.82,1.08v53.51Z"/><path class="cls-1" d="M0,842.25c1.76-2.47,3.73-4.75,5.85-6.76,8.74-8.27,18.48-14.57,20.06-27.58,1.19-9.77-3.25-17.77-3.63-27.3-.4-9.44,1.05-25.11,12.32-27.99-10.77-1.29-23.25-.22-34.6,3.65v22.64c2.15-2.16,4.4-4.15,6.75-5.94-2.48,2.55-4.72,5.27-6.75,8.1v61.18Z"/></g><path class="cls-1" d="M220.88,0c.54,.79,1.07,1.6,1.58,2.43,7.38,11.99,6.85,30.72,17.34,38.81,11.59,8.93,27.36,.99,38.79,11.63,8.91,8.3,13.53,26.4,9.55,37.05,26.84-25.72,28.19-65.76-11.18-79.39,29.21,12.09,62.39,31.32,64.66,67.58,1.48,23.65,2.69,28.1,22.17,42.58,19.29,14.34,13.28,21.27,9.56,44.79,22.65-7.25,41.73-30.88,46.89-53.73,4.61-20.44-6.1-36.7-7.88-56.19,10.25,16.24,13.74,36.42,26.81,51.11,12.12,13.6,31.9,27.3,15.21,46.41,40.69-4.45,58.42-37.27,43.18-74.52,16.31,30.7,48.99,75.9,13.81,105.76-17.04,14.46-61.17,.31-70.39-18.14-9.22,34.12,23.18,68.67,51.86,58.93-6.78,16.84-19.03,26.45-36.18,26.83-13.48,.3-32.88-29.55-17.52-36.89-71.13,33.99-30.43,141.09,55.42,117.85,4.35,16.07-12.94,35.63-25.77,44.95,29.07,4.41,70.26,3.42,92.08-17.1,15.68-14.75,18.44-35.04,18.44-55.33,0-15.04-3.81-35.33,.92-49.8,0,28.59,10.63,50.58,19.31,65.47,3.9,6.69,32.3,31,32.35,32.67-1.14-32.92,23.54-36.44,39.41-60.33,14.67-22.11,6.55-42.48-1.44-65.29,16.73,15.25,40.16,8.69,55.29-5.48-28.01,3.22-24.49-38.05-28.13-55.86-6.95-33.94-33.94-50.77-62.04-66.68,46.42,8.8,55.54-29.34,61.34-67.14-35.68,8.18-41.79-11.1-70.78-25.27-7.69-3.75-15.26-6.19-22.86-7.71h-64.38c-3.86,.25-7.8,.48-11.83,.65-14.79,.61-28.88,2.89-42.8-.65h-35.27c3.19,1.49,6.14,2.95,8.78,4.33,31.38,16.45,43.85,28.56,65.02,38.69,53.91,21.16,74.7,29.19,108.74,20.65-29.36,18.17-87.52-.06-98.45-4.9,38.32,28.89,101.58,52.99,139.26,128.61-43.37-61.57-91.4-94.66-124.86-106.78,17.67,21.14,95.86,86.82,76.61,176.69,2.02-69.7-32.97-109.42-65.59-150.17,21.69,42.2,22.01,113.87-5.35,151.26-27.66,37.81-99.59,63.63-127.26,5.53,34.12,50.72,91.29,24.9,117.11-8.3,25.22-32.43,26.52-102.82,3.53-150.02C522.89,58.24,480.63,20.97,432.62,0H220.88Z"/><path class="cls-1" d="M0,675.68c6.28,4.88,14.13,9.08,23.85,12.32-8.62-1.03-16.58-3.25-23.85-6.39v-5.92Z"/><path class="cls-1" d="M0,663.77c4.58,9.33,10.94,17.27,18.55,20.73-7.59-3.45-13.71-8.1-18.55-13.53v-7.2Z"/><path class="cls-1" d="M0,506.91c14.72-8.69,27.61-9.33,44.7-3.61-9.83,3.66-16.19,13.18-15.28,23.52,16.86,.32,27.84-13.72,44.44-11.52,27.2,3.63,47.28,29.01,42.07,60.95-5.21,31.93-26.57,45.61-43.52,48.58,17.7-40.57-48.55-56.69-72.42-19.78v-22.99c15.85-19.9,41.64-31.7,76.18-19.6-28.42-15.34-57.75-5.77-76.18,11.45v-67Z"/><path class="cls-2" d="M903.63,0c5.62,17.56,27.96,39.8,55.8,35.94-10.08,6.98-39.01,25.96-57.6,25.42-18.6-.55-30.9-7.06-37.62-27.7-19.71,24.58-8.51,46.79,5.15,56.6-15.73,6.38-51.1,10.65-76.52,1.38-25.41-9.28-60.48-42.86-51.87-84.57-49.28,15.2-42.76,80.5-20.86,101.19-14.68-6.08-23.33,3.59-36.93,4.64,29.01,20,54.77,97.74,114.41,57.51,2.88,19.65-31.21,27.71-43.39,42.14,18.47,.63,44.95,15.28,75.51,8.68,24.05-5.19,51.16-16.82,57.07-42.59-8.54,32.18-1.94,75.13,31.1,91.65-9.91-26.43,6.26-37.58,19.82-62.78,11.56-21.48,8.18-40.33,21.04-54.07,.38-1.02,.35-1.03-.1-.07-2.75,20.89,8.79,69,51.74,65.7-13.22-21.48-8.22-38.55-9.91-57.82-1.93-22.01-9.63-50.23,14.74-71.61-11.76,26.23-15.11,73.01,4.85,104.89,10.86,17.35,20.52,30.67,40.44,37.14,24.59,7.97,58.21,5.35,72.83-17.16-16.24,2.96-39.58-3.49-42.15-29.47,13.45,23.55,50.03,30.69,74.74,10,17.68-14.79,28.47-47.28-.46-77.7-1.59,19.96-15.01,29.56-26.71,12.78-10.2-14.62-14.24-27.79-32.63-33.95-17.11-5.75-29.85-7.53-39.03-26.15-6.6-13.38-3.91-27.63,5.64-42.24,7.29-11.16,20.84-22.97,33.64-26.68-8.78,26.28-18.11,58.46,19.41,88.46,17.13,13.7,46.79,18.04,73.15-3.01-30.5-16.09-39.83-27.92-45.58-41.07-6.62-15.09-3.73-26.61,2.43-39.57,.94-1.97,2.02-3.95,3.24-5.91h-27.73c-6.07,10.18-10.18,23.05-8.48,38.29,2.25,20.33,16.51,40.89,47.77,48.35-32,1.17-51.97-33.03-52.57-48.49-1.02-15.01,1.92-27.83,6.93-38.14h-38.76c-14.37,9.44-26.75,20.76-32.69,32.48-20.74,40.87-16.33,69.84,6.73,99.35,16.51,21.13,49.53,33.86,89.59,25.52-32.6,15.11-79.35,3.31-102.5-33.6-4.94,14.51-11.23,68.06,42.99,95.79-63.35-26.08-52.43-91.85-48.66-101.52-12.07-34.56-8-57.94,5.01-85.58,6.17-13.09,16.19-23.8,27.75-32.44h-27.43c-30.68,23.56-43.51,52.76-68.62,76.78-42.82,40.97-108.16,70.1-167.99,59.59-50.96-8.95-73.94-43.1-82.05-65.15,11.65,30.58,52.49,58.15,87.54,60.18,29.76,1.72,90.66-4.94,139.64-46.1,39.49-33.19,47.86-62.11,75.26-85.29h-18.34c-21.38,7.33-44.98,13.25-59.66,8.31,9.78-.12,22.73-3.56,36.89-8.31h-85.99Z"/><path class="cls-1" d="M1606.85,1881.55c-.29-16.04-5.02-32.08-14.75-44.19-9.46-11.77-22.79-18.77-37.69-14.28-10.44,3.15-19.4,11.53-30.64,13.97-1.61-1.34-3.24-2.66-4.95-3.89,.33-9.14,5.96-17.45,14.62-21.38-19.94-5.17-34.16-2.86-50.55,9.78-2.82,2.18-5.47,4.44-8.03,6.75-1.65,.9-3.32,1.91-5.01,3.09,.96-34.47,44.52-125.66,128.78-82.36-5.18-28.21-18.74-50.45-49.44-66.54-25.01-13.1-70.7-13.66-86.08,19.18-4.21-22.98,16.75-39.38,33.59-59.38-61.14-30.96-132.01,25.19-112.08,85.54,.07,.04,.15,.08,.22,.11,.6,.72,.54,.76-.16,.09-.02-.06-.04-.13-.06-.2-15.32-7.9-34.36-16.22-40.05-33.3-27.59,60.73-6.38,90.55,20.05,137.3,.58,.78-5.81-2.06-6.32-2.9-23.54-15.51-65.64-5.98-80.75,24.25,23.02-.35,34.18,12.59,42.68,28.35h59.6c-16.13-14.68-34.93-26-55.98-27.48,21.67-.81,45.43,12.5,64.53,27.48h25.9c-3.95-33.62-.23-65.43,9.45-95.2-15.57-39.55-4.37-97.21,22.8-128.82-28.21,54.02-27.57,85.9-15.42,121.64,25.85-56.92,81.19-78.95,137.08-55.86-57.48-20.61-115.21,11.77-138.51,82.22-8.19,24.76-10.6,50.5-7.76,76.02h76.68c19.58-17.7,46-21.67,72.35-9.73-26.76-7.34-47.87-2.03-63.29,9.73h99.18Z"/><g><path class="cls-1" d="M153.33,411.89c5.95-16.51,34.66-30.97,51.85-47.96,23.81-23.52,33.9-47.28,35.61-77.71,1.14-20.39-7.12-51.45-24.03-64.94-22.93-18.3-42.45-23.75-62.58-22.16-13.37,1.06-40.78,10.6-37.5,34.16,1.96,14.15,18.34,15.36,23.9,10.7,6.72-5.64,8.27-18.5-9.58-19.33,4.85-22.12,45.29-19.4,61.22,4.8,15.43,23.48-.61,62.82-25.75,47.1-10.3,14.25-1.59,26.92,12.53,28.69,8.54,1.07,18.21-3.42,24.66-14.45-2.73,10.86-5.69,22.22-13.43,31.84-9.91,12.33-29.37,19.14-44.54,15.54-9.98-2.36-27.27-11.65-25.79-25.75-25.27,16.97-13.93,52.93,16.95,48.94-11.12,7.31-25.73-2.21-37.72,5.13-13.61,8.33-18.2,29.78-12.08,52.02,.76-20.35,23.15-19.64,34.39-20.84,16.74-1.77,30.69-12.47,40.18-26.6-3.68,5.49-16.23,28.76-8.28,40.81h0Z"/><path class="cls-1" d="M78.28,413.94c-9.36,23.1-37.31,66.71-20.03,98.24,28.24-22.24,19.25-75.38,20.03-98.24Z"/><path class="cls-1" d="M88.49,420.9c.65,19.52-7.4,60.56,20.64,74.87,16.75-26.66-12.34-59.04-20.64-74.87Z"/><path class="cls-1" d="M65.52,415.75c-14.44,13.16-50.91,33.61-43.64,64.24,31.15-4.52,36.96-47.65,43.64-64.24Z"/><path class="cls-1" d="M0,196.46c6.02-5.44,12.61-9.7,19.39-11.85,27.97-8.84,48.15-6.91,66.36,1.8,12.1,5.78,34.25,24.53,22.74,45.35-6.92,12.5-22.64,7.74-26.15,1.4-4.26-7.68-1.08-20.23,15.87-14.61,3.42-22.4-35.31-34.38-58.85-17.5-22.83,16.38-21.98,58.85,7.13,53.2,4.5,16.99-8.18,25.7-21.99,22.28-8.35-2.06-15.77-9.72-17.83-22.33-1.35,11.13,.82,25.29,4.58,37.04,4.84,15.07,17.33,24.51,32.53,28,12.08,2.77,29.63-1.08,33.32-14.77,17.5,24.91-5.99,54.39-33.4,39.59,7.77,10.81,24.83,7.17,33.37,18.33,9.71,12.65,6.29,34.33-7.4,52.88,6.59-19.27-14.56-26.64-24.61-31.78-14.98-7.67-24.17-22.66-27.97-39.25,1.47,6.44,4.82,32.66-6.91,41.06,.17-8.07-4.31-17.47-10.16-27.41V196.46Z"/><path class="cls-1" d="M116.23,210.85c-1.72-7.98-10.37-18.8-20.78-25.49-7.14-4.59-19.16-9.8-30.97-10.29,13.97-17.25,43.26-6.38,47.86,1.88-3.72-7.57-8.27-16.65-2.68-31.48,6.28-16.67,23.83-28.61,29.13-56.1-4.94,27.56,7.17,44.99,7.04,62.81-.1,15.86-11.51,23.57-13.81,28.43,7.26-6.06,38.49-5.69,45.35,15.42-11.2-3.77-24.29-3.24-32.59-1.52-12.12,2.52-24.07,9.51-28.54,16.34Z"/><path class="cls-1" d="M0,368.82c3.93,8.67,7.43,18.75,8.01,27.77,6.26-6.04,12.77-16.25,13.25-25.88,11.2,7.87,16.51,33.45,15.41,45.76-1.25,14.13-7.12,28.28-17.18,38.41-5.65,5.68-12.34,9.73-19.49,12.35v-98.4Z"/><path class="cls-1" d="M0,166.68c4.86,6.79,9.18,11.15,13.11,15.18-4.18,2.12-8.72,5.19-13.11,8.7v-23.89Z"/><path class="cls-1" d="M169.01,0c8.48,10.46,20.09,19.09,27.18,29.51,11.31,16.62,6.87,38.45-6.23,51.62-8.65,8.7-21.14,13.11-27.81,23.88,22.65,2.04,21.73-24.57,55.05-25.16,24.02-.42,33.77,9.87,39.02,21.41,5.24,11.54,1.35,29.56-6.93,37.31-11.88-21.95-29.63-25.26-44.55-16.21-17.89,10.86-17.5,23.96-16.99,36.53,.5,12.57,3.11,19.85,7.37,28.65-2.74-30.6,22.22-43.65,49.75-41.49,20.48,1.62,44.62-18.67,40.21-40.78,26.96,30.56,25.95,107.13-42.72,135.24,25.38,3.53,32.35-14.33,46.82-26.34,11.79-9.79,28.09-10.78,42.49-6.74,11.98,3.37,27.39,2.84,26-25.42,22.86,35.37,14.37,83.35-22.57,103.92-27.51,15.3-56.16,12.35-79.37,1.51,11.15,16.25,27.29,20.95,48.99,20.25,22.1-.72,28.25-12.03,50-2.52,19.59,8.55,32.42-7.15,36.36-27.9,9.91,36.85-11.53,73.71-43.73,83.03-43.09,12.48-89.91-14.99-99.6-54.26-.22,10.22,.37,17.42,4.41,25.59,4.7,9.52,13.76,17.7,23.47,21.87,11.06,4.75,22.37,7.29,28.35,18.95,4.49,8.75,3.1,17.8,6.02,26.87,2.88,9,9.67,23.2,21.23,22.01-19.7,10.05-49.43,13.35-67.93-1.87-17.34-14.29-11.76-42.94-33.19-53.24,3.52,14.94,7.06,30.74,.91,45.52-3.36,8.05-20.06,29.03-11.9,34.63-28.11-.14-42.53-26.33-26.71-49.91-24.89,7.44-52.86,65.14-9.25,73.81,16.34,3.26,23.99-13.06,39.2-11.93,19.12,1.44,24.68,16.67,25.02,32.46-7.29-9-12.17-16.99-26.08-12.53-13.9,4.46-31.29,22.35-48.63,6.19,6.04,12.05,16.44,21.54,27.06,17.96-21.53,13.09-65.88,3.31-80.09-28.95-5.75-13.05-6.15-28.37-2.25-42.02,3.4-11.88,17.53-33.85,30.82-37.16-3.03,9.16-.61,21.02,3.07,28.9,4.21-9.13,12.27-18.22,19.76-25.26,10.67-10.04,23.8-19.01,35.91-27.23-1.63,8.74-3.57,14.41-4.18,24.71-1.06,17.76,3.13,25.86,5.69,34.78-3.75-18.78-2.9-41.66,4.88-67.35,7.88-9.99,17.47-21.02,23.4-39.53-.32,18.03,6.15,34.82,13.34,48.29,8.95,16.73,28.02,34.14,47.98,40.27-22.69-10.84-37.44-34.3-42.67-42.89-8.07-13.3-13.44-33.38-13.29-53.29,1.86-8.53,2.84-13.77,2.56-25.27,2.6,7.16,25.17,39.95,58.88,46.49,34.42,6.69,54.78-6.09,62.6-17.82-18.81,15.7-41.66,18.7-59.04,14.86-17.37-3.82-46.93-23.18-59.15-48.35-1.5-8.12-2.16-14.27-3.52-19.96,18.33,7.78,50.92,7.49,72.64-1.58,21.71-9.06,34.29-25.57,37.68-40.63-11.71,27.36-31.3,33.63-42.61,37.9-18.15,6.88-50.7,6.87-68.59-.67-1.84-11.17-10.89-29.69-19.94-39.73,9.59-4.41,20.91-9.41,39.84-27.68,13.9-13.42,27.65-43.51,28.3-60.42-1.9,12.94-18.39,41.98-30.3,54.33-16.27,16.84-36.73,25.83-42.11,28.02-8.71-5.56-18.22-11.96-29.25-20.14-9.99-7.42-21.6-17.33-30.95-34.14,7.9-21.5,21.74-48.72,49.18-54.38-27.88,.21-45.95,29.09-53.95,46.72-8.17-20.43-9.09-59.06-7.66-78.51,1.42-19.45,7.43-55.31,7.38-67.23-2.8,11.95-7.37,36.61-15.94,64.5-8.58,27.88-21.17,55.38-36.13,71.51-1.15-19.32-7.63-52.77-33.59-62.97,23.57,15.14,26.72,45.52,26.38,68.41-14.76,12.33-29.15,17.41-41.14,20.74-13.24,3.68-24.4,6.24-34.53,8.3-2.9-2.72-11.24-10.93-19.15-22.75V88.65c5,7.44,12.21,13.33,20.15,15.69,26.47,7.86,45.09,29.01,31.55,56.59,7.14-6.69,12.19-12.55,17.17-24.1,4.98-11.55,10.06-23.65-2.74-40.19-10.69-13.81-28.44-17.09-47.4-.87-4.94-10.2-2.1-28.42,6.93-37.31,9.03-8.88,21.83-14.99,44.1-5.98,30.89,12.51,20.49,37.03,42.36,43.24-2.35-12.44-12.44-21.04-17.39-32.26-7.49-17-3.79-38.96,12.73-50.42,7.87-5.45,17.01-8.78,25.71-13.03h35.86Z"/><path class="cls-1" d="M96.14,320.76c-2.39-11.97-8.72-25.81-16.73-32.67-4.07,8.89-16.95,16.48-24.9,17.06-9.99,.73-24.23-5.69-30.23-18.86,16.66,6.49,31.32-2.42,35.38-16.33,3.5-12.03,2.97-25.91-10.87-27.96-13.86-2.04-12.72-19.23-.9-30.91,8.86-8.75,21.25-10.52,34-4.54-10.21,9.56-15.84,25.68-6.51,35.69,10.99,11.82,26.8,9.45,34.7,3.93,4.64,7.96,19.5,16.16,34.01,9.08,12.3-6,12.45-23.38,6.36-35.97,14.05-1.01,24.98,5.09,30.1,16.44,6.83,15.13,1.73,31.6-11.92,28.53-13.66-3.07-19.14,9.7-20.18,22.19-1.22,14.43,9.27,28.01,27.15,27.93-10.32,10.14-25.92,11.02-34.98,6.75-7.22-3.4-16.52-15.1-17.12-24.86-9.93,3.53-20.81,14.18-27.35,24.49Z"/></g><path class="cls-1" d="M1734.98,0c-.57,.54-1.16,1.07-1.77,1.6-17.77,15.38-36.58,10.55-57.51,6.11,10.17,7.96,14.49,32.44,7.29,45.4-10.08-18.72-42.04-13.43-58.1-14.62-19.52-1.45-46.9-14.85-51.55-36.03,4.05,20.24,5.49,52.51,29.02,62.17-40.31,5.76-78.95-9.91-96.47-41.75-4.63-8.42-8.04-15.96-10.59-22.87h113.58c9.42,5.25,19.76,9.98,31.22,13.96-8.55-4.52-16.59-9.19-24.13-13.96h119.01Z"/><path class="cls-2" d="M1454.68,0c-5.81,24.22-12.02,45.48-17.8,59.63-16.17,39.59-38.56,69.44-55.92,85.67-17.37,16.24-48.48,31.69-73.13,22.93,6.83,35.54,37.62,41.91,71.14,24.18-37.83,41.05-87.1,40.19-131.45,14.2-6.14,19.9-10.1,45.77,17.18,60.07-7.4,3.57-12.48,2.92-20.25,1.54-29.23-5.21-46.66-18-76.2-22.13-25.71-3.59-56.41-2.58-81.22,3.62-23.2,5.81-49.52,16.26-68.36,32.13,15.26-6.39,34.57-5.41,49.98-.39,16.74,5.45,27.27,13.19,38.54,25.8,7.66,8.58,31.78,35.53,45.37,25.01-18.47,14.3-61.59,4.22-87.09-1.55,14.89,60.89,70.37,89.31,146.53,59.11,.27-.93,.22-.97-.15-.1,.01,17.29,1.43,38.16-11.18,51.12,66.62-3.4,83.36-35.93,112.75-80.88,.44-.88,.85,6.11,.33,6.95-2.96,28.03,24.84,61.06,58.63,60.58-15.68-29.25,4.48-49.28,19.97-70.22,19.62-26.55,3.35-48.9,5.82-75.88-2.07,22.59,31.33,56.49,51.88,59.54,34.46,5.1,53.61-1.27,74.03-10.21-19.14,2.55-33.34-11.69-39.88-25.21-6.71-13.88,1.05-23.67,2.87-37.33,2.5-18.82-12.74-46.38-25.05-60.08,29.71,10.86,63.38-.96,79.77-27.76-23.85,3.27-42.84-1.83-56.76-22.01-16.12-23.37-11.6-47.49-16.77-73.29,4.63,23.12,28.65,21.79,39.06,65.99,11.13-20.08,18.72-43.19,8.64-76.31-7.78-25.58-20.59-49.76-30.36-74.71h-22.93c-1.56,12.99-2.72,26.01-4.68,38.96-4.36,28.93-24.43,109.42-31.19,129.47-3.36,9.95-7.17,19.26-11.23,27.97-1.03,2.21-5.07,70.48,49.82,121.54-61.27-38.29-55.17-110.59-56.3-108.44-14.84,28.37-31.17,49.73-39.43,66.18-15.91,31.7-32.9,75.14-17.75,110.26-18.35-32.45-2.48-89.61,7.24-111.81-34.76,30.57-73.25,47.63-113.27,54.2-27.98,32-84.34,48.54-124.9,38.92,60.94,.23,88.97-14.97,115.13-42.18-62.44,3.19-89.98-56.86-150.23-56.86,60.25-6.15,101.02,57.69,174.3,46.02,66.23-10.54,120.62-58.03,149.32-124.9,26.67-62.14,42.32-134.74,51.09-189.34h-5.91Z"/><path class="cls-1" d="M1452.15,0c-5.93,21.33-12.6,39.52-18.78,53.84-8.3,19.26-27.5,57.65-51.73,76.23-48.02,36.83-99.99,40.92-151.84,16.74-24.39-11.37-35.54-26.42-41.48-52.54,11.3,8.92,27.01,9.59,38.51,1.14-8.89-15.23-26.76-20.54-37.98-32.11-14.08-14.52-13.97-34.1-6.02-52.05,1.73-3.91,3.8-7.67,6.16-11.26h80.82c7.52,7.42,5.22,14.42,9.43,24.97-2.29-15.32,11-23.83,25.69-24.97h6.87c11.85,.92,23.19,6.61,26.76,17.37-9.34-2.17-21.72,5.53-23.97,16.3-2.72,13.05,2.72,23.9,13.62,30.46,9.59,5.78,33.41,8.97,62.35-12.21,14.57-10.67,26.84-24.51,42-51.91h8.59c-9.27,23.38-16.13,33.14-24.12,44.45-19.97,28.24-54.04,43.6-78.02,46.2-43.4,4.72-90.66-14-103.76-75.57,2.86,55.35,45.67,90.28,107.27,83.35-5.23,8-45.57,39.42-122.88,15.88,92.02,36.19,131.38-12.07,136.91-19.18,17.76-5.26,50.6-20.91,66.38-47.69,7.72-13.1,13.82-25.94,21.34-47.45h7.87Z"/><g><path class="cls-1" d="M1882,222.51c-8.67-22.77-22.41-39.01-42.64-52.85-16.87-11.52-47.72-20.52-68.01-13.03-27.52,10.16-42.28,24.05-51.33,42.1-6.01,11.99-12.02,40.38,9.84,49.76,13.13,5.64,22.64-7.75,21.52-14.92-1.35-8.67-11.56-16.65-21.5-1.8-16.43-15.59,6.82-48.8,35.77-49.9,28.08-1.06,53.45,33.01,27,46.4,6.86,16.18,22.21,15.28,31.03,4.11,5.33-6.75,6.48-17.35,.38-28.58,7.88,7.96,16.08,16.36,20.3,27.96,5.43,14.86,1.19,35.04-9.73,46.16-7.18,7.31-24.09,17.31-35.38,8.75,1.44,30.41,38.09,39.3,50.65,10.81,.51,13.29-15.2,20.88-15.11,34.93,.09,15.96,16.08,30.98,38.27,37.24-17.02-11.18-4.84-29.97-.04-40.21,7.14-15.24,5.2-32.71-1.98-48.15,1.4,3,5.45,10.2,10.97,16.58v-75.38Z"/><path class="cls-1" d="M1882,384.8c-6.82-3.79-12.94-7.09-17.38-9.99,4.88,6.53,10.63,15.9,17.38,25.61v-15.62Z"/><path class="cls-1" d="M1882,369.77c-2.27,.03-4.34,.02-6.15-.09,1.89,1.06,3.95,2.34,6.15,3.77v-3.67Z"/><path class="cls-1" d="M1882,413.07c-7.93-10.77-17.56-19.92-22.44-26.4,3.31,16.74,2.69,50.72,22.44,65.48v-39.08Z"/><path class="cls-1" d="M1804.88,418.3c-14.83-9.39-46.39-3.23-70.38-6.1-33.23-4-55.76-16.58-75.76-39.56-13.41-15.41-25.92-45.02-20.84-66.04,6.9-28.51,18.98-44.79,35.86-55.86,11.2-7.37,38.71-16.63,50.58,3.99,7.12,12.39-5.09,23.38-12.33,23.11-8.78-.33-17.87-9.54-4.3-21.14-17.4-14.52-47.69,12.44-45.41,41.32,2.21,28,38.99,49.25,49.21,21.41,16.87,4.94,17.76,20.29,7.69,30.34-6.08,6.08-16.48,8.47-28.34,3.71,8.84,6.9,22.07,12.38,34.07,15.24,15.4,3.65,29.93-2.15,40.78-13.37,8.62-8.9,14.4-25.91,4.6-36.15,30.37-2.09,43.44,33.27,16.6,49.06,13.28-1.06,18.98-17.53,32.95-19.08,15.86-1.76,32.63,12.37,41.42,33.69-13.08-15.6-30.32-1.32-39.93,4.63-14.32,8.86-31.91,8.97-48.05,3.64,6.27,2.07,30.44,12.76,31.56,27.16Z"/><path class="cls-1" d="M1710.43,237.29c-7.73-2.65-21.46-.84-32.57,4.6-7.62,3.73-18.29,11.33-24.83,21.18-7.53-20.88,16.92-40.33,26.37-39.99-8.41-.74-18.52-1.53-28.33-13.98-11.02-14.01-12.16-35.2-32.95-53.95,21.03,18.48,42.21,17.14,57.4,26.46,13.51,8.29,14.22,22.05,17.18,26.52-1.43-9.35,15.04-35.89,36.66-30.84-9.04,7.63-15.35,19.11-18.17,27.11-4.11,11.67-4.31,25.52-.77,32.88Z"/><path class="cls-1" d="M1882,157.11c-12.4,4.57-26.37,7.31-39.45,6.11-7.73-2.92-13.34-5.53-18.9-7.31,16.12-11.66,32.74-39.71,36.21-62.98,3.47-23.27-4.15-42.57-15.28-53.26,17.36,24.17,12.58,44.18,10.4,56.07-3.5,19.09-20.34,46.94-36.05,58.35-10.52-4.21-31.05-6.03-44.31-3.48,1.18-10.5,2.77-22.77-3.08-48.42-4.3-18.84-22.95-46.17-37.08-55.47,10.09,8.33,26.42,37.46,30.82,54.03,6.01,22.63,3.12,44.79,2.21,50.54-9.26,4.58-19.66,9.4-32.36,14.61-11.52,4.72-26,9.53-45.22,8.83-14.31-17.88-30.46-43.81-21.11-70.21-14.25,23.96,1.13,54.37,12.08,70.34-21.71-3.57-55.25-22.77-71.16-34.05-15.92-11.28-43.49-34.97-53.72-41.09,8.78,8.58,27.52,25.25,46.96,47.01,19.42,21.77,36.45,46.76,42.51,67.91-17.13-9.02-49.11-20.77-71.27-3.82,25.15-12.35,52.78,.67,72.2,12.8,2.92,19.01-.17,33.95-3.52,45.94-3.7,13.23-7.28,24.11-10.76,33.85-5.6,1.56-27.26,7.03-50.43,3.68-17-2.45-47.8-15.29-57.27-24.34,10.89,12.95,40.2,28.3,59.41,30.38,26.16,2.83,38.16-.16,48.46-2.57-1,13.48,3.2,33.65,8.59,43.61-9.51,16.93-35.21,36.89-53.77,42.59-11.56,3.55-30.88,10.61-56.91-3.82,11.91,9.8,31.97,15.15,54.69,8.99,22.71-6.15,48.62-25.91,58.35-43.28,2.41,5.32,5.66,10.58,9.44,17.92,5.79,27.37-5.69,60.79-17.08,74.47-11.37,13.67-31.27,25.33-55.75,24.45,13.37,4.46,37.3,2.08,60.39-24.3,22.62-25.84,20.34-65.58,18-72.84,6.84,9.25,10.83,12.8,17.52,18.41,12.33,15.63,20.4,34.78,22.18,50.24,1.14,9.98,3.86,37.55-7.42,60.05,12.02-17.08,16.42-42.53,13.23-61.23-2.57-15.06-7.77-32.29-19.07-46.32,16.04,10.98,30.35,13.81,42.72,16.87,21.9,15.52,36.6,33.08,45.16,50.2-3.44-8.61-5.12-17.57-16.85-30.96-6.78-7.76-11.8-11.05-18.44-16.95,14.61-.93,30.47-1.89,45.06-.51,10.24,.98,22.17,3.21,31.1,7.85-1.93-8.47-7.29-19.33-15.3-24.72,12.53-5.51,37.18,3.17,47.14,10.48,11.44,8.38,20.52,20.73,23.98,34.57,8.56,34.19-20.48,69.12-45.51,71.98,10.58-3.68,12.98-17.56,10.36-30.78-3.79,23.4-28.5,19.94-42.23,24.94-13.7,5-12.67,14.3-12.9,25.89-9.39-12.69-14.37-28.13-.13-40.98,11.32-10.22,27.37-2.03,38.29-14.61,29.12-33.59-28.35-62.02-52.57-52.64,26.97,8.92,31.63,38.46,9.52,55.81,3-9.43-23.05-15.77-30.65-20.08-13.93-7.9-20.81-22.55-27.18-36.51-10.63,21.28,11.36,40.49,6.43,62.41-5.27,23.37-30.79,39-52.53,43.13,9.87-6.16,6.52-21.52,3.29-30.41-3.25-8.95-9.89-15.24-11.72-24.91-2.42-12.87,4.95-21.83,10.79-32.36,5.11-9.24,7.25-21.26,5.12-31.66-1.82-8.93-5.77-14.99-12.2-22.93,16.4,36.98-3.73,87.39-45.42,103.95-31.15,12.37-70.69-3.59-85.48-38.78,15.84,13.97,35.61,18.5,45.84-.27,11.35-20.85,23.14-15.69,41.04-28.66,17.59-12.76,27.46-26.36,26.28-46.03-11.68,22.79-32.5,42.68-63.61,47.45-41.81,6.42-77.94-26.28-81.55-68.25,16.22,23.18,28.73,14.16,36.13,4.15,8.89-12.02,22.38-21.23,37.68-20.73,18.79,.61,35.25,10.46,53.13-7.89-71.48,19.9-119.22-39.97-116.65-80.64,10.06,20.17,41.58,21.4,56.76,7.56,20.42-18.59,48.15-23.58,64.75,2.27-2.02-9.57-4.44-16.92-11.75-27.16-7.31-10.23-15.03-20.84-35.82-18.44-17.35,2-29.34,15.49-25.27,40.12-11.28-1.05-25.41-12.9-28.34-25.22-2.94-12.33-1.55-26.44,17.69-40.84,26.69-19.97,42.29,1.62,58.92-13.88-11.86-4.42-24.44-.24-36.61-1.8-18.42-2.38-35.3-16.91-36.57-36.97-1.28-20.5,8.88-40.99-4.21-62.33,21.1,9.82,43.72-4,64.23-5.1,20.07-1.08,36.46,14,40.95,32.04,2.98,11.91,.29,24.88,6.06,36.15,13.46-18.32-9.78-31.3,6.94-60.13,12.06-20.77,25.91-23.8,38.5-22.32,12.59,1.48,25.99,14.14,28.36,25.23-24.94-1.19-36.94,12.3-36.92,29.75,.04,20.93,11.46,27.37,22.49,33.44,11.02,6.07,18.6,7.6,28.33,8.51-27.61-13.48-25.87-41.6-9.78-64.04,11.97-16.69,7.1-47.84-14.11-55.51,40.1-7.27,105.11,33.2,93.65,106.51,16.14-19.89,4.47-35.1,1.67-53.69-2.28-15.16,5.3-29.62,16.2-39.85,9.08-8.51,16.6-21.97-8.31-35.4,31.24-.94,59.5,16.49,71.37,42.82v58.39c-7.01,17.43-19.55,30.98-33.87,40.57,14.52-.84,25.07-7.26,33.87-18.19v17.78Z"/><path class="cls-1" d="M1882,192.24c-5.72-2.33-11.38-5.16-16.73-8.46-6.34-6-10.32-9.55-20.31-15.26,4.42,.87,20.16,.41,37.04-5.41v13.76c-7.48,.24-14.93-.69-22.07-2.91,7.95,5.04,14.06,8.17,22.07,9.24v9.04Z"/><path class="cls-1" d="M1882,211.57c-3.15-6.19-7.22-12.65-12.98-19.25,4.18,2.63,8.54,4.77,12.98,6.52v12.74Z"/><path class="cls-1" d="M1794.1,311.33c-11.48-4.14-26.59-5.89-36.6-2.58,5.5,8.08,5.33,23.02,1.71,30.13-4.54,8.93-17.41,17.8-31.78,16.12,14.17-10.9,14.13-28.07,4.33-38.72-8.49-9.21-20.64-15.94-29.55-5.16-8.91,10.8-23.04,.94-26.92-15.21-2.9-12.1,1.98-23.62,13.71-31.45,2.9,13.68,13.78,26.84,27.18,24.03,15.79-3.29,21.94-18.05,21.31-27.66,9.21,.14,23.92-8.34,25.36-24.42,1.23-13.63-13.56-22.75-27.48-24.04,6.4-12.55,17.26-18.74,29.63-17.26,16.49,1.98,27.94,14.87,18.25,24.96-9.68,10.11-1.59,21.4,8.55,28.75,11.73,8.51,28.77,6.55,37.95-8.79,3.34,14.08-3.98,27.88-12.32,33.43-6.64,4.42-21.47,6.32-30.13,1.79-2.12,10.33,1.37,25.14,6.81,36.08Z"/></g></g></g></svg>