<svg width="2060" height="1174" viewBox="0 0 2060 1174" fill="none" xmlns="http://www.w3.org/2000/svg">
<path fill-rule="evenodd" clip-rule="evenodd" d="M1101.06 1121.06C1100.91 1106.99 1098.24 1094.78 1097.63 1080.37C1096.02 1041.9 1099.38 1003.74 1114.82 968.469C1170.73 840.781 1324.49 856.879 1447.66 862.169C1517.39 865.16 1643 859.634 1712.93 856.658C1768.59 854.286 1819.94 850.484 1864.44 828.86C1884.76 818.987 1900.75 804.547 1912.69 788.567C1926.69 769.831 1931.65 751.154 1936.16 724.476C1944.98 672.321 1937.8 443.373 1935.66 390.731C1931.52 289.015 1958.98 169.91 1842.49 135.319C1794.6 121.092 1736.37 117.828 1680.93 117.431C1621.8 117.011 1562.92 113.459 1503.58 112.87C1444.64 112.288 1385.52 110.306 1326.23 110.115C1206.64 109.724 1085.48 107.735 965.13 108.258C844.212 108.774 723.084 107.713 602.433 109.289C543.453 110.063 480.28 111.448 422.38 107.75C366.044 104.147 304.255 105.208 251.158 114.395C199.634 123.317 159.54 144.197 144.847 186.266C121.956 251.793 129.545 353.046 126.549 424.504C123.568 495.646 118.905 605.998 127.879 672.232C135.514 728.624 146.303 762.294 177.807 797.15C243.476 869.794 376.551 864.328 471.416 863.974L741.438 862.618C771.205 862.67 803.383 860.467 832.595 861.823C898.952 864.917 910.836 892.693 936.457 934.276C959.067 970.959 978.953 1010.35 1003.57 1042.7C1025.92 1072.07 1065.14 1110.46 1101.06 1121.06Z" fill="white"/>
<path fill-rule="evenodd" clip-rule="evenodd" d="M1101.06 1121.06C1065.14 1110.47 1025.93 1072.07 1003.57 1042.7C978.955 1010.35 959.068 970.961 936.458 934.278C910.837 892.695 898.954 864.919 832.596 861.825C803.384 860.469 771.207 862.672 741.439 862.621L471.417 863.976C376.552 864.33 243.477 869.797 177.808 797.152C146.304 762.296 135.515 728.626 127.88 672.235C118.907 606 123.569 495.648 126.55 424.507C129.546 353.048 121.958 251.796 144.849 186.268C159.541 144.199 199.635 123.32 251.16 114.397C304.257 105.21 366.045 104.149 422.381 107.752C480.281 111.45 543.454 110.065 602.434 109.292C723.085 107.715 844.214 108.776 965.131 108.26C1085.48 107.737 1206.64 109.726 1326.23 110.117C1385.52 110.308 1444.64 112.29 1503.58 112.872C1562.92 113.462 1621.8 117.013 1680.93 117.433C1736.37 117.831 1794.6 121.095 1842.49 135.321C1958.98 169.912 1931.52 289.017 1935.66 390.734C1937.8 443.375 1944.99 672.323 1936.16 724.478C1931.65 751.156 1926.69 769.833 1912.69 788.569C1900.75 804.549 1884.76 818.99 1864.44 828.862C1819.95 850.486 1768.59 854.288 1712.93 856.66C1643 859.637 1517.39 865.162 1447.66 862.171C1324.49 856.881 1170.73 840.783 1114.82 968.471C1099.38 1003.75 1096.02 1041.9 1097.63 1080.37C1098.24 1094.78 1100.91 1107 1101.06 1121.06ZM84.75 403.369V484.612C84.75 525.384 88.1766 566.016 87.9341 610.988L93.6216 683.868C102.251 728.471 111.537 763.762 138.144 798.405C191.765 868.183 277.681 890.448 366.069 896.725C375.402 897.381 383.014 898.39 391.494 898.361C403.151 898.309 407.548 899.945 418.657 899.864C429.852 899.775 435.187 901.131 444.2 901.381L747.831 901.337C863.858 901.337 866.557 899.252 901.746 965.524C920.053 999.997 939.447 1033.36 963.285 1064.04L981.576 1085.93C1006.31 1113.47 1048.54 1146.58 1083.58 1159.88C1107.59 1168.99 1110.1 1173.64 1134.49 1173.64C1143.88 1173.64 1152.07 1161.32 1152.07 1154.08C1152.07 1144.77 1139.29 1099.59 1139.29 1053.28C1139.29 870.335 1326.33 905.028 1458.84 905.028C1464.21 905.028 1476.18 904.336 1484.44 904.306C1495.04 904.27 1498.23 905.883 1508.32 905.898L1726.37 900.483C1753.01 896.88 1783.14 895.421 1811.77 890.625C1831.41 887.339 1848.75 881.43 1866.89 874.836C1892.01 865.7 1920.1 845.182 1937.8 827.264C1952.4 812.484 1966.8 787.98 1972.68 768.33C1991.2 706.45 1988.55 581.974 1986.17 507.127C1985.92 499.553 1984.56 498.802 1984.45 490.69C1984.24 474.511 1984.72 449.49 1982.24 434.092C1980.39 422.525 1981.76 409.55 1981.37 397.306C1981.13 389.599 1979.68 388.052 1979.67 379.351C1979.58 319.091 1983.42 274.37 1971.06 214.442C1969.23 205.549 1965.09 193.194 1961.94 185.428C1942.72 138.099 1913.99 117.919 1869.02 99.9053C1818.75 79.7623 1758.12 82.2746 1709.46 77.1321C1696.51 75.7617 1683.05 78.1635 1670.19 76.4984L1591.44 73.9272C1577.74 74.0008 1566.93 72.3947 1551.52 72.4021C1498.05 72.4021 1445.21 69.3887 1391.74 69.3887C1337.31 69.3887 1285.96 67.8858 1230.36 67.8858L461.787 69.4256C450.154 69.4698 442.862 67.9079 429.852 67.8637C417.702 67.8268 410.004 70.5528 398.355 68.9835C388.607 67.6721 346.808 69.013 335.166 70.4792C325.692 71.6801 312.893 72.1737 303.631 72.3874C289.877 72.6968 260.571 77.5815 244.956 80.3223C236.827 81.7516 226.618 84.0797 217.918 86.4594C122.419 112.6 101.547 165.455 94.2162 254.323C93.5356 262.53 91.3607 274.466 91.126 283.005C90.86 292.885 90.3515 302.543 89.4596 313.028C86.7919 344.34 84.75 371.711 84.75 403.369Z" fill="black"/>
<path fill-rule="evenodd" clip-rule="evenodd" d="M506.566 13.7249C507.513 24.4521 516.486 19.6043 534.402 22.1166C556.104 25.1594 686.244 28.7696 712.679 28.7696C738.027 28.7696 765.565 31.6945 785.014 29.1821C798.798 27.3992 807.592 30.3094 819.671 30.3241C833.393 30.3462 843.282 28.7327 854.829 28.718L1132.89 27.2666C1142.09 27.2666 1147.19 28.7842 1153.66 28.7842L1182.43 27.2666C1195.15 27.2666 1204.08 28.2243 1214.38 28.7842C1227.05 29.4694 1233.77 27.2666 1246.34 27.2666C1261.87 27.2666 1271 28.74 1286.3 28.7916C1299.98 28.8358 1310.9 27.2886 1326.26 27.2297L1429.65 29.1821C1455.07 32.4607 1455.06 27.7307 1468.31 28.8137C1475.28 29.381 1479.73 30.9798 1489.1 30.2062C1503.02 29.0569 1560.15 27.576 1567.49 24.2532C1565.62 17.6519 1560.73 18.3812 1545.82 16.0899C1513.97 11.1904 1435.4 4.6922 1401.38 4.64799C1380.31 4.61852 1358.29 5.34056 1337.36 4.75115L1276.69 3.1966C1264.15 3.22607 1257.18 1.64941 1246.39 1.63467C1222.77 1.6052 1170.49 2.8282 1153.23 0.595819C1142.37 -0.804023 1131.48 0.58116 1123.04 1.50211C1114.66 2.42306 1103.78 0.183281 1092.95 0.183281L679.563 2.09884C668.532 3.52078 656.758 2.53351 643.967 3.18923C622.085 4.30173 597.669 7.74982 575.224 7.66878L506.566 13.7249Z" fill="#030303"/>
<path fill-rule="evenodd" clip-rule="evenodd" d="M24.033 567.349C29.1573 560.143 27.5457 556.312 29.2981 543.728C30.1821 537.407 31.6294 523.172 32.0284 516.21L32.6465 429.766C30.6515 414.383 39.6014 311.656 42.5351 291.41L67.1708 135.586C67.1708 128.115 60.6383 131.423 57.9705 134.267C50.4367 142.283 34.7509 177.478 29.2668 190.157C13.4715 226.708 5.67169 287.211 3.26993 331.166C2.90224 337.848 1.70527 338.371 1.60356 346.144C0.672589 417.602 -5.14012 470.281 13.2368 544.413C15.1927 552.289 17.2893 563.098 24.033 567.349Z" fill="#020202"/>
<path fill-rule="evenodd" clip-rule="evenodd" d="M1938.18 907.348C1945.79 907.348 1961.18 901.085 1968.03 897.844C1992.76 886.144 2014.19 860.114 2026.61 837.172C2052.92 788.612 2069.56 711.024 2053.99 652.385C2052.28 645.968 2053.14 645.666 2046.83 644.074C2046.31 650.012 2044 655.943 2042.71 662.759C2041.35 669.92 2040.68 675.025 2039.53 682.341C2031.86 731.321 2035.72 754.234 2015.56 799.678C2006.63 819.813 1982.83 853.962 1966.55 869.368L1943.36 894.174C1941.65 895.773 1930.04 907.348 1938.18 907.348Z" fill="black"/>
<path fill-rule="evenodd" clip-rule="evenodd" d="M765.402 935.933C767.037 941.688 772.123 942.69 777.865 945.261L803.126 959.09C816.371 967.386 826.753 976.234 836.407 987.934C847.5 1001.38 881.539 1046.53 896.427 1050.27C896.427 1015.98 870.274 978.408 844.113 956.607C838.363 951.811 833.473 948.436 826.808 944.31C815.753 937.473 786.956 928.124 771.301 932.456C764.135 934.445 769.377 930.828 765.402 935.933Z" fill="black"/>
<path fill-rule="evenodd" clip-rule="evenodd" d="M1593.06 22.7483C1604.22 25.2018 1611.77 28.4803 1625.08 30.2043C1636.65 31.7073 1649.22 32.9672 1661.78 33.2693C1682.06 33.7556 1751.48 48.2992 1760.82 36.29C1757.05 22.9915 1709.92 18.4899 1698.52 18.2246C1659.32 17.289 1645.46 9.01516 1604.43 13.9072C1595.08 15.0197 1593.27 13.8409 1593.06 22.7483Z" fill="#030303"/>
<path fill-rule="evenodd" clip-rule="evenodd" d="M30.4221 654.608C37.0249 642.857 32.2058 628.475 32.0337 610.962C31.9398 601.657 31.5017 588.668 19.2347 588.41C17.5918 595.07 14.7441 596.279 14.3373 604.965C13.9383 613.607 15.9567 615.832 16.0428 624.511C16.1758 637.309 19.9232 651.97 30.4221 654.608Z" fill="#030303"/>
<path fill-rule="evenodd" clip-rule="evenodd" d="M2038.84 586.909C2038.84 595.315 2040.28 602.13 2041.56 608.415C2043.08 615.9 2044.57 621.241 2051.62 623.017C2061.07 616.489 2058.01 600.59 2058.01 583.903C2058.01 575.842 2055.18 570.604 2050.02 567.348C2041.69 569.447 2038.84 579.239 2038.84 586.909Z" fill="#030303"/>
</svg>
