<svg width="2545" height="877" viewBox="0 0 2545 877" fill="none" xmlns="http://www.w3.org/2000/svg">
<g filter="url(#filter0_d_10330_3150)">
<path d="M172.087 512.95L194.316 527.845L157.894 582.2L357.142 715.712L311.479 783.858L112.231 650.347L75.5911 705.027L53.3623 690.132L172.087 512.95Z" fill="url(#paint0_linear_10330_3150)"/>
</g>
<g filter="url(#filter1_d_10330_3150)">
<path d="M342.908 525.657L426.503 606.137L379.567 654.891L211.513 493.101L258.45 444.347L326.041 509.419L364.325 469.652L296.734 404.581L343.671 355.827L511.724 517.616L464.788 566.37L381.192 485.89L342.908 525.657Z" fill="url(#paint1_linear_10330_3150)"/>
</g>
<g filter="url(#filter2_d_10330_3150)">
<path d="M512.687 227.224L526.578 246.07L459.308 295.654L501.186 352.469L557.726 310.794L571.618 329.641L515.078 371.316L569.935 445.739L648.623 387.739L662.514 406.586L529.35 504.74L390.94 316.962L512.687 227.224Z" fill="url(#paint2_linear_10330_3150)"/>
</g>
<g filter="url(#filter3_d_10330_3150)">
<path d="M881.894 53.3507L909.739 293.526L868.817 309.942L791.279 203.864L808.068 334.31L767.146 350.725L624.465 156.615L687.593 131.292L773.108 249.453L753.259 104.951L790.216 90.1263L875.446 208.954L857.151 63.2763L881.894 53.3507Z" fill="url(#paint3_linear_10330_3150)"/>
</g>
<g filter="url(#filter4_d_10330_3150)">
<path d="M1071.63 18.1706L1076.19 41.1351L994.222 57.4157L1007.97 126.644L1076.87 112.961L1081.43 135.925L1012.53 149.609L1030.55 240.294L1126.43 221.25L1130.99 244.214L968.728 276.442L923.282 47.6355L1071.63 18.1706Z" fill="url(#paint4_linear_10330_3150)"/>
</g>
<g filter="url(#filter5_d_10330_3150)">
<path d="M1133.56 243.987L1126.19 10.827L1222.87 7.77262C1291.54 5.60323 1327.1 43.4639 1329.56 121.355C1332.01 198.904 1297.65 238.803 1226.48 241.051L1133.56 243.987ZM1200.59 222.548L1218.35 221.987C1234.64 221.472 1245.69 214.113 1251.51 199.908C1257.33 185.59 1259.65 160.04 1258.49 123.258C1257.33 86.4763 1253.4 61.181 1246.69 47.3722C1240.1 33.5598 1228.6 26.9126 1212.21 27.4307L1194.44 27.9919L1200.59 222.548Z" fill="url(#paint5_linear_10330_3150)"/>
</g>
<g filter="url(#filter6_d_10330_3150)">
<path d="M1342.51 239.686L1378.32 9.17565L1473.9 24.0272C1541.79 34.5754 1569.75 78.3524 1557.79 155.358C1545.87 232.026 1504.74 264.893 1434.37 253.96L1342.51 239.686ZM1412.34 230.994L1429.91 233.723C1446.01 236.225 1458.23 231.033 1466.57 218.147C1474.93 205.149 1481.94 180.468 1487.59 144.105C1493.24 107.741 1494.04 82.1542 1490 67.3446C1486.08 52.5524 1476.01 43.8969 1459.79 41.3779L1442.23 38.649L1412.34 230.994Z" fill="url(#paint6_linear_10330_3150)"/>
</g>
<g filter="url(#filter7_d_10330_3150)">
<path d="M1684.93 74.623L1618.14 298.135L1553.3 278.76L1620.09 55.2481L1684.93 74.623Z" fill="url(#paint7_linear_10330_3150)"/>
</g>
<g filter="url(#filter8_d_10330_3150)">
<path d="M1894.58 161.062L1799.31 374.002L1752.05 352.856L1723.42 178.292L1663.13 313.076L1642.38 303.794L1737.64 90.8548L1776.8 108.372L1808.71 297.328L1873.83 151.78L1894.58 161.062Z" fill="url(#paint8_linear_10330_3150)"/>
</g>
<g filter="url(#filter9_d_10330_3150)">
<path d="M1966.8 332.384L2046.38 386.155L1975.87 490.518L1958.03 478.462L1960.93 461.037C1937.89 461.558 1917.69 455.95 1900.32 444.213C1871.71 424.886 1855.25 401.321 1850.94 373.518C1846.78 345.685 1855.23 316.191 1876.28 285.038C1896.75 254.735 1921.66 235.882 1951 228.48C1980.5 221.048 2008.79 226.485 2035.88 244.791C2071.57 268.902 2080.97 301.793 2064.09 343.463L2029.62 337.703L2032.78 333.03L2039.43 322.264C2053.01 298.301 2050.17 279.814 2030.91 266.801C2016.75 257.234 2002.99 256.737 1989.64 265.313C1976.28 273.888 1958.47 294.649 1936.21 327.596C1915.42 358.371 1903.36 380.685 1900.06 394.537C1896.84 408.452 1901.13 419.397 1912.93 427.37C1926.81 436.746 1938.98 433.693 1949.44 418.211L1981.59 370.632L1953.69 351.783L1966.8 332.384Z" fill="url(#paint9_linear_10330_3150)"/>
</g>
<g filter="url(#filter10_d_10330_3150)">
<path d="M2286.38 466.469C2331.41 517.294 2323.83 569.377 2263.62 622.718C2203.42 676.059 2150.38 676.848 2104.52 625.084C2058.66 573.321 2066.51 520.165 2128.08 465.615C2186.93 413.483 2239.69 413.767 2286.38 466.469ZM2271.19 477.415C2262.73 467.863 2251.7 466.067 2238.11 472.024C2224.67 477.992 2203.03 494.197 2173.18 520.641C2143.34 547.085 2124.6 566.654 2116.97 579.348C2109.5 592.053 2110 603.18 2118.46 612.731C2126.93 622.282 2137.87 624.074 2151.31 618.107C2164.91 612.149 2186.63 595.949 2216.48 569.505C2246.24 543.137 2264.89 523.563 2272.45 510.783C2280.07 498.088 2279.66 486.966 2271.19 477.415Z" fill="url(#paint10_linear_10330_3150)"/>
</g>
<g filter="url(#filter11_d_10330_3150)">
<path d="M2486.73 728.559L2463.97 742.628L2413.14 660.391L2337.55 707.117L2380.68 776.894L2357.92 790.963L2314.79 721.186L2209.12 786.5L2168.46 720.71L2395.23 580.532L2486.73 728.559Z" fill="url(#paint11_linear_10330_3150)"/>
</g>
<defs>
<filter id="filter0_d_10330_3150" x="49.3623" y="512.95" width="348.202" height="333.588" filterUnits="userSpaceOnUse" color-interpolation-filters="sRGB">
<feFlood flood-opacity="0" result="BackgroundImageFix"/>
<feColorMatrix in="SourceAlpha" type="matrix" values="0 0 0 0 0 0 0 0 0 0 0 0 0 0 0 0 0 0 127 0" result="hardAlpha"/>
<feOffset dy="4"/>
<feGaussianBlur stdDeviation="2"/>
<feComposite in2="hardAlpha" operator="out"/>
<feColorMatrix type="matrix" values="0 0 0 0 0 0 0 0 0 0 0 0 0 0 0 0 0 0 0.25 0"/>
<feBlend mode="normal" in2="BackgroundImageFix" result="effect1_dropShadow_10330_3150"/>
<feBlend mode="normal" in="SourceGraphic" in2="effect1_dropShadow_10330_3150" result="shape"/>
</filter>
<filter id="filter1_d_10330_3150" x="207.513" y="355.827" width="308.211" height="307.064" filterUnits="userSpaceOnUse" color-interpolation-filters="sRGB">
<feFlood flood-opacity="0" result="BackgroundImageFix"/>
<feColorMatrix in="SourceAlpha" type="matrix" values="0 0 0 0 0 0 0 0 0 0 0 0 0 0 0 0 0 0 127 0" result="hardAlpha"/>
<feOffset dy="4"/>
<feGaussianBlur stdDeviation="2"/>
<feComposite in2="hardAlpha" operator="out"/>
<feColorMatrix type="matrix" values="0 0 0 0 0 0 0 0 0 0 0 0 0 0 0 0 0 0 0.25 0"/>
<feBlend mode="normal" in2="BackgroundImageFix" result="effect1_dropShadow_10330_3150"/>
<feBlend mode="normal" in="SourceGraphic" in2="effect1_dropShadow_10330_3150" result="shape"/>
</filter>
<filter id="filter2_d_10330_3150" x="386.94" y="218.808" width="279.574" height="293.932" filterUnits="userSpaceOnUse" color-interpolation-filters="sRGB">
<feFlood flood-opacity="0" result="BackgroundImageFix"/>
<feColorMatrix in="SourceAlpha" type="matrix" values="0 0 0 0 0 0 0 0 0 0 0 0 0 0 0 0 0 0 127 0" result="hardAlpha"/>
<feOffset dy="4"/>
<feGaussianBlur stdDeviation="2"/>
<feComposite in2="hardAlpha" operator="out"/>
<feColorMatrix type="matrix" values="0 0 0 0 0 0 0 0 0 0 0 0 0 0 0 0 0 0 0.25 0"/>
<feBlend mode="normal" in2="BackgroundImageFix" result="effect1_dropShadow_10330_3150"/>
<feBlend mode="normal" in="SourceGraphic" in2="effect1_dropShadow_10330_3150" result="shape"/>
</filter>
<filter id="filter3_d_10330_3150" x="620.466" y="53.3508" width="352.278" height="327.771" filterUnits="userSpaceOnUse" color-interpolation-filters="sRGB">
<feFlood flood-opacity="0" result="BackgroundImageFix"/>
<feColorMatrix in="SourceAlpha" type="matrix" values="0 0 0 0 0 0 0 0 0 0 0 0 0 0 0 0 0 0 127 0" result="hardAlpha"/>
<feOffset dy="4"/>
<feGaussianBlur stdDeviation="2"/>
<feComposite in2="hardAlpha" operator="out"/>
<feColorMatrix type="matrix" values="0 0 0 0 0 0 0 0 0 0 0 0 0 0 0 0 0 0 0.25 0"/>
<feBlend mode="normal" in2="BackgroundImageFix" result="effect1_dropShadow_10330_3150"/>
<feBlend mode="normal" in="SourceGraphic" in2="effect1_dropShadow_10330_3150" result="shape"/>
</filter>
<filter id="filter4_d_10330_3150" x="919.282" y="15.4072" width="215.706" height="269.035" filterUnits="userSpaceOnUse" color-interpolation-filters="sRGB">
<feFlood flood-opacity="0" result="BackgroundImageFix"/>
<feColorMatrix in="SourceAlpha" type="matrix" values="0 0 0 0 0 0 0 0 0 0 0 0 0 0 0 0 0 0 127 0" result="hardAlpha"/>
<feOffset dy="4"/>
<feGaussianBlur stdDeviation="2"/>
<feComposite in2="hardAlpha" operator="out"/>
<feColorMatrix type="matrix" values="0 0 0 0 0 0 0 0 0 0 0 0 0 0 0 0 0 0 0.25 0"/>
<feBlend mode="normal" in2="BackgroundImageFix" result="effect1_dropShadow_10330_3150"/>
<feBlend mode="normal" in="SourceGraphic" in2="effect1_dropShadow_10330_3150" result="shape"/>
</filter>
<filter id="filter5_d_10330_3150" x="1122.19" y="4.51855" width="215.047" height="247.469" filterUnits="userSpaceOnUse" color-interpolation-filters="sRGB">
<feFlood flood-opacity="0" result="BackgroundImageFix"/>
<feColorMatrix in="SourceAlpha" type="matrix" values="0 0 0 0 0 0 0 0 0 0 0 0 0 0 0 0 0 0 127 0" result="hardAlpha"/>
<feOffset dy="4"/>
<feGaussianBlur stdDeviation="2"/>
<feComposite in2="hardAlpha" operator="out"/>
<feColorMatrix type="matrix" values="0 0 0 0 0 0 0 0 0 0 0 0 0 0 0 0 0 0 0.25 0"/>
<feBlend mode="normal" in2="BackgroundImageFix" result="effect1_dropShadow_10330_3150"/>
<feBlend mode="normal" in="SourceGraphic" in2="effect1_dropShadow_10330_3150" result="shape"/>
</filter>
<filter id="filter6_d_10330_3150" x="1338.51" y="9.17554" width="241.228" height="269.184" filterUnits="userSpaceOnUse" color-interpolation-filters="sRGB">
<feFlood flood-opacity="0" result="BackgroundImageFix"/>
<feColorMatrix in="SourceAlpha" type="matrix" values="0 0 0 0 0 0 0 0 0 0 0 0 0 0 0 0 0 0 127 0" result="hardAlpha"/>
<feOffset dy="4"/>
<feGaussianBlur stdDeviation="2"/>
<feComposite in2="hardAlpha" operator="out"/>
<feColorMatrix type="matrix" values="0 0 0 0 0 0 0 0 0 0 0 0 0 0 0 0 0 0 0.25 0"/>
<feBlend mode="normal" in2="BackgroundImageFix" result="effect1_dropShadow_10330_3150"/>
<feBlend mode="normal" in="SourceGraphic" in2="effect1_dropShadow_10330_3150" result="shape"/>
</filter>
<filter id="filter7_d_10330_3150" x="1549.3" y="55.248" width="139.628" height="250.887" filterUnits="userSpaceOnUse" color-interpolation-filters="sRGB">
<feFlood flood-opacity="0" result="BackgroundImageFix"/>
<feColorMatrix in="SourceAlpha" type="matrix" values="0 0 0 0 0 0 0 0 0 0 0 0 0 0 0 0 0 0 127 0" result="hardAlpha"/>
<feOffset dy="4"/>
<feGaussianBlur stdDeviation="2"/>
<feComposite in2="hardAlpha" operator="out"/>
<feColorMatrix type="matrix" values="0 0 0 0 0 0 0 0 0 0 0 0 0 0 0 0 0 0 0.25 0"/>
<feBlend mode="normal" in2="BackgroundImageFix" result="effect1_dropShadow_10330_3150"/>
<feBlend mode="normal" in="SourceGraphic" in2="effect1_dropShadow_10330_3150" result="shape"/>
</filter>
<filter id="filter8_d_10330_3150" x="1638.38" y="90.8547" width="260.197" height="291.147" filterUnits="userSpaceOnUse" color-interpolation-filters="sRGB">
<feFlood flood-opacity="0" result="BackgroundImageFix"/>
<feColorMatrix in="SourceAlpha" type="matrix" values="0 0 0 0 0 0 0 0 0 0 0 0 0 0 0 0 0 0 127 0" result="hardAlpha"/>
<feOffset dy="4"/>
<feGaussianBlur stdDeviation="2"/>
<feComposite in2="hardAlpha" operator="out"/>
<feColorMatrix type="matrix" values="0 0 0 0 0 0 0 0 0 0 0 0 0 0 0 0 0 0 0.25 0"/>
<feBlend mode="normal" in2="BackgroundImageFix" result="effect1_dropShadow_10330_3150"/>
<feBlend mode="normal" in="SourceGraphic" in2="effect1_dropShadow_10330_3150" result="shape"/>
</filter>
<filter id="filter9_d_10330_3150" x="1805.97" y="183.366" width="306.697" height="318.408" filterUnits="userSpaceOnUse" color-interpolation-filters="sRGB">
<feFlood flood-opacity="0" result="BackgroundImageFix"/>
<feColorMatrix in="SourceAlpha" type="matrix" values="0 0 0 0 0 0 0 0 0 0 0 0 0 0 0 0 0 0 127 0" result="hardAlpha"/>
<feOffset dy="4"/>
<feGaussianBlur stdDeviation="2"/>
<feComposite in2="hardAlpha" operator="out"/>
<feColorMatrix type="matrix" values="0 0 0 0 0 0 0 0 0 0 0 0 0 0 0 0 0 0 0.25 0"/>
<feBlend mode="normal" in2="BackgroundImageFix" result="effect1_dropShadow_10330_3150"/>
<feBlend mode="normal" in="SourceGraphic" in2="effect1_dropShadow_10330_3150" result="shape"/>
</filter>
<filter id="filter10_d_10330_3150" x="2031.73" y="387.417" width="326.2" height="323.312" filterUnits="userSpaceOnUse" color-interpolation-filters="sRGB">
<feFlood flood-opacity="0" result="BackgroundImageFix"/>
<feColorMatrix in="SourceAlpha" type="matrix" values="0 0 0 0 0 0 0 0 0 0 0 0 0 0 0 0 0 0 127 0" result="hardAlpha"/>
<feOffset dy="4"/>
<feGaussianBlur stdDeviation="2"/>
<feComposite in2="hardAlpha" operator="out"/>
<feColorMatrix type="matrix" values="0 0 0 0 0 0 0 0 0 0 0 0 0 0 0 0 0 0 0.25 0"/>
<feBlend mode="normal" in2="BackgroundImageFix" result="effect1_dropShadow_10330_3150"/>
<feBlend mode="normal" in="SourceGraphic" in2="effect1_dropShadow_10330_3150" result="shape"/>
</filter>
<filter id="filter11_d_10330_3150" x="2164.46" y="580.532" width="326.275" height="296.204" filterUnits="userSpaceOnUse" color-interpolation-filters="sRGB">
<feFlood flood-opacity="0" result="BackgroundImageFix"/>
<feColorMatrix in="SourceAlpha" type="matrix" values="0 0 0 0 0 0 0 0 0 0 0 0 0 0 0 0 0 0 127 0" result="hardAlpha"/>
<feOffset dy="4"/>
<feGaussianBlur stdDeviation="2"/>
<feComposite in2="hardAlpha" operator="out"/>
<feColorMatrix type="matrix" values="0 0 0 0 0 0 0 0 0 0 0 0 0 0 0 0 0 0 0.25 0"/>
<feBlend mode="normal" in2="BackgroundImageFix" result="effect1_dropShadow_10330_3150"/>
<feBlend mode="normal" in="SourceGraphic" in2="effect1_dropShadow_10330_3150" result="shape"/>
</filter>
<linearGradient id="paint0_linear_10330_3150" x1="159.137" y1="620.485" x2="521.339" y2="863.189" gradientUnits="userSpaceOnUse">
<stop stop-color="#4FBBE7"/>
<stop offset="1" stop-color="#0168B7"/>
</linearGradient>
<linearGradient id="paint1_linear_10330_3150" x1="315.78" y1="445.844" x2="590.615" y2="710.434" gradientUnits="userSpaceOnUse">
<stop stop-color="#4FBBE7"/>
<stop offset="1" stop-color="#0168B7"/>
</linearGradient>
<linearGradient id="paint2_linear_10330_3150" x1="482.244" y1="302.26" x2="708.599" y2="609.353" gradientUnits="userSpaceOnUse">
<stop stop-color="#4FBBE7"/>
<stop offset="1" stop-color="#0168B7"/>
</linearGradient>
<linearGradient id="paint3_linear_10330_3150" x1="780.812" y1="139.517" x2="922.844" y2="493.592" gradientUnits="userSpaceOnUse">
<stop stop-color="#4FBBE7"/>
<stop offset="1" stop-color="#0168B7"/>
</linearGradient>
<linearGradient id="paint4_linear_10330_3150" x1="1012.17" y1="73.1457" x2="1086.5" y2="447.336" gradientUnits="userSpaceOnUse">
<stop stop-color="#4FBBE7"/>
<stop offset="1" stop-color="#0168B7"/>
</linearGradient>
<linearGradient id="paint5_linear_10330_3150" x1="1233.1" y1="49.8093" x2="1245.15" y2="431.119" gradientUnits="userSpaceOnUse">
<stop stop-color="#4FBBE7"/>
<stop offset="1" stop-color="#0168B7"/>
</linearGradient>
<linearGradient id="paint6_linear_10330_3150" x1="1476.2" y1="67.2304" x2="1417.62" y2="444.207" gradientUnits="userSpaceOnUse">
<stop stop-color="#4FBBE7"/>
<stop offset="1" stop-color="#0168B7"/>
</linearGradient>
<linearGradient id="paint7_linear_10330_3150" x1="1645.36" y1="106.988" x2="1536.14" y2="472.519" gradientUnits="userSpaceOnUse">
<stop stop-color="#4FBBE7"/>
<stop offset="1" stop-color="#0168B7"/>
</linearGradient>
<linearGradient id="paint8_linear_10330_3150" x1="1807.94" y1="168.689" x2="1652.15" y2="516.93" gradientUnits="userSpaceOnUse">
<stop stop-color="#4FBBE7"/>
<stop offset="1" stop-color="#0168B7"/>
</linearGradient>
<linearGradient id="paint9_linear_10330_3150" x1="2011.05" y1="283.854" x2="1797.47" y2="599.961" gradientUnits="userSpaceOnUse">
<stop stop-color="#4FBBE7"/>
<stop offset="1" stop-color="#0168B7"/>
</linearGradient>
<linearGradient id="paint10_linear_10330_3150" x1="2257.58" y1="503.983" x2="1972.03" y2="756.973" gradientUnits="userSpaceOnUse">
<stop stop-color="#4FBBE7"/>
<stop offset="1" stop-color="#0168B7"/>
</linearGradient>
<linearGradient id="paint11_linear_10330_3150" x1="2399.04" y1="680.073" x2="2028.17" y2="909.319" gradientUnits="userSpaceOnUse">
<stop stop-color="#4FBBE7"/>
<stop offset="1" stop-color="#0168B7"/>
</linearGradient>
</defs>
</svg>
