<svg width="390" height="197" viewBox="0 0 390 197" fill="none" xmlns="http://www.w3.org/2000/svg">
<g clip-path="url(#clip0_1102_397)">
<path d="M45.0533 30.7306C37.0369 35.8925 22.4722 30.4201 16.5298 39.0905C14.7199 41.7297 15.6132 45.2227 17.3998 52.2087L32.8578 128.069C36.3533 141.715 38.0933 148.538 43.5231 152.52C45.7369 154.15 48.0284 154.911 50.4908 155.245M45.0533 30.7306C55.8041 23.799 46.5292 15.5244 62.1426 15.5244L78.8824 28.6659C85.5549 33.8976 88.8874 36.5212 89.1359 40.2161C89.3845 43.9186 86.4405 47.008 80.5447 53.179L76.2413 57.6811C73.2973 60.7627 71.8214 62.3074 70.0581 62.1754C68.2948 62.0435 67.0364 60.2969 64.5429 56.8117L45.0533 30.7306ZM141.375 30.7306C149.391 35.8925 163.956 30.4201 169.898 39.0905C171.708 41.7297 170.815 45.2227 169.028 52.2087L153.57 128.069C150.075 141.715 148.335 148.538 142.913 152.52C140.691 154.15 138.392 154.911 135.937 155.245M141.375 30.7306C130.624 23.799 139.899 15.5244 124.285 15.5244L107.546 28.6659C100.873 33.8976 97.5407 36.5212 97.2922 40.2161C97.0436 43.9186 99.9876 47.008 105.883 53.179L110.187 57.6811C113.131 60.7627 114.607 62.3074 116.37 62.1754C118.133 62.0435 119.392 60.2969 121.885 56.8117L141.375 30.7306ZM79.9077 54.3356L86.6657 65.6063C88.2582 68.2455 89.0505 69.5806 89.2913 71.0632C89.5243 72.5535 89.1748 74.0594 88.4834 77.0634L74.1828 139.262C72.2641 150.021 77.9502 155.252 83.4732 162.161C88.064 167.905 90.3633 170.769 93.2218 170.769C96.0804 170.769 98.3797 167.897 102.97 162.153C108.486 155.26 114.18 150.021 112.261 139.262L97.9524 77.0634C97.2611 74.0594 96.9193 72.5535 97.1524 71.0632C97.3854 69.5806 98.1855 68.2532 99.7701 65.6063L106.528 54.3356" stroke="black" stroke-width="8" stroke-linecap="round" stroke-linejoin="round"/>
<path d="M313.263 20.767L282.09 41.5339L250.917 20.767M313.263 20.767C319.363 26.0522 333.318 34.1928 334.004 43.0499C334.316 46.8814 332.715 48.9789 329.494 53.1738C322.491 62.3217 313.263 67.7003 313.263 83.0679H250.917C250.917 67.7107 241.69 62.3217 234.687 53.1738C231.476 48.9789 229.865 46.8918 230.166 43.0499C230.863 34.1928 244.828 26.0626 250.917 20.767M313.263 20.767V10.7065M250.917 20.767V10.7065M256.113 83.0679H308.068M343 167.5C361.5 181.5 375.609 153.956 375.609 153.956C346.255 134.892 328.85 112.495 319.363 95.58C315.757 89.1422 313.949 85.9233 311.518 84.4904C309.086 83.0679 305.834 83.0679 299.329 83.0679H264.841C258.337 83.0679 255.084 83.0679 252.653 84.4904C250.221 85.9129 248.413 89.1318 244.807 95.58C235.331 112.495 217.926 134.881 188.571 153.956C188.571 153.956 202 176.519 221 167.5" stroke="black" stroke-width="8" stroke-linecap="round" stroke-linejoin="round"/>
<path d="M299.818 99.6479C303.351 107.913 318.678 127.382 335.511 144.401C341.715 150.683 344.822 153.819 344.396 159.145C343.98 164.462 341.382 166.237 336.187 169.788C324.382 177.836 306.364 182.716 282.091 182.716C257.818 182.716 239.8 177.846 227.985 169.788C222.79 166.237 220.192 164.462 219.776 159.145C219.36 153.819 222.467 150.683 228.671 144.401C245.504 127.382 260.841 107.913 264.364 99.6479" stroke="black" stroke-width="8" stroke-linecap="round" stroke-linejoin="round"/>
</g>
<defs>
<clipPath id="clip0_1102_397">
<rect width="390" height="197" fill="white"/>
</clipPath>
</defs>
</svg>
